<?xml version="1.0" standalone="no"?><!DOCTYPE svg PUBLIC "-//W3C//DTD SVG 1.1//EN" "http://www.w3.org/Graphics/SVG/1.1/DTD/svg11.dtd"><svg t="1623121536877" class="icon" viewBox="0 0 1024 1024" version="1.1" xmlns="http://www.w3.org/2000/svg" p-id="109013" xmlns:xlink="http://www.w3.org/1999/xlink" width="24" height="24"><defs><style type="text/css"></style></defs><path d="M899.86048 120.17152A172.288 172.288 0 0 0 772.608 67.49184H251.42272a172.29312 172.29312 0 0 0-127.2832 52.67968A173.7728 173.7728 0 0 0 71.68 247.99232v523.3664a173.75744 173.75744 0 0 0 52.45952 127.81568 172.29824 172.29824 0 0 0 127.2832 52.67968H772.608a179.48672 179.48672 0 0 0 179.712-180.49536V247.99232a173.76768 173.76768 0 0 0-52.45952-127.8208zM260.87936 462.6432l-72.23808-50.08896 134.144-193.4592 72.23808 50.95936z m295.83872 354.09408H467.28192v-234.91584h89.43616v234.91584z m206.40256-348.90752l-134.144-198.656 72.2432-51.81952 133.2992 197.77024z" fill="#515151" p-id="109014"></path></svg>