<?xml version="1.0" standalone="no"?><!DOCTYPE svg PUBLIC "-//W3C//DTD SVG 1.1//EN" "http://www.w3.org/Graphics/SVG/1.1/DTD/svg11.dtd"><svg t="1623119580876" class="icon" viewBox="0 0 1024 1024" version="1.1" xmlns="http://www.w3.org/2000/svg" p-id="21418" xmlns:xlink="http://www.w3.org/1999/xlink" width="24" height="24"><defs><style type="text/css"></style></defs><path d="M1024 904.192q0 12.288-11.264 32.768t-34.304 39.424-56.832 33.28T843.776 1024H181.248q-45.056 0-78.848-14.336t-56.832-33.28-34.304-39.424T0 904.192l90.112-482.304q0-25.6 17.92-43.008t42.496-17.408q7.168 2.048 16.384 5.12 8.192 2.048 19.456 5.12l24.576 7.168v-79.872q0-61.44 23.552-116.224t64.512-95.232 95.744-64T512 0t117.248 23.552 95.744 64 64.512 95.232 23.552 116.224v79.872l24.576-7.168q11.264-3.072 19.456-5.12 9.216-3.072 16.384-5.12 25.6 0 43.008 17.408t17.408 43.008zM240.64 572.416q25.6 0 43.008-17.408T301.056 512q0-17.408-8.192-30.72t-21.504-21.504V512h-60.416v-52.224Q181.248 476.16 181.248 512q0 25.6 17.408 43.008t41.984 17.408z m30.72-179.2Q321.536 404.48 384 413.184t128 8.704 128-8.704 113.664-19.968v-84.992q0-51.2-18.944-96.256t-51.712-78.848-76.8-53.248T512 60.416t-93.696 19.456-76.288 53.248-51.712 78.848-18.944 96.256v84.992z m512 179.2q25.6 0 43.008-17.408T843.776 512q0-17.408-8.192-30.72t-22.528-21.504V512h-59.392v-52.224q-14.336 8.192-22.528 21.504T722.944 512q0 25.6 17.92 43.008t42.496 17.408z" p-id="21419"></path></svg>