<?xml version="1.0" standalone="no"?><!DOCTYPE svg PUBLIC "-//W3C//DTD SVG 1.1//EN" "http://www.w3.org/Graphics/SVG/1.1/DTD/svg11.dtd"><svg t="1623119864745" class="icon" viewBox="0 0 1024 1024" version="1.1" xmlns="http://www.w3.org/2000/svg" p-id="35927" xmlns:xlink="http://www.w3.org/1999/xlink" width="24" height="24"><defs><style type="text/css"></style></defs><path d="M275.2 91.52a64 64 0 0 1 11.52 42.24h8.96c0-40.32 22.4-58.24 49.92-58.24v-8.96c-25.6 0.64-48.64-17.28-48.64-57.6V0h-9.6v8.96c0 40.32-22.4 58.24-49.92 58.24v8.96a48 48 0 0 1 37.76 15.36zM213.76 390.4h12.8c0-45.44 15.36-89.6 81.92-90.88v-12.16a77.44 77.44 0 0 1-81.92-89.6v-12.8h-12.8v12.8c0 57.6-32.64 89.6-78.08 89.6v13.44c70.4 0 78.08 32 78.08 89.6zM1024 320a306.56 306.56 0 0 0-516.48-224l433.28 433.28A305.28 305.28 0 0 0 1024 320zM82.56 776.32a128 128 0 0 0-30.72 145.92v8.32l-51.84 56.32 37.12 37.12 53.12-53.12a128 128 0 0 0 151.04 0L256 960l336.64-294.4L384 456.96zM945.28 624v-12.8h-14.08v12.8c0 57.6-32 89.6-71.68 89.6h-6.4v14.08h6.4c39.68 0 71.68 32 71.68 89.6h12.8c0-57.6 32-89.6 71.68-89.6H1024v-14.08h-6.4c-40.32 0-72.32-32-72.32-89.6zM464.64 145.28a304.64 304.64 0 0 0-42.24 256L634.24 614.4a304.64 304.64 0 0 0 256-42.24z" p-id="35928"></path></svg>