<?xml version="1.0" standalone="no"?><!DOCTYPE svg PUBLIC "-//W3C//DTD SVG 1.1//EN" "http://www.w3.org/Graphics/SVG/1.1/DTD/svg11.dtd"><svg t="1623118972255" class="icon" viewBox="0 0 1024 1024" version="1.1" xmlns="http://www.w3.org/2000/svg" p-id="33480" xmlns:xlink="http://www.w3.org/1999/xlink" width="24" height="24"><defs><style type="text/css"></style></defs><path d="M420.7616 415.3856c0 40.2944-32.3072 73.0112-72.192 73.0112H123.392C83.5072 488.3968 51.2 455.68 51.2 415.3856V187.6992c0-40.3456 32.3072-73.0112 72.192-73.0112h225.1776c39.8848 0 72.192 32.6656 72.192 73.0112v227.6864z m0 484.4032c0 40.3456-32.3072 73.0112-72.192 73.0112H123.392C83.5072 972.8 51.2 940.1344 51.2 899.7888v-227.6864c0-19.3536 7.6288-37.888 21.1456-51.6096 13.568-13.7216 31.8976-21.4016 51.0464-21.4016h225.1776c19.1488 0 37.5296 7.68 51.0464 21.4016 13.568 13.6704 21.1456 32.256 21.1456 51.6096v227.6864z m314.88-369.0496a71.2704 71.2704 0 0 1-51.0464-21.2992L519.6288 342.528a72.9088 72.9088 0 0 1-21.0944-51.6096c0-19.5584 7.4752-37.888 21.0944-51.6096l164.9664-166.8608c13.568-13.7216 31.744-21.2992 51.0464-21.2992 19.3536 0 37.4784 7.5776 51.0464 21.2992l165.0176 166.8608c28.16 28.5184 28.16 74.7008 0 103.2192L786.688 509.44a71.2704 71.2704 0 0 1-51.0464 21.2992z m0-450.3552a42.8032 42.8032 0 0 0-30.6176 12.8l-164.9664 166.8096a43.7248 43.7248 0 0 0-12.6464 30.976c0 11.776 4.5056 22.7328 12.6464 30.976l164.9664 166.8096a44.1856 44.1856 0 0 0 61.2352 0l165.0176-166.8096a44.1856 44.1856 0 0 0 0-61.952L766.2592 93.184a42.7008 42.7008 0 0 0-30.6176-12.8z m164.1984 819.4048c0 40.3456-32.3072 73.0112-72.192 73.0112h-225.1776c-19.1488 0-37.5296-7.68-51.0464-21.4016a73.4208 73.4208 0 0 1-21.1456-51.6096v-227.6864c0-19.3536 7.6288-37.888 21.1456-51.6096s31.8976-21.4016 51.0464-21.4016h225.1776c19.1488 0 37.5296 7.68 51.0464 21.4016 13.568 13.6704 21.1456 32.256 21.1456 51.6096v227.6864z" p-id="33481"></path></svg>