<?xml version="1.0" standalone="no"?><!DOCTYPE svg PUBLIC "-//W3C//DTD SVG 1.1//EN" "http://www.w3.org/Graphics/SVG/1.1/DTD/svg11.dtd"><svg t="1623118634643" class="icon" viewBox="0 0 1024 1024" version="1.1" xmlns="http://www.w3.org/2000/svg" p-id="20067" xmlns:xlink="http://www.w3.org/1999/xlink" width="24" height="24"><defs><style type="text/css"></style></defs><path d="M790.743456 1023.998c-11.319978-22.663956-31.873938-45.105912-32.435937-68.039867-3.147994-130.867744-3.909992-261.921488-0.309999-392.769233 1.341997-48.825905 18.391964-97.04981 24.425952-146.015715 1.727997-14.011973-6.011988-33.685934-16.233968-43.979914-107.55179-108.223789-99.441806-272.281468 19.301962-364.789287C793.999449 3.875992 821.063396-3.947992 843.125353 12.499976c33.875934 25.253951 62.967877 62.083879 77.875848 110.499784 19.127963 62.119879 8.989982 120.975764 2.869995 143.23772s-34.991932 71.90786-61.62188 95.011814c-23.915953 20.749959-31.041939 44.531913-27.379947 57.789888 21.795957 78.957846 29.593942 210.13959 29.133943 306.7294-0.349999 74.629854 2.599995 149.413708-1.541996 223.821563-1.407997 25.291951-20.013961 49.631903-30.75394 74.407855h-40.96392zM137.500731 450.999119c-17.389966-83.665837-19.573962-262.935486-4.563991-310.301394 21.333958-67.319869 17.215966-50.717901 44.167914-95.335814 9.105982-15.083971 31.465939-22.151957 47.769907-32.883935 7.687985 19.105963 21.991957 38.189925 22.063957 57.327888 1.173998 299.663415 0.867998 599.338829-0.557999 899.006244-0.084 18.433964-12.275976 36.795928-18.833963 55.187892h-40.95992c-6.435987-25.36195-18.101965-50.655901-18.457964-76.111851-2.331995-168.299671 37.937926-297.817418 14.859971-404.55321L137.500731 450.999119zM576.535874 9.451982c8.211984 19.261962 22.847955 38.313925 23.491954 57.831887 2.683995 80.081844 4.629991 160.545686-0.939998 240.32553-1.807996 25.987949-23.259955 54.323894-42.973916 74.501855-32.291937 33.071935-42.981916 77.207849-23.191955 117.033771 9.349982 18.821963 16.901967 40.86392 17.151967 61.53788 1.529997 127.90575 0.589999 255.8495 0.861998 383.77725 0.08 36.677928-2.551995 69.617864-51.869899 70.327863-51.3059 0.753999-56.38589-31.909938-56.19589-71.68986 0.629999-127.92375 0.008-255.8595 0.527999-383.78725 0.06-14.939971 0.821998-31.531938 7.101986-44.543913 36.181929-74.977854 32.285937-88.493827-28.995943-144.689718-16.457968-15.101971-29.969941-41.859918-30.98194-63.901875-3.651993-79.999844-2.749995-160.309687-0.415999-240.41153 0.557999-19.331962 13.191974-38.313925 20.27196-57.453888 6.347988 1.221998 12.697975 2.447995 19.049963 3.675993 1.369997 20.67996 3.769993 41.347919 3.931993 62.035878 0.505999 68.225867-0.953998 136.491733 1.229997 204.653601 0.407999 12.931975 13.959973 25.44595 21.441958 38.153925 6.859987-13.081974 19.319962-26.011949 19.671962-39.259923 1.939996-73.289857 0.629999-146.667714 1.157998-220.00757 0.124-15.831969 3.183994-31.641938 4.89399-47.457908 5.637989-0.799998 11.289978-1.585997 16.941967-2.379995 4.369991 14.809971 12.241976 29.563942 12.509976 44.449913 1.331997 71.61986-0.635999 143.30772 1.553997 214.88358 0.503999 16.935967 12.569975 33.517935 19.307962 50.267902 7.601985-17.457966 21.273958-34.749932 21.775957-52.407897 2.327995-82.825838 1.029998-165.751676 1.029998-248.641515 7.221986-2.279996 14.449972-4.553991 21.659958-6.823986z" fill="" p-id="20068"></path></svg>