<?xml version="1.0" standalone="no"?><!DOCTYPE svg PUBLIC "-//W3C//DTD SVG 1.1//EN" "http://www.w3.org/Graphics/SVG/1.1/DTD/svg11.dtd"><svg t="1623121209529" class="icon" viewBox="0 0 1024 1024" version="1.1" xmlns="http://www.w3.org/2000/svg" p-id="97039" xmlns:xlink="http://www.w3.org/1999/xlink" width="24" height="24"><defs><style type="text/css"></style></defs><path d="M1002.87977214 257.69489614c16.21068392 23.17621215 19.88341698 49.26528155 11.0181992 78.39385425L846.47200158 887.50529524c-7.72540405 25.96242345-23.30285813 47.74552996-46.60571624 65.34931952C776.69007322 970.45840432 751.86746347 979.32362207 725.39845615 979.32362207H163.97687982c-31.28155409 0-61.29664853-10.89155325-90.29857522-32.54801379-29.00192668-21.78310652-49.13863561-48.37875979-60.53677271-80.04025179-9.75173954-27.10223716-10.13167744-52.93801463-1.26645971-77.2540405 0-1.64639758 0.63322984-7.0921742 1.77304356-16.33732988 1.2664597-9.37180164 2.0263355-16.71726776 2.40627341-22.54298233 0.37993789-3.1661492-0.25329193-7.59875809-1.77304357-13.0445347-1.64639758-5.44577661-2.15298147-9.4984476-1.77304354-11.90472099 0.75987582-4.43260888 2.4062734-8.73857179 4.81254678-12.79124277s5.69906857-8.86521777 10.00503149-14.31099438c4.17931697-5.44577661 7.59875809-10.2583234 10.00503146-14.31099439 9.37180164-15.32416212 18.49031135-33.94111947 27.35552909-55.72422595s14.94422423-40.27341782 18.23701941-55.72422593c1.2664597-4.05267099 1.2664597-10.13167744 0.25329194-18.23701943s-1.1398137-13.80441051-0.25329194-16.9705597c1.2664597-4.43260888 4.55925486-10.13167744 10.38496936-16.9705597 5.57242258-6.96552823 9.11850969-11.5247831 10.38496939-13.93105652 8.61192584-14.56428631 16.97055973-33.30788962 25.58248555-55.97751785 8.61192584-22.66962828 13.55111857-40.90664769 15.19751617-54.7110582 0.37993789-3.67273308-0.12664595-10.13167744-1.51975162-19.50347908-1.39310566-9.37180164-1.2664597-14.94422423 0.25329194-16.97055971 1.64639758-5.19248469 6.20565246-11.5247831 13.42447263-18.6169573 7.34546615-7.0921742 11.77807504-11.65142906 13.42447258-13.67776456 7.72540405-10.51161535 16.33732986-27.60882102 25.83577749-51.41826301 9.4984476-23.68279604 15.07087021-43.31292109 16.7172678-58.76372918 0.37993789-3.1661492-0.25329193-8.48527985-1.77304357-15.45080811-1.64639758-7.0921742-2.0263355-12.41130485-1.26645968-16.08403791 0.75987582-3.1661492 2.65956531-6.96552823 5.44577664-11.01819924 2.78621128-4.05267099 6.58559034-8.73857179 11.01819921-13.93105646 4.43260888-5.19248469 7.97869597-9.4984476 10.38496937-12.79124279 3.1661492-4.81254679 6.58559034-11.01819923 10.00503146-18.61695731s6.58559034-14.56428631 9.11850972-21.27652264c2.65956531-6.71223631 5.82571452-13.93105645 9.75173956-21.90975248 3.79937907-7.97869597 7.85205003-14.3109944 11.90472096-19.50347907 4.05267099-5.06583872 9.4984476-9.8783855 16.08403795-14.31099437s13.93105645-6.8388823 21.90975246-7.09217422c7.97869597-0.25329193 17.4771436 0.88652177 28.87528073 3.2927952l-0.63322982 1.77304351c15.32416212-3.67273308 25.70913152-5.44577661 31.02826215-5.44577661H837.48013786c30.01509441 0 53.06466063 11.3981371 69.4019905 34.06776541 16.21068392 22.79627425 19.88341698 49.13863561 11.01819925 79.02708404L751.10758767 709.18777225c-14.56428631 48.25211383-29.00192668 79.28037598-43.56621301 93.4647244-14.43764037 13.93105645-40.40006383 21.02323071-78.1405623 21.0232307H100.52724983c-11.01819923 0-18.74360326 3.03950322-23.17621217 9.1185097-4.43260888 6.58559034-4.55925486 15.19751616-0.63322984 26.08906942 9.75173954 28.36869684 38.8803122 42.55304524 87.63900989 42.55304527H726.03168598c11.77807504 0 23.17621215-3.1661492 34.06776542-9.49844761 11.01819923-6.3322984 17.98372746-14.69093229 21.27652263-25.20254764l182.49683994-600.55518047c2.78621128-8.99186373 3.79937907-20.51664682 3.03950324-34.70099524 15.45080813 6.20565246 27.48217507 14.81757826 35.96745493 26.21571536z m-697.81928392 157.0410004c-1.64639758 5.19248469-1.2664597 9.8783855 1.26645967 13.67776455 2.4062734 3.79937907 6.58559034 5.69906857 12.15801292 5.69906857h369.93287265c5.19248469 0 10.51161535-1.89968952 15.45080811-5.69906857 5.06583872-3.79937907 8.48527985-8.48527985 10.0050315-13.67776455l12.79124275-38.88031218c1.64639758-5.19248469 1.2664597-9.8783855-1.26645967-13.67776456-2.4062734-3.79937907-6.58559034-5.69906857-12.15801291-5.69906856H343.3075706c-5.19248469 0-10.51161535 1.89968952-15.45080814 5.69906856-5.06583872 3.79937907-8.48527985 8.48527985-10.00503145 13.67776456l-12.79124279 38.88031218z m50.40509526-155.90118666c-1.64639758 5.19248469-1.2664597 9.8783855 1.2664597 13.67776455 2.4062734 3.79937907 6.58559034 5.69906857 12.15801295 5.69906857h369.93287263c5.19248469 0 10.51161535-1.89968952 15.45080813-5.69906857 5.06583872-3.79937907 8.48527985-8.48527985 10.00503146-13.67776455l12.79124277-38.8803122c1.64639758-5.19248469 1.2664597-9.8783855-1.26645969-13.67776454-2.4062734-3.79937907-6.58559034-5.69906857-12.15801295-5.69906856h-369.80622667c-5.19248469 0-10.51161535 1.89968952-15.45080807 5.69906856-5.06583872 3.79937907-8.48527985 8.48527985-10.00503151 13.67776454l-12.91788875 38.8803122z" p-id="97040"></path></svg>