<?xml version="1.0" standalone="no"?><!DOCTYPE svg PUBLIC "-//W3C//DTD SVG 1.1//EN" "http://www.w3.org/Graphics/SVG/1.1/DTD/svg11.dtd"><svg t="1623120736251" class="icon" viewBox="0 0 1655 1024" version="1.1" xmlns="http://www.w3.org/2000/svg" p-id="76810" xmlns:xlink="http://www.w3.org/1999/xlink" width="38.7890625" height="24"><defs><style type="text/css"></style></defs><path d="M733.938696 507.54649 666.511455 315.076844 114.705989 315.076844 47.27875 507.54649 0 620.541708 0 882.661896 27.561154 882.661896 27.561154 959.014833C27.561154 971.743768 41.785408 988.304463 54.518275 988.304463L121.598244 988.304463C134.331112 988.304463 141.407332 971.743768 141.407332 959.014833L141.407332 882.661896 635.293649 882.661896 635.293649 959.014833C635.293649 971.743768 648.871566 988.304463 661.599516 988.304463L726.716873 988.304463C739.444823 988.304463 745.638605 971.743768 745.638605 959.014833L745.638605 882.661896 774.728531 882.661896 774.728531 620.540731 733.938696 507.54649ZM149.216456 359.091468 628.680783 359.091468 714.804468 626.971601 60.947178 626.971601 149.212522 359.091468 149.216456 359.091468 149.216456 359.091468ZM145.426011 801.302583C116.526937 801.302583 93.096611 777.878166 93.096611 748.978105 93.096611 720.078045 116.521034 696.648704 145.426011 696.648704 174.325085 696.648704 197.751475 720.078045 197.751475 748.978105 197.751475 777.878166 174.326069 801.302583 145.426011 801.302583L145.426011 801.302583 145.426011 801.302583ZM635.386116 801.302583C606.487048 801.302583 583.061638 777.878166 583.061638 748.978105 583.061638 720.078045 606.486063 696.648704 635.386116 696.648704 664.290115 696.648704 687.716502 720.078045 687.716502 748.978105 687.716502 777.878166 664.290115 801.302583 635.386116 801.302583L635.386116 801.302583 635.386116 801.302583ZM1596.264164 121.464793C1596.264164 54.379103 1538.193833 0 1466.564915 0L844.005786 0C772.375615 0 714.307789 54.380347 714.307789 121.464793L708.923077 217.474261 798.367397 443.173352C818.018233 492.759221 857.319889 591.930951 857.319889 591.930951L857.319897 962.747865C857.319897 962.747865 913.964174 962.138663 914.561898 962.747865 945.687174 962.747865 970.915722 937.51682 970.915722 906.39653L970.915722 881.741816C970.915722 878.122945 970.502814 874.605119 969.850392 871.175861L1340.722806 871.175861C1340.070384 874.603867 1339.657476 878.121693 1339.657476 881.741816L1339.657476 906.39653C1339.657476 937.518064 1364.887276 962.747865 1396.011299 962.747865L1477.0186 962.747865C1508.141379 962.747865 1533.372424 937.51682 1533.372424 906.39653L1533.372416 881.741816C1533.372416 878.122945 1532.959508 874.605119 1532.307094 871.175861L1622.203762 871.175861 1596.264164 121.464793ZM796.765444 438.867448C799.366987 355.906922 807.632463 187.379113 807.632463 187.379113 807.632463 119.500044 832.352051 92.651047 894.840864 92.651047L1415.384292 92.651047C1477.873105 92.651047 1502.592693 119.500044 1502.592693 187.379113L1512.591053 495.157697 820.474982 495.157697C820.466924 495.157697 796.722334 440.242231 796.765444 438.867448ZM1462.147671 753.700431C1422.812893 753.700431 1390.925422 721.812968 1390.925422 682.478182 1390.925422 643.143404 1422.812893 611.255934 1462.147671 611.255934 1501.482457 611.255934 1533.369927 643.143404 1533.369927 682.478182 1533.369927 721.812968 1501.482457 753.700431 1462.147671 753.700431ZM857.567878 756.969251C897.046843 756.969251 929.04667 725.081781 929.04667 685.747003 929.04667 646.412217 897.046843 614.524747 857.567878 614.524747 857.512574 614.524747 857.474237 756.969251 857.567878 756.969251Z" p-id="76811"></path></svg>