<?xml version="1.0" standalone="no"?><!DOCTYPE svg PUBLIC "-//W3C//DTD SVG 1.1//EN" "http://www.w3.org/Graphics/SVG/1.1/DTD/svg11.dtd"><svg t="1623120304120" class="icon" viewBox="0 0 1024 1024" version="1.1" xmlns="http://www.w3.org/2000/svg" p-id="57068" xmlns:xlink="http://www.w3.org/1999/xlink" width="24" height="24"><defs><style type="text/css"></style></defs><path d="M967.936123 432.841126c-1.113357-11.165294-5.997598-22.104437-13.539364-30.452569-0.89744-1.022283-1.818415-2.033309-2.783393-2.99931 1.487887-14.697747 0.806365-28.66997-0.204661-41.573861-2.942005-31.407314-8.984628-56.930617-13.118785-74.718749-4.350075-17.776875-7.496741-27.738761-7.496741-27.738761s2.396583 10.16757 5.815449 28.102035c3.452635 17.890462 7.768941 43.686988 9.858532 74.719772 0.590448 11.517311 0.931209 23.88806-0.363274 36.506449-1.477654-1.225921-2.964518-2.429329-4.430916-3.236718-2.362814-1.419326-4.066619-2.714831-6.951319-4.226255l-7.7935-3.418866c-2.7486-0.828878-5.668093-1.284249-8.495488-1.885953-2.930749-0.181125-5.975085-0.023536-8.928347 0.249687-5.79396 1.408069-11.643178 3.88447-15.584953 8.405437-8.439206 8.42795-11.346419 20.821211-8.677637 31.986505 0.329505 2.862187 2.043542 5.384637 3.1569 8.03193 1.658779 2.329045 3.431146 4.758374 5.577019 6.621814 2.419096 1.544169 4.373611 3.748371 7.281847 4.567016 2.657526 0.953721 5.679349 2.419096 7.951089 2.452865 9.768481 2.340301 22.729677-0.067538 29.66974-8.473999 6.509251-7.474228 9.336646-16.310477 11.086499-24.750707 5.157463 6.621814 8.56405 14.436804 9.496282 22.797215 1.13587 9.518794-0.534166 19.355837-3.702322 28.624944-3.14769 9.29162-7.803733 18.105357-13.301957 26.238594-5.372358 8.201799-11.552104 15.778358-18.128893 22.785959-26.409486 28.034497-57.431014 47.979758-85.578074 60.906162-14.142092 6.39464-27.431769 11.631922-39.551808 15.311731-5.986341 1.977028-11.779278 3.294023-17.049305 4.816702-5.362124 1.158383-10.29139 2.226714-14.732539 3.180436-8.985652 1.511423-16.050558 2.759857-20.924565 3.181459-4.850471 0.567935-7.450692 0.886183-7.450692 0.886183s2.601244-0.159636 7.486508-0.409322c4.90573-0.147356 12.062733-0.817622 21.160949-1.954515 4.520967-0.760317 9.530051-1.590218 14.982226-2.51017 5.361101-1.260713 11.267625-2.329045 17.447371-4.03285 12.415774-3.112897 26.137287-7.758708 40.653909-13.948687 28.863375-12.4608 61.485353-31.328519 89.134063-60.20315 6.883781-7.179516 13.414521-15.015995 19.151176-23.603581 5.861498-8.495488 10.926864-17.821901 14.470573-27.942399C967.085756 455.05915 969.151811 444.018699 967.936123 432.841126zM933.632853 430.830329c-5.679349 6.053879-14.198374 7.906064-23.285333 5.861498-8.382924-1.613754-15.744589-7.293103-17.424858-16.016789-1.976004-8.337899 0.476861-18.287505 6.826476-24.307615 2.895957-3.373841 7.099698-4.874007 11.18883-5.963829 2.180666-0.102331 4.384867-0.215918 6.588045-0.102331 2.215458 0.567935 4.453429 0.886183 6.668886 1.556449l6.462179 2.929726c1.727341 0.852414 4.261047 2.669806 6.339382 3.965312 2.384303 1.339508 3.88447 2.975774 5.770424 4.474918 0.636496 0.488117 1.215688 1.056052 1.817392 1.613754-0.181125 0.977257-0.249687 1.942235-0.443092 2.908236C942.334026 416.154072 939.288666 424.752914 933.632853 430.830329z" p-id="57069"></path><path d="M642.36614 465.475384m-79.103616 0a77.302 77.302 0 1 0 158.207231 0 77.302 77.302 0 1 0-158.207231 0Z" p-id="57070"></path><path d="M319.692113 276.734742c50.217728 0 90.905406-40.687678 90.905406-90.89415s-40.687678-90.906429-90.905406-90.906429c-50.195216 0-90.895173 40.699957-90.895173 90.906429S269.49792 276.734742 319.692113 276.734742z" p-id="57071"></path><path d="M788.090059 583.449285c-9.711176-16.653285-22.206768-5.54325-22.206768-5.54325s-70.776973 58.282405-177.641863 26.352181C481.376539 572.340273 439.734116 421.061848 430.021917 396.0942c-9.700943-24.989137-27.748994-41.641399-48.570205-37.47245-69.381184 5.554506-98.460476-4.351098-127.674844-16.664541-26.375717-11.097756-54.125735-61.054541-98.528014-29.134551C41.431621 416.904155 34.400484 554.211381 49.768497 569.568137c18.037818 18.037818 37.462217 4.157693 41.642422-16.651238 11.086499-44.413536 34.69008-97.142457 70.76674-133.229351-73.560366 237.322104 23.581068 471.856721 36.07666 492.665653 12.494569 20.821211 33.3035 11.109012 38.869263-2.772136-22.774703-215.655641 11.337209-292.953122 12.495592-295.576879-24.978904 156.821675 0 284.46889 0 284.46889s8.325619 22.217001 27.737738 20.832468c19.435655-1.396813 30.544667-18.050098 26.386974-36.087916-12.494569-233.159294 65.211211-371.943151 88.814792-413.573293 29.147854 98.53927 91.598184 131.842771 108.25147 152.676261-38.870286 151.266146-4.168949 224.816279 4.15667 262.283612 8.337899 37.473473 22.206768 40.244586 38.870286 41.630143 16.651238 1.385557 26.364461-19.423375 22.206768-36.07666-11.121292-68.000743 2.759857-111.027699 2.759857-130.452097 37.483706 72.163553 81.885985 131.837654 95.767134 151.262052 13.880125 19.435655 36.086893 20.808932 45.787836 15.266705 9.722432-5.54325 20.832468-18.037818 11.109012-36.07666-65.222467-91.593068-58.293661-174.865633-61.065797-217.881332C742.27971 659.781788 797.802258 600.101547 788.090059 583.449285z" p-id="57072"></path><path d="M994.198254 178.559768l0 0.011256c-5.610788-5.815449-12.654204-9.518794-19.628036-11.892865l-0.203638-0.078795-0.170892-0.023536-0.272199-0.078795 0.124843 0.033769-0.1361-0.033769c-7.826246-1.703805-16.425088-2.146896-24.716938 0.37453l0.023536-0.022513-0.023536 0c-4.111644 1.249457-7.984858 3.180436-11.438517 5.644557l-1.441838 1.079588c-2.862187 2.27174-5.327332 4.860704-7.497765 7.644097l0 0.011256c-4.963035 6.474458-8.245801 13.767562-10.471492 21.149693l0 0.011256-0.011256 0.023536c-0.828878 2.908236-1.441838 5.849218-2.010797 8.80248l-0.1361-0.1361c-3.679809-3.88447-7.837502-7.212262-12.177344-10.144034l-0.022513-0.022513 0 0c-4.384867-2.930749-9.098215-5.577019-14.22191-7.474228l0 0.011256c-5.111414-1.908466-10.609639-3.202948-16.344247-3.294023l0.010233 0c-5.701862-0.113587-11.529591 0.908696-16.890692 3.248997l0 0c-3.78214 1.590218-7.258311 3.747347-10.393721 6.257517-1.294482 1.01205-2.51017 2.079358-3.692089 3.192715-4.076852 3.883447-7.66661 8.610098-9.984399 14.129812-2.362814 5.498224-3.270487 11.608386-2.691295 17.538445l0 0c0.51063 5.91778 2.397606 11.483542 4.964058 16.448624 1.862417 3.566222 4.02057 6.837732 6.450922 9.882068 4.339842 5.497201 9.450233 10.222829 14.722306 14.414291l0 0.011256c8.29185 6.520507 17.378809 11.676947 26.647917 16.107863l0.045025 0.011256-0.033769-0.011256c18.615986 8.848529 38.4845 14.539134 58.668191 17.969257l0.023536 0 0.726547 0.147356 1.316995 0.193405 1.612731-1.408069c5.316076-4.588505 10.177803-9.541307 14.789844-14.585183 4.679579-5.065366 9.109472-10.371208 13.31219-15.857153 8.40646-10.904351 16.016789-22.581298 22.104437-35.235502l0 0c3.010567-6.359848 5.656837-12.994965 7.507998-20.048615 1.852184-7.054673 2.759857-14.641465 1.782599-22.433942l0 0c-0.49835-3.908006-1.521656-7.861038-3.282766-11.585873-1.215688-2.567475-2.737344-4.952802-4.486174-7.179516C995.902058 180.387393 995.062947 179.456185 994.198254 178.559768z" p-id="57073"></path><path d="M832.469825 216.998219 832.469825 216.986963 832.469825 216.986963Z" p-id="57074"></path></svg>