<?xml version="1.0" standalone="no"?><!DOCTYPE svg PUBLIC "-//W3C//DTD SVG 1.1//EN" "http://www.w3.org/Graphics/SVG/1.1/DTD/svg11.dtd"><svg t="1623120694234" class="icon" viewBox="0 0 1024 1024" version="1.1" xmlns="http://www.w3.org/2000/svg" p-id="74671" xmlns:xlink="http://www.w3.org/1999/xlink" width="24" height="24"><defs><style type="text/css"></style></defs><path d="M232.12032 864.668672c0 29.697024 24.064 53.751808 53.747712 53.751808l174.845952 0L460.713984 572.077056 232.12032 572.077056 232.12032 864.668672 232.12032 864.668672zM635.650048 918.421504l174.841856 0c29.684736 0 53.743616-24.064 53.743616-53.756928l0-292.58752L635.650048 572.077056 635.650048 918.421504 635.650048 918.421504zM851.113984 363.523072 674.906112 363.523072l-39.256064 0-174.94016 0-39.277568 0L245.241856 363.523072c-29.688832 0-53.752832 24.064-53.752832 53.750784l0 95.542272 229.943296 0 39.277568 0 174.94016 0 39.250944 0 229.968896 0 0-95.542272C904.870912 387.587072 880.802816 363.523072 851.113984 363.523072L851.113984 363.523072zM482.729984 572.077056l130.876416 0 0 346.344448L482.729984 918.421504 482.729984 572.077056 482.729984 572.077056zM386.123776 335.343616l324.103168 0c27.787264 0 95.690752-34.625536 95.690752-113.137664 0-38.11328-27.193344-63.686656-67.675136-63.686656-40.470528 0-94.947328 25.87136-138.980352 71.149568-13.488128-12.767232-31.565824-20.72064-51.572736-20.72064-19.766272 0-37.623808 7.788544-51.049472 20.274176-43.96544-44.969984-98.197504-70.703104-138.525696-70.703104-40.47872 0-67.683328 25.572352-67.683328 63.681536C290.435072 300.71808 358.345728 335.343616 386.123776 335.343616L386.123776 335.343616zM634.43968 272.661504c35.182592-38.438912 78.309376-58.571776 103.80288-58.571776 12.118016 0 12.66176 11.789312 11.569152 17.097728-5.139456 24.940544-33.639424 46.166016-42.713088 48.587776l-69.517312 0c-1.691648 0-3.209216-0.999424-3.888128-2.538496C633.00608 275.700736 633.310208 273.912832 634.43968 272.661504L634.43968 272.661504zM358.114304 214.088704c25.485312 0 68.627456 20.133888 103.801856 58.571776 1.134592 1.252352 1.417216 3.039232 0.746496 4.570112-0.683008 1.543168-2.19648 2.538496-3.884032 2.538496l-69.517312 0c-9.081856-2.419712-37.573632-23.647232-42.7264-48.587776C345.452544 225.87904 346.00448 214.088704 358.114304 214.088704L358.114304 214.088704zM358.114304 214.088704" p-id="74672"></path></svg>