<?xml version="1.0" standalone="no"?><!DOCTYPE svg PUBLIC "-//W3C//DTD SVG 1.1//EN" "http://www.w3.org/Graphics/SVG/1.1/DTD/svg11.dtd"><svg t="1623121122034" class="icon" viewBox="0 0 1024 1024" version="1.1" xmlns="http://www.w3.org/2000/svg" p-id="91502" xmlns:xlink="http://www.w3.org/1999/xlink" width="24" height="24"><defs><style type="text/css"></style></defs><path d="M128 416v256h768v-96c0-54.4-41.6-96-96-96H512v96H352l-160-96v-32l160 96h128v-64h-64l-160-96c-64-32-128-12.8-128 32z m64-96c54.4 0 96-41.6 96-96s-41.6-96-96-96-96 41.6-96 96 41.6 96 96 96z m736-64v448H96V256H32v640h64V768h832v128h64V256h-64z" p-id="91503"></path></svg>