<?xml version="1.0" standalone="no"?><!DOCTYPE svg PUBLIC "-//W3C//DTD SVG 1.1//EN" "http://www.w3.org/Graphics/SVG/1.1/DTD/svg11.dtd"><svg t="1623118542662" class="icon" viewBox="0 0 1024 1024" version="1.1" xmlns="http://www.w3.org/2000/svg" p-id="17983" xmlns:xlink="http://www.w3.org/1999/xlink" width="24" height="24"><defs><style type="text/css"></style></defs><path d="M928.045 423.89c27.492-18.241 29.435-34.238 29.435-58.338V220.939c0-46.62-37.895-84.468-84.43-84.468H149.903c-46.53 0-84.425 37.848-84.425 84.468v144.612c0 24.101 2.292 43.71 31.11 59.22 19.65 9.252 65.299 35.867 65.299 85.481 0 56.358-33.487 74.82-62.569 84.689l-2.64 1.231c-28.2 17.628-31.2 46.883-31.2 58.649v144.57c0 46.571 37.896 84.51 84.426 84.51h723.149c46.534 0 84.43-37.939 84.43-84.51V654.82c0-31.24-8.64-42.786-30.672-59.087-49.703-25.559-65.741-46.445-65.741-85.482-0.001-39.173 14.896-58.428 66.976-86.363zM668.251 498.09c0 13.35-10.84 24.234-24.149 24.234h-96.319v23.881h96.32c13.307 0 24.148 10.884 24.148 24.234v24.06c0 13.35-10.84 24.324-24.149 24.324h-96.319v72.13c0 13.394-10.84 24.189-24.233 24.189h-24.145c-13.397 0-24.24-10.795-24.24-24.188v-72.131h-96.318c-13.303 0-24.145-10.974-24.145-24.324v-24.06c0-13.35 10.842-24.234 24.145-24.234h96.319v-23.88h-96.32c-13.302 0-24.144-10.885-24.144-24.235v-24.059c0-13.35 10.842-24.235 24.145-24.235h63.364l-80.11-85.963c-8.46-9.388-8.46-24.017 0-33.311l15.335-16.704c8.46-9.162 24.852-9.337 33.311 0l100.639 108 100.638-108.084c8.375-9.167 24.94-9.167 33.311 0.085l15.51 16.836c8.46 9.385 8.46 24.102 0 33.396l-79.839 85.745h63.096c13.308 0 24.15 10.884 24.15 24.235v24.06z" fill="" p-id="17984"></path></svg>