<?xml version="1.0" standalone="no"?><!DOCTYPE svg PUBLIC "-//W3C//DTD SVG 1.1//EN" "http://www.w3.org/Graphics/SVG/1.1/DTD/svg11.dtd"><svg t="1623120465187" class="icon" viewBox="0 0 1024 1024" version="1.1" xmlns="http://www.w3.org/2000/svg" p-id="66669" xmlns:xlink="http://www.w3.org/1999/xlink" width="24" height="24"><defs><style type="text/css"></style></defs><path d="M655.944 310.313c0-137.18-112.942-248.376-252.273-248.376-6.344 0-12.57 0.476-18.8 0.931H162.021v0.472H48.005v910.504h127.99V557.896h207.98c9.763 1.121 9.645 0.798 19.701 0.798 139.33-0.005 252.268-111.19 252.268-248.381zM383.969 429.901H175.995V189.916h207.98C444.768 192.768 500.5 248.361 500.5 308.91S444.764 427.023 383.97 429.9z m583.399 319.775c-4.045-8.09-15.181-17.311-15.181-17.311l-45.9-122.88c-9.53-23.291-37.582-35.574-49.819-35.574h-241.07c-12.247 0-40.279 12.283-49.812 35.574l-45.911 122.88s-11.11 9.22-15.191 17.31c-4.076 8.06-8.515 15.273-8.515 69.745 0 53.15 10.66 72.023 23.399 78.582l10.076 5.693v49.342c0 15.99 3.794 20.746 18.995 20.746h34.089c15.18 0 25.416 0.061 25.416-15.928v-47.99h255.98v47.99c0 15.99 10.219 15.928 25.4 15.928h34.099c15.19 0 18.985-4.756 18.985-20.746v-49.342l10.076-5.693c12.749-6.554 23.398-25.42 23.419-78.582 0.005-54.472-4.44-61.686-8.535-69.744z m-386.555-31.74c1.904-6.957 14.658-61.44 20.306-80.322 2.324-6.518 17.423-25.943 35.036-24.837h199.562c17.603-1.111 32.717 18.314 35 24.837 5.673 18.883 18.407 73.365 20.337 80.323 2.273 8.253-5.227 7.531-5.227 7.531H586.045c0-0.005-7.52 0.722-5.232-7.531z m4.935 133.392c-20.234 0-36.684-16.492-36.684-36.664 0-20.214 16.45-36.665 36.684-36.665 20.199 0 36.644 16.45 36.644 36.665 0.01 20.178-16.44 36.664-36.644 36.664z m301.507 0c-20.214 0-36.685-16.492-36.685-36.664 0-20.214 16.471-36.665 36.685-36.665 20.193 0 36.649 16.45 36.649 36.665 0 20.178-16.456 36.664-36.649 36.664z" p-id="66670"></path></svg>