<?xml version="1.0" standalone="no"?><!DOCTYPE svg PUBLIC "-//W3C//DTD SVG 1.1//EN" "http://www.w3.org/Graphics/SVG/1.1/DTD/svg11.dtd"><svg t="1623120231533" class="icon" viewBox="0 0 1024 1024" version="1.1" xmlns="http://www.w3.org/2000/svg" p-id="52759" xmlns:xlink="http://www.w3.org/1999/xlink" width="24" height="24"><defs><style type="text/css"></style></defs><path d="M927.343848 240.029982H66.934049V289.571054a188.395625 188.395625 0 0 0 187.907192 187.907192 188.395625 188.395625 0 0 0 187.628088-177.929202h484.944295a29.759531 29.759531 0 0 0 29.654867-29.689755 29.724643 29.724643 0 0 0-29.724643-29.829307z" p-id="52760"></path><path d="M235.094589 0m19.781541 0l-0.034889 0q19.781541 0 19.781541 19.781541l0 158.217437q0 19.781541-19.781541 19.781541l0.034889 0q-19.781541 0-19.781541-19.781541l0-158.217437q0-19.781541 19.781541-19.781541Z" p-id="52761"></path><path d="M331.595015 39.563081m19.78154 0l-0.034888 0q19.781541 0 19.781541 19.781541l0 118.654356q0 19.781541-19.781541 19.781541l0.034888 0q-19.781541 0-19.78154-19.781541l0-118.654356q0-19.781541 19.78154-19.781541Z" p-id="52762"></path><path d="M138.559275 79.126163m19.781541 0l-0.034888 0q19.781541 0 19.78154 19.78154l0 79.126163q0 19.781541-19.78154 19.781541l0.034888 0q-19.781541 0-19.781541-19.781541l0-79.126163q0-19.781541 19.781541-19.78154Z" p-id="52763"></path><path d="M314.185863 964.655378m29.654867 0l336.286192 0q29.654867 0 29.654867 29.654867l0 0.034888q0 29.654867-29.654867 29.654867l-336.286192 0q-29.654867 0-29.654867-29.654867l0-0.034888q0-29.654867 29.654867-29.654867Z" p-id="52764"></path><path d="M37.279182 519.623045a474.722088 474.722088 0 0 0 949.409288 0z m514.215393 140.947838H116.370457a19.781541 19.781541 0 0 1 0-39.563081h435.124118a19.781541 19.781541 0 1 1 0 39.563081z m356.10262 0h-118.619468a19.781541 19.781541 0 1 1 0-39.563081h118.619468a19.781541 19.781541 0 0 1 0 39.563081z" p-id="52765"></path></svg>