<?xml version="1.0" standalone="no"?><!DOCTYPE svg PUBLIC "-//W3C//DTD SVG 1.1//EN" "http://www.w3.org/Graphics/SVG/1.1/DTD/svg11.dtd"><svg t="1623120432682" class="icon" viewBox="0 0 1228 1024" version="1.1" xmlns="http://www.w3.org/2000/svg" p-id="65843" xmlns:xlink="http://www.w3.org/1999/xlink" width="28.78125" height="24"><defs><style type="text/css"></style></defs><path d="M1228.8 256c-3.413333-40.96-23.893333-78.506667-58.026667-102.4L1058.133333 75.093333l-3.413333-3.413333c-20.48-10.24-44.373333-3.413333-54.613333 13.653333-10.24 17.066667-6.826667 40.96 10.24 54.613334l112.64 75.093333 3.413333 6.826667c13.653333 10.24 20.48 23.893333 20.48 40.96V750.933333c-3.413333 23.893333-23.893333 44.373333-51.2 44.373334-23.893333 0-44.373333-20.48-44.373333-47.786667v-290.133333c-3.413333-71.68-64.853333-129.706667-136.533334-129.706667h-81.92V95.573333c0-51.2-44.373333-95.573333-95.573333-95.573333H218.453333C167.253333 0 122.88 44.373333 122.88 95.573333v849.92H37.546667c-23.893333 0-37.546667 17.066667-37.546667 40.96 0 20.48 20.48 37.546667 40.96 37.546667H918.186667c20.48-3.413333 37.546667-20.48 37.546666-40.96v-3.413333c-3.413333-20.48-20.48-37.546667-40.96-37.546667h-81.92V409.6h85.333334c27.306667 3.413333 51.2 23.893333 51.2 54.613333v290.133334c3.413333 68.266667 61.44 122.88 133.12 122.88 71.68 0 126.293333-58.026667 126.293333-126.293334V256z m-624.64 283.306667l-139.946667 163.84c-13.653333 17.066667-40.96 20.48-58.026666 3.413333-17.066667-13.653333-20.48-40.96-6.826667-58.026667l81.92-95.573333h-133.12c-34.133333 0-54.613333-37.546667-34.133333-64.853333l3.413333-3.413334 139.946667-163.84c13.653333-17.066667 40.96-20.48 58.026666-6.826666 17.066667 13.653333 20.48 37.546667 10.24 54.613333l-3.413333 6.826667-81.92 95.573333h133.12c34.133333 0 54.613333 40.96 30.72 68.266667z" p-id="65844"></path></svg>