<?xml version="1.0" standalone="no"?><!DOCTYPE svg PUBLIC "-//W3C//DTD SVG 1.1//EN" "http://www.w3.org/Graphics/SVG/1.1/DTD/svg11.dtd"><svg t="1623120749906" class="icon" viewBox="0 0 1024 1024" version="1.1" xmlns="http://www.w3.org/2000/svg" p-id="77599" xmlns:xlink="http://www.w3.org/1999/xlink" width="24" height="24"><defs><style type="text/css"></style></defs><path d="M858.56370687 709.52895749l1e-8 44.47876407q0 21.31274156-4.63320469 37.0656375t-16.67953688 25.01930531-36.13899656 9.26640937l0 57.45173719q0 24.09266437-17.14285687 41.23552125t-41.23552125 17.14285688-40.77220032-17.14285688-16.67953687-41.23552125l0-57.45173719-348.41698875 0 0 57.45173719q0 24.09266437-16.67953688 41.23552125t-40.77220031 17.14285688-41.23552125-17.14285688-17.14285688-41.23552125l0-57.45173719q-23.16602344 0-35.21235562-9.26640937t-16.67953688-25.01930531-5.09652468-36.60231657-0.46332-44.942085l0-521.69884125q0-24.09266437 9.26640937-44.942085t25.01930531-36.60231656 36.60231657-25.01930531 44.942085-9.26640938l463.32046312 0q24.09266437 0 44.942085 9.26640938t36.60231656 25.01930531 25.01930532 36.60231656 9.26640937 44.942085l0 521.69884125zM393.38996094 129.45173718q-12.04633219 0-20.38610063 8.33976844t-8.33976843 20.38610062q0 12.97297312 8.33976843 21.31274157t20.38610063 8.33976843l235.36679531 0q12.04633219 0 20.38610063-8.33976843t8.33976843-21.31274157q0-12.04633219-8.33976843-20.38610062t-20.38610063-8.33976844l-235.36679531 0zM306.28571469 718.79536687q17.60617781 0 30.11583-12.50965219t12.50965218-30.11583-12.50965218-30.11583-30.11583-12.50965219q-18.53281875 0-30.57915094 12.50965219t-12.04633219 30.11583 12.04633219 30.11583 30.57915094 12.50965219zM712.15443969 716.94208499q16.67953687 0 28.26254812-12.04633218t11.58301125-28.72586907-11.58301125-28.72586906-28.26254812-12.04633219q-17.60617781 0-29.18918907 12.04633219t-11.58301125 28.72586906 11.58301125 28.72586907 29.18918907 12.04633218zM801.11196875 245.28185343l-580.07722031 0 0 231.66023156 580.07722031 0 0-231.66023156z" p-id="77600"></path></svg>