<?xml version="1.0" standalone="no"?><!DOCTYPE svg PUBLIC "-//W3C//DTD SVG 1.1//EN" "http://www.w3.org/Graphics/SVG/1.1/DTD/svg11.dtd"><svg t="1623118014338" class="icon" viewBox="0 0 1157 1024" version="1.1" xmlns="http://www.w3.org/2000/svg" p-id="6649" xmlns:xlink="http://www.w3.org/1999/xlink" width="27.1171875" height="24"><defs><style type="text/css"></style></defs><path d="M628.46887 20.524522L1101.334261 480.834783a40.69287 40.69287 0 0 1-28.40487 69.89913l-48.39513-0.044522v371.578435A101.776696 101.776696 0 0 1 922.757565 1024H234.807652a101.776696 101.776696 0 0 1-101.776695-101.776696l-0.044522-371.578434H84.635826a40.69287 40.69287 0 0 1-28.404869-69.854609L529.096348 20.524522a71.234783 71.234783 0 0 1 99.372522 0z m138.50713 326.121739a37.042087 37.042087 0 0 0-56.05287 0L578.782609 492.855652l-132.318609-146.164869-4.452174-4.229566a36.908522 36.908522 0 0 0-51.600696 4.229566l-3.828869 4.897391c-11.53113 17.14087-10.24 41.449739 3.828869 56.987826l125.328696 138.462609-85.526261 0.089043-4.986435 0.311652c-19.545043 2.671304-34.637913 21.103304-34.637913 43.453218 0 24.130783 17.719652 43.76487 39.624348 43.764869l108.900174-0.044521v76.577391H430.213565l-4.986435 0.400696c-19.545043 2.671304-34.637913 21.103304-34.637913 43.408695 0 24.175304 17.719652 43.76487 39.624348 43.76487h108.900174l0.044522 69.854608c0 24.175304 17.719652 43.76487 39.624348 43.76487l4.986434-0.356174c19.500522-2.671304 34.637913-21.103304 34.637914-43.408696v-69.89913l108.944695 0.044522 4.986435-0.356174c19.545043-2.671304 34.637913-21.103304 34.637913-43.408696 0-24.175304-17.719652-43.76487-39.624348-43.764869H618.406957v-76.621913h108.989217l4.986435-0.311653c19.545043-2.671304 34.637913-21.103304 34.637913-43.408695l-0.311652-5.520696c-2.404174-21.548522-19.099826-38.288696-39.312696-38.288696h-85.659826l125.328695-138.50713 3.82887-4.897391c11.486609-17.14087 10.24-41.449739-3.873391-56.987826z" fill="#000000" p-id="6650"></path></svg>