<?xml version="1.0" standalone="no"?><!DOCTYPE svg PUBLIC "-//W3C//DTD SVG 1.1//EN" "http://www.w3.org/Graphics/SVG/1.1/DTD/svg11.dtd"><svg t="1623119528407" class="icon" viewBox="0 0 1024 1024" version="1.1" xmlns="http://www.w3.org/2000/svg" p-id="18555" xmlns:xlink="http://www.w3.org/1999/xlink" width="24" height="24"><defs><style type="text/css"></style></defs><path d="M385.1 268.7c0.1-0.3 0.5-0.4 0.7-0.1 6.2 11 79.5 138.3 136.6 137.6 59.4-0.7 81-49.2 142.4-139.3 0.4-0.5 1.2-0.3 1.2 0.4l-2.6 87.8s-71.5 107.2-79.7 140.4l-110.8 6.8s-65.2-136.9-87.5-149.4c-20.9-11.6-2.7-76-0.3-84.2z" fill="#3A3A3A" p-id="18556"></path><path d="M472.2 503.4l-0.3-0.6c-0.7-1.4-65.4-136.8-87.1-148.9-21.1-11.8-4.3-73.2-0.7-85.4 0.2-0.5 0.6-0.9 1.2-1 0.6-0.1 1.1 0.2 1.3 0.7 3.6 6.5 23.2 40.3 49.1 73.1 33.2 41.9 63 64.1 86.2 64.1h0.4c50-0.6 73.6-36.3 116.5-101.3 7.8-11.9 16-24.1 25.1-37.6 0.4-0.6 1.2-0.9 1.9-0.6 0.7 0.2 1.2 0.9 1.1 1.6l-2.7 88.1-0.2 0.2c-0.7 1.1-71.5 107.4-79.6 140.1l-0.2 0.7-112 6.8z m-86.6-233c-3.4 11.9-19.1 70.9 0.2 81.7 21.7 12.2 82.3 138 87.6 149.2l109.4-6.7c8.8-33.3 74.9-132.8 79.5-139.8l2.6-86.3c-8.9 13.1-16.8 25-24.4 36.6-43.3 65.5-67.1 101.6-118.1 102.2h-0.5c-55.8 0-125.3-117.7-136.3-136.9z m0.4-1.4z" p-id="18557"></path><path d="M385 269.1l-51.2 15.7s-14.9 199-53.7 245.8c-38.8 46.8-5 155.3 5 174.2 10 18.9 14.9 62.7 14.9 62.7s232.9-18.9 450.8 0l8-49.8s68.5-85.8-12.9-230c-2.6-4.6-4.4-9.6-5.2-14.8-4.7-31.6-21.9-148.3-22.7-166.3-1-20.9 2-20.9-19.9-30.9s-32.8-7-32.8-7 10.9 209-73.6 219.9c-75 9.7-102.3 21-155.4-7.8-15.6-8.5-27.6-22.4-33.5-39.1-9.6-27.1-20.8-78.8-17.1-172.4-0.2 0-0.5-0.3-0.7-0.2z" p-id="18558"></path><path d="M752.5 769.7l-1.9-0.2c-215.3-18.7-448.2-0.2-450.5 0l-1.9 0.2-0.2-1.9c0-0.4-5-43.6-14.7-62-4.9-9.3-16.1-41.5-21-77.3-4.3-31.1-4.9-73.6 16.2-99.1 38-45.8 53.1-242.7 53.3-244.7l0.1-1.4 52.5-16.2c0.7-0.2 1.6-0.1 2.2 0.4 0.6 0.5 1 1.2 0.9 2-3.6 91.8 7.2 144 17 171.7 5.7 16.2 17.3 29.7 32.6 38 43.8 23.8 69.5 19.9 120.7 12.3 9.9-1.5 21.2-3.1 33.5-4.7 18.6-2.4 34-15.2 45.7-37.9 9.5-18.5 16.6-43.5 21.2-74.4 7.7-52.8 5.1-105 5.1-105.5l-0.1-1.6 1.6-0.4c0.5-0.1 11.9-3.1 34.2 7.1 19.8 9 20.4 10.7 20.8 25.9 0.1 2 0.1 4.2 0.2 6.7 0.8 17.8 17.6 131.6 22.7 166.1 0.7 4.8 2.4 9.6 4.9 14.1 18.7 33.1 31 65.8 36.6 97.4 4.5 25.3 4.7 49.8 0.6 73-6.5 37-21.6 58.1-24.1 61.4l-8.2 51zM335.7 286.4c-1.5 19.1-16.6 200.4-54.1 245.6-38 45.8-4.5 153.5 5.2 172 8.9 17 13.8 52.7 14.9 61.5 22.8-1.7 242.7-17.6 447.4 0l7.8-48.4 0.3-0.4c0.2-0.2 17-21.7 23.7-60.3 6.2-35.6 4.9-93.6-36.8-167.4-2.8-4.9-4.6-10.1-5.4-15.5C733.6 439 716.8 325 716 307c-0.1-2.6-0.2-4.8-0.2-6.8-0.4-13.9-0.4-14.1-18.5-22.3-16.3-7.4-26.3-7.4-29.9-7.1 0.4 9.7 1.8 56.8-5.2 104.5-4.6 31.3-11.8 56.8-21.6 75.7-12.3 24-28.7 37.5-48.7 40.1-12.3 1.6-23.5 3.3-33.4 4.7-52.1 7.7-78.2 11.6-123.2-12.8-16.2-8.8-28.4-23.1-34.5-40.2-9.8-27.7-20.7-79.9-17.3-170.9l-47.8 14.5z m49.9-15.4c-0.1 0 0 0 0 0z" p-id="18559"></path><path d="M293.2 716.4l-1.1-5.9c1.3-0.2 126.2-22.6 219.6-18 18.6 0.9 38.1 1.8 57 2.6 76.7 3.3 156 6.8 190.4 15.4l-1.5 5.8c-33.8-8.4-112.8-11.9-189.2-15.2-18.9-0.8-38.4-1.7-57-2.6-92.7-4.5-217 17.7-218.2 17.9z" fill="#353535" p-id="18560"></path><path d="M319.6 732.8l-0.3-4 1-0.1 0.3 4-1 0.1z m419.7 0l-0.7-0.1 0.6-4 0.7 0.1-0.6 4z m-417.7-0.1l-0.3-4 1-0.1 0.3 4-1 0.1z m416-0.1l-1-0.1 0.6-4 1 0.1-0.6 4z m-414-0.1l-0.3-4 1-0.1 0.3 4-1 0.1z m2-0.1l-0.3-4 1-0.1 0.3 4-1 0.1z m410.1-0.1l-1-0.1 0.5-4 1 0.1-0.5 4z m-408.1-0.1l-0.3-4 1-0.1 0.3 4-1 0.1z m2-0.1l-0.3-4 1-0.1 0.3 4-1 0.1z m404.1-0.1l-1-0.1 0.5-4 1 0.1-0.5 4z m-402.1-0.1l-0.3-4 1-0.1 0.3 4-1 0.1z m400.1-0.1l-1-0.1 0.5-4 1 0.1-0.5 4z m-398.1 0l-0.3-4 1-0.1 0.3 4-1 0.1z m2-0.2l-0.3-4 1-0.1 0.3 4-1 0.1z m394.1-0.1l-1-0.1 0.5-4 1 0.1-0.5 4z m-392.1 0l-0.3-4 1-0.1 0.3 4-1 0.1z m2-0.2l-0.3-4 1-0.1 0.3 4-1 0.1z m388.2 0l-1-0.1 0.5-4 1 0.1-0.5 4z m-386.2-0.1l-0.3-4 1-0.1 0.3 4-1 0.1z m1.9-0.1l-0.3-4 1-0.1 0.3 4-1 0.1z m382.3-0.1l-1-0.1 0.5-4 1 0.1-0.5 4z m-380.3-0.1l-0.3-4 1-0.1 0.3 4-1 0.1z m2-0.1l-0.3-4 1-0.1 0.3 4-1 0.1z m376.3 0l-1-0.1 0.5-4 1 0.1-0.5 4z m-374.3-0.1l-0.3-4 1-0.1 0.3 4-1 0.1z m372.3-0.2l-1-0.1 0.5-4 1 0.1-0.5 4z m-370.3 0l-0.3-4 1-0.1 0.3 4-1 0.1z m2-0.1l-0.3-4 1-0.1 0.3 4-1 0.1z m366.4-0.1l-1-0.1 0.5-4 1 0.1-0.5 4z m-364.4 0l-0.3-4 1-0.1 0.3 4-1 0.1z m2-0.2l-0.3-4 1-0.1 0.3 4-1 0.1z m360.4 0l-1-0.1 0.4-4 1 0.1-0.4 4z m-358.4-0.1l-0.3-4 1-0.1 0.3 4-1 0.1z m2-0.1l-0.3-4 1-0.1 0.2 4-0.9 0.1z m354.4 0l-1-0.1 0.4-4 1 0.1-0.4 4z m-352.4-0.2l-0.2-4 1-0.1 0.2 4-1 0.1z m350.4-0.1l-1-0.1 0.4-4 1 0.1-0.4 4z m-348.4 0l-0.2-4 1-0.1 0.3 4-1.1 0.1z m2-0.1l-0.2-4 1-0.1 0.2 4-1 0.1z m344.4-0.1l-1-0.1 0.4-4 0.9 0.1-0.3 4z m-342.4 0l-0.2-4 1-0.1 0.2 4-1 0.1z m2-0.2l-0.2-4 1-0.1 0.2 4-1 0.1z m338.4 0l-1-0.1 0.4-4 1 0.1-0.4 4z m-336.4-0.1l-0.2-4 1-0.1 0.2 4-1 0.1zM708 729l-1-0.1 0.4-4 1 0.1-0.4 4z m-332.5 0l-0.3-4 1-0.1 0.2 4-0.9 0.1z m2-0.1l-0.2-4 1-0.1 0.2 4-1 0.1z m328.5-0.1l-1-0.1 0.4-4 1 0.1-0.4 4z m-326.5 0l-0.2-4 1-0.1 0.2 4-1 0.1z m2-0.1l-0.2-4 1-0.1 0.2 4-1 0.1z m322.5-0.1l-1-0.1 0.4-4 1 0.1-0.4 4z m-320.5-0.1l-0.2-4 1-0.1 0.2 4-1 0.1z m318.5-0.1l-1-0.1 0.4-4 1 0.1-0.4 4z m-316.5 0l-0.3-4 1-0.1 0.2 4-0.9 0.1z m2-0.1l-0.3-4 1-0.1 0.2 4-0.9 0.1z m312.5 0l-1-0.1 0.4-4 1 0.1-0.4 4z m-310.6-0.1l-0.2-4 1-0.1 0.2 4-1 0.1z m2-0.1l-0.2-4 1-0.1 0.2 4-1 0.1z m306.6 0l-1-0.1 0.4-4 1 0.1-0.4 4z m-304.6-0.1l-0.2-4 1-0.1 0.2 4-1 0.1z m302.6-0.1l-1-0.1 0.3-4 1 0.1-0.3 4z m-300.5 0l-0.3-4 1-0.1 0.2 4-0.9 0.1z m2-0.1l-0.3-4 1-0.1 0.2 4-0.9 0.1z m296.5-0.1l-1-0.1 0.3-4 1 0.1-0.3 4z m-294.6 0l-0.2-4 1-0.1 0.2 4-1 0.1z m292.6-0.1l-1-0.1 0.3-4 1 0.1-0.3 4z m-290.6-0.1l-0.2-4 1-0.1 0.2 4-1 0.1z m2-0.1l-0.2-4 1-0.1 0.2 4-1 0.1z m286.7 0l-1-0.1 0.3-4 1 0.1-0.3 4z m-284.7-0.1l-0.2-4 1-0.1 0.2 4-1 0.1z m282.7-0.1l-0.9-0.1 0.2-4 1 0.1-0.3 4z m-280.6 0l-0.2-4 1-0.1 0.2 4-1 0.1z m1.9-0.1l-0.2-4h1l0.2 4h-1z m276.7 0l-1-0.1 0.3-4 1 0.1-0.3 4z m-274.7-0.1l-0.2-4h1l0.2 4h-1z m2-0.1l-0.2-4h1l0.2 4h-1z m270.7 0l-1-0.1 0.3-4 1 0.1-0.3 4z m-268.7-0.1l-0.2-4h1l0.2 4h-1z m266.7 0l-0.9-0.1 0.2-4 1 0.1-0.3 4z m-264.7-0.1l-0.2-4h1l0.2 4h-1z m2-0.1l-0.2-4h1l0.2 4h-1z m260.7 0l-1-0.1 0.3-4 1 0.1-0.3 4z m-258.7 0l-0.2-4h1l0.2 4h-1z m256.7-0.1l-1-0.1 0.3-4 1 0.1-0.3 4z m-254.7 0l-0.2-4h1l0.2 4h-1z m2-0.1l-0.2-4h1l0.2 4h-1z m250.7 0l-1-0.1 0.3-4 1 0.1-0.3 4z m-248.7-0.1l-0.2-4h1l0.2 4h-1z m246.7-0.1l-1-0.1 0.3-4 1 0.1-0.3 4z m-244.7 0l-0.2-4h1l0.2 4h-1z m242.7-0.1l-1-0.1 0.3-4 1 0.1-0.3 4z m-240.7 0l-0.2-4h1l0.2 4h-1z m2-0.1l-0.2-4h1l0.2 4h-1z m236.7 0l-1-0.1 0.2-4 1 0.1-0.2 4z m-234.7-0.1l-0.2-4h1l0.2 4h-1z m232.8-0.1l-1-0.1 0.2-4 1 0.1-0.2 4z m-230.8 0l-0.2-4h1l0.2 4h-1z m2-0.1l-0.2-4h1l0.2 4h-1z m226.8 0l-1-0.1 0.2-4 1 0.1-0.2 4z m-224.8 0l-0.2-4h1l0.2 4h-1z m222.8-0.1l-1-0.1 0.2-4 1 0.1-0.2 4z m-220.8 0l-0.2-4h1l0.2 4h-1z m1.9-0.1l-0.2-4h1l0.2 4h-1z m216.9 0l-1-0.1 0.2-4 1 0.1-0.2 4z m-214.9-0.1l-0.2-4h1l0.2 4h-1z m212.9 0l-1-0.1 0.2-4 1 0.1-0.2 4z m-210.9-0.1l-0.2-4h1l0.2 4h-1z m208.9 0l-1-0.1 0.2-4 1 0.1-0.2 4z m-206.9 0l-0.2-4h1l0.2 4h-1z m2-0.1l-0.2-4h1l0.2 4h-1z m202.9 0l-1-0.1 0.2-4 1 0.1-0.2 4z m-200.9-0.1l-0.2-4h1l0.1 4h-0.9z m198.9 0h-1l0.2-4h1l-0.2 4z m-196.9-0.1l-0.2-4h1l0.1 4h-0.9z m194.9 0h-1l0.2-4h1l-0.2 4z m-192.9 0l-0.1-4h1l0.2 4h-1.1z m2-0.1l-0.1-4h1l0.1 4h-1z m188.9 0h-1l0.2-4h1l-0.2 4z m-186.9-0.1l-0.1-4h1l0.1 4h-1z m184.9 0h-1l0.2-4h1l-0.2 4z m-182.9 0l-0.1-4h1l0.1 4h-1z m180.9-0.1h-1l0.2-4h1l-0.2 4z m-178.9 0l-0.1-4h1l0.1 4h-1z m2-0.1l-0.1-4h1l0.1 4h-1z m174.9 0h-1l0.2-4h1l-0.2 4z m-172.9 0l-0.1-4h1l0.1 4h-1z m170.9-0.1h-1l0.2-4h1l-0.2 4z m-168.9 0l-0.1-4h1l0.1 4h-1z m166.9-0.1h-1l0.2-4h1l-0.2 4z m-164.9 0l-0.1-4h1l0.1 4h-1z m2 0l-0.1-4h1l0.1 4h-1z m160.9 0h-1l0.2-4h1l-0.2 4z m-158.9-0.1l-0.1-4h1l0.1 4h-1z m156.9 0h-1l0.2-4h1l-0.2 4z m-154.9-0.1l-0.1-4h1l0.1 4h-1z m152.9 0h-1l0.1-4h1l-0.1 4z m-150.9 0l-0.1-4h1l0.1 4h-1z m148.9-0.1h-1l0.1-4h1l-0.1 4z m-146.9 0l-0.1-4h1l0.1 4h-1z m2 0l-0.1-4h1l0.1 4h-1z m142.9 0h-1l0.1-4h1l-0.1 4z m-140.9-0.1l-0.1-4h1l0.1 4h-1z m138.9 0h-1l0.1-4h1l-0.1 4z m-136.9 0l-0.1-4h1l0.1 4h-1z m134.9-0.1h-1l0.1-4h1l-0.1 4z m-132.9 0l-0.1-4h1l0.1 4h-1z m130.9 0h-1l0.1-4h1l-0.1 4z m-128.9 0l-0.1-4h1l0.1 4h-1z m2-0.1l-0.1-4h1l0.1 4h-1z m124.9 0h-1l0.1-4h1l-0.1 4z m-122.9 0l-0.1-4h1l0.1 4h-1z m120.9-0.1h-1l0.1-4h1l-0.1 4z m-118.9 0l-0.1-4h1l0.1 4h-1z m116.9 0h-1l0.1-4h1l-0.1 4z m-114.9 0l-0.1-4h1l0.1 4h-1z m112.9-0.1h-1l0.1-4h1l-0.1 4z m-110.9 0l-0.1-4h1l0.1 4h-1z m2 0l-0.1-4h1l0.1 4h-1z m106.9 0h-1l0.1-4h1l-0.1 4z m-104.9-0.1l-0.1-4h1l0.1 4h-1z m102.9 0h-1l0.1-4h1l-0.1 4z m-100.9 0l-0.1-4h1l0.1 4h-1z m98.9 0h-1l0.1-4h1l-0.1 4z m-96.9 0l-0.1-4h1l0.1 4h-1z m94.9-0.1h-1l0.1-4h1l-0.1 4z m-92.9 0l-0.1-4h1l0.1 4h-1z m90.9 0h-1l0.1-4h1l-0.1 4z m-88.9 0l-0.1-4h1l0.1 4h-1z m86.9 0h-1l0.1-4h1l-0.1 4z m-84.9 0l-0.1-4h1l0.1 4h-1z m82.9-0.1h-1l0.1-4h1l-0.1 4z m-80.9 0l-0.1-4h1l0.1 4h-1z m2 0l-0.1-4h1l0.1 4h-1z m76.9 0h-1l0.1-4h1l-0.1 4z m-74.9 0l-0.1-4h1l0.1 4h-1z m72.9 0h-1l0.1-4h1l-0.1 4z m-70.9-0.1l-0.1-4h1v4h-0.9z m68.9 0h-1l0.1-4h1l-0.1 4z m-66.9 0l-0.1-4h1l0.1 4h-1z m64.9 0h-1l0.1-4h1l-0.1 4z m-62.9 0v-4h1l0.1 4h-1.1z m60.9 0h-1v-4h1v4z m-58.9 0v-4h1v4h-1z m56.9-0.1h-1v-4h1v4z m-54.9 0v-4h1v4h-1z m52.9 0h-1v-4h1v4z m-50.9 0v-4h1v4h-1z m48.9 0h-1v-4h1v4z m-47 0v-4h1v4h-1z m45 0h-1v-4h1v4z m-43 0v-4h1v4h-1z m41 0h-1v-4h1v4z m-39 0v-4h1v4h-1z m2-0.1v-4h1v4h-1z m35 0h-1v-4h1v4z m-33 0v-4h1v4h-1z m31 0h-1v-4h1v4z m-29 0v-4h1v4h-1z m27 0h-1v-4h1v4z m-25 0v-4h1v4h-1z m23 0h-1v-4h1v4z m-21 0v-4h1v4h-1z m19 0h-1v-4h1v4z m-17 0v-4h1v4h-1z m15 0h-1v-4h1v4z m-13 0v-4h1v4h-1z m11 0h-1v-4h1v4z m-9 0v-4h1v4h-1z m7 0h-1v-4h1v4z m-2 0h-1v-4h1v4z m-3 0v-4h1v4h-1z" fill="#FFFFFF" opacity=".86" p-id="18561"></path><path d="M319.6 750.2l-0.3-4 1-0.1 0.3 4-1 0.1z m419.7 0l-0.7-0.1 0.6-4 0.7 0.1-0.6 4z m-417.7-0.1l-0.3-4 1-0.1 0.3 4-1 0.1z m416-0.1l-1-0.1 0.6-4 1 0.1-0.6 4z m-414-0.1l-0.3-4 1-0.1 0.3 4-1 0.1z m2-0.2l-0.3-4 1-0.1 0.3 4-1 0.1z m410.1 0l-1-0.1 0.5-4 1 0.1-0.5 4z m-408.1-0.1l-0.3-4 1-0.1 0.3 4-1 0.1z m2-0.2l-0.3-4 1-0.1 0.3 4-1 0.1z m404.1 0l-1-0.1 0.5-4 1 0.1-0.5 4z m-402.1-0.1l-0.3-4 1-0.1 0.3 4-1 0.1z m400.1-0.2l-1-0.1 0.5-4 1 0.1-0.5 4z m-398.1 0l-0.3-4 1-0.1 0.3 4-1 0.1z m2-0.1l-0.3-4 1-0.1 0.3 4-1 0.1z m394.1-0.1l-1-0.1 0.5-4 1 0.1-0.5 4z m-392.1 0l-0.3-4 1-0.1 0.3 4-1 0.1z m2-0.2l-0.3-4 1-0.1 0.3 4-1 0.1z m388.2-0.1l-1-0.1 0.5-4 1 0.1-0.5 4z m-386.2 0l-0.3-4 1-0.1 0.3 4-1 0.1z m1.9-0.2l-0.3-4 1-0.1 0.3 4-1 0.1z m382.3 0l-1-0.1 0.5-4 1 0.1-0.5 4z m-380.3-0.1l-0.3-4 1-0.1 0.3 4-1 0.1z m2-0.1l-0.3-4 1-0.1 0.3 4-1 0.1z m376.3-0.1l-1-0.1 0.5-4 1 0.1-0.5 4z m-374.3-0.1l-0.3-4 1-0.1 0.3 4-1 0.1z m372.3-0.1l-1-0.1 0.5-4 1 0.1-0.5 4z m-370.3 0l-0.3-4 1-0.1 0.3 4-1 0.1z m2-0.1l-0.3-4 1-0.1 0.3 4-1 0.1z m366.4-0.1l-1-0.1 0.5-4 1 0.1-0.5 4z m-364.4-0.1l-0.3-4 1-0.1 0.3 4-1 0.1z m2-0.1l-0.3-4 1-0.1 0.3 4-1 0.1z m360.4-0.1l-1-0.1 0.4-4 1 0.1-0.4 4z m-358.4 0l-0.3-4 1-0.1 0.3 4-1 0.1z m2-0.2l-0.3-4 1-0.1 0.2 4-0.9 0.1z m354.4 0l-1-0.1 0.4-4 1 0.1-0.4 4z m-352.4-0.1l-0.2-4 1-0.1 0.2 4-1 0.1z m350.4-0.1l-1-0.1 0.4-4 1 0.1-0.4 4z m-348.4 0l-0.2-4 1-0.1 0.3 4-1.1 0.1z m2-0.1l-0.2-4 1-0.1 0.2 4-1 0.1z m344.4-0.1l-1-0.1 0.4-4 0.9 0.1-0.3 4z m-342.4-0.1l-0.2-4 1-0.1 0.2 4-1 0.1z m2-0.1l-0.2-4 1-0.1 0.2 4-1 0.1z m338.4 0l-1-0.1 0.4-4 1 0.1-0.4 4z m-336.4-0.1l-0.2-4 1-0.1 0.2 4-1 0.1z m334.5-0.1l-1-0.1 0.4-4 1 0.1-0.4 4z m-332.5 0l-0.3-4 1-0.1 0.2 4-0.9 0.1z m2-0.1l-0.2-4 1-0.1 0.2 4-1 0.1z m328.5-0.1l-1-0.1 0.4-4 1 0.1-0.4 4z m-326.5-0.1l-0.2-4 1-0.1 0.2 4-1 0.1z m2-0.1l-0.2-4 1-0.1 0.2 4-1 0.1z m322.5 0l-1-0.1 0.4-4 1 0.1-0.4 4z m-320.5-0.1l-0.2-4 1-0.1 0.2 4-1 0.1z m318.5-0.1l-1-0.1 0.4-4 1 0.1-0.4 4z m-316.5 0l-0.3-4 1-0.1 0.2 4-0.9 0.1z m2-0.1l-0.3-4 1-0.1 0.2 4-0.9 0.1z m312.5-0.1l-1-0.1 0.4-4 1 0.1-0.4 4z m-310.6 0l-0.2-4 1-0.1 0.2 4-1 0.1z m2-0.1l-0.2-4 1-0.1 0.2 4-1 0.1z m306.6-0.1l-1-0.1 0.4-4 1 0.1-0.4 4z m-304.6-0.1l-0.2-4 1-0.1 0.2 4-1 0.1z m302.6 0l-1-0.1 0.3-4 1 0.1-0.3 4z m-300.5-0.1l-0.3-4 1-0.1 0.2 4-0.9 0.1z m2-0.1l-0.3-4 1-0.1 0.2 4-0.9 0.1z m296.5 0l-1-0.1 0.3-4 1 0.1-0.3 4z m-294.6-0.1l-0.2-4 1-0.1 0.2 4-1 0.1z m292.6-0.1l-1-0.1 0.3-4 1 0.1-0.3 4z m-290.6 0l-0.2-4 1-0.1 0.2 4-1 0.1z m2-0.1l-0.2-4 1-0.1 0.2 4-1 0.1z m286.7 0l-1-0.1 0.3-4 1 0.1-0.3 4z m-284.7-0.1l-0.2-4 1-0.1 0.2 4-1 0.1z m282.7-0.1l-0.9-0.1 0.2-4 1 0.1-0.3 4z m-280.6 0l-0.2-4 1-0.1 0.2 4-1 0.1z m1.9-0.1l-0.2-4h1l0.2 4h-1z m276.7 0l-1-0.1 0.3-4 1 0.1-0.3 4z m-274.7-0.1l-0.2-4h1l0.2 4h-1z m2-0.1l-0.2-4h1l0.2 4h-1z m270.7 0l-1-0.1 0.3-4 1 0.1-0.3 4z m-268.7-0.1l-0.2-4h1l0.2 4h-1z m266.7 0l-0.9-0.1 0.2-4 1 0.1-0.3 4z m-264.7-0.1l-0.2-4h1l0.2 4h-1z m2-0.1l-0.2-4h1l0.2 4h-1z m260.7 0l-1-0.1 0.3-4 1 0.1-0.3 4z m-258.7-0.1l-0.2-4h1l0.2 4h-1z m256.7 0l-1-0.1 0.3-4 1 0.1-0.3 4z m-254.7-0.1l-0.2-4h1l0.2 4h-1z m2-0.1l-0.2-4h1l0.2 4h-1z m250.7 0l-1-0.1 0.3-4 1 0.1-0.3 4z m-248.7-0.1l-0.2-4h1l0.2 4h-1z m246.7 0l-1-0.1 0.3-4 1 0.1-0.3 4z m-244.7 0l-0.2-4h1l0.2 4h-1z m242.7-0.1l-1-0.1 0.3-4 1 0.1-0.3 4z m-240.7 0l-0.2-4h1l0.2 4h-1z m2-0.1l-0.2-4h1l0.2 4h-1z m236.7-0.1l-1-0.1 0.2-4 1 0.1-0.2 4z m-234.7 0l-0.2-4h1l0.2 4h-1z m232.8-0.1l-1-0.1 0.2-4 1 0.1-0.2 4z m-230.8 0l-0.2-4h1l0.2 4h-1z m2-0.1l-0.2-4h1l0.2 4h-1z m226.8 0l-1-0.1 0.2-4 1 0.1-0.2 4z m-224.8-0.1l-0.2-4h1l0.2 4h-1z m222.8 0l-1-0.1 0.2-4 1 0.1-0.2 4z m-220.8 0l-0.2-4h1l0.2 4h-1z m1.9-0.1l-0.2-4h1l0.2 4h-1z m216.9 0l-1-0.1 0.2-4 1 0.1-0.2 4z m-214.9-0.1l-0.2-4h1l0.2 4h-1z m212.9 0l-1-0.1 0.2-4 1 0.1-0.2 4z m-210.9-0.1l-0.2-4h1l0.2 4h-1z m208.9-0.1l-1-0.1 0.2-4 1 0.1-0.2 4z m-206.9 0l-0.2-4h1l0.2 4h-1z m2 0l-0.2-4h1l0.2 4h-1z m202.9-0.1l-1-0.1 0.2-4 1 0.1-0.2 4z m-200.9 0l-0.2-4h1l0.1 4h-0.9z m198.9-0.1h-1l0.2-4h1l-0.2 4z m-196.9 0l-0.2-4h1l0.1 4h-0.9z m194.9-0.1h-1l0.2-4h1l-0.2 4z m-192.9 0l-0.1-4h1l0.2 4h-1.1z m2 0l-0.1-4h1l0.1 4h-1z m188.9-0.1h-1l0.2-4h1l-0.2 4z m-186.9 0l-0.1-4h1l0.1 4h-1z m184.9-0.1h-1l0.2-4h1l-0.2 4z m-182.9 0l-0.1-4h1l0.1 4h-1z m180.9 0h-1l0.2-4h1l-0.2 4z m-178.9 0l-0.1-4h1l0.1 4h-1z m2-0.1l-0.1-4h1l0.1 4h-1z m174.9 0h-1l0.2-4h1l-0.2 4z m-172.9-0.1l-0.1-4h1l0.1 4h-1z m170.9 0h-1l0.2-4h1l-0.2 4z m-168.9 0l-0.1-4h1l0.1 4h-1z m166.9-0.1h-1l0.2-4h1l-0.2 4z m-164.9 0l-0.1-4h1l0.1 4h-1z m2-0.1l-0.1-4h1l0.1 4h-1z m160.9 0h-1l0.2-4h1l-0.2 4z m-158.9 0l-0.1-4h1l0.1 4h-1z m156.9-0.1h-1l0.2-4h1l-0.2 4z m-154.9 0l-0.1-4h1l0.1 4h-1z m152.9 0h-1l0.1-4h1l-0.1 4z m-150.9 0l-0.1-4h1l0.1 4h-1z m148.9-0.1h-1l0.1-4h1l-0.1 4z m-146.9 0l-0.1-4h1l0.1 4h-1z m2-0.1l-0.1-4h1l0.1 4h-1z m142.9 0h-1l0.1-4h1l-0.1 4z m-140.9 0l-0.1-4h1l0.1 4h-1z m138.9 0h-1l0.1-4h1l-0.1 4z m-136.9-0.1l-0.1-4h1l0.1 4h-1z m134.9 0h-1l0.1-4h1l-0.1 4z m-132.9 0l-0.1-4h1l0.1 4h-1z m130.9-0.1h-1l0.1-4h1l-0.1 4z m-128.9 0l-0.1-4h1l0.1 4h-1z m2 0l-0.1-4h1l0.1 4h-1z m124.9 0h-1l0.1-4h1l-0.1 4z m-122.9-0.1l-0.1-4h1l0.1 4h-1z m120.9 0h-1l0.1-4h1l-0.1 4z m-118.9 0l-0.1-4h1l0.1 4h-1z m116.9 0h-1l0.1-4h1l-0.1 4z m-114.9-0.1l-0.1-4h1l0.1 4h-1z m112.9 0h-1l0.1-4h1l-0.1 4z m-110.9 0l-0.1-4h1l0.1 4h-1z m2 0l-0.1-4h1l0.1 4h-1z m106.9 0h-1l0.1-4h1l-0.1 4z m-104.9-0.1l-0.1-4h1l0.1 4h-1z m102.9 0h-1l0.1-4h1l-0.1 4z m-100.9 0l-0.1-4h1l0.1 4h-1z m98.9 0h-1l0.1-4h1l-0.1 4z m-96.9-0.1l-0.1-4h1l0.1 4h-1z m94.9 0h-1l0.1-4h1l-0.1 4z m-92.9 0l-0.1-4h1l0.1 4h-1z m90.9 0h-1l0.1-4h1l-0.1 4z m-88.9 0l-0.1-4h1l0.1 4h-1z m86.9-0.1h-1l0.1-4h1l-0.1 4z m-84.9 0l-0.1-4h1l0.1 4h-1z m82.9 0h-1l0.1-4h1l-0.1 4z m-80.9 0l-0.1-4h1l0.1 4h-1z m2 0l-0.1-4h1l0.1 4h-1z m76.9 0h-1l0.1-4h1l-0.1 4z m-74.9-0.1l-0.1-4h1l0.1 4h-1z m72.9 0h-1l0.1-4h1l-0.1 4z m-70.9 0l-0.1-4h1v4h-0.9z m68.9 0h-1l0.1-4h1l-0.1 4z m-66.9 0l-0.1-4h1l0.1 4h-1z m64.9 0h-1l0.1-4h1l-0.1 4z m-62.9-0.1v-4h1l0.1 4h-1.1z m60.9 0h-1v-4h1v4z m-58.9 0v-4h1v4h-1z m56.9 0h-1v-4h1v4z m-54.9 0v-4h1v4h-1z m52.9 0h-1v-4h1v4z m-50.9 0v-4h1v4h-1z m48.9 0h-1v-4h1v4z m-47 0v-4h1v4h-1z m45-0.1h-1v-4h1v4z m-43 0v-4h1v4h-1z m41 0h-1v-4h1v4z m-39 0v-4h1v4h-1z m2 0v-4h1v4h-1z m35 0h-1v-4h1v4z m-33 0v-4h1v4h-1z m31 0h-1v-4h1v4z m-29 0v-4h1v4h-1z m27 0h-1v-4h1v4z m-25 0v-4h1v4h-1z m23 0h-1v-4h1v4z m-21 0v-4h1v4h-1z m19 0h-1v-4h1v4z m-17 0v-4h1v4h-1z m15 0h-1v-4h1v4z m-13-0.1v-4h1v4h-1z m11 0h-1v-4h1v4z m-9 0v-4h1v4h-1z m7 0h-1v-4h1v4z m-2 0h-1v-4h1v4z m-3 0v-4h1v4h-1z" fill="#FFFFFF" opacity=".86" p-id="18562"></path></svg>