<?xml version="1.0" standalone="no"?><!DOCTYPE svg PUBLIC "-//W3C//DTD SVG 1.1//EN" "http://www.w3.org/Graphics/SVG/1.1/DTD/svg11.dtd"><svg t="1623118363434" class="icon" viewBox="0 0 1024 1024" version="1.1" xmlns="http://www.w3.org/2000/svg" p-id="12671" xmlns:xlink="http://www.w3.org/1999/xlink" width="24" height="24"><defs><style type="text/css"></style></defs><path d="M475.428571 372.370286h-9.033142v35.986285a142.994286 142.994286 0 0 0-56.429715 14.592c-16.420571 8.338286-29.257143 19.492571-38.546285 33.426286-9.325714 13.897143-13.897143 29.988571-13.824 48.128-0.073143 23.515429 7.68 42.24 23.222857 56.283429 15.579429 14.006857 36.827429 24.246857 63.744 30.72l21.833143 5.412571v81.993143c-14.774857-1.572571-26.88-6.326857-36.315429-14.262857-9.472-7.936-14.628571-19.090286-15.579429-33.426286H349.184c0.841143 32.841143 11.702857 58.038857 32.658286 75.593143 20.918857 17.554286 49.115429 27.172571 84.553143 28.818286v35.693714h19.931428v-35.547429c36.388571-1.353143 64.658286-10.569143 84.845714-27.648 20.224-17.078857 30.354286-39.716571 30.500572-67.876571-0.109714-17.773714-4.278857-32.841143-12.470857-45.275429a93.732571 93.732571 0 0 0-33.901715-30.464A180.992 180.992 0 0 0 514.669714 548.571429H950.857143c0 262.582857-212.845714 475.428571-475.428572 475.428571S0 811.154286 0 548.571429 212.845714 73.142857 475.428571 73.142857v299.227429z m10.898286 306.541714v-76.982857c15.177143 4.022857 26.806857 8.923429 34.925714 14.628571 8.082286 5.741714 12.214857 13.568 12.288 23.552a33.353143 33.353143 0 0 1-12.836571 26.404572c-8.484571 7.021714-19.931429 11.154286-34.377143 12.397714z m-19.931428-142.116571a89.856 89.856 0 0 1-28.452572-13.531429 26.697143 26.697143 0 0 1-11.154286-23.259429 30.354286 30.354286 0 0 1 10.24-23.04c6.802286-6.363429 16.566857-10.349714 29.366858-12.032v71.862858z" p-id="12672"></path><path d="M587.812571 475.428571a227.693714 227.693714 0 0 0-8.704-2.121142l-19.638857-4.681143v-77.165715c13.714286 1.170286 24.576 5.156571 32.548572 12.032 8.045714 6.838857 12.617143 15.981714 13.750857 27.428572h64.658286a89.673143 89.673143 0 0 0-14.262858-48.566857 96.841143 96.841143 0 0 0-38.546285-33.572572c-16.530286-8.301714-35.913143-12.946286-58.148572-13.897143v-35.657142H548.571429V0c262.582857 0 475.428571 212.845714 475.428571 475.428571H587.812571z" p-id="12673"></path></svg>