<?xml version="1.0" standalone="no"?><!DOCTYPE svg PUBLIC "-//W3C//DTD SVG 1.1//EN" "http://www.w3.org/Graphics/SVG/1.1/DTD/svg11.dtd"><svg t="1623118178134" class="icon" viewBox="0 0 1024 1024" version="1.1" xmlns="http://www.w3.org/2000/svg" p-id="8667" xmlns:xlink="http://www.w3.org/1999/xlink" width="24" height="24"><defs><style type="text/css"></style></defs><path d="M447.99972 447.99972H319.9998a63.99996 63.99996 0 1 0 0 127.99992h127.99992v127.99992a63.99996 63.99996 0 0 0 127.99992 0V575.99964h127.99992a63.99996 63.99996 0 0 0 0-127.99992H575.99964V319.9998a63.99996 63.99996 0 1 0-127.99992 0v127.99992z m510.015681-95.74394a226.431858 226.431858 0 0 1 0 319.5518l-286.207821 286.207821A225.151859 225.151859 0 0 1 511.99968 1023.99936a225.151859 225.151859 0 0 1-159.7439-65.983959l-286.207821-286.207821a226.175859 226.175859 0 0 1 0-319.5518l286.207821-286.207821a226.175859 226.175859 0 0 1 319.5518 0l286.207821 286.207821z" fill="#515151" p-id="8668"></path></svg>