<?xml version="1.0" standalone="no"?><!DOCTYPE svg PUBLIC "-//W3C//DTD SVG 1.1//EN" "http://www.w3.org/Graphics/SVG/1.1/DTD/svg11.dtd"><svg t="1623120998084" class="icon" viewBox="0 0 1171 1024" version="1.1" xmlns="http://www.w3.org/2000/svg" p-id="87184" xmlns:xlink="http://www.w3.org/1999/xlink" width="27.4453125" height="24"><defs><style type="text/css"></style></defs><path d="M954.542883 187.501419H766.999552V62.519101A62.68675 62.68675 0 0 0 704.480451 0h-250.076403a62.68675 62.68675 0 0 0-62.50513 62.519101v124.982318H204.369558A125.401441 125.401441 0 0 0 79.331357 312.53962v500.152805c0 68.764025 56.260205 125.024231 125.038201 125.024231h750.229208c68.777996 0 125.038201-56.260205 125.038201-125.024231v-500.152805a125.401441 125.401441 0 0 0-125.038201-125.038201m-500.152805-125.024231h250.076402v125.024231h-250.076402z m375.072691 562.671906H641.975321v187.557302h-125.038201V625.149094H329.393789v-125.02423h187.543331V312.581532h125.038201v187.543332h187.543331z m0 0" p-id="87185"></path></svg>