<?xml version="1.0" standalone="no"?><!DOCTYPE svg PUBLIC "-//W3C//DTD SVG 1.1//EN" "http://www.w3.org/Graphics/SVG/1.1/DTD/svg11.dtd"><svg t="1623118700412" class="icon" viewBox="0 0 1024 1024" version="1.1" xmlns="http://www.w3.org/2000/svg" p-id="22103" xmlns:xlink="http://www.w3.org/1999/xlink" width="24" height="24"><defs><style type="text/css"></style></defs><path d="M911.36 565.248h-51.2c0-174.08-141.824-315.392-315.392-315.392-58.368 0-114.688 15.872-164.352 46.08-10.24 6.144-23.04 4.608-31.232-3.584L278.016 221.184c-5.632-5.632-8.192-13.312-7.168-20.992 1.024-7.68 5.12-14.848 11.776-18.944 19.456-12.288 30.72-33.28 30.72-56.32 0-36.864-29.696-66.56-66.56-66.56s-66.56 29.696-66.56 66.56c0 10.24 2.56 19.968 6.656 29.184 4.608 9.728 3.072 20.992-4.096 28.672s-18.432 10.24-28.16 6.144c-8.192-3.072-16.384-5.12-25.088-5.12-36.864 0-66.56 29.696-66.56 66.56s29.696 66.56 66.56 66.56c17.92 0 34.816-7.168 47.616-19.968 4.608-5.12 11.264-7.68 17.92-7.68 6.656 0 13.312 2.56 17.92 7.68L276.48 361.472c8.704 8.704 9.728 22.016 3.584 32.256-33.28 51.2-50.688 110.592-50.688 172.032h-51.2c0-64 16.896-126.464 48.128-181.76l-32.768-32.768c-18.944 12.288-40.96 18.944-64 18.944-65.024 0-117.76-52.736-117.76-117.76s52.736-117.76 117.76-117.76c0-2.56-0.512-5.632-0.512-8.192 0-65.024 52.736-117.76 117.76-117.76s117.76 52.736 117.76 117.76c0 29.696-11.264 57.856-30.72 78.848l37.376 37.376c53.248-28.672 112.64-43.52 173.568-43.52 202.24-0.512 366.592 163.84 366.592 366.08z" p-id="22104"></path><path d="M720.384 564.736c-14.336 0-25.6-11.264-25.6-25.6 0-84.992-69.12-154.112-154.112-154.112-14.336 0-25.6-11.264-25.6-25.6s11.264-25.6 25.6-25.6c113.152 0 205.312 92.16 205.312 205.312 0 14.336-11.264 25.6-25.6 25.6z" p-id="22105"></path><path d="M551.424 1024c-252.928 0-458.752-205.824-458.752-458.752 0-14.336 11.264-25.6 25.6-25.6h866.304c14.336 0 25.6 11.264 25.6 25.6 0 252.928-205.824 458.752-458.752 458.752z m-406.528-433.152C158.208 803.84 335.36 972.8 551.424 972.8s393.216-168.96 406.528-381.952H144.896z" p-id="22106"></path><path d="M210.432 820.736h663.04v51.2H210.432z" p-id="22107"></path></svg>