<?xml version="1.0" standalone="no"?><!DOCTYPE svg PUBLIC "-//W3C//DTD SVG 1.1//EN" "http://www.w3.org/Graphics/SVG/1.1/DTD/svg11.dtd"><svg t="1623121485860" class="icon" viewBox="0 0 1024 1024" version="1.1" xmlns="http://www.w3.org/2000/svg" p-id="107160" xmlns:xlink="http://www.w3.org/1999/xlink" width="24" height="24"><defs><style type="text/css"></style></defs><path d="M929.28 0h-225.28c-20.48 0-38.4 17.92-38.4 38.4v327.68c0 10.24-7.68 17.92-17.92 17.92h-537.6c-30.72 0-53.76 25.6-51.2 56.32 10.24 92.16 56.32 261.12 250.88 276.48 263.68 23.04 53.76 225.28 53.76 225.28s-61.44 51.2 2.56 79.36H793.6c20.48 0 35.84-15.36 35.84-35.84V458.24c0-25.6 20.48-43.52 43.52-43.52h58.88c20.48 0 38.4-17.92 38.4-38.4V38.4C967.68 17.92 952.32 0 929.28 0z" fill="" p-id="107161"></path><path d="M92.16 350.72h512c20.48 0 35.84-15.36 35.84-35.84 0-20.48-15.36-35.84-35.84-35.84h-512c-20.48 0-35.84 15.36-35.84 35.84 0 17.92 15.36 35.84 35.84 35.84z" fill="" p-id="107162"></path></svg>