<?xml version="1.0" standalone="no"?><!DOCTYPE svg PUBLIC "-//W3C//DTD SVG 1.1//EN" "http://www.w3.org/Graphics/SVG/1.1/DTD/svg11.dtd"><svg t="1623118837013" class="icon" viewBox="0 0 1024 1024" version="1.1" xmlns="http://www.w3.org/2000/svg" p-id="29087" xmlns:xlink="http://www.w3.org/1999/xlink" width="24" height="24"><defs><style type="text/css"></style></defs><path d="M1009.026 521.3a101.905 101.905 0 0 0-88.712-36.964h-60.165a490.19 490.19 0 0 0-1.592-59.255H24.95s-17.174 149.9 54.194 267.671a507.932 507.932 0 0 0 110.32 130.85 225.192 225.192 0 0 0 142.167 60.847h218.823a225.93 225.93 0 0 0 141.2-59.084c14.614-13.989 28.262-25.59 41.626-39.295 219.448-11.373 275.12-155.018 281.773-174.125a99.516 99.516 0 0 0-6.027-90.588v-0.057z m-63.577 65.851l-1.251 3.583c-25.59 59.937-81.376 103.667-148.536 116.292 3.014-4.493 5.687-9.27 9.042-14.217a395.791 395.791 0 0 0 48.621-138.64h67.103a39.807 39.807 0 0 1 27.125 5.97 37.532 37.532 0 0 1-1.934 27.126l-0.17-0.114z m0 0l-65.624 348.535H5.672c-52.601 53.227 290.588 87.29 290.588 87.29h292.863s332.954-32.698 290.645-87.29l65.68-348.535z m-425.93-225.988a12.852 12.852 0 0 1-12.966 5.403c-105.317-61.985-79.84-148.422-11.146-211.658 52.488-47.938 91.612-72.106 91.896-148.137-0.284-6.824 15.582-7.734 18.027-4.777 129.428 172.022-160.591 180.95-85.869 359.226h0.114z m-189.935 0.057c1.308 2.844-9.155 6.597-12.681 5.403-105.317-61.985-80.182-148.422-11.146-211.658 52.147-47.995 91.27-72.106 91.555-148.137 0-6.88 15.923-7.734 18.482-4.777 129.428 171.965-160.933 180.95-86.153 359.226z" fill="#515151" p-id="29088"></path></svg>