<?xml version="1.0" standalone="no"?><!DOCTYPE svg PUBLIC "-//W3C//DTD SVG 1.1//EN" "http://www.w3.org/Graphics/SVG/1.1/DTD/svg11.dtd"><svg t="1623121439797" class="icon" viewBox="0 0 1024 1024" version="1.1" xmlns="http://www.w3.org/2000/svg" p-id="104761" xmlns:xlink="http://www.w3.org/1999/xlink" width="24" height="24"><defs><style type="text/css"></style></defs><path d="M989.866667 332.8H768V46.933333c0-21.333333-17.066667-34.133333-34.133333-34.133333H34.133333c-17.066667 0-34.133333 12.8-34.133333 34.133333V341.333333c0 21.333333 17.066667 34.133333 34.133333 34.133334H256v277.333333H34.133333c-21.333333-4.266667-34.133333 12.8-34.133333 29.866667v294.4c0 21.333333 17.066667 34.133333 34.133333 34.133333h699.733334c21.333333 0 34.133333-17.066667 34.133333-34.133333v-281.6h221.866667c21.333333 0 34.133333-17.066667 34.133333-34.133334V366.933333c0-17.066667-17.066667-34.133333-34.133333-34.133333zM46.933333 328.533333V166.4H384c8.533333 0 12.8-4.266667 12.8-12.8 0-8.533333-4.266667-12.8-12.8-12.8H46.933333v-85.333333h674.133334v183.466666H213.333333c-8.533333 0-12.8 4.266667-12.8 12.8 0 8.533333 4.266667 12.8 12.8 12.8h507.733334v64H46.933333z m674.133334 533.333334H243.2c-8.533333 0-12.8 4.266667-12.8 12.8 0 8.533333 4.266667 12.8 12.8 12.8h477.866667v81.066666H46.933333v-174.933333h311.466667c8.533333 0 12.8-4.266667 12.8-12.8 0-8.533333-4.266667-12.8-12.8-12.8H46.933333v-72.533333H725.333333l-4.266666 166.4z m256-401.066667h-234.666667c-8.533333 0-12.8 4.266667-12.8 12.8 0 8.533333 4.266667 12.8 12.8 12.8h234.666667v81.066667h-136.533334c-8.533333 0-12.8 4.266667-12.8 12.8 0 8.533333 4.266667 12.8 12.8 12.8h136.533334v59.733333h-243.2H302.933333V379.733333H981.333333v81.066667h-4.266666z m-529.066667 328.533333h55.466667c8.533333 0 12.8-4.266667 12.8-12.8 0-8.533333-4.266667-12.8-12.8-12.8h-55.466667c-8.533333 0-12.8 4.266667-12.8 12.8 0 8.533333 4.266667 12.8 12.8 12.8z" fill="#040000" p-id="104762"></path></svg>