<?xml version="1.0" standalone="no"?><!DOCTYPE svg PUBLIC "-//W3C//DTD SVG 1.1//EN" "http://www.w3.org/Graphics/SVG/1.1/DTD/svg11.dtd"><svg t="1623120764198" class="icon" viewBox="0 0 1024 1024" version="1.1" xmlns="http://www.w3.org/2000/svg" p-id="78414" xmlns:xlink="http://www.w3.org/1999/xlink" width="24" height="24"><defs><style type="text/css"></style></defs><path d="M693.7 70.4S594.8 62 520.4 62c-74.3 0-181.7 8.4-181.7 8.4-74.4 0-131.9 66-131.9 140.3v453.9c0 74.4 57.6 131.9 131.9 131.9h346.6c74.3 0 131.9-57.6 131.9-131.9V210.7c0-74.3-57.6-140.3-123.5-140.3z m-280.6 41.4h206.3c8.4 0 16.8 8.4 16.8 16.8s-8.4 16.8-16.8 16.8H413.1c-8.4 0-16.8-8.4-16.8-16.8 0.6-8.4 8.4-16.8 16.8-16.8z m-66 610.4c-33 0-57.6-24.6-57.6-57.6s24.6-57.6 57.6-57.6 57.6 24.6 57.6 57.6-24.6 57.6-57.6 57.6z m338.2 0c-33 0-57.6-24.6-57.6-57.6s24.6-57.6 57.6-57.6 57.6 24.6 57.6 57.6-24.6 57.6-57.6 57.6zM768 425.4c0 24.6-24.6 49.8-49.8 49.8H314.1c-33 0-49.8-24.6-49.8-49.8V260.5c0-24.6 24.6-49.8 49.8-49.8h404.1c24.6 0 49.8 24.6 49.8 49.8v164.9z" p-id="78415"></path><path d="M346.3 759.6l-65 130h43.5l54.5-107.3h271l54.5 107.3h37.9l-65-130z" p-id="78416"></path></svg>