<?xml version="1.0" standalone="no"?><!DOCTYPE svg PUBLIC "-//W3C//DTD SVG 1.1//EN" "http://www.w3.org/Graphics/SVG/1.1/DTD/svg11.dtd"><svg t="1623121633266" class="icon" viewBox="0 0 1024 1024" version="1.1" xmlns="http://www.w3.org/2000/svg" p-id="112670" xmlns:xlink="http://www.w3.org/1999/xlink" width="24" height="24"><defs><style type="text/css"></style></defs><path d="M808.96 457.216c-16.896-22.528-34.304-43.52-53.248-62.976-29.184-30.72-64-64.512-102.912-92.16 4.608-5.632 9.728-11.264 14.336-16.896 12.8-15.36 26.112-31.232 39.424-50.688 17.408-28.16 43.008-71.168-3.072-105.984l-2.56-1.536c-55.296-32.256-129.536-32.256-165.888-29.696-23.04-38.4-70.144-31.232-90.624-28.16-44.544 7.168-87.04 24.576-122.88 50.688-12.288 9.216-23.04 17.92-32.256 27.648-15.872 16.384-24.064 33.792-23.04 51.2 1.024 15.872 8.704 30.208 23.04 42.496 20.48 16.896 55.808 47.616 78.336 67.584-40.448 32.768-77.312 68.096-110.08 104.96-20.48 23.04-37.888 45.056-52.736 67.072-14.848 22.528-27.136 43.52-36.864 64.512-42.496 89.6-65.536 222.208 8.192 303.104 51.712 56.32 127.488 75.776 195.072 88.064 51.2 9.216 101.376 13.824 150.016 13.824 49.664 0 98.304-4.608 144.896-14.336 29.184-6.144 55.808-13.312 80.896-22.016 64-23.04 110.08-59.904 132.608-107.008 11.264-23.552 18.944-49.152 20.48-70.144 7.68-92.16-25.088-190.976-91.136-279.552zM488.448 126.464c7.168 14.336 4.096 37.376 1.536 56.32-2.048 15.36 8.704 29.184 24.064 31.232 7.168 1.024 14.848-1.024 20.48-5.632 6.144-4.608 9.728-11.264 10.752-18.432 1.536-11.264 3.072-24.064 3.072-37.888 31.744-1.536 85.504 0 122.368 20.992 2.56 2.048 3.072 2.56 3.072 2.56 0 4.608-10.752 23.04-14.336 28.16-10.752 15.872-23.04 29.696-35.84 45.056-3.072 3.584-6.144 7.68-9.728 11.264l-3.072 3.072c-45.568 71.168-146.944 37.376-185.344 20.992-15.36-13.312-72.192-62.976-100.864-86.528l-2.56-2.56c0.512-1.536 2.56-4.608 7.168-9.216 7.168-7.168 15.36-14.336 25.6-22.016 28.672-20.992 62.976-35.328 98.304-40.96 31.744-3.584 34.304 1.536 35.328 3.584z m28.16 236.544c-1.536 23.552-2.048 61.44 7.68 94.208-3.584 0.512-7.168 1.024-12.8 0-13.824-4.096-17.408-10.752-19.456-16.384-6.656-19.456 6.656-52.736 21.504-77.824 1.024-0.512 2.048 0 3.072 0z m61.44-7.68c3.584-1.024 6.656-2.048 10.24-3.584 25.6 21.504 67.072 62.976 65.024 94.72-1.024 12.8-9.728 24.064-26.624 33.28-21.504 7.68-37.888 6.656-48.64-2.048-3.072-2.56-6.144-6.144-8.192-9.728 18.432-31.232 13.824-81.92 8.192-112.64z m-161.792-13.824c15.36 6.144 34.816 12.288 56.832 16.384-13.824 26.624-27.136 64.512-16.896 94.72 6.656 19.456 21.504 33.28 45.568 40.448 6.144 1.024 11.776 2.048 17.408 2.048 7.68 0 14.336-1.536 20.992-3.584 4.096 5.632 8.704 10.752 13.824 15.36 12.8 10.24 28.16 15.36 45.568 15.36 12.8 0 26.624-2.56 40.96-8.192l2.048-1.024c37.376-19.968 46.592-46.08 47.616-64.512 1.536-19.968-6.144-40.448-17.408-58.88 15.36 14.336 29.696 28.672 42.496 42.496 16.896 17.92 33.28 37.376 48.64 57.856 58.368 77.824 87.04 163.328 80.896 241.152-1.024 13.824-6.656 33.28-14.848 50.176-20.48 43.008-66.56 66.56-101.376 78.848-22.528 8.192-46.592 14.848-73.216 19.968-85.504 17.408-178.176 17.408-274.432 0.512-58.368-10.24-123.392-27.136-163.84-71.168-55.296-60.416-34.304-167.936 1.024-241.664 8.704-18.432 19.456-36.864 32.768-57.344 13.312-19.968 28.672-39.936 47.616-60.928 35.84-37.888 74.752-74.24 117.76-108.032z" p-id="112671"></path><path d="M394.752 334.848l-3.072 3.072-141.824 137.728-76.8 122.88-7.68 98.816v72.192l59.392 68.608 80.896 35.84 110.592 35.84s128 5.12 130.56 5.12 137.216-20.48 137.216-20.48l114.176-38.912 73.216-78.336v-104.448l-28.16-99.328-45.056-88.576-76.8-83.968L642.048 343.04l-37.376-20.48-209.92 12.288z" p-id="112672"></path></svg>