<?xml version="1.0" standalone="no"?><!DOCTYPE svg PUBLIC "-//W3C//DTD SVG 1.1//EN" "http://www.w3.org/Graphics/SVG/1.1/DTD/svg11.dtd"><svg t="1623121271106" class="icon" viewBox="0 0 1024 1024" version="1.1" xmlns="http://www.w3.org/2000/svg" p-id="99843" xmlns:xlink="http://www.w3.org/1999/xlink" width="24" height="24"><defs><style type="text/css"></style></defs><path d="M267.264 297.984c25.6 77.824 97.28 77.824 122.88 0 8.192-4.096 17.408-17.408 18.432-28.672 1.024-11.264 1.024-26.624-10.24-26.624-2.048-36.864-22.528-67.584-67.584-67.584-45.056 0-67.584 26.624-69.632 67.584-11.264 0-12.288 15.36-10.24 26.624 0 10.24 8.192 23.552 16.384 28.672z" p-id="99844"></path><path d="M432.128 744.448v-26.624c29.696 0 54.272-24.576 54.272-54.272v-2.048L696.32 451.584c6.144-6.144 6.144-15.36 0-20.48-6.144-6.144-15.36-6.144-20.48 0L486.4 620.544V442.368c0-38.912-28.672-72.704-67.584-80.896l-29.696-7.168-60.416 120.832-60.416-120.832-28.672 6.144c-39.936 8.192-67.584 41.984-67.584 80.896v221.184c0 29.696 23.552 54.272 54.272 54.272v26.624h205.824z" p-id="99845"></path><path d="M150.528 707.584h2.048c-8.192-13.312-12.288-28.672-12.288-45.056v-20.48c-41.984-6.144-75.776-40.96-75.776-84.992V150.528c0-48.128 37.888-86.016 86.016-86.016h715.776c48.128 0 86.016 37.888 86.016 86.016v407.552c0 48.128-38.912 86.016-86.016 86.016h-317.44L517.12 675.84c-2.048 12.288-6.144 21.504-12.288 31.744h361.472c82.944 0 150.528-67.584 150.528-150.528V150.528C1016.832 67.584 949.248 0 866.304 0H150.528C67.584 0 1.024 67.584 1.024 150.528v407.552c0 81.92 66.56 149.504 149.504 149.504zM921.6 796.672H809.984c-54.272 0-98.304 44.032-98.304 98.304V1024h308.224V894.976c0-54.272-44.032-98.304-98.304-98.304zM210.944 796.672H99.328c-54.272 0-98.304 44.032-98.304 98.304V1024h308.224V894.976c0-54.272-44.032-98.304-98.304-98.304zM566.272 796.672H454.656c-54.272 0-98.304 44.032-98.304 98.304V1024h308.224V894.976c0-54.272-44.032-98.304-98.304-98.304z" p-id="99846"></path></svg>