<?xml version="1.0" standalone="no"?><!DOCTYPE svg PUBLIC "-//W3C//DTD SVG 1.1//EN" "http://www.w3.org/Graphics/SVG/1.1/DTD/svg11.dtd"><svg t="1623118456378" class="icon" viewBox="0 0 1024 1024" version="1.1" xmlns="http://www.w3.org/2000/svg" p-id="15206" xmlns:xlink="http://www.w3.org/1999/xlink" width="24" height="24"><defs><style type="text/css"></style></defs><path d="M919.683072 64.825344 104.044544 64.825344c-21.639168 0-39.349248 17.708032-39.349248 39.303168l0 815.683584c0 21.682176 17.71008 39.390208 39.349248 39.390208l815.638528 0c21.636096 0 39.349248-17.708032 39.349248-39.390208L959.03232 104.128512C959.03232 82.533376 941.319168 64.825344 919.683072 64.825344zM664.9856 649.032704 560.877568 544.946176 389.7344 751.8464l-74.020864-65.773568L183.66464 806.918144l-62.476288-68.258816 193.575936-177.133568 64.758784 57.50784L554.417152 407.612416l101.3504 101.377024 182.760448-238.347264 73.408512 56.287232L664.9856 649.032704z" fill="#515151" p-id="15207"></path></svg>