<?xml version="1.0" standalone="no"?><!DOCTYPE svg PUBLIC "-//W3C//DTD SVG 1.1//EN" "http://www.w3.org/Graphics/SVG/1.1/DTD/svg11.dtd"><svg t="1623119469461" class="icon" viewBox="0 0 1024 1024" version="1.1" xmlns="http://www.w3.org/2000/svg" p-id="14841" xmlns:xlink="http://www.w3.org/1999/xlink" width="24" height="24"><defs><style type="text/css"></style></defs><path d="M307.000195 834.78478c48.252878-1.698341 77.42439-41.459512 88.513561-90.511609 93.508683-4.49561 183.320976-8.092098 278.92761-0.899122 10.589659 14.685659 41.75922 66.035512 57.843512 79.522341 10.889366 9.191024 29.271415 6.893268 36.564293-3.69639 19.880585 43.857171 47.553561 85.21678 80.421463 121.181659 33.16761 1.298732 86.215805-28.672 100.801561-59.941464-31.269463-43.157854-67.434146-115.786927-86.715317-164.639219-28.971707-73.028683-35.465366-181.422829-35.365463-281.125464 0-54.846439 2.597463-210.494439-0.699317-239.665951-1.498537-16.583805-19.381073-29.47122-30.470244-34.865951-13.386927-19.381073-33.267512-32.468293-63.438049-45.45561-4.096-1.698341-47.853268-14.885463-61.739707-22.677854-8.391805-4.795317-22.777756-27.473171-24.176391-27.47317l-26.374244 0.399609c-7.093073 26.474146-25.175415 29.671024-59.142243 29.671025h-51.749464c-29.970732 0-38.362537-6.893268-44.356683-29.671025h-29.471219c-9.890341 0-15.684683 1.498537-21.479025 5.394732-1.398634 0.899122-2.597463 5.994146-3.69639 7.192976-2.697366 2.397659-11.588683 7.992195-13.486829 10.889366-10.489756 16.483902-22.677854 21.578927-50.950244 32.668097C324.682927 129.773268 246.459317 152.850732 234.770732 166.437463c-6.293854 7.192976-10.789463 37.063805-14.385952 74.727025-22.178341 229.77561-35.565268 457.053659-146.556878 666.648975 21.179317 31.569171 50.950244 51.749463 103.59883 51.749464 18.382049-20.779707 57.643707-103.299122 69.632-145.258147 19.381073 17.283122 42.658341 20.48 59.941463 20.48z m367.141464-498.013658c6.693463 0 12.188098 5.494634 12.188097 12.088195s-5.494634 12.088195-12.188097 12.088195-12.188098-5.494634-12.188098-12.088195c-0.099902-6.793366 5.394732-12.088195 12.188098-12.088195z m-3.496586 120.682146c6.693463 0 12.188098 5.494634 12.188098 12.088195s-5.494634 12.088195-12.188098 12.088196-12.188098-5.494634-12.188097-12.088196c-0.099902-6.693463 5.294829-12.088195 12.188097-12.088195z m11.488781 122.380488c6.693463 0 12.288 5.494634 12.288 12.088195s-5.494634 12.088195-12.288 12.088195c-6.693463 0-12.188098-5.494634-12.188098-12.088195-0.099902-6.693463 5.294829-12.088195 12.188098-12.088195z m28.572097-349.858341l-19.68078 74.826926-5.394732-6.293853-7.592585 2.897171 18.082341-69.432196c2.197854-7.592585 9.191024-3.396683 14.585756-1.998048z m-53.547707 2.297756c-7.292878-3.69639-11.089171-7.292878-11.089171-14.785561 0-8.092098 6.593561-14.785561 14.785561-14.785561 14.785561 0 29.47122 14.785561 44.156878 29.471219-14.685659 14.885463-29.47122 29.571122-44.156878 29.571122-8.092098 0-14.785561-6.593561-14.785561-14.785561 0-7.292878 3.69639-10.989268 11.089171-14.685658z m95.806439 0c7.292878 3.69639 11.089171 7.292878 11.089171 14.785561 0 8.092098-6.593561 14.785561-14.785561 14.785561-14.785561 0-29.47122-14.785561-44.156878-29.47122 14.785561-14.785561 29.47122-29.47122 44.156878-29.471219 8.092098 0 14.785561 6.593561 14.785561 14.785561-0.099902 7.292878-3.796293 10.989268-11.089171 14.585756z m-52.648585-4.395708c5.494634-1.398634 12.288-5.594537 14.385951 2.197854l19.281171 71.430244-7.592586-2.897171-5.394732 6.293854-20.679804-77.024781z" p-id="14842"></path></svg>