<?xml version="1.0" standalone="no"?><!DOCTYPE svg PUBLIC "-//W3C//DTD SVG 1.1//EN" "http://www.w3.org/Graphics/SVG/1.1/DTD/svg11.dtd"><svg t="1623118750470" class="icon" viewBox="0 0 1306 1024" version="1.1" xmlns="http://www.w3.org/2000/svg" p-id="24443" xmlns:xlink="http://www.w3.org/1999/xlink" width="30.609375" height="24"><defs><style type="text/css"></style></defs><path d="M1082.615 541.378l0.918-0.741-55.508-28.39V370.123l40.466-103.742c6.356-10.204 10.876-21.327 13.241-33.545l1.801-4.872-1.27-0.918c0.529-4.45 1.27-8.722 1.27-13.348 0-54.943-43.537-99.469-97.21-99.469-4.73 0-9.25 0.741-13.982 1.483v-1.483H750.168v85.345h83.439v170.549L710.09 597.416H500.065l46.257-78.848 16.136-27.648 20.834-35.452v-85.345H55.508v85.345h83.438L0 654.371v142.301h0.706C8.016 923.472 110.486 1024 236.191 1024c116.242 0 212.568-85.91 232.342-198.903h368.922C857.23 938.09 953.521 1024 1069.798 1024c130.4 0 236.12-108.19 236.12-241.593 0-128.954-98.834-234.179-223.268-241.029z m-846.46 336.967c-51.906 0-93.784-42.867-93.784-95.938 0-53.072 41.914-95.939 93.785-95.939s93.749 42.867 93.749 95.939c0 52.895-41.879 95.938-93.75 95.938z m833.607 0c-51.906 0-93.784-42.867-93.784-95.938 0-53.072 42.09-95.939 93.784-95.939 51.871 0 93.75 42.867 93.75 95.939 0 52.895-42.055 95.938-93.75 95.938z" p-id="24444"></path><path d="M555.714 0.706H83.262A28.072 28.072 0 0 0 55.508 29.06v255.894c0 15.749 12.358 28.39 27.754 28.39h472.276a27.966 27.966 0 0 0 27.754-28.39V29.06A27.895 27.895 0 0 0 555.75 0.67zM166.7 142.76h305.611V86.016H166.665v56.779z" p-id="24445"></path></svg>