<?xml version="1.0" standalone="no"?><!DOCTYPE svg PUBLIC "-//W3C//DTD SVG 1.1//EN" "http://www.w3.org/Graphics/SVG/1.1/DTD/svg11.dtd"><svg t="1623118571243" class="icon" viewBox="0 0 1097 1024" version="1.1" xmlns="http://www.w3.org/2000/svg" p-id="18828" xmlns:xlink="http://www.w3.org/1999/xlink" width="25.7109375" height="24"><defs><style type="text/css"></style></defs><path d="M548.571429 0c142.628571 0 277.942857 58.514286 376.685714 164.571429v3.657142s0 3.657143-3.657143 3.657143h-179.2V106.057143l-3.657143-3.657143C676.571429 73.142857 614.4 58.514286 548.571429 58.514286c-102.4 0-204.8 36.571429-288.914286 106.057143-3.657143 3.657143-10.971429 7.314286-18.285714 7.314285-14.628571 0-25.6-10.971429-29.257143-21.942857-3.657143-7.314286 0-21.942857 10.971428-32.914286C314.514286 43.885714 427.885714 0 548.571429 0z m146.285714 223.085714c7.314286 0 14.628571 3.657143 21.942857 10.971429 10.971429 10.971429 10.971429 29.257143 0 43.885714l-117.028571 117.028572-14.628572 14.628571h113.371429c18.285714 0 29.257143 14.628571 29.257143 29.257143 0 18.285714-14.628571 29.257143-29.257143 29.257143h-117.028572v87.771428H694.857143c18.285714 0 29.257143 14.628571 29.257143 29.257143 0 18.285714-14.628571 29.257143-29.257143 29.257143h-117.028572v157.257143c0 18.285714-14.628571 29.257143-29.257142 29.257143s-29.257143-14.628571-29.257143-29.257143v-157.257143H402.285714c-18.285714 0-29.257143-14.628571-29.257143-29.257143 0-18.285714 14.628571-29.257143 29.257143-29.257143h117.028572v-87.771428H402.285714c-18.285714 0-29.257143-14.628571-29.257143-29.257143 0-18.285714 14.628571-29.257143 29.257143-29.257143h109.714286l-7.314286-7.314286-3.657143-3.657143-117.028571-117.028571c-10.971429-10.971429-10.971429-32.914286 0-43.885714 7.314286-7.314286 14.628571-10.971429 21.942857-10.971429 7.314286 0 14.628571 3.657143 21.942857 7.314286l117.028572 117.028571 3.657143 3.657143 3.657142-3.657143 117.028572-117.028571c7.314286-7.314286 14.628571-10.971429 25.6-10.971429z m296.228571 263.314286h-7.314285v-160.914286l10.971428 7.314286c7.314286 3.657143 14.628571 10.971429 21.942857 18.285714 3.657143 3.657143 7.314286 7.314286 14.628572 7.314286h36.571428c7.314286 0 10.971429-3.657143 14.628572-7.314286 3.657143-3.657143 3.657143-10.971429 0-14.628571-18.285714-32.914286-51.2-58.514286-87.771429-69.485714H987.428571v-14.628572c0-18.285714-14.628571-29.257143-29.257142-29.257143-18.285714 0-29.257143 14.628571-29.257143 29.257143v14.628572h-7.314286c-62.171429 14.628571-106.057143 73.142857-106.057143 135.314285 0 62.171429 43.885714 120.685714 106.057143 135.314286h7.314286v160.914286l-10.971429-7.314286c-7.314286-3.657143-14.628571-10.971429-21.942857-18.285714-3.657143-3.657143-7.314286-7.314286-14.628571-7.314286h-36.571429c-7.314286 0-10.971429 3.657143-14.628571 7.314286-3.657143 3.657143-3.657143 10.971429 0 18.285714 18.285714 32.914286 51.2 58.514286 87.771428 69.485714h3.657143v10.971429c0 18.285714 14.628571 29.257143 29.257143 29.257143 18.285714 0 29.257143-14.628571 29.257143-29.257143v-10.971429h3.657143c62.171429-18.285714 106.057143-73.142857 106.057142-135.314285 7.314286-65.828571-36.571429-120.685714-98.742857-138.971429z m-65.828571-146.285714V475.428571l-10.971429-7.314285c-25.6-14.628571-40.228571-40.228571-40.228571-69.485715 0-29.257143 14.628571-54.857143 40.228571-69.485714l10.971429-7.314286v18.285715z m73.142857 351.085714l-10.971429 7.314286V548.571429l10.971429 7.314285c25.6 14.628571 40.228571 40.228571 40.228571 69.485715 0 25.6-14.628571 51.2-40.228571 65.828571zM179.2 259.657143c36.571429 0 69.485714 25.6 98.742857 69.485714 3.657143 3.657143 3.657143 10.971429 0 14.628572-7.314286 10.971429-10.971429 10.971429-18.285714 10.971428h-25.6c-3.657143 0-10.971429-3.657143-14.628572-7.314286-10.971429-18.285714-25.6-29.257143-40.228571-29.257142-29.257143 0-51.2 29.257143-65.828571 80.457142l-3.657143 10.971429h69.485714c18.285714 0 29.257143 14.628571 29.257143 29.257143 0 18.285714-14.628571 29.257143-29.257143 29.257143H98.742857v91.428571h80.457143c18.285714 0 29.257143 14.628571 29.257143 29.257143 0 18.285714-14.628571 29.257143-29.257143 29.257143H109.714286v7.314286c14.628571 51.2 40.228571 80.457143 65.828571 80.457142 14.628571 0 32.914286-10.971429 43.885714-29.257142 3.657143-3.657143 7.314286-7.314286 10.971429-7.314286H256c7.314286 0 10.971429 3.657143 14.628571 7.314286 3.657143 3.657143 3.657143 10.971429 0 14.628571-25.6 47.542857-62.171429 69.485714-98.742857 69.485714-54.857143 0-102.4-54.857143-128-142.628571v-3.657143h-14.628571C14.628571 614.4 0 603.428571 0 585.142857s14.628571-29.257143 32.914286-29.257143h7.314285v-87.771428h-10.971428C14.628571 468.114286 0 453.485714 0 438.857143c0-18.285714 14.628571-29.257143 29.257143-29.257143h21.942857v-3.657143c25.6-91.428571 73.142857-146.285714 128-146.285714z m676.571429 592.457143c14.628571 0 25.6 10.971429 29.257142 21.942857 3.657143 10.971429 3.657143 21.942857-7.314285 32.914286-95.085714 73.142857-208.457143 117.028571-329.142857 117.028571-142.628571 0-281.6-62.171429-376.685715-164.571429v-3.657142h186.514286v62.171428l3.657143 3.657143c58.514286 29.257143 124.342857 43.885714 190.171428 43.885714 102.4 0 204.8-36.571429 288.914286-106.057143 0-3.657143 7.314286-7.314286 14.628572-7.314285z" fill="#515151" p-id="18829"></path></svg>