<?xml version="1.0" standalone="no"?><!DOCTYPE svg PUBLIC "-//W3C//DTD SVG 1.1//EN" "http://www.w3.org/Graphics/SVG/1.1/DTD/svg11.dtd"><svg t="1623118382007" class="icon" viewBox="0 0 1158 1024" version="1.1" xmlns="http://www.w3.org/2000/svg" p-id="13501" xmlns:xlink="http://www.w3.org/1999/xlink" width="27.140625" height="24"><defs><style type="text/css"></style></defs><path d="M82.758717 1023.910964a237.102165 237.102165 0 0 1-82.803235-58.808103 612.298757 612.298757 0 0 0 106.397705-281.308408 71.762803 71.762803 0 0 1-8.235806-123.00287A399.993044 399.993044 0 0 1 156.257717 330.678724L47.634119 284.157552C15.581254 269.422137 15.4477 246.005739 47.099904 231.492914l516.407269-220.71959a42.737153 42.737153 0 0 1 56.982871 0l513.068429 222.58934c31.919311 14.601861 32.186419 38.018259 0.534215 52.486567L625.030867 506.613338a42.826189 42.826189 0 0 1-56.982871 0l-249.300061-106.842883 291.814625-147.487697a40.066081 40.066081 0 0 0 17.451004-52.931745 38.374402 38.374402 0 0 0-51.907834-17.807147L247.074167 347.862621c-45.408225 34.768455-70.16016 104.572472-71.228588 212.661855a71.762803 71.762803 0 0 1-10.417181 124.115816C173.174507 828.032345 182.790366 969.599165 82.758717 1023.910964z m498.600121-42.826189q-243.201113-7.033823-333.305277-132.529693V718.073211a152.251109 152.251109 0 0 0 0-196.991566v-26.710721a26.087471 26.087471 0 0 1 25.820363-26.354578 25.108078 25.108078 0 0 1 10.01652 2.09234l277.92505 119.085297a88.768629 88.768629 0 0 0 70.560821 0l323.778454-140.854534a25.68681 25.68681 0 0 1 33.922616 13.889575 26.399096 26.399096 0 0 1 2.047822 10.328145v376.086949q-103.682115 120.68794-333.26076 131.817407l-77.505609 0.712286z m11.040432-201.977567v41.357099h-73.810626a28.17981 28.17981 0 0 0 0 56.315103h73.810626v54.445353a27.690114 27.690114 0 1 0 55.380227 0v-54.445353h73.810626a28.17981 28.17981 0 0 0 0-56.315103H647.73498v-41.401617h73.810625a28.17981 28.17981 0 0 0 0-56.315103h-39.353796l58.27389-55.513781a28.491436 28.491436 0 0 0 1.291018-39.798974 27.333971 27.333971 0 0 0-39.131206-1.335536l-83.782628 79.776019-81.512216-76.481697a27.333971 27.333971 0 0 0-39.131206 1.602643 28.491436 28.491436 0 0 0 1.602643 39.798974l55.291192 51.952352h-36.549169a28.17981 28.17981 0 0 0 0 56.315103h73.810625z" p-id="13502"></path></svg>