<?xml version="1.0" standalone="no"?><!DOCTYPE svg PUBLIC "-//W3C//DTD SVG 1.1//EN" "http://www.w3.org/Graphics/SVG/1.1/DTD/svg11.dtd"><svg t="1623117946761" class="icon" viewBox="0 0 1024 1024" version="1.1" xmlns="http://www.w3.org/2000/svg" p-id="4994" xmlns:xlink="http://www.w3.org/1999/xlink" width="24" height="24"><defs><style type="text/css"></style></defs><path d="M929.792 104.96v0.512c0 3.584-1.024 7.168-2.048 10.752l-3.072 6.144-129.024 244.736-4.608 8.704c-5.632 7.168-14.336 11.776-24.064 11.776-5.12 0-10.24-1.536-14.336-3.584-1.536-0.512-3.072-1.536-4.096-2.56-0.512 0-0.512-0.512-0.512-0.512-0.512-0.512-1.536-1.536-2.56-2.048-35.84-31.744-78.336-55.808-123.904-71.168-2.56-1.024-5.632-1.536-8.704-2.56-0.512 0-0.512-0.512-1.024-0.512-1.536-1.024-3.584-2.048-5.12-3.072l-4.608-4.608v-0.512l-0.512-0.512-4.096-7.68v-0.512l-52.224-96.256v-0.512l-4.608-8.192c-1.024-3.072-1.536-6.656-1.536-10.24 0-5.632 1.536-10.752 4.096-14.848 0.512-0.512 0.512-1.536 1.536-2.048l34.816-61.44v-0.512l5.12-8.704 4.096-4.096 0.512-0.512c1.024-1.024 2.56-2.048 4.096-2.56 2.56-1.536 5.12-2.56 8.192-3.072 1.024-0.512 2.048-0.512 3.072-0.512h300.032c0.512 0 1.536 0 2.048 0.512 0.512 0 0.512 0 1.024 0.512 3.584 1.024 7.168 2.048 9.728 4.096 0.512 0 0.512 0.512 0.512 0.512 5.12 3.584 8.704 8.192 10.752 13.824 0 3.584 1.024 7.68 1.024 11.264zM526.848 260.608v0.512c-0.512 16.896-13.824 30.208-30.72 30.208h-1.024c-78.848 3.584-154.112 33.792-212.992 85.504-1.536 1.536-3.072 2.56-5.12 4.096-5.12 3.072-10.752 5.12-16.896 5.12-5.12 0-10.24-1.536-14.336-3.584-1.536-1.024-3.584-2.048-5.12-3.072-2.048-1.536-4.096-3.584-5.12-5.632l-3.584-6.656v-0.512L100.864 123.392V122.88l-4.608-8.192c-1.024-3.072-1.536-6.656-1.536-10.24 0-7.168 2.56-13.824 6.656-19.456l4.096-4.096 0.512-0.512c3.584-2.56 7.68-4.608 11.776-5.632H421.888c4.096 1.024 7.68 2.56 10.752 4.608 0.512 0 0.512 0.512 0.512 0.512 3.584 2.56 6.144 5.12 8.192 8.704l2.56 5.12L520.192 240.64l0.512 0.512v0.512l1.024 2.048 2.56 5.12v0.512l0.512 1.024 0.512 0.512c1.024 3.072 1.536 6.144 1.536 9.728zM512 334.848c-169.472 0-307.2 137.728-307.2 307.2s137.728 307.2 307.2 307.2 307.2-137.728 307.2-307.2c0-169.984-137.728-307.2-307.2-307.2z m114.176 471.552L512 745.984l-114.176 59.904 22.016-127.488L327.168 588.8l128-18.432L512 454.656l57.344 115.712 128 18.432-92.672 90.112 21.504 127.488z" p-id="4995"></path></svg>