<?xml version="1.0" standalone="no"?><!DOCTYPE svg PUBLIC "-//W3C//DTD SVG 1.1//EN" "http://www.w3.org/Graphics/SVG/1.1/DTD/svg11.dtd"><svg t="1623120209346" class="icon" viewBox="0 0 1024 1024" version="1.1" xmlns="http://www.w3.org/2000/svg" p-id="51890" xmlns:xlink="http://www.w3.org/1999/xlink" width="24" height="24"><defs><style type="text/css"></style></defs><path d="M879.453906 483.179604c0-131.069151-108.384499-165.715229-165.715229-165.715229l-8.865925 0.141216-6.275937 6.05081c-0.535189 0.506537-54.853305 51.447742-186.597838 51.447742s-186.063673-50.941206-186.457646-51.307549l-6.332219-6.332219h-8.949836c-57.33073 0-165.715229 34.646078-165.715229 165.715229 0 124.551714 96.197946 207.565383 136.894833 237.134839v90.692558c0 81.572854 66.129116 147.70197 147.701971 147.70197h165.715229c81.572854 0 147.70197-66.129116 147.70197-147.70197v-90.692558c40.697911-29.568433 136.895857-112.583125 136.895856-237.134839zM740.863455 666.026002c-2.730181-5.827729-8.555863-9.92607-15.416108-9.92607h-9.006118c-9.449209 0-17.111726-7.662517-17.111726-17.111726V497.589802s28.820396 0 28.820395-28.820396v-86.460164s-57.639768 57.639768-216.149898 57.639769-216.149898-57.638745-216.149898-57.638745v86.460164c0 28.820396 28.820396 28.820396 28.820395 28.820395v141.398404c0 9.449209-7.662517 17.111726-17.111726 17.111727h-9.006118c-6.89913 0-12.763698 4.134157-15.472389 10.014074-39.49041-34.517141-95.304599-98.204649-95.3046-182.934402 0-105.063871 86.854137-120.064516 114.970498-122.146945 21.052478 16.436344 85.784782 57.302077 209.253838 57.302077 123.413797 0 188.146101-40.809451 209.226209-57.274448 26.821879 2.13871 114.998127 17.22429 114.998127 122.119316 0 84.416622-55.866379 148.21874-95.360881 182.845374z" p-id="51891"></path><path d="M512 353.48987c87.543845 0 158.51013-25.806759 158.51013-57.639768 0-39.564088-48.781006-92.586698-115.279536-109.645213V108.520599c0-23.77652-19.455097-43.22957-43.229571-43.22957-23.775496 0-43.22957 19.453051-43.22957 43.22957v77.68429c-66.49853 17.059538-115.279536 70.081125-115.279537 109.645213-0.002047 31.833009 70.964238 57.639768 158.508084 57.639768z" p-id="51892"></path></svg>