<?xml version="1.0" standalone="no"?><!DOCTYPE svg PUBLIC "-//W3C//DTD SVG 1.1//EN" "http://www.w3.org/Graphics/SVG/1.1/DTD/svg11.dtd"><svg t="1623120199185" class="icon" viewBox="0 0 1024 1024" version="1.1" xmlns="http://www.w3.org/2000/svg" p-id="50868" xmlns:xlink="http://www.w3.org/1999/xlink" width="24" height="24"><defs><style type="text/css"></style></defs><path d="M365.952 271.0784c202.112 0 365.952-60.672 365.952-135.552C731.904 60.672 568.064 0 365.952 0S0 60.672 0 135.5264c0 74.8544 163.84 135.552 365.952 135.552zM317.952 59.904l49.3568 146.7904c21.9392 2.5344 43.8784 3.7888 65.792 3.7888 19.4304 0 40.2944-1.024 62.6688-3.1488a308.1728 308.1728 0 0 0 65.1776-13.312c22.784-6.7328 42.5984-14.336 59.4688-22.784 16.896-8.4224 28.4672-17.4848 34.816-27.1872 6.3232-9.7024 6.3232-19.6096 0-29.7472-6.3488-10.112-22.1696-20.224-47.4624-30.3616a380.416 380.416 0 0 0-86.7072-22.784 690.944 690.944 0 0 0-85.4016-6.9632 764.288 764.288 0 0 0-72.1408 1.8944c-21.0944 1.6896-36.2752 2.9696-45.568 3.8144z m49.3568 279.68c-19.4048 0-40.064-1.28-62.0032-3.8144a1910.528 1910.528 0 0 1-63.2832-6.9632 652.2368 652.2368 0 0 1-72.1152-13.2864 367.6928 367.6928 0 0 1-65.8176-19.6096c-19.4048-8.0128-35.84-15.8208-49.3568-23.3984A1260.4416 1260.4416 0 0 1 13.0048 245.9648v601.088c0 5.0688-0.2304 11.8272-0.64 20.2752-0.4352 8.448 0.64 17.0752 3.1744 25.9328 2.5088 8.8576 7.5776 17.5104 15.1808 25.9328 7.5776 8.448 18.9696 16.0512 34.1504 22.784 32.9216 15.1808 75.7248 29.5424 128.4608 43.0336 52.736 13.4912 110.7456 20.224 174.0032 20.224 29.5424 0 59.904-2.0736 91.136-6.2976a1055.744 1055.744 0 0 0 89.216-15.8208 740.5312 740.5312 0 0 0 75.9296-20.8896c22.3488-7.5776 39.424-15.1808 51.2512-22.784a197.632 197.632 0 0 0 27.8272-20.864c6.7584-6.3232 11.5968-14.1312 14.5664-23.424 2.944-9.2672 4.6336-20.4544 5.0432-33.536 0.4352-13.056 0.64-29.7472 0.64-49.9712V245.9648c-15.1808 11.776-33.3312 22.784-54.4 32.896-18.5856 9.2672-41.1392 18.3552-67.712 27.2128s-57.6 15.8208-93.0304 20.864a1166.08 1166.08 0 0 1-67.072 8.8576c-17.7152 1.6896-32.0512 2.9696-43.008 3.8144a179.712 179.712 0 0 1-30.3872 0zM924.16 202.9056c-9.2672 0-19.2 2.3296-29.7216 6.9888a114.5856 114.5856 0 0 0-31.0272 20.864c-10.112 9.2928-18.7648 21.2992-25.9328 36.096-7.168 14.7456-11.1872 32.6656-12.032 53.76-1.6896 18.56-0.8448 34.5856 2.56 48.1024 3.3536 13.4912 7.5776 24.6784 12.6464 33.536 5.0432 8.8576 10.112 16.0256 15.1808 21.504 5.0688 5.4784 8.8576 9.0624 11.392 10.752 7.5776 5.888 15.1808 10.1376 22.784 12.672 4.1984 2.5088 8.4224 4.1984 12.6464 5.0432v401.152c0 21.12 7.168 32.0768 21.504 32.9216 15.1808 0 22.784-10.5472 22.784-31.6416v-401.152c5.0688-0.8448 10.5472-2.56 16.4608-5.0688 10.9568-4.224 21.9392-12.2368 32.896-24.064 5.0688-5.888 10.112-14.9504 15.1808-27.1872a167.68 167.68 0 0 0 10.752-39.8592 181.76 181.76 0 0 0 0.64-45.568 135.8592 135.8592 0 0 0-13.9264-46.8224c-14.336-28.672-28.8768-46.1824-43.648-52.5056-14.7712-6.3488-28.4672-9.4976-41.1392-9.4976z" p-id="50869"></path></svg>