<?xml version="1.0" standalone="no"?><!DOCTYPE svg PUBLIC "-//W3C//DTD SVG 1.1//EN" "http://www.w3.org/Graphics/SVG/1.1/DTD/svg11.dtd"><svg t="1623119945568" class="icon" viewBox="0 0 1024 1024" version="1.1" xmlns="http://www.w3.org/2000/svg" p-id="38719" xmlns:xlink="http://www.w3.org/1999/xlink" width="24" height="24"><defs><style type="text/css"></style></defs><path d="M878.216 480.486c-80.717 0-145.786 63.39-145.786 142.026 0 78.634 65.07 142.026 145.786 142.026S1024 701.146 1024 622.512c-0.824-78.636-65.89-142.026-145.784-142.026z m68.361-85.86C890.57 189.212 704.426 51.197 482.044 51.197c-221.56 0-408.526 137.211-465.358 342.628C-40.146 599.241 51.279 807.064 244.01 911.38c192.733 105.112 425.825 73.017 580.668-78.638l-343.46-321.763 465.358-116.352zM406.27 261.428c0-48.948 40.357-89.067 88.951-89.067 49.42 0 88.955 40.12 88.955 89.067 0 48.949-40.36 89.068-88.955 89.068-48.594-0.801-88.951-40.12-88.951-89.068z" fill="#515151" p-id="38720"></path></svg>