<?xml version="1.0" standalone="no"?><!DOCTYPE svg PUBLIC "-//W3C//DTD SVG 1.1//EN" "http://www.w3.org/Graphics/SVG/1.1/DTD/svg11.dtd"><svg t="1623121160617" class="icon" viewBox="0 0 1134 1024" version="1.1" xmlns="http://www.w3.org/2000/svg" p-id="94531" xmlns:xlink="http://www.w3.org/1999/xlink" width="26.578125" height="24"><defs><style type="text/css"></style></defs><path d="M754.047344 186.908882C754.047344 89.009231 665.043364 0 567.138462 0 469.233559 0 380.229579 89.009231 380.229579 186.908882c0 97.904903 89.003979 186.908882 186.908883 186.908882 97.904903-8.895672 186.908882-89.003979 186.908882-186.908882z" p-id="94532"></path><path d="M627.307651 367.589744h-124.612923C458.200615 367.589744 422.602174 376.490667 378.092308 394.292513c71.207385 17.801846 133.508595 44.499364 186.908882 80.103056 53.405538-35.603692 115.706749-62.30121 186.908882-80.103056-44.499364-17.801846-80.103056-26.702769-124.602421-26.702769zM139.915159 409.862564c151.310441 0 275.912862 26.708021 400.520533 97.910154V1024c-124.607672-80.103056-249.210092-124.607672-400.515282-124.607672-17.801846 0-35.603692-17.801846-35.603692-35.603692v-34.621703c0.005251-19.387733 0.036759-38.470892 0.078769-57.238974 0.210051 0.010503 0.420103 0.010503 0.630154 0.010503 63.803077 0 82.523897-51.725128 82.523897-115.528206S168.828718 540.882051 105.025641 540.882051h-0.16279c-0.068267-27.07561-0.236308-52.974933-0.551384-77.613948v-26.697518c0-17.801846 17.801846-26.702769 35.603692-26.70277zM988.664123 409.862564c-151.30519 0-275.912862 26.708021-400.520533 97.910154V1024c124.607672-80.103056 249.215344-124.607672 400.520533-124.607672 17.801846 0 35.603692-17.801846 35.603692-35.603692v-34.621703c-0.010503-19.387733-0.04201-38.470892-0.08402-57.238974-0.210051 0.010503-0.420103 0.010503-0.630154 0.010503-63.803077 0-82.523897-51.725128-82.523897-115.528206s18.720821-115.528205 82.523897-115.528205h0.16279c0.073518-27.07561 0.236308-52.974933 0.551384-77.613948v-26.697518c0-17.801846-17.801846-26.702769-35.603692-26.70277z" p-id="94533"></path><path d="M91.897436 750.933333c50.74839 0 65.641026-42.320082 65.641026-94.523077s-14.892636-94.523077-65.641026-94.523077C41.143795 561.887179 0 604.207262 0 656.410256s41.143795 94.523077 91.897436 94.523077zM1037.842379 750.933333c-50.753641 0-65.641026-42.320082-65.641025-94.523077s14.887385-94.523077 65.641025-94.523077 91.897436 42.320082 91.897436 94.523077-41.143795 94.523077-91.897436 94.523077z" p-id="94534"></path></svg>