<?xml version="1.0" standalone="no"?><!DOCTYPE svg PUBLIC "-//W3C//DTD SVG 1.1//EN" "http://www.w3.org/Graphics/SVG/1.1/DTD/svg11.dtd"><svg t="1623120154362" class="icon" viewBox="0 0 1024 1024" version="1.1" xmlns="http://www.w3.org/2000/svg" p-id="49050" xmlns:xlink="http://www.w3.org/1999/xlink" width="24" height="24"><defs><style type="text/css"></style></defs><path d="M234.4 638.48a286.8 180.4 0 1 0 573.6 0 286.8 180.4 0 1 0-573.6 0z" p-id="49051"></path><path d="M194.363 443.658a70.88 46.8 60 1 0 81.06-46.8 70.88 46.8 60 1 0-81.06 46.8zM344.94 341.858a86.24 59.44 79.43 1 0 116.863-21.807 86.24 59.44 79.43 1 0-116.863 21.807zM613.23 403.43a62.56 106.56 7.63 1 0 28.297-211.233A62.56 106.56 7.63 1 0 613.23 403.43zM758.202 487.453a45.92 77.76 30 1 0 77.76-134.684 45.92 77.76 30 1 0-77.76 134.684z" p-id="49052"></path></svg>