<?xml version="1.0" standalone="no"?><!DOCTYPE svg PUBLIC "-//W3C//DTD SVG 1.1//EN" "http://www.w3.org/Graphics/SVG/1.1/DTD/svg11.dtd"><svg t="1623121378921" class="icon" viewBox="0 0 1024 1024" version="1.1" xmlns="http://www.w3.org/2000/svg" p-id="103937" xmlns:xlink="http://www.w3.org/1999/xlink" width="24" height="24"><defs><style type="text/css"></style></defs><path d="M945.3824 453.9648c0.4352-21.9648-5.12-42.752-11.8528-63.4368-24.576-75.5712-48.8192-151.2192-73.3184-226.816-1.2032-3.712-0.512-4.9408 3.2-6.0416 13.2096-3.9936 26.3424-8.2432 39.3728-12.7488 3.6096-1.2544 4.4032-0.0512 5.4016 3.0208 10.8288 33.8688 21.8368 67.712 32.7424 101.5552 14.5408 45.0816 28.7488 90.2912 43.6224 135.2704 34.5344 104.5248-12.9536 217.088-112.1792 264.9088-3.3536 1.6128-3.2768 3.1488-2.3552 6.0416 17.5616 54.2464 35.072 108.5184 52.5824 162.7648 8.7296 27.0592 17.4592 54.0928 26.24 81.1264 0.896 2.7904 1.28 4.48-2.5856 5.632-13.2352 3.9168-26.3424 8.2432-39.3984 12.7232-3.712 1.28-4.9664 0.5632-6.1696-3.2-15.7952-49.408-31.7696-98.7392-47.6928-148.096-10.2656-31.7952-20.5568-63.5904-30.72-95.4112-0.9984-3.1232-1.792-4.352-5.7344-3.6352-107.776 19.4048-213.1712-45.2608-245.6576-149.76-18.5344-59.6736-38.2976-118.9888-57.472-178.4832-6.272-19.456-12.4416-38.9632-18.8416-58.368-0.9984-3.072-0.6144-4.2496 2.6112-5.248 13.184-4.0704 26.3168-8.2944 39.3728-12.8 3.7632-1.3056 5.0944-0.5376 6.2976 3.2 13.3376 41.8048 26.8032 83.584 40.2688 125.3376 12.5696 38.912 24.1408 78.1824 37.9904 116.6336 22.7584 63.1552 68.3264 100.992 134.528 110.6432 91.6224 13.3632 174.9504-50.2784 188.2112-141.4656 1.1008-7.7056 1.4848-15.5392 1.536-23.3472zM249.8304 697.1136c-10.368 0.4096-21.1456-0.6144-31.7952-2.56-3.5584-0.6656-4.4544 0.3072-5.4528 3.4048-17.0496 53.1968-34.2528 106.3168-51.4048 159.488-6.1696 19.1488-12.3904 38.272-18.4064 57.472-1.024 3.2768-1.9712 4.48-5.76 3.1744-13.184-4.5824-26.496-8.8064-39.8336-12.928-3.2256-0.9984-3.584-2.1248-2.56-5.2224 22.0928-68.1472 44.0576-136.3456 66.0224-204.544 1.3312-4.1216 2.432-8.32 4.0192-12.3136 1.3312-3.3536 0.7424-5.0176-2.688-6.7328-36.4544-17.9968-64.7936-44.8-84.4032-80.3328-27.6224-50.048-33.2288-102.7072-15.9488-157.2352 22.6304-71.4752 45.9776-142.72 68.7872-214.144 1.5872-4.992 3.328-5.76 8.1408-4.0448 12.2112 4.352 24.576 8.2944 37.0176 11.9552 4.0448 1.2032 4.6336 2.6368 3.3792 6.5024-15.2576 46.7968-30.4384 93.5936-45.4144 140.4672-9.0112 28.1856-19.3024 55.9872-26.7264 84.6336-20.352 78.6688 30.464 161.0752 109.824 178.8928 77.0304 17.28 151.2704-25.5488 175.3088-100.8128 22.7072-71.0912 45.7984-142.08 68.5824-213.1456 1.1008-3.4304 2.432-3.8656 5.504-2.8672 13.2608 4.4032 26.5472 8.6784 39.8592 12.9024 2.5856 0.8192 3.9424 1.6896 2.9184 4.864-24.32 74.9312-46.5152 150.656-73.4208 224.6656-26.1888 72.0384-80.6912 113.2032-156.1088 126.5152-9.6256 1.6384-19.2512 2.176-29.44 1.9456z" p-id="103938"></path><path d="M789.9648 607.0016c-79.104 0-136.96-42.88-157.9776-108.3904-11.3152-35.3024-22.656-70.6048-34.176-105.8304-1.2288-3.7888-0.64-5.8368 2.5088-8.32 13.1328-10.3168 26.368-20.3264 42.2144-26.2656 28.416-10.6496 55.8848-6.9376 82.816 5.376 16.0768 7.3472 30.9504 16.8704 46.1824 25.7536 9.9072 5.8112 19.968 11.2896 30.6944 15.5136 19.712 7.7824 38.656 6.3488 57.088-4.1472 12.1344-6.912 22.272-16.3072 32.7168-25.3184 4.9152-4.2496 9.856-8.4736 14.6944-12.8 1.7408-1.536 2.7136-2.2272 3.6096 0.7936 6.2464 21.1968 15.1808 41.6256 18.8928 63.5136 8.6016 50.6368-4.8384 95.1808-39.7312 132.5824-29.8496 31.9232-67.584 46.848-99.5328 47.5392zM137.344 419.3024c10.4704 8.9088 20.1728 17.536 30.2848 25.6512 9.8304 7.8848 20.736 13.7984 33.3568 16.128 15.3856 2.8416 29.2864-1.8944 42.8032-8.3712 13.6704-6.5536 26.3168-14.9504 39.4496-22.4768 14.9248-8.5248 30.208-16.2304 47.36-19.2 24.3968-4.1984 46.5664 1.4848 66.688 15.5648 5.1712 3.6096 10.0608 7.68 15.1552 11.4176 2.1504 1.5872 2.7392 3.0464 1.8432 5.8368-10.8544 33.1776-21.248 66.4832-32.3328 99.584-16.9984 50.8416-63.9488 86.8608-117.4528 90.7008-70.6816 5.0688-132.224-43.0336-144.2304-112.8448-4.4032-25.6-0.5888-50.3296 8.1152-74.5472 3.2256-8.8832 5.888-17.9712 8.96-27.4432z" p-id="103939"></path></svg>