<?xml version="1.0" standalone="no"?><!DOCTYPE svg PUBLIC "-//W3C//DTD SVG 1.1//EN" "http://www.w3.org/Graphics/SVG/1.1/DTD/svg11.dtd"><svg t="1623120088798" class="icon" viewBox="0 0 1024 1024" version="1.1" xmlns="http://www.w3.org/2000/svg" p-id="45420" xmlns:xlink="http://www.w3.org/1999/xlink" width="24" height="24"><defs><style type="text/css"></style></defs><path d="M621.76 117.333333l213.333333 134.656C899.349333 292.565333 938.666667 365.653333 938.666667 444.48v337.066667C938.666667 868.330667 871.808 938.666667 789.333333 938.666667H234.666667c-82.474667 0-149.333333-70.336-149.333334-157.12v-337.066667c0-78.848 39.317333-151.914667 103.573334-192.490667l213.333333-134.677333c67.562667-42.645333 151.957333-42.645333 219.52 0zM570.666667 576h-117.333334A133.333333 133.333333 0 0 0 320 709.333333 80 80 0 0 0 400 789.333333h224A80 80 0 0 0 704 709.333333 133.333333 133.333333 0 0 0 570.666667 576zM512 362.666667a85.333333 85.333333 0 1 0 0 170.666666 85.333333 85.333333 0 0 0 0-170.666666z" p-id="45421"></path></svg>