<?xml version="1.0" standalone="no"?><!DOCTYPE svg PUBLIC "-//W3C//DTD SVG 1.1//EN" "http://www.w3.org/Graphics/SVG/1.1/DTD/svg11.dtd"><svg t="1623119365091" class="icon" viewBox="0 0 1024 1024" version="1.1" xmlns="http://www.w3.org/2000/svg" p-id="48035" xmlns:xlink="http://www.w3.org/1999/xlink" width="24" height="24"><defs><style type="text/css"></style></defs><path d="M129.297 349.594c55.825 26.811 97.656 64.46 125.918 113.22 7.97 13.756 24.303 20.6 39.407 15.667 68.403-22.34 142.438-33.98 217.378-33.98s148.975 11.657 217.361 33.98c15.104 4.932 31.437-1.911 39.407-15.667 28.262-48.743 70.093-86.392 125.918-113.22 37.785-18.142 61.047-57.208 61.047-99.107v-4.403c0-75.093-61.44-136.533-136.533-136.533H204.8c-75.093 0-136.533 61.44-136.533 136.533v4.403c0 41.9 23.262 80.948 61.03 99.107z" p-id="48036"></path><path d="M1003.469 427.332c-3.396-3.942-8.312-7.85-13.688-11.486-19.285-12.97-44.39-15.07-65.297-4.932-59.46 28.843-97.74 72.448-116.685 131.977a34.133 34.133 0 0 1-46.353 20.855C686.148 530.381 599.893 512.751 512 512.751s-174.148 17.63-249.43 50.995a34.133 34.133 0 0 1-46.352-20.855c-18.944-59.529-57.242-103.117-116.685-131.977-20.907-10.155-46.012-8.038-65.297 4.932-5.393 3.619-10.291 7.527-13.688 11.486C-9.045 461.705-4.369 514.031 27.7 546.1l40.568 40.602v173.926c0 28.16 23.04 51.2 51.2 51.2h785.066c28.16 0 51.2-23.04 51.2-51.2V586.701l40.585-40.585c32.068-32.068 36.744-84.394 7.15-118.784z m-713.336 418.85h-68.266c-18.774 0-34.134 15.36-34.134 34.134s15.36 34.133 34.134 34.133h68.266c18.774 0 34.134-15.36 34.134-34.133s-15.36-34.134-34.134-34.134z m512 0h-68.266c-18.774 0-34.134 15.36-34.134 34.134s15.36 34.133 34.134 34.133h68.266c18.774 0 34.134-15.36 34.134-34.133s-15.36-34.134-34.134-34.134z" p-id="48037"></path></svg>