<?xml version="1.0" standalone="no"?><!DOCTYPE svg PUBLIC "-//W3C//DTD SVG 1.1//EN" "http://www.w3.org/Graphics/SVG/1.1/DTD/svg11.dtd"><svg t="1623121100776" class="icon" viewBox="0 0 1024 1024" version="1.1" xmlns="http://www.w3.org/2000/svg" p-id="89844" xmlns:xlink="http://www.w3.org/1999/xlink" width="24" height="24"><defs><style type="text/css"></style></defs><path d="M889.376 507.872c-47.616 0-89.6 24.8-113.472 62.176-22.816-0.544-43.072 3.648-60.992 12.512-54.72 27.072-72.352 88.544-89.472 147.968-25.056 87.328-44.448 141.088-124.032 145.984-37.76 2.368-67.36-7.552-89.76-30.24-33.088-33.536-46.112-116.192-50.72-158.56a44.224 44.224 0 0 1 17.792-40.48c166.592-122.624 245.696-240.768 235.2-351.488C604 190.464 516.448 125.92 470.976 99.2c3.872 9.216 3.872 9.216 0 0a76.736 76.736 0 1 0-11.136 78.432c34.432 24.96 77.024 67.008 82.496 124.832 4.224 44.416-14.208 93.152-54.208 145.184l-360.704 0.16C88.032 395.712 69.728 347.296 73.76 303.232c4.96-53.408 75.232-119.648 75.232-119.648a76.192 76.192 0 0 0 54.08 22.368c42.304 0 76.576-34.368 76.576-76.736a76.672 76.672 0 0 0-150.784-19.808v0.064c-47.456 31.232-117.76 92.64-126.528 186.336-11.296 118.176 80.16 243.968 270.016 376.256 20.672 14.432 27.072 162.528 87.904 224.512 34.112 34.688 77.952 52.16 130.464 52.16 4.96 0 10.016-0.128 15.2-0.48 134.176-8.224 165.696-117.824 188.672-197.856 13.344-46.496 25.984-90.4 52.256-103.392 2.432-1.216 5.536 6.944 8.352 6.176 0.896 73.632 60.384 123.904 134.208 123.904a134.592 134.592 0 1 0-0.032-269.216z m-695.296 10.4h228a787.936 787.936 0 0 1-84.48 69.824 50.144 50.144 0 0 1-59.072-0.16c-31.744-23.264-59.936-46.112-84.448-69.664z m762.784 159.552a68.64 68.64 0 0 0-67.488-81.6 68.768 68.768 0 0 0-67.552 81.6 76.192 76.192 0 1 1 135.04 0z" p-id="89845"></path></svg>