<?xml version="1.0" standalone="no"?><!DOCTYPE svg PUBLIC "-//W3C//DTD SVG 1.1//EN" "http://www.w3.org/Graphics/SVG/1.1/DTD/svg11.dtd"><svg t="1623119174042" class="icon" viewBox="0 0 1024 1024" version="1.1" xmlns="http://www.w3.org/2000/svg" p-id="42147" xmlns:xlink="http://www.w3.org/1999/xlink" width="24" height="24"><defs><style type="text/css"></style></defs><path d="M40.065 275.254v460.662c0 0 6.845 50.098 22.65 65.904s45.153 32.261 45.153 32.261l323.893 88.436c0 0 28.899 8.557 36.543 4.916s5.325-14.563 5.325-14.563v-519.237l-433.563-118.379z" fill="#515151" p-id="42148"></path><path d="M973.642 275.254l-137.556 37.557v200.057l-90.621 24.543v-199.858l-207.11 56.547v476.345c0 0-1.234 47.699 4.771 56.251 6.053 8.622 36.176-3.466 36.176-3.466l291.078-79.476c0 0 61.446-16.125 83.985-38.67s19.276-117.604 19.276-117.604v-412.225z" fill="#515151" p-id="42149"></path><path d="M972.021 227.289l-440.396-121.861c0 0-19.056-4.578-25.632-4.578s-26.337 4.882-26.337 4.882l-135.855 37.551 469.466 126.89 158.754-42.881z" fill="#515151" p-id="42150"></path><path d="M39.966 227.289l465.9 125.917 183.338-49.516-468.032-126.499-181.206 50.098z" fill="#515151" p-id="42151"></path></svg>