<?xml version="1.0" standalone="no"?><!DOCTYPE svg PUBLIC "-//W3C//DTD SVG 1.1//EN" "http://www.w3.org/Graphics/SVG/1.1/DTD/svg11.dtd"><svg t="1623120119912" class="icon" viewBox="0 0 1024 1024" version="1.1" xmlns="http://www.w3.org/2000/svg" p-id="47262" xmlns:xlink="http://www.w3.org/1999/xlink" width="24" height="24"><defs><style type="text/css"></style></defs><path d="M850.610998 411.412071c-11.843746 0-23.687492 1.2689-35.531238 3.947915-58.371432 13.253862-101.939717 58.090023-119.281687 113.923656-31.30089-34.543747-75.009368-55.269791-121.114429-55.269791a152.789848 152.789848 0 0 0-34.543747 3.947915c-88.827071 20.162202-136.764873 120.127961-120.40937 215.58094 34.966373 204.583468 449.91499 244.76768 449.914989 244.76768s-35.671431-34.402531 20.444635-122.383329c62.319347-97.709369 143.109372-132.253116 123.512035-266.339997-12.268418-83.046415-85.86767-138.174989-162.991188-138.174989z" fill="#515151" p-id="47263"></path><path d="M764.885568 72.319096C632.068609 61.461817 530.833951 126.883829 472.321302 212.468043 443.840644 141.40659 350.3606 99.95348 269.851984 100.658538c-119.986745 0.986467-257.034051 88.968288-266.762623 253.227351C-9.740852 572.145845 145.494699 623.468744 236.295727 765.873058c52.16815 81.777515 81.072457 193.022155 81.072457 193.022155s71.484078-25.942859 175.397753-73.740468c-69.369927-45.25981-120.550587-109.13049-134.509507-191.470823-22.700001-132.676765 42.862203-258.020518 163.554007-285.514709 16.07307-3.665483 46.246277-3.242857 63.306837-1.973957 34.543747 2.396583 58.371432 12.125155 89.390913 27.635407 31.723515-40.46562 75.995835-69.651336 126.331244-81.072457 16.214287-3.665483 31.442106-5.780657 48.220235-5.780657 62.884213 0 122.524544 26.084075 164.40028 67.959811 2.537799-12.830213 4.370541-25.942859 5.075599-39.19672 8.742105-165.246555-97.42796-290.591331-253.649977-303.421544z" fill="#515151" p-id="47264"></path></svg>