<?xml version="1.0" standalone="no"?><!DOCTYPE svg PUBLIC "-//W3C//DTD SVG 1.1//EN" "http://www.w3.org/Graphics/SVG/1.1/DTD/svg11.dtd"><svg t="1623120903591" class="icon" viewBox="0 0 1024 1024" version="1.1" xmlns="http://www.w3.org/2000/svg" p-id="84562" xmlns:xlink="http://www.w3.org/1999/xlink" width="24" height="24"><defs><style type="text/css"></style></defs><path d="M517.12 51.2c10.24 0 20.48 5.12 25.6 10.24l5.12 5.12 460.8 465.92c20.48 20.48 20.48 51.2 0 66.56-15.36 15.36-46.08 20.48-66.56 5.12l-5.12-5.12-92.16-92.16v296.96c0 66.56-46.08 112.64-107.52 117.76H291.84c-61.44 0-112.64-46.08-117.76-112.64V506.88l-92.16 92.16c-20.48 20.48-51.2 20.48-66.56 0-20.48-20.48-20.48-51.2 0-66.56l465.92-465.92c10.24-10.24 20.48-15.36 30.72-15.36h5.12z m117.76 389.12c-10.24-10.24-25.6-5.12-35.84 5.12L512 563.2 430.08 445.44v-5.12c-10.24-5.12-25.6-10.24-35.84 0s-15.36 20.48-10.24 30.72v5.12L450.56 563.2h-46.08c-10.24 0-20.48 10.24-20.48 25.6s10.24 25.6 25.6 25.6h76.8v51.2H404.48c-10.24 0-20.48 10.24-20.48 25.6s10.24 25.6 25.6 25.6h76.8v56.32c0 10.24 10.24 20.48 25.6 20.48s25.6-10.24 25.6-25.6v-51.2h81.92c10.24 0 20.48-10.24 20.48-25.6s-10.24-25.6-25.6-25.6h-76.8v-51.2H614.4c10.24 0 20.48-10.24 20.48-25.6s-10.24-25.6-25.6-25.6h-35.84l66.56-87.04v-5.12c10.24-10.24 5.12-25.6-5.12-30.72z" fill="#515151" p-id="84563"></path></svg>