<?xml version="1.0" standalone="no"?><!DOCTYPE svg PUBLIC "-//W3C//DTD SVG 1.1//EN" "http://www.w3.org/Graphics/SVG/1.1/DTD/svg11.dtd"><svg t="1623120982645" class="icon" viewBox="0 0 1024 1024" version="1.1" xmlns="http://www.w3.org/2000/svg" p-id="86301" xmlns:xlink="http://www.w3.org/1999/xlink" width="24" height="24"><defs><style type="text/css"></style></defs><path d="M961.28 470.613333c-11.434667 14.805333-28.672 14.805333-40.149333 5.888h-43.093334v56.32c-89.088-47.146667-195.968-37.034667-275.626666 26.112v-2.432c0-53.333333-40.192-94.805333-91.861334-94.805333h-45.952c-51.669333 0-91.861333 41.514667-91.861333 94.805333v47.445334c0 53.333333 40.192 94.805333 91.861333 94.805333h45.909334a275.029333 275.029333 0 0 0-9.941334 72.618667 269.994667 269.994667 0 0 0 108.757334 217.770666H275.114667c-100.48 0-186.624-85.930667-186.624-189.653333v-322.986667h-43.093334c-14.336 8.917333-31.573333 5.930667-40.192-5.888-8.576-14.848-5.717333-32.64 5.76-41.514666L473.216 32.042667c5.76-8.874667 20.096-8.874667 28.714667 0l462.250666 400.042666c14.336 5.888 17.237333 26.624-2.858666 38.528z m-424.96 301.525334c0-124.970667 98.133333-226.261333 219.264-226.261334 121.045333 0 219.221333 101.290667 219.221333 226.261334s-98.133333 226.261333-219.221333 226.261333c-121.130667 0-219.306667-101.290667-219.306667-226.261333z m138.965333-75.52l39.210667 40.490666h-17.152a17.28 17.28 0 0 0-16.981333 17.493334c0 9.728 7.594667 17.578667 16.981333 17.578666h41.216v22.4h-41.216a17.28 17.28 0 0 0-16.981333 17.536c0 9.685333 7.594667 17.536 16.981333 17.536h41.216v48.682667c0 9.685333 7.637333 17.578667 17.024 17.578667a17.28 17.28 0 0 0 16.981333-17.578667v-48.64h41.216a17.28 17.28 0 0 0 16.981334-17.578667 17.28 17.28 0 0 0-16.981334-17.493333h-41.216v-22.442667h41.216a17.28 17.28 0 0 0 16.981334-17.536 17.28 17.28 0 0 0-16.981334-17.536h-17.152l39.210667-40.448a17.92 17.92 0 0 0 0-24.832 16.64 16.64 0 0 0-24.064 0l-56.192 58.026667-56.234667-58.026667a16.725333 16.725333 0 0 0-24.064 0 18.048 18.048 0 0 0 0 24.832z" p-id="86302"></path></svg>