<?xml version="1.0" standalone="no"?><!DOCTYPE svg PUBLIC "-//W3C//DTD SVG 1.1//EN" "http://www.w3.org/Graphics/SVG/1.1/DTD/svg11.dtd"><svg t="1623119676445" class="icon" viewBox="0 0 1024 1024" version="1.1" xmlns="http://www.w3.org/2000/svg" p-id="24957" xmlns:xlink="http://www.w3.org/1999/xlink" width="24" height="24"><defs><style type="text/css"></style></defs><path d="M810.859 20.982c13.305 13.305 20.47 30.192 20.981 51.174v879.688c-0.512 20.47-7.676 37.87-20.981 51.174-13.306 13.306-30.193 20.47-51.175 20.982H264.316c-20.47-0.512-37.87-7.676-51.175-20.982-13.305-13.305-20.47-30.192-20.981-51.174V72.156c0.512-20.47 7.676-37.87 20.981-51.174C226.447 7.676 243.334 0.512 264.316 0h495.88c20.47 0.512 37.357 7.676 50.663 20.982z m-51.175 105.93H264.316v703.649h495.88V126.913zM566.244 950.31c6.142-6.141 9.724-13.817 9.724-23.029 0-9.211-3.07-16.887-9.723-23.028-6.141-6.141-14.329-9.212-24.564-9.212h-59.874c-10.235 0-17.91 3.07-24.564 9.212-6.14 6.14-9.723 13.817-9.723 23.028 0 9.212 3.07 16.888 9.723 23.029 6.141 6.14 14.33 9.211 24.564 9.211h59.874c10.235 0 18.423-3.07 24.564-9.211z" p-id="24958"></path></svg>