<?xml version="1.0" standalone="no"?><!DOCTYPE svg PUBLIC "-//W3C//DTD SVG 1.1//EN" "http://www.w3.org/Graphics/SVG/1.1/DTD/svg11.dtd"><svg t="1623119695874" class="icon" viewBox="0 0 1024 1024" version="1.1" xmlns="http://www.w3.org/2000/svg" p-id="25322" xmlns:xlink="http://www.w3.org/1999/xlink" width="24" height="24"><defs><style type="text/css"></style></defs><path d="M399.36 174.08h-17.92c2.56-5.12 2.56-12.8 2.56-17.92V69.12C384 30.72 353.28 0 314.88 0H156.16C117.76 0 87.04 30.72 87.04 69.12v87.04c0 5.12 2.56 12.8 2.56 17.92h-2.56C48.64 174.08 17.92 204.8 17.92 243.2v312.32c0 38.4 30.72 69.12 69.12 69.12h122.88c-2.56 2.56-2.56 5.12-2.56 7.68V998.4c0 12.8 12.8 25.6 25.6 25.6s25.6-12.8 25.6-25.6V632.32c0-2.56 0-5.12-2.56-7.68h140.8c38.4 0 69.12-30.72 69.12-69.12V243.2c2.56-38.4-28.16-69.12-66.56-69.12zM174.08 51.2h104.96c38.4 0 51.2 12.8 51.2 51.2v69.12H138.24V104.96C138.24 66.56 135.68 51.2 174.08 51.2z m243.2 483.84c0 30.72-7.68 35.84-35.84 35.84H104.96c-30.72 0-35.84-7.68-35.84-35.84V261.12c0-30.72 7.68-35.84 35.84-35.84h273.92c30.72 0 35.84 7.68 35.84 35.84v273.92z m537.6-220.16V120.32c0-38.4-30.72-69.12-69.12-69.12h-156.16c-38.4 0-69.12 30.72-69.12 69.12v192c-38.4 0-51.2 30.72-51.2 69.12v174.08c0 38.4 30.72 69.12 69.12 69.12h104.96c-2.56 2.56-2.56 5.12-2.56 7.68V998.4c0 12.8 12.8 25.6 25.6 25.6s25.6-12.8 25.6-25.6V632.32c0-2.56 0-5.12-2.56-7.68h104.96c38.4 0 69.12-30.72 69.12-69.12v-174.08c2.56-33.28-20.48-58.88-48.64-66.56z m-243.2-158.72c0-38.4 12.8-51.2 51.2-51.2h87.04c38.4 0 51.2 12.8 51.2 51.2v156.16h-71.68c2.56-2.56 2.56-5.12 2.56-7.68V217.6c0-12.8-12.8-25.6-25.6-25.6s-25.6 12.8-25.6 25.6v87.04c0 2.56 0 5.12 2.56 7.68h-71.68V156.16z m243.2 363.52c0 30.72-7.68 53.76-35.84 53.76h-222.72c-30.72 0-35.84-23.04-35.84-53.76v-99.84c0-30.72 7.68-53.76 35.84-53.76h222.72c30.72 0 35.84 23.04 35.84 53.76v99.84z m0 0" fill="#040000" p-id="25323"></path></svg>