<?xml version="1.0" standalone="no"?><!DOCTYPE svg PUBLIC "-//W3C//DTD SVG 1.1//EN" "http://www.w3.org/Graphics/SVG/1.1/DTD/svg11.dtd"><svg t="1623118596900" class="icon" viewBox="0 0 1024 1024" version="1.1" xmlns="http://www.w3.org/2000/svg" p-id="19712" xmlns:xlink="http://www.w3.org/1999/xlink" width="24" height="24"><defs><style type="text/css"></style></defs><path d="M805.763069 64.022129l-585.372078 0c-64.888869 0-117.493971 52.603055-117.493971 117.492948l0 663.204747c0 64.889893 52.604078 117.493971 117.493971 117.493971l585.372078 0c64.889893 0 117.493971-52.604078 117.493971-117.493971l0-663.204747C923.25704 116.626207 870.653985 64.022129 805.763069 64.022129zM707.659727 665.778362l-153.015999 3.282766 2.118244 101.530394c0.448208 21.475104-16.597003 39.246863-38.071084 39.694047-0.275269 0.00614-0.554632 0.00921-0.827855 0.00921-21.10262 0-38.424124-16.881482-38.867216-38.080294l-2.117221-101.484346-153.136749 3.284813c-0.283456 0.007163-0.567935 0.010233-0.849344 0.010233-21.093411 0-38.411845-16.866133-38.867216-38.057781-0.460488-21.474081 16.575514-39.256072 38.049594-39.71656l153.181775-3.285836-1.859347-89.107457-153.23601 3.287883c-0.283456 0.007163-0.567935 0.010233-0.849344 0.010233-21.093411 0-38.411845-16.866133-38.867216-38.057781-0.460488-21.474081 16.575514-39.255049 38.049594-39.71656l153.281035-3.288906-0.218988-10.495028L319.368236 292.016797c-16.672728-13.539364-19.21462-38.032198-5.674233-54.706973 13.537318-16.672728 38.031175-19.213597 54.706973-5.675256l140.344398 113.964588 135.326105-119.877251c16.07921-14.240329 40.656979-12.755512 54.900378 3.323699 14.242376 16.078187 12.753465 40.656979-3.323699 54.900378l-146.332786 129.628336 0.226151 10.851139 152.871713-3.279696c21.497617-0.532119 39.256072 16.57449 39.71656 38.047548 0.460488 21.474081-16.575514 39.256072-38.049594 39.71656l-152.916738 3.28072 1.859347 89.107457 152.970974-3.281743c21.555945-0.50142 39.256072 16.573467 39.71656 38.047548C746.169809 647.536906 729.133807 665.317874 707.659727 665.778362z" fill="#555555" p-id="19713"></path></svg>