<?xml version="1.0" standalone="no"?><!DOCTYPE svg PUBLIC "-//W3C//DTD SVG 1.1//EN" "http://www.w3.org/Graphics/SVG/1.1/DTD/svg11.dtd"><svg t="1623120805863" class="icon" viewBox="0 0 1024 1024" version="1.1" xmlns="http://www.w3.org/2000/svg" p-id="80946" xmlns:xlink="http://www.w3.org/1999/xlink" width="24" height="24"><defs><style type="text/css"></style></defs><path d="M781.5 892.01v0.233c-5.8 0.383-11.606 0.734-17.41 1.059v67.44c0 21.373 18.065 38.685 40.281 38.685h82.603c22.255 0 40.282-17.312 40.282-38.684V854.209c-15.145 11.713-33.055 20.01-52.66 23.7-29.671 8.452-60.88 13.333-93.097 14.1z m-541.231 0.35c-32.21-0.813-63.303-5.655-92.941-14.106-19.56-3.633-37.437-11.902-52.582-23.582v106.28c0 21.314 17.988 38.592 40.212 38.592h82.445c22.178 0 40.167-17.279 40.167-38.592v-67.343c-5.729-0.324-11.533-0.63-17.295-1.014v-0.234h-0.006zM973.03 499.617c0.46 0 1.078-0.13 1.078-0.13 27.637-2.58 49.236-25.742 49.236-53.927 0-29.415-23.52-53.31-52.808-54.135v-0.267h-70.842c-20.716-42.747-42.245-130.765-64.57-172.568l-0.656 0.098c-19.106-35.805-52.316-62.925-92.253-74.066l-0.61-0.864c-7.69-2.905-13.262-10.103-13.763-18.684l-1.421-1.975-0.344-0.657a324.766 324.766 0 0 0-5.696-30.799l0.312-0.116c-8.69-39.223-43.744-68.6-85.636-68.6H526.161v-0.039H388.41c-41.898 0-76.953 29.355-85.674 68.58l0.337 0.095c-2.377 10.103-4.26 20.379-5.722 30.8l-0.311 0.656-1.423 1.982c-0.538 8.58-6.07 15.796-13.76 18.677l-0.65 0.845c-39.977 11.162-73.227 38.286-92.29 74.034l-0.65-0.078c-22.335 41.784-43.861 129.795-64.577 172.523H52.847v0.273C23.482 392.08 0 415.995 0 445.371c0 28.186 21.639 51.326 49.237 53.882 0 0 0.657 0.136 1.038 0.136 4.15 0 8.8 0.04 10.261 3.75 0.773 1.926 1.155 4.095 0.117 5.656-9.727 12.715-16.488 27.783-19.293 44.151l-0.35-0.039a450.913 450.913 0 0 0-6.495 76.413c0 57.925 10.995 113.334 31.022 164.194 0.078-0.033 0.194-0.06 0.266-0.077 14.8 38.69 48.97 67.857 90.637 75.664 29.098 8.296 59.62 13.066 91.214 13.834v0.208c72.146 4.622 144.905 7.235 218.169 7.833 20.255 0.325 40.587 0.514 60.999 0.514 83.634 0 166.698-2.692 249.034-7.944v-0.247c31.555-0.773 62.075-5.538 91.13-13.813 41.664-7.807 75.803-36.975 90.597-75.704 0.116 0.018 0.233 0.058 0.273 0.077 20.027-50.905 31.015-106.301 31.015-164.248 0-26.066-2.266-51.619-6.534-76.451l-0.304 0.051c-2.851-16.406-9.572-31.468-19.3-44.184-1.04-1.539-0.688-3.717 0.117-5.654 1.42-3.736 6.11-3.756 10.18-3.756zM622.872 46.952h16.87V117.8h-16.87V46.952z m-90.168 0h19.83l12.261 21.275c0.65 0.846 1.533 2.248 2.65 4.174 0.461 0.864 0.768 1.5 1.002 1.924 2-3.861 3.07-5.903 3.305-6.118l11.917-21.256h19.565l-24.178 35.746 26.789 35.09h-20.528L570.75 95.255a66.024 66.024 0 0 1-2.955-4.83 42.903 42.903 0 0 1-2.656 4.83l-14.564 22.53h-19.183l25.793-35.42-24.481-35.414z m-60.389 0h19.834L519.67 117.8h-18.222l-5.3-15.445h-27.832l-5.299 15.445h-17.84l27.137-70.848z m-105.739 0h64.225v13.234H407.28V117.8h-16.917V60.186h-23.786V46.952zM180.842 405.835c14.652-39.243 33.788-133.072 54.7-172.009 20.181-31.32 43.586-43.703 69.036-49.306 102.74-14.335 225.814-17.2 334.939-8.984 0.076 0.04 0.076 0.058 0.116 0.098 1.462 0.189 4.337 0.325 8.338 0.573 8.494 0.696 16.909 1.463 25.216 2.295 4.766 0.59 9.8 1.344 15.027 2.288a1134.097 1134.097 0 0 1 30.67 3.848c25.373 5.616 48.853 18.005 68.998 49.325 20.871 38.957 40.008 132.805 54.66 172.087 2.648 9.62 2.26 18.89-9.845 23.005-4.15 2.62-10.611 4.232-20.255 4.29-70.763-2.094-137.528-7.658-301.727-7.658-141.873 0-243.698 3.562-297.35 5.487-0.616-0.096-1.382-0.155-2.383-0.117-31.632 0.942-33.822-11.772-30.14-25.222z m-1.61 277.523c-39.242 0-71.107-31.84-71.107-71.063 0-39.263 31.866-71.082 71.107-71.082 39.243 0 71.11 31.8 71.11 71.082-0.001 39.224-31.867 71.063-71.11 71.063z m512.326 15.239c-19.684 25.78-45.588 44.515-74.876 52.769-0.194 0.098-0.538 0.196-0.538 0.196a421.087 421.087 0 0 1-105.085 13.307h-0.116a421.634 421.634 0 0 1-105.125-13.307s-0.154-0.098-0.538-0.196c-29.254-8.275-55.16-26.989-74.835-52.77l0.076-0.04c-3.577-5.077-5.727-13.41-5.727-20.586 0-15.328 9.877-26.138 22.405-27.256v-0.292h327.56v0.292c12.571 1.12 22.449 13.678 22.449 29.031 0 7.177-2.15 13.736-5.73 18.793l0.08 0.059z m150.021-14.022c-39.242 0-71.107-31.82-71.107-71.082 0-39.25 31.866-71.07 71.107-71.07 39.244 0 71.07 31.82 71.07 71.07 0 39.262-31.787 71.082-71.07 71.082zM483.881 65.633a104.83 104.83 0 0 1-1.649-6.115h-0.304a20.9 20.9 0 0 1-1.656 6.421l-8.307 24.162h21.184l-9.268-24.468z m0 0" p-id="80947"></path></svg>