<?xml version="1.0" standalone="no"?><!DOCTYPE svg PUBLIC "-//W3C//DTD SVG 1.1//EN" "http://www.w3.org/Graphics/SVG/1.1/DTD/svg11.dtd"><svg t="1623117992449" class="icon" viewBox="0 0 1024 1024" version="1.1" xmlns="http://www.w3.org/2000/svg" p-id="5828" xmlns:xlink="http://www.w3.org/1999/xlink" width="24" height="24"><defs><style type="text/css"></style></defs><path d="M527.517 642.556l0 8.352c0 8.567-6.95 15.508-15.517 15.508-8.567 0-15.499-6.941-15.499-15.508l0-8.352L335.038 642.556l0 353.943 353.943 0L688.981 642.556 527.517 642.556zM665.02 709.928 488.04 886.89c-1.778 1.778-4.195 2.775-6.701 2.775-0.088 0-0.178 0-0.266 0-2.612-0.081-5.084-1.228-6.807-3.182L373.128 772.886c-3.465-3.919-3.127-9.908 0.782-13.393 3.91-3.493 9.9-3.128 13.384 0.773l94.454 106.113 169.852-169.871c3.715-3.697 9.705-3.697 13.42 0C668.718 700.223 668.718 706.222 665.02 709.928z" p-id="5829"></path><path d="M512 31.397c-214.478 0-388.346 173.869-388.346 388.346 0 143.22 77.533 268.327 192.912 335.652l0-135.81 179.935 0 0-90.601L324.604 528.984c-8.567 0-15.498-6.941-15.498-15.508 0-8.567 6.931-15.507 15.498-15.507l171.896 0L496.5 430.84l-1.257-1.82L324.604 429.02c-8.567 0-15.498-6.941-15.498-15.508 0-8.566 6.931-15.507 15.498-15.507l149.217 0L335.268 197.4c-4.87-7.048-3.11-16.708 3.948-21.577 7.055-4.87 16.708-3.092 21.577 3.946l150.731 218.235 0.953 0 150.732-218.236c4.87-7.049 14.523-8.817 21.577-3.946 7.058 4.87 8.818 14.522 3.948 21.577L550.18 398.004l149.234 0c8.567 0 15.498 6.941 15.498 15.507 0 8.567-6.931 15.508-15.498 15.508L528.758 429.019l-1.24 1.796 0 67.152 171.896 0c8.567 0 15.498 6.94 15.498 15.507 0 8.567-6.931 15.508-15.498 15.508L527.517 528.982l0 90.601 179.935 0 0 135.8c115.369-67.328 192.894-192.428 192.894-335.641C900.346 205.266 726.478 31.397 512 31.397z" p-id="5830"></path></svg>