<?xml version="1.0" standalone="no"?><!DOCTYPE svg PUBLIC "-//W3C//DTD SVG 1.1//EN" "http://www.w3.org/Graphics/SVG/1.1/DTD/svg11.dtd"><svg t="1623121235086" class="icon" viewBox="0 0 1046 1024" version="1.1" xmlns="http://www.w3.org/2000/svg" p-id="98967" xmlns:xlink="http://www.w3.org/1999/xlink" width="24.515625" height="24"><defs><style type="text/css"></style></defs><path d="M151.049808 566.273308h-41.849297V489.767561h43.810983v75.197956l9.808429-6.538953v-8.500638l20.924649-65.389528a146.472542 146.472542 0 0 1 17.001277-35.310344H0v261.558109h81.083014a196.168582 196.168582 0 0 1 69.966794-144.510855zM869.680715 935.724138c33.348659-9.154534 78.467433 28.771392 107.238825 88.275862l57.542784-24.194125c-22.886335-60.812261-18.309068-119.00894 9.80843-137.318008l-58.19668-94.160919h-159.550447z m74.544062-65.389528a26.155811 26.155811 0 1 1-13.731801 34.002555 26.155811 26.155811 0 0 1 13.731801-36.618136zM678.743295 49.042146a77.159642 77.159642 0 0 0-141.895275 60.158365L657.818646 392.337165h167.397191zM1046.232439 710.784163v-261.558109H473.420179l-11.11622 32.694763a144.510856 144.510856 0 0 1 0 92.853129l-18.962963 58.19668-19.616858 37.925926a279.867178 279.867178 0 0 1 7.192848 39.233716z m-109.200511-221.016602v76.505747h-43.810983V489.767561z m-392.337164 137.971903h-43.157088V489.767561h43.810983z m130.779055-61.466156h-43.157088V489.767561h43.810983z m130.779055 61.466156h-43.810984V489.767561h43.810984zM326.947637 767.019157a149.742018 149.742018 0 0 0-113.777777-65.389527 210.554278 210.554278 0 0 0-31.386974 0c-142.54917 15.039591-56.888889 300.791826-56.888889 300.791826s286.40613-113.777778 202.05364-235.402299zM298.176245 457.726692C211.208174 449.879949 196.168582 669.588761 196.168582 669.588761h19.616859a184.398467 184.398467 0 0 1 124.240102 58.19668s130.779055-217.093231 53.619412-249.1341L529.001277 65.389527A47.734355 47.734355 0 0 0 438.109834 32.694764z" p-id="98968"></path></svg>