<?xml version="1.0" standalone="no"?><!DOCTYPE svg PUBLIC "-//W3C//DTD SVG 1.1//EN" "http://www.w3.org/Graphics/SVG/1.1/DTD/svg11.dtd"><svg t="1623120032896" class="icon" viewBox="0 0 1024 1024" version="1.1" xmlns="http://www.w3.org/2000/svg" p-id="42890" xmlns:xlink="http://www.w3.org/1999/xlink" width="24" height="24"><defs><style type="text/css"></style></defs><path d="M998.707 975.258H888.32c-11.264 0-20.48-12.084-20.48-23.45l-0.102 2.867c0.614-97.587-34.1-291.635-202.855-540.057l-0.512-0.615c-1.229-1.74-1.945-3.891-1.945-6.041 0-4.506 6.963-8.295 10.854-9.728l-4.198-0.103c100.454-39.117 200.396 15.258 241.254 44.135l0.102-0.103a9.528 9.528 0 0 0 5.837 1.946c5.325 0 9.626-4.301 9.626-9.626 0-0.819-0.103-1.536-0.307-2.355l-0.205-1.024C892.314 300.134 785.408 260.71 744.55 250.368v-0.307c-4.71-0.922-8.294-5.12-8.294-10.138a10.5 10.5 0 0 1 2.662-6.963c37.376-45.056 103.936-47.104 143.463-45.363v-0.103c5.325 0 9.625-4.403 9.625-9.728 0-3.072-1.433-5.836-3.584-7.577-118.988-94.208-239.41-25.6-281.702-0.717l-1.229 1.024c4.199-5.222-2.15 0.205-3.993 0.205-5.632 0-10.24-4.506-10.24-10.343h-0.308c-3.89-79.36 7.783-120.832 21.812-145.715 0.716-1.433 1.228-2.97 1.228-4.608 0-5.427-4.3-9.728-9.625-9.728-1.331 0-2.56 0.307-3.687 0.717l0.103 0.205C526.848 28.774 478.003 102.4 461.619 129.33v-1.945c-1.74 3.072-5.12 7.065-8.806 7.065-2.56 0-4.71-0.921-6.554-2.457l-0.205-1.639c-99.328-62.669-189.03-48.23-234.905-27.443l-0.41 0.102c-3.891 1.536-6.144 5.53-5.734 9.83 0.41 4.609 3.993 8.295 8.499 8.807l0.512-0.205c40.038 6.452 103.322 29.901 132.198 114.484h2.663c0.512 1.228 0.819 2.56 0.819 3.993 0 4.608-3.072 8.602-7.373 9.933l-0.921 0.205c-38.093 13.21-172.032 78.745-106.394 279.04 1.024 4.3 4.813 7.577 9.42 7.577 4.506 0 8.295-3.072 9.32-7.27 19.558-46.694 66.969-140.186 141.618-139.366l-6.758 0.102c5.632 0 10.24 4.608 10.24 10.342l-0.102 1.127c-4.404 45.773-7.066 225.997 106.393 278.733l-0.819 1.228c1.229 0.512 2.56 0.922 4.096 0.922 5.325 0 9.523-4.403 9.523-9.728 0-0.717-0.102-1.536-0.307-2.355l-2.15-10.035c-12.186-59.904-28.672-201.933 64.307-221.492l0.614 3.482c0.512-0.102 0.82-3.482 1.331-3.482 4.506 0 8.295 3.38 9.626 7.476l0.41 0.512c31.948 76.083 104.14 243.61 51.814 508.518h-0.102c-1.639 9.626-10.036 19.66-20.07 19.66H364.338c12.083-2.457 21.197-11.57 21.197-24.37h4.096c21.914 0 42.394-16.794 42.394-38.912V672.154c0-22.119-28.57-31.95-48.026-31.95h-15.872l0.205-43.622c0-11.264-9.626-20.48-21.607-20.48H240.23c-11.673 0-15.77 8.09-15.77 18.023L223.95 640l-21.3-0.102c-23.449 0-42.393 17.612-42.393 39.424v232.96c0 21.708 14.95 39.321 38.4 39.321h0.205c0 12.595 14.643 21.095 26.726 23.45H25.395C11.366 975.053 0 983.859 0 998.093s11.366 25.702 25.395 25.702h973.21c14.029 0 25.395-11.571 25.395-25.702 0.102-14.131-11.264-22.835-25.293-22.835zM335.872 714.342c0-5.734 7.168-10.547 16.077-10.547 8.806 0 16.077 4.608 16.077 10.547v155.239c0 5.734-7.168 10.445-16.077 10.445s-16.077-4.608-16.077-10.445V714.342z m-79.974-106.496h80.076v31.95h-80.076v-31.95z m-31.95 106.496c0-5.734 7.169-10.547 16.078-10.547 8.806 0 16.076 4.608 16.076 10.547v155.239c0 5.734-7.168 10.445-16.076 10.445s-16.077-4.608-16.077-10.445V714.342z m48.026 229.376h47.924c0 12.903 14.643 28.98 26.726 31.335h-102.4c11.98-2.355 27.75-18.432 27.75-31.335z" p-id="42891"></path></svg>