<?xml version="1.0" standalone="no"?><!DOCTYPE svg PUBLIC "-//W3C//DTD SVG 1.1//EN" "http://www.w3.org/Graphics/SVG/1.1/DTD/svg11.dtd"><svg t="1623120283244" class="icon" viewBox="0 0 1024 1024" version="1.1" xmlns="http://www.w3.org/2000/svg" p-id="56192" xmlns:xlink="http://www.w3.org/1999/xlink" width="24" height="24"><defs><style type="text/css"></style></defs><path d="M943.456 266.592L541.888 499.728 140.32 266.592 541.888 60.096l401.568 206.496z m-264.4-3.584c10.8-17.696 8.4-39.04-2.672-56.112-24.592-37.968-81.984-60.448-125.232-37.888-9.184 4.8-17.456 11.328-25.52 17.584-3.92 3.04-7.808 6.112-11.744 9.136-5.792 4.432-7.44 5.552-12.096 8.512-4.544 1.184-8.72 3.472-12.096 6.944-7.168 3.792-14.576 7.296-21.68 11.04-12.464 6.576-24.928 13.12-37.52 19.504a913.622 913.622 0 0 1-31.872 15.44c-5.68 2.624-11.424 5.12-17.2 7.552a498.317 498.317 0 0 1-8.512 3.472c0.64-0.256-8.608 3.296-4.688 1.856-13.728 5.024-23.6 15.984-19.6 30.624 1.536 5.632 5.84 11.104 11.408 14.832 44.528 53.52 131.664 80.32 199.664 54.368 17.232-6.576 34.496-19.168 42.896-34.88 6.592-12.352 8.192-24.992 6.08-37.616 4.592-0.24 9.216-0.704 13.888-1.424 21.888-3.392 45.264-14.544 56.496-32.944z m0 0c-11.248 18.384-34.624 29.536-56.48 32.928-4.672 0.72-9.296 1.2-13.888 1.424 2.112 12.624 0.512 25.28-6.08 37.616-8.416 15.712-25.664 28.288-42.896 34.88-67.984 25.952-155.136-0.848-199.664-54.368-5.552-3.712-9.856-9.184-11.408-14.832-4-14.64 5.872-25.584 19.6-30.624-3.92 1.44 5.328-2.112 4.688-1.856 2.848-1.136 5.696-2.272 8.512-3.472a588.909 588.909 0 0 0 17.2-7.552 913.622 913.622 0 0 0 31.872-15.44c12.592-6.384 25.056-12.928 37.52-19.504 7.088-3.744 14.496-7.248 21.68-11.04 3.376-3.472 7.568-5.776 12.096-6.944 4.656-2.944 6.304-4.08 12.096-8.512 3.936-3.024 7.824-6.096 11.744-9.136 8.064-6.256 16.32-12.784 25.52-17.584 43.248-22.56 100.64-0.08 125.232 37.888 11.072 17.104 13.472 38.448 2.656 56.128z m-123.408 45.904c-0.032-1.632-0.416-4.8-0.256-4.56a43.83 43.83 0 0 0-0.944-3.44c-0.416-0.752-2-4.256-2.464-5.024a94.754 94.754 0 0 0-4.784-7.264c-0.72-0.8-3.488-4.176-4-4.704a167.562 167.562 0 0 0-5.296-5.376c-10-6.128-19.44-13.056-28.992-19.808-28.816 15.136-57.504 30.416-87.232 43.824 1.904 1.296 3.808 2.56 5.776 3.76 6 3.648 12.176 7.056 18.624 9.984 0.48 0.208 5.472 2.288 4.24 1.84 0.896 0.352 1.808 0.72 2.704 1.056 3.04 1.12 6.112 2.208 9.216 3.184 6.992 2.16 14.08 4.08 21.296 5.408 0.672 0.112 5.856 0.88 4.656 0.768 0.848 0.096 1.68 0.208 2.512 0.304 3.168 0.304 6.336 0.592 9.52 0.704 3.92 0.144 7.824 0.208 11.744 0.016a128.38 128.38 0 0 0 4.288-0.256c5.936-0.864 11.84-2.048 17.504-3.888 0-0.144 6.224-2.704 7.344-3.296-1.12 0.592-7.344 3.152-7.344 3.296-5.68 1.84-11.584 3.024-17.504 3.888-1.424 0.096-2.848 0.192-4.288 0.256-3.92 0.192-7.824 0.112-11.744-0.016-3.184-0.112-6.352-0.4-9.52-0.704-0.848-0.08-1.68-0.192-2.512-0.304 1.184 0.112-4-0.656-4.656-0.768-7.216-1.328-14.304-3.248-21.296-5.408-3.104-0.96-6.16-2.064-9.216-3.184-0.912-0.336-1.808-0.704-2.704-1.056 1.232 0.448-3.76-1.632-4.24-1.84-6.448-2.928-12.624-6.336-18.624-9.984-1.968-1.2-3.872-2.48-5.776-3.76 29.744-13.392 58.432-28.688 87.232-43.824 9.552 6.752 18.976 13.68 28.992 19.808a167.814 167.814 0 0 1 5.296 5.376c0.512 0.528 3.28 3.904 4 4.704a97.989 97.989 0 0 1 4.784 7.264c0.464 0.768 2.048 4.288 2.464 5.024 0.368 1.136 0.672 2.272 0.944 3.44-0.16-0.24 0.224 2.928 0.256 4.56-0.144 0.512-0.368 0.992-0.544 1.504 0.144-0.752-1.328 2-2.352 3.664-0.16 0.16-0.32 0.32-0.512 0.528 0.192-0.208 0.352-0.368 0.512-0.528 1.024-1.664 2.48-4.416 2.352-3.664-0.288 0.816-0.56 1.648-0.88 2.448 0.592-1.456 0.832-2.176 0.88-2.448 0.176-0.512 0.4-0.992 0.544-1.504z m-1.44 3.952c0.336-0.8 0.592-1.632 0.88-2.448-0.032 0.272-0.288 0.992-0.88 2.448z m0 0c0.336-0.8 0.592-1.632 0.88-2.448-0.032 0.272-0.288 0.992-0.88 2.448z m389.248-38.448L920.64 719.312 541.888 963.904V507.552l401.568-233.136z m-106.208 368.72c0.784-13.744-12.944-25.232-27.136-25.232-15.392 0-26.336 11.504-27.12 25.232-0.032 0.368-0.448 4.368-0.416 4.768a91.846 91.846 0 0 1-1.168 5.136c-0.576 2.32-1.36 4.608-2.144 6.88-0.096 0.288-1.68 3.84-1.84 4.368-1.92 3.76-4.208 7.344-6.64 10.832-0.16 0.24-2.256 2.8-2.832 3.568-1.808 1.968-3.728 3.856-5.696 5.696-1.408 1.312-2.912 2.544-4.416 3.76 1.856-1.536-2.96 2.032-3.44 2.336-2 1.264-4.112 2.352-6.224 3.456-0.448 0.224-3.536 1.504-4.208 1.84-3.056 1.008-6.208 1.76-9.392 2.368 1.456-0.336-3.616 0.256-4.496 0.288-1.008 0.032-7.088-0.56-6.8-0.384-1.744-0.352-3.472-0.8-5.2-1.264-0.528-0.144-0.96-0.24-1.312-0.336a31.784 31.784 0 0 0-1.104-0.496c-2.032-0.896-3.968-1.968-5.888-3.056-0.448-0.256-1.664-1.12-2.544-1.76a72.684 72.684 0 0 1-3.28-2.992c-0.336-0.32-1.024-1.152-1.616-1.856a68.9 68.9 0 0 1-2.416-3.664c-0.48-0.768-2.032-4.096-2.432-4.832-1.072-2.912-1.92-5.888-2.688-8.88-0.496-1.936-0.848-3.92-1.232-5.888-0.016-0.08-0.016-0.128-0.032-0.208-0.032-0.304-0.064-0.688-0.128-1.184-1.024-9.12-0.944-18.336-0.592-27.504 0.32-8.528 1.088-17.056 1.872-25.552l0.576-6.208c0.048-0.48 0.4-2.976 0.528-4.016 0.8-4.384 1.888-8.736 3.136-13.04 1.216-4.192 2.736-8.32 4.368-12.384 0.16-0.384 1.072-2.4 1.536-3.424 0.72-1.44 1.456-2.88 2.208-4.32 3.936-7.456 8.704-14.496 13.92-21.232 0.56-0.64 2.16-2.576 2.544-2.992 1.344-1.52 2.784-2.976 4.208-4.448 2.768-2.832 5.728-5.504 8.768-8.096a120.571 120.571 0 0 1 4.512-3.616c0.192-0.128 0.4-0.256 0.672-0.448 3.472-2.352 7.152-4.4 10.928-6.304 0.624-0.304 1.248-0.608 1.888-0.896 0.784-0.32 1.952-0.784 2.592-0.992 1.776-0.592 3.6-1.04 5.456-1.44-0.144 0.144 3.776-0.24 6.08-0.304 0.768 0.192 1.808 0.512 2.608 0.752 0.336 0.176 0.656 0.352 0.992 0.544-0.992-0.48 1.328 1.36 3.248 3.024 0.432 0.912 3.696 5.328 4.448 6.688 0.096 0.176 0.176 0.336 0.256 0.464 0.064 0.176 0.16 0.368 0.24 0.592 0.8 1.968 1.44 3.984 2.08 5.984 4.208 13.168 18.88 21.328 33.376 17.616 14.016-3.584 23.168-17.856 18.944-31.04-6.048-18.816-16.32-34.848-33.84-46.128-15.136-9.728-34.768-10.4-52.128-7.056-36.544 7.04-66.464 37.696-84.352 66.336-21.376 34.192-26.032 73.712-26.16 112.576-0.08 20.272 3.456 39.552 12.032 58.176 8.976 19.472 27.936 33.28 48.688 40.784 32.448 11.712 68.08 1.888 94.16-17.728 26.896-20.112 42.224-51.072 44.048-82.864z m-27.12-25.216c-15.392 0-26.336 11.504-27.12 25.232-0.032 0.368-0.448 4.368-0.416 4.768a91.846 91.846 0 0 1-1.168 5.136c-0.576 2.32-1.36 4.608-2.144 6.88-0.096 0.288-1.68 3.84-1.84 4.368-1.92 3.76-4.208 7.344-6.64 10.832-0.16 0.24-2.256 2.8-2.832 3.568-1.808 1.968-3.728 3.856-5.696 5.696-1.408 1.312-2.912 2.544-4.416 3.76 1.856-1.536-2.96 2.032-3.44 2.336-2 1.264-4.112 2.352-6.224 3.456-0.448 0.224-3.536 1.504-4.208 1.84-3.056 1.008-6.208 1.76-9.392 2.368 1.456-0.336-3.616 0.256-4.496 0.288-1.008 0.032-7.088-0.56-6.8-0.384-1.744-0.352-3.472-0.8-5.2-1.264-0.528-0.144-0.96-0.24-1.312-0.336a31.784 31.784 0 0 0-1.104-0.496c-2.032-0.896-3.968-1.968-5.888-3.056-0.448-0.256-1.664-1.12-2.544-1.76a72.684 72.684 0 0 1-3.28-2.992c-0.336-0.32-1.024-1.152-1.616-1.856a68.9 68.9 0 0 1-2.416-3.664c-0.48-0.768-2.032-4.096-2.432-4.832-1.072-2.912-1.92-5.888-2.688-8.88-0.496-1.936-0.848-3.92-1.232-5.888-0.016-0.08-0.016-0.128-0.032-0.208-0.032-0.304-0.064-0.688-0.128-1.184-1.024-9.12-0.944-18.336-0.592-27.504 0.32-8.528 1.088-17.056 1.872-25.552l0.576-6.208c0.048-0.48 0.4-2.976 0.528-4.016 0.8-4.384 1.888-8.736 3.136-13.04 1.216-4.192 2.736-8.32 4.368-12.384 0.16-0.384 1.072-2.4 1.536-3.424 0.72-1.44 1.456-2.88 2.208-4.32 3.936-7.456 8.704-14.496 13.92-21.232 0.56-0.64 2.16-2.576 2.544-2.992 1.344-1.52 2.784-2.976 4.208-4.448 2.768-2.832 5.728-5.504 8.768-8.096a120.571 120.571 0 0 1 4.512-3.616c0.192-0.128 0.4-0.256 0.672-0.448 3.472-2.352 7.152-4.4 10.928-6.304 0.624-0.304 1.248-0.608 1.888-0.896 0.784-0.32 1.952-0.784 2.592-0.992 1.776-0.592 3.6-1.04 5.456-1.44-0.144 0.144 3.776-0.24 6.08-0.304 0.768 0.192 1.808 0.512 2.608 0.752 0.336 0.176 0.656 0.352 0.992 0.544-0.992-0.48 1.328 1.36 3.248 3.024 0.432 0.912 3.696 5.328 4.448 6.688 0.096 0.176 0.176 0.336 0.256 0.464 0.064 0.176 0.16 0.368 0.24 0.592 0.8 1.968 1.44 3.984 2.08 5.984 4.208 13.168 18.88 21.328 33.376 17.616 14.016-3.584 23.168-17.856 18.944-31.04-6.048-18.816-16.32-34.848-33.84-46.128-15.136-9.728-34.768-10.4-52.128-7.056-36.544 7.04-66.464 37.696-84.352 66.336-21.376 34.192-26.032 73.712-26.16 112.576-0.08 20.272 3.456 39.552 12.032 58.176 8.976 19.472 27.936 33.28 48.688 40.784 32.448 11.712 68.08 1.888 94.16-17.728 26.88-20.208 42.208-51.168 44.032-82.96 0.8-13.664-12.928-25.136-27.12-25.136zM132.496 274.416l401.568 233.152V963.92l-371.2-244.592-30.368-444.912zM434.608 671.44c-4.608-10.64-10.224-25.104-12.624-33.696-15.472-55.04-22.448-110.032-53.424-162.48-10.016-16.96-41.408-17.936-46.816-1.664-11.536 34.688-35.12 63.12-55.232 92.816-22.368 33.024-39.552 68.416-38.88 110.992 0.208 13.712 17.168 25.856 30.656 26.336 16.064 0.576 23.776-10.736 23.568-24.4 0.08 5.216 0.352-5.52 0.48-7.04 0.4-4.512 1.2-8.928 2.112-13.312a77.49 77.49 0 0 1 0.912-3.808c35.04 13.28 72.64 35.184 106.464 56.096 2.08 1.296 4.272 2.224 6.48 2.896 10.272 22.448 18.656 42.944 22.432 64.08 2.464 13.84 15.472 25.792 30.656 26.336 14.368 0.512 26.032-10.56 23.568-24.4-4.48-25.072-13.568-49.584-24.512-73.792-5.264-11.664-10.768-23.248-15.84-34.96zM346.8 550.48c8.576 28.848 13.568 59.056 21.808 88.416 0.384 1.376 0.832 2.736 1.232 4.112-20.976-11.648-42.4-22.352-64.496-31.36 4.112-6.752 8.448-13.344 12.864-19.872 9.344-13.792 19.392-27.296 28.592-41.296z m207.408-237.616c0.336-0.8 0.592-1.632 0.88-2.448-0.032 0.272-0.288 0.992-0.88 2.448z m0 0c0.336-0.8 0.592-1.632 0.88-2.448-0.032 0.272-0.288 0.992-0.88 2.448z m78.24-75.68c0.976-1.344 0.672-0.832 0 0.064 0.016-0.032 0.016-0.048 0-0.064z m-1.52-2.704c0.24 0.624 0.848 2.048 1.056 2.864v0.256c-0.144 0.256-0.288 0.528-0.432 0.784a6.75 6.75 0 0 1-0.64 0.688c-0.368 0.336-1.184 0.928-1.872 1.424a78.418 78.418 0 0 1-4.144 2.176c-0.416 0.208-3.184 1.232-4.032 1.568-4.368 1.36-8.896 2.304-13.44 3.04 2.192-0.416-4.688 0.272-4.896 0.272-2.608 0.08-5.216-0.112-7.808-0.288-0.336-0.016-0.608-0.048-0.864-0.064-0.4-0.096-0.976-0.224-1.76-0.384-2.384-0.48-4.704-1.184-7.024-1.856-0.48-0.144-4.272-1.552-4.544-1.568-1.504-0.688-2.992-1.424-4.48-2.16a76.029 76.029 0 0 1-1.968-1.024c-5.04-4.624-10.432-8.992-16.016-13.072 2.352-1.84 4.688-3.68 7.04-5.504a273.736 273.736 0 0 1 5.488-4.144c0.368-0.272 0.672-0.496 0.928-0.688 0.208-0.144 0.416-0.272 0.688-0.448 2.672-1.744 5.456-3.28 8.352-4.672 0.624-0.224 2.864-1.12 3.696-1.36 0.672-0.176 2.576-0.448 3.552-0.608 1.344 0 2.672 0.048 4 0.112 0.256 0.016 0.496 0.016 0.688 0.032 0.416 0.096 0.96 0.24 1.68 0.384 2.688 0.576 5.28 1.44 7.872 2.288 0.72 0.24 1.296 0.416 1.744 0.56 0.304 0.192 0.992 0.576 2.304 1.232 4.528 2.224 8.816 4.832 12.992 7.6 0.304 0.192 0.512 0.336 0.752 0.496 0.272 0.24 0.624 0.528 1.136 0.944 1.664 1.344 3.2 2.816 4.72 4.288a63.222 63.222 0 0 1 2.272 2.368c-0.896-0.96 1.44 1.936 2.016 2.832 0.336 0.544 0.64 1.088 0.944 1.632z" fill="#515151" p-id="56193"></path></svg>