<?xml version="1.0" standalone="no"?><!DOCTYPE svg PUBLIC "-//W3C//DTD SVG 1.1//EN" "http://www.w3.org/Graphics/SVG/1.1/DTD/svg11.dtd"><svg t="1623118677280" class="icon" viewBox="0 0 1024 1024" version="1.1" xmlns="http://www.w3.org/2000/svg" p-id="20922" xmlns:xlink="http://www.w3.org/1999/xlink" width="24" height="24"><defs><style type="text/css"></style></defs><path d="M515.584 886.784c-143.872 0-267.264-29.184-356.352-84.992-87.04-54.272-135.168-130.048-135.168-213.504 0-142.336 113.152-210.432 187.904-256 11.264-6.656 21.504-13.312 30.72-18.944 14.336-9.728 29.184-20.992 44.544-32.768 57.856-44.544 129.536-99.84 247.808-99.84 121.344 0 201.216 76.8 248.832 122.368 11.264 10.752 20.48 19.968 27.648 25.088 6.144 4.608 14.848 10.24 25.6 16.896 59.392 37.888 170.496 109.056 164.352 229.888-7.68 144.384-221.184 311.808-485.888 311.808z m19.456-654.336c-100.864 0-159.744 45.056-216.576 89.088-16.384 12.8-31.744 24.576-48.128 34.816-9.728 6.656-20.992 13.312-32.256 19.968-72.704 44.032-162.816 98.816-162.816 211.968 0 65.024 39.424 125.44 111.104 169.984 80.896 50.688 195.072 77.312 329.216 77.312 111.616 0 221.184-32.768 308.736-91.648 74.752-50.688 123.392-116.224 125.952-171.008 4.608-91.136-86.528-149.504-140.8-183.808-11.264-7.168-21.504-13.824-28.672-19.456-9.728-7.168-19.968-17.408-32.256-29.184-45.056-43.008-112.64-108.032-213.504-108.032z" p-id="20923"></path><path d="M422.912 717.312c-109.568 0-199.168-68.096-199.168-151.552s89.088-151.552 199.168-151.552c34.304 0 68.608 6.656 98.304 19.456 61.952 26.624 100.864 77.312 100.864 132.096-0.512 83.456-89.6 151.552-199.168 151.552z m0-251.904c-79.872 0-147.968 46.08-147.968 100.352s67.584 100.352 147.968 100.352c79.872 0 147.968-46.08 147.968-100.352 0-33.792-26.624-66.56-69.632-84.992-24.064-9.728-51.2-15.36-78.336-15.36z" p-id="20924"></path><path d="M340.992 586.24c-5.12 0-10.24-1.536-14.848-4.608-11.776-8.192-14.336-24.064-6.144-35.84 11.264-15.872 43.008-41.984 92.16-41.984 14.336 0 25.6 11.264 25.6 25.6s-11.264 25.6-25.6 25.6c-34.304 0-50.176 20.48-50.176 20.48-5.12 7.168-12.8 10.752-20.992 10.752z" p-id="20925"></path></svg>