<?xml version="1.0" standalone="no"?><!DOCTYPE svg PUBLIC "-//W3C//DTD SVG 1.1//EN" "http://www.w3.org/Graphics/SVG/1.1/DTD/svg11.dtd"><svg t="1623121726436" class="icon" viewBox="0 0 1024 1024" version="1.1" xmlns="http://www.w3.org/2000/svg" p-id="116896" xmlns:xlink="http://www.w3.org/1999/xlink" width="24" height="24"><defs><style type="text/css"></style></defs><path d="M754.728281 867.446055h-49.761423v79.352065c-0.10239 42.491751-34.30057 76.9971-76.382762 77.09949-42.184582-0.10239-76.382762-34.505349-76.485152-77.09949v-79.352065h-49.659034v79.352065c-0.10239 42.491751-34.30057 76.9971-76.485151 77.09949-42.184582-0.10239-76.382762-34.607739-76.382762-77.09949v-79.352065h-49.761424V947.105289c-0.10239 42.491751-34.30057 76.792321-76.382761 76.792321-42.184582-0.10239-76.382762-34.505349-76.485152-77.09949v-79.352065H23.870167C10.764278 867.446055 0.115743 856.79752 0.115743 843.486851c0-13.208279 10.648535-23.959204 23.754424-23.959204h123.072493V259.660434c-40.341566 0.10239-64.915108 0.307169-66.348565 0.511949l-3.378862 0.307169c-10.648535 1.126287-13.720228 1.433457-22.116189 10.136586-5.631437 5.631437-4.709929 26.211779-4.505149 41.365464 0.307169 5.324268 0.307169 10.750925 0.307169 16.382362-0.511949 13.720228-11.672433 24.573543-25.290271 24.471152C11.992955 352.732727 0.934861 341.777022 0.627692 328.056794c0-4.812319-0.307169-9.624638-0.30717-14.641736-0.819118-27.030897-1.638236-57.440656 18.942106-78.532946 20.989901-21.092291 37.474653-23.140086 51.911609-24.778322l3.071693-0.30717c2.457354-0.307169 29.283472-0.511949 72.491951-0.716728V77.09949C146.84027 34.607739 181.03845 0.10239 223.223032 0c42.184582 0.10239 76.382762 34.607739 76.382762 77.09949v131.468453l49.761424-0.10239V77.09949C349.674387 34.607739 383.872567 0.10239 426.057149 0c42.389361 0 76.792321 34.607739 76.382761 77.09949v131.161284h49.761424v-131.058894C552.303724 34.607739 586.501904 0.20478 628.686486 0.10239c42.389361 0 76.792321 34.607739 76.382761 77.09949v130.956504h49.761424v-131.058894C754.933061 34.607739 789.028851 0.10239 831.213433 0c42.184582 0.10239 76.382762 34.607739 76.382762 77.09949v130.956504h90.614938c13.925007 0 25.085491 11.262874 25.085492 25.392661 0 14.027397-11.160484 25.392661-25.085492 25.392661h-90.614938v560.788721h92.662733c13.105889 0 23.754425 10.750925 23.754425 23.959204 0 13.208279-10.648535 23.959204-23.754425 23.959204h-92.560344v79.352065c-0.10239 42.491751-34.30057 76.9971-76.382761 77.09949-42.184582-0.10239-76.382762-34.607739-76.382762-77.09949l-0.20478-79.454455z m0-47.918408V258.841316h-49.761423v560.686331H754.728281zM552.201334 258.943706h-49.659034v560.583941h49.659034V258.943706zM349.571997 819.527647V259.148485l-49.761424 0.10239v560.276772h49.761424z m0 0" fill="#5D5D5D" p-id="116897"></path></svg>