<?xml version="1.0" standalone="no"?><!DOCTYPE svg PUBLIC "-//W3C//DTD SVG 1.1//EN" "http://www.w3.org/Graphics/SVG/1.1/DTD/svg11.dtd"><svg t="1623119109259" class="icon" viewBox="0 0 1024 1024" version="1.1" xmlns="http://www.w3.org/2000/svg" p-id="38343" xmlns:xlink="http://www.w3.org/1999/xlink" width="24" height="24"><defs><style type="text/css"></style></defs><path d="M545.024 34.922667a47.04 47.04 0 0 0-66.133333-0.128C359.509333 151.125333 128 367.296 128 608.512A389.162667 389.162667 0 0 0 512 1002.666667a389.162667 389.162667 0 0 0 384-394.154667c0-241.984-228.714667-454.186667-350.976-573.589333z m97.962667 538.581333l-145.322667 208.810667a15.978667 15.978667 0 0 1-29.077333-9.557334v-129.792a16.213333 16.213333 0 0 0-16-16.448h-58.709334a16.234667 16.234667 0 0 1-16.021333-16.448 16.704 16.704 0 0 1 2.986667-9.557333l145.322666-208.810667a15.957333 15.957333 0 0 1 29.056 9.557334v129.792a16.256 16.256 0 0 0 16.021334 16.448h58.730666a16.469333 16.469333 0 0 1 13.013334 26.005333z" fill="#515151" p-id="38344"></path></svg>