<?xml version="1.0" standalone="no"?><!DOCTYPE svg PUBLIC "-//W3C//DTD SVG 1.1//EN" "http://www.w3.org/Graphics/SVG/1.1/DTD/svg11.dtd"><svg t="1623121590234" class="icon" viewBox="0 0 1024 1024" version="1.1" xmlns="http://www.w3.org/2000/svg" p-id="110701" xmlns:xlink="http://www.w3.org/1999/xlink" width="24" height="24"><defs><style type="text/css"></style></defs><path d="M513.7 98.8S210.3 379.1 205 611.6c-5.3 232.6 205.4 316 308.7 316 127.2 0 303.4-95.4 302.1-329.4-1.3-234-302.1-499.4-302.1-499.4z m59 730c-14.5 6-31.5-5.1-37.9-24.7-6.4-19.6 0.2-40.4 14.8-46.4 0.1-0.1 0.3-0.1 0.4-0.1 73.7-30.5 122.1-108.1 135-201h0.1c1.5-11.8 7.5-21.8 16.8-25.6 14.5-6 31.5 5.1 37.9 24.7 2.5 7.8 3 15.8 1.7 22.9-16.4 115.7-76.8 212.4-168.8 250.2z m0 0" p-id="110702"></path></svg>