<?xml version="1.0" standalone="no"?><!DOCTYPE svg PUBLIC "-//W3C//DTD SVG 1.1//EN" "http://www.w3.org/Graphics/SVG/1.1/DTD/svg11.dtd"><svg t="1623120591812" class="icon" viewBox="0 0 1024 1024" version="1.1" xmlns="http://www.w3.org/2000/svg" p-id="72069" xmlns:xlink="http://www.w3.org/1999/xlink" width="24" height="24"><defs><style type="text/css"></style></defs><path d="M461.385143 367.908571v-111.030857c-50.761143 5.705143-97.28 25.746286-135.168 56.173715l78.409143 78.409142c17.115429-11.556571 36.425143-19.602286 56.758857-23.552zM339.821714 547.986286h-111.030857c5.705143 50.761143 25.746286 97.28 56.173714 135.168l78.409143-78.409143c-11.556571-17.115429-19.602286-36.571429-23.552-56.758857zM363.227429 432.713143l-78.409143-78.409143c-30.427429 37.888-50.468571 84.406857-56.173715 135.168h111.030858c4.096-20.187429 12.141714-39.643429 23.552-56.758857zM641.462857 489.472h111.030857c-5.705143-50.761143-25.746286-97.28-56.173714-135.168l-78.409143 78.409143c11.556571 17.115429 19.602286 36.571429 23.552 56.758857zM655.067429 312.905143c-37.888-30.427429-84.406857-50.468571-135.168-56.173714v111.030857c20.187429 3.949714 39.643429 11.995429 56.758857 23.552l78.409143-78.409143z" p-id="72070"></path><path d="M784.384 224.987429c-162.230857-162.230857-425.398857-162.230857-587.629714 0s-162.230857 425.398857 0 587.629714 425.398857 162.230857 587.629714 0 162.230857-425.398857 0-587.629714zM718.262857 746.496c-60.854857 60.854857-141.750857 94.354286-227.766857 94.354286s-166.912-33.499429-227.766857-94.354286S168.228571 604.745143 168.228571 518.729143s33.499429-166.912 94.354286-227.766857 141.750857-94.354286 227.766857-94.354286 166.912 33.499429 227.766857 94.354286c60.854857 60.854857 94.354286 141.750857 94.354286 227.766857S779.117714 685.641143 718.262857 746.496z" p-id="72071"></path><path d="M617.910857 604.745143l78.409143 78.409143c30.427429-37.888 50.468571-84.406857 56.173714-135.168h-111.030857c-3.949714 20.187429-11.995429 39.643429-23.552 56.758857zM519.899429 669.549714v111.030857c50.761143-5.705143 97.28-25.746286 135.168-56.173714l-78.409143-78.409143c-17.115429 11.556571-36.571429 19.602286-56.758857 23.552zM326.217143 724.553143c37.888 30.427429 84.406857 50.468571 135.168 56.173714v-111.030857c-20.187429-3.949714-39.643429-11.995429-56.758857-23.552L326.217143 724.553143z" p-id="72072"></path><path d="M490.642286 518.729143m-94.208 0a94.208 94.208 0 1 0 188.416 0 94.208 94.208 0 1 0-188.416 0Z" p-id="72073"></path></svg>