<?xml version="1.0" standalone="no"?><!DOCTYPE svg PUBLIC "-//W3C//DTD SVG 1.1//EN" "http://www.w3.org/Graphics/SVG/1.1/DTD/svg11.dtd"><svg t="1623120352024" class="icon" viewBox="0 0 1037 1024" version="1.1" xmlns="http://www.w3.org/2000/svg" p-id="60516" xmlns:xlink="http://www.w3.org/1999/xlink" width="24.3046875" height="24"><defs><style type="text/css"></style></defs><path d="M834.306 143.572c-16.002-30.23-61.332-25.77-61.332-25.77H250.988s-45.33-4.46-61.332 25.77C173.659 173.8 64.326 454.669 64.326 454.669v407.092s15.334 44.668 75.333 44.668c59.995 0 72.665-44.668 72.665-44.668v-62.663H811.64v62.664s12.668 44.668 72.669 44.668c59.996 0 75.328-44.668 75.328-44.668V454.67S850.308 173.8 834.306 143.572z m-589.65 516.195c-42.155 0-76.331-34.167-76.331-76.332 0-42.165 34.176-76.331 76.331-76.331s76.332 34.166 76.332 76.331c0 42.164-34.176 76.332-76.332 76.332z m534.65 0c-42.155 0-76.326-34.167-76.326-76.332 0-42.165 34.172-76.331 76.326-76.331 42.16 0 76.336 34.166 76.336 76.331 0 42.164-34.176 76.332-76.336 76.332z m67.886-254.888H176.77c-9.783 0-10.447-11.768-10.447-11.768s61.332-187.332 67.998-201.333 23.78-11.768 23.78-11.768h507.759s17.112-2.232 23.778 11.768c6.666 14.001 67.998 201.333 67.998 201.333s-0.662 11.768-10.445 11.768z m0 0" p-id="60517"></path></svg>