<?xml version="1.0" standalone="no"?><!DOCTYPE svg PUBLIC "-//W3C//DTD SVG 1.1//EN" "http://www.w3.org/Graphics/SVG/1.1/DTD/svg11.dtd"><svg t="1623120388698" class="icon" viewBox="0 0 1115 1024" version="1.1" xmlns="http://www.w3.org/2000/svg" p-id="61326" xmlns:xlink="http://www.w3.org/1999/xlink" width="26.1328125" height="24"><defs><style type="text/css"></style></defs><path d="M742.865058 447.109714h35.095987a34.364821 34.364821 0 0 1 35.095987 32.171321v298.31589a146.233279 146.233279 0 0 0 149.889112 138.190448 146.233279 146.233279 0 0 0 150.620277-138.190448V204.36247a102.363295 102.363295 0 0 0-35.095987-73.11664L955.63448 15.72154a60.686811 60.686811 0 0 0-80.428304 0 50.450481 50.450481 0 0 0 0 73.116639l79.697137 73.11664-58.493311 56.299813a43.869984 43.869984 0 0 0 0 65.804975 47.525816 47.525816 0 0 0 35.095987 13.892162h65.804975v478.913989a32.902488 32.902488 0 0 1-35.095987 32.171322 34.364821 34.364821 0 0 1-35.095987-32.171322V480.012201a146.233279 146.233279 0 0 0-146.233279-138.190449h-34.364821V86.64468A89.2023 89.2023 0 0 0 649.27576 0.367046H163.050106A90.664633 90.664633 0 0 0 73.11664 86.64468V950.88336H0v73.11664h812.325866v-73.11664h-69.460808zM195.221428 73.483685h421.88301a48.988149 48.988149 0 0 1 51.181648 46.794649v258.832905a48.988149 48.988149 0 0 1-51.181648 46.794649H195.221428A48.988149 48.988149 0 0 1 146.233279 379.111239V118.816002A48.988149 48.988149 0 0 1 195.221428 73.483685z" p-id="61327"></path><path d="M478.182823 316.230929a73.11664 73.11664 0 0 1-141.115114 0 523.51514 523.51514 0 0 1 73.116639-186.447431 546.181298 546.181298 0 0 1 67.998475 186.447431z" p-id="61328"></path></svg>