<?xml version="1.0" standalone="no"?><!DOCTYPE svg PUBLIC "-//W3C//DTD SVG 1.1//EN" "http://www.w3.org/Graphics/SVG/1.1/DTD/svg11.dtd"><svg t="1623119162557" class="icon" viewBox="0 0 1034 1024" version="1.1" xmlns="http://www.w3.org/2000/svg" p-id="41259" xmlns:xlink="http://www.w3.org/1999/xlink" width="24.234375" height="24"><defs><style type="text/css"></style></defs><path d="M154.624 1024H1.024V583.68c18.432 1.024 37.888 3.072 56.32 3.072h906.24c10.24 0 22.528 3.072 30.72-1.024 12.288-7.168 26.624-18.432 29.696-29.696 8.192-39.936-18.432-43.008-49.152-43.008-256 1.024-512 0-768 0h-58.368c0-128-3.072-248.832 1.024-369.664 2.048-60.416 59.392-81.92 118.784-47.104-22.528 62.464 1.024 115.712 21.504 168.96 66.56-67.584 128-128 192.512-192.512-9.216-5.12-20.48-18.432-32.768-19.456-69.632-9.216-142.336-10.24-202.752-53.248H1034.24v1024H871.424c2.048-24.576 4.096-50.176 8.192-74.752 3.072-22.528 3.072-51.2 16.384-65.536 67.584-75.776 58.368-164.864 54.272-254.976h-880.64c6.144 62.464-3.072 129.024 21.504 178.176 34.816 69.632 61.44 138.24 63.488 217.088z" fill="#FFFFFF" p-id="41260"></path><path d="M154.624 1024c-1.024-78.848-28.672-147.456-64.512-217.088C65.536 757.76 74.752 691.2 68.608 628.736h880.64c5.12 90.112 14.336 178.176-54.272 254.976-13.312 15.36-12.288 43.008-16.384 65.536-4.096 24.576-5.12 50.176-8.192 74.752h-61.44c-3.072-26.624-7.168-52.224-10.24-74.752H223.232c-3.072 24.576-6.144 49.152-9.216 74.752h-59.392zM246.784 0c61.44 44.032 133.12 44.032 203.776 53.248 12.288 2.048 23.552 14.336 32.768 19.456-65.536 64.512-126.976 124.928-194.56 192.512-20.48-53.248-45.056-107.52-21.504-168.96C207.872 61.44 150.528 81.92 148.48 143.36c-4.096 120.832-1.024 241.664-1.024 369.664h826.368c30.72 0 57.344 3.072 49.152 43.008-2.048 12.288-17.408 22.528-29.696 29.696-7.168 4.096-20.48 1.024-30.72 1.024H56.32c-18.432 0-37.888-2.048-56.32-3.072v-61.44c22.528-5.12 45.056-9.216 72.704-15.36 0-103.424 4.096-208.896-1.024-314.368C67.584 96.256 102.4 31.744 194.56 0h52.224z" p-id="41261"></path><path d="M195.584 0c-92.16 31.744-126.976 96.256-122.88 192.512 5.12 105.472 1.024 210.944 1.024 314.368-27.648 6.144-50.176 10.24-72.704 15.36V0h194.56zM216.064 1024c3.072-24.576 6.144-50.176 9.216-74.752h575.488c3.072 22.528 6.144 48.128 10.24 74.752H216.064z" fill="#FFFFFF" p-id="41262"></path><path d="M375.808 230.4m-16.384 0a16.384 16.384 0 1 0 32.768 0 16.384 16.384 0 1 0-32.768 0Z" fill="#040000" p-id="41263"></path><path d="M375.808 303.104m-16.384 0a16.384 16.384 0 1 0 32.768 0 16.384 16.384 0 1 0-32.768 0Z" fill="#040000" p-id="41264"></path><path d="M375.808 375.808m-16.384 0a16.384 16.384 0 1 0 32.768 0 16.384 16.384 0 1 0-32.768 0Z" fill="#040000" p-id="41265"></path><path d="M411.648 194.56m-16.384 0a16.384 16.384 0 1 0 32.768 0 16.384 16.384 0 1 0-32.768 0Z" fill="#040000" p-id="41266"></path><path d="M411.648 267.264m-16.384 0a16.384 16.384 0 1 0 32.768 0 16.384 16.384 0 1 0-32.768 0Z" fill="#040000" p-id="41267"></path><path d="M411.648 339.968m-16.384 0a16.384 16.384 0 1 0 32.768 0 16.384 16.384 0 1 0-32.768 0Z" fill="#040000" p-id="41268"></path><path d="M451.584 157.696m-16.384 0a16.384 16.384 0 1 0 32.768 0 16.384 16.384 0 1 0-32.768 0Z" fill="#040000" p-id="41269"></path><path d="M451.584 230.4m-16.384 0a16.384 16.384 0 1 0 32.768 0 16.384 16.384 0 1 0-32.768 0Z" fill="#040000" p-id="41270"></path><path d="M451.584 303.104m-16.384 0a16.384 16.384 0 1 0 32.768 0 16.384 16.384 0 1 0-32.768 0Z" fill="#040000" p-id="41271"></path><path d="M484.352 194.56m-16.384 0a16.384 16.384 0 1 0 32.768 0 16.384 16.384 0 1 0-32.768 0Z" fill="#040000" p-id="41272"></path><path d="M484.352 267.264m-16.384 0a16.384 16.384 0 1 0 32.768 0 16.384 16.384 0 1 0-32.768 0Z" fill="#040000" p-id="41273"></path><path d="M524.288 157.696m-16.384 0a16.384 16.384 0 1 0 32.768 0 16.384 16.384 0 1 0-32.768 0Z" fill="#040000" p-id="41274"></path><path d="M524.288 230.4m-16.384 0a16.384 16.384 0 1 0 32.768 0 16.384 16.384 0 1 0-32.768 0Z" fill="#040000" p-id="41275"></path><path d="M560.128 192.512m-16.384 0a16.384 16.384 0 1 0 32.768 0 16.384 16.384 0 1 0-32.768 0Z" fill="#040000" p-id="41276"></path><path d="M599.04 152.576m-16.384 0a16.384 16.384 0 1 0 32.768 0 16.384 16.384 0 1 0-32.768 0Z" fill="#040000" p-id="41277"></path></svg>