<?xml version="1.0" standalone="no"?><!DOCTYPE svg PUBLIC "-//W3C//DTD SVG 1.1//EN" "http://www.w3.org/Graphics/SVG/1.1/DTD/svg11.dtd"><svg t="1623120482192" class="icon" viewBox="0 0 1024 1024" version="1.1" xmlns="http://www.w3.org/2000/svg" p-id="67571" xmlns:xlink="http://www.w3.org/1999/xlink" width="24" height="24"><defs><style type="text/css"></style></defs><path d="M924.187737 516.103458c-10.552334-21.104667-18.760273-34.002418-36.346813-36.346813-17.587564-2.345418-59.796898-4.689812-104.35165-7.03523-50.417273-65.659419-103.178941-124.283608-118.421086-124.283608H357.874737c-14.069437 0-68.004837 58.624189-117.249401 123.111922-44.554752 2.345418-86.764086 4.689812-104.35165 7.03523s-25.794479 15.242146-36.346812 36.346813c-10.552334 21.104667-8.207939 26.967188 14.069437 36.346813 22.277376 9.379625 43.382043 14.069437 43.382042 14.069437s-26.967188 50.417273-38.69223 72.694649c-7.03523 12.897751-8.207939 12.897751-8.207939 38.692231v243.878426c0 24.622794 5.862521 36.346813 29.312606 36.346813h127.801734c21.104667 0 28.139897-14.069437 28.139897-29.312606v-55.107085h425.614538v55.107085c0 15.242146 8.207939 29.312606 28.139897 29.312606h128.97342c23.450085 0 28.139897-11.725042 28.139897-36.346813 1.172709-28.139897 0-186.425923 0-216.910215 0-41.036625 0-52.761668-7.03523-65.659419-12.897751-21.104667-35.175127-72.694649-35.175127-72.694649s19.931958-4.689812 43.382043-14.069437c24.623817-8.208962 26.968212-14.071484 16.415878-35.17615zM357.874737 741.221612s-123.111922-4.689812-157.113317-7.03523c-43.382043-3.517103-29.312606-63.314001-28.139897-79.72988 0-1.172709 107.868753 9.379625 143.04388 14.069437 36.346813 5.862521 43.382043 22.277376 43.382043 29.312606-1.172709 5.863545-1.172709 35.176151-1.172709 43.383067z m153.596214-173.528172H271.110651c-12.897751 0 9.379625-51.589982 42.209334-93.799316 50.417273-63.314001 63.314001-58.624189 71.52194-58.624189h250.912633c8.207939 0 22.277376-2.345418 71.521941 58.624189 39.86494 49.244564 56.279794 93.799316 42.209334 93.799316H511.470951z m311.88224 166.492942c-34.002418 3.517103-158.286026 7.03523-158.286027 7.03523v-43.382043c0-7.03523 7.03523-23.450085 43.382043-29.312606 35.175127-5.862521 143.04388-15.242146 143.043881-14.069437 1.172709 16.414855 15.243169 76.211752-28.139897 79.728856zM310.975591 328.504826c23.450085 0 42.209334-16.414855 42.209334-37.519522 0-8.207939-2.345418-15.242146-7.03523-21.104667h1.172708l-36.346812-55.107085-36.346813 55.107085h1.172709c-4.689812 5.862521-7.03523 12.897751-7.035231 21.104667 0 19.932981 18.759249 37.519522 42.209335 37.519522z m155.940608-37.519522c0 21.104667 18.760273 37.519522 42.209334 37.519522 23.450085 0 42.209334-16.414855 42.209334-37.519522 0-8.207939-2.345418-15.242146-7.03523-21.104667h1.172709l-36.346813-55.107085-36.346813 55.107085h1.172709c-3.517103 5.862521-7.03523 12.897751-7.03523 21.104667z m201.669092-22.277376c-4.689812 5.862521-7.03523 12.897751-7.03523 21.104667 0 21.104667 18.760273 37.519522 42.209334 37.519522s42.209334-16.414855 42.209334-37.519522c0-8.207939-2.345418-15.242146-7.03523-21.104667l-36.346813-55.107085-36.346813 55.107085h2.345418z m-267.328511-87.936795c23.450085 0 42.209334-16.414855 42.209334-37.519522 0-8.207939-2.345418-15.242146-7.03523-21.104667h1.172709L401.25678 67.039859l-36.346813 55.107085h1.172709c-4.689812 5.862521-7.03523 12.897751-7.03523 21.104667 0 21.104667 18.760273 37.519522 42.209334 37.519522z m199.323674 0c23.450085 0 42.209334-16.414855 42.209335-37.519522 0-8.207939-2.345418-15.242146-7.035231-21.104667h1.172709L600.580454 67.039859l-36.346812 55.107085h1.172708c-4.689812 5.862521-7.03523 12.897751-7.03523 21.104667 0 21.104667 18.759249 37.519522 42.209334 37.519522z" fill="" p-id="67572"></path></svg>