<?xml version="1.0" standalone="no"?><!DOCTYPE svg PUBLIC "-//W3C//DTD SVG 1.1//EN" "http://www.w3.org/Graphics/SVG/1.1/DTD/svg11.dtd"><svg t="1623119125504" class="icon" viewBox="0 0 1024 1024" version="1.1" xmlns="http://www.w3.org/2000/svg" p-id="39238" xmlns:xlink="http://www.w3.org/1999/xlink" width="24" height="24"><defs><style type="text/css"></style></defs><path d="M763.173 365.275c-0.293 2.634-0.586 4.389-0.732 6.949 41.838 72.411 41.692 156.16-19.822 220.745a5.047 5.047 0 0 1-7.021 0.146L437.175 294.693a5.047 5.047 0 0 1 0.146-7.022c64.512-61.586 148.407-61.806 220.745-19.749l6.803-0.804L853.285 79.14a69.559 69.559 0 0 1 98.084 98.377L763.173 365.275zM260.9 213.723a59.392 59.392 0 1 1 118.784 0 59.392 59.392 0 0 1-118.784 0z m359.862 656.384a74.386 74.386 0 1 1 148.773 0 74.386 74.386 0 0 1-148.846 0z m165.669-78.628a40.521 40.521 0 1 1 80.97 0 40.521 40.521 0 0 1-80.97 0zM384.146 342.6L681.691 640c2.195 2.194 2.707 5.486 1.098 8.192-16.092 25.673-97.207 161.938-118.858 341.943a2.121 2.121 0 0 1-3.145 1.536L459.85 930.816c-0.95-0.585-1.316-1.682-0.878-2.706 9.509-19.895 100.426-210.286 91.136-200.997A1279.122 1279.122 0 0 0 430.3 871.936l-27.062 37.303s-106.35-71.46-139.118-115.932c-0.512-0.731-0.585-1.316 0-1.901C285.696 765.22 398.117 619.08 398.117 619.08L206.994 733.696c-0.877 0.512-1.901 0.439-2.56-0.366-9.362-10.313-73.143-80.823-91.501-113.956-0.44-0.732-0.44-1.244 0.292-1.902 18.14-14.629 121.052-101.888 121.052-101.888L89.454 566.93a2.194 2.194 0 0 1-2.633-1.024L33.207 465.335c-0.732-1.244-0.293-2.706 1.17-3.072 25.527-5.12 238.3-49.372 341.577-120.686a6.29 6.29 0 0 1 8.265 0.951z" p-id="39239"></path></svg>