<?xml version="1.0" standalone="no"?><!DOCTYPE svg PUBLIC "-//W3C//DTD SVG 1.1//EN" "http://www.w3.org/Graphics/SVG/1.1/DTD/svg11.dtd"><svg t="1623119940123" class="icon" viewBox="0 0 1383 1024" version="1.1" xmlns="http://www.w3.org/2000/svg" p-id="38578" xmlns:xlink="http://www.w3.org/1999/xlink" width="32.4140625" height="24"><defs><style type="text/css"></style></defs><path d="M355.798486 22.306595c145.020541 21.753081 179.255351 191.792432 334.986379 187.83481 151.109189-3.819243 207.816649-197.272216 360.973838-179.504432 255.391135 29.612973 425.319784 843.139459 200.980756 957.384649-59.945514 30.52627-143.913514 9.492757-208.896-50.425081-105.804108-81.394162-222.484757-127.916973-358.510702-138.931892-108.101189-8.800865-194.172541 18.874811-282.790054 75.416216l-94.097298 71.209513C260.400432 987.440432 210.556541 1024 147.898811 993.252324-121.745297 860.768865 104.64173-15.443027 355.798486 22.306595zM911.36 539.205189a65.452973 65.452973 0 1 0 0 130.87827 65.452973 65.452973 0 0 0 0-130.905945z m120.942703-205.934703a65.425297 65.425297 0 1 0 0 130.878271 65.425297 65.425297 0 0 0 0-130.905946zM415.965405 423.714595h-126.699243v98.636108l126.726919-0.470487v130.352433l106.828108 0.027675 0.221406-130.380108h123.350486V423.714595H522.793514v-128.802595l-106.828109-0.138378v128.968648z" p-id="38579"></path></svg>