<?xml version="1.0" standalone="no"?><!DOCTYPE svg PUBLIC "-//W3C//DTD SVG 1.1//EN" "http://www.w3.org/Graphics/SVG/1.1/DTD/svg11.dtd"><svg t="1623120063644" class="icon" viewBox="0 0 1024 1024" version="1.1" xmlns="http://www.w3.org/2000/svg" p-id="44556" xmlns:xlink="http://www.w3.org/1999/xlink" width="24" height="24"><defs><style type="text/css"></style></defs><path d="M410.063 420.422c-5.934 13.154-12.42 30.663-19.31 53.273 0 0 106.096-7.778 155.947-88.874-12.894-18.955-32.042-32.274-58.55-29.126-10.76 1.278-21.014 4.774-30.513 10.09-28.017-28.559-90.814-41.399-161.78-111.888-52.767-52.412-95.35-142.434-102.909-190.168C126.736 93.18 45.573 249.23 63.967 310.885c45.295 151.83 268.385 112.265 355.746 91.732a137.824 137.824 0 0 0-9.65 17.805z m158.768 82.983c-106.473 54.076-183.563-20.42-183.7-20.552-5.84 20.81-10.893 42.31-13.727 60.749-16.533 107.57-18.829 248.195 18.576 347.736 16.692 44.421 76.421 54.826 112.039 64.874 70.761 19.962 148.65-11.645 169.448-39.479 24.122-68.897-87.73-234.94-102.633-413.336l-0.003 0.008zM385.13 482.85l0.003 0.003 0.097-0.347-0.1 0.344z" p-id="44557"></path><path d="M965.602 702.782c-16.9-209.562-375.053-286.994-404.247-289.847-2.589-6.808-5.913-13.08-10.121-19.796-1.624 1.191-43.245 72.78-157.256 86.92 25.76 17.246 102.845 59.603 173.678 14.893-0.344-7.712 0.248-17.088 0.871-28.937 22.435 23.28 55.924 47.623 99.178 117.91 42.37 68.85 54.96 164.534 52.659 218.158-0.805 18.736 16.512 33.038 34.765 28.737 72.976-17.193 216.215-56.84 210.473-128.038zM668.697 248.535c0-11.47-10.824-20.77-24.174-20.77-4.152 0-8.06 0.901-11.474 2.486-13.431-15.325-33.135-25.014-55.112-25.014-40.469 0-73.276 32.807-73.276 73.276s32.806 73.276 73.276 73.276c40.468 0 73.276-32.806 73.276-73.276 0-3.344-0.245-6.629-0.679-9.854 10.442-2.296 18.163-10.435 18.163-20.124z" p-id="44558"></path></svg>