<?xml version="1.0" standalone="no"?><!DOCTYPE svg PUBLIC "-//W3C//DTD SVG 1.1//EN" "http://www.w3.org/Graphics/SVG/1.1/DTD/svg11.dtd"><svg t="1623120780859" class="icon" viewBox="0 0 1536 1024" version="1.1" xmlns="http://www.w3.org/2000/svg" p-id="79278" xmlns:xlink="http://www.w3.org/1999/xlink" width="36" height="24"><defs><style type="text/css"></style></defs><path d="M1535.718452 515.165286c-183.68899 15.101231-697.045542 58.698572-697.045542 58.698572-8.617087-52.896969 8.531769-169.2703 8.531769-169.2703 310.300445 51.873157 624.781457 71.32559 687.404643 69.10733L1535.718452 344.700538c-345.877922-19.623069-643.039443-234.70897-643.039443-234.70897C727.333322-26.943327 538.354635 2.917865 538.354635 2.917865a334.360034 334.360034 0 0 0-211.758511 86.426822c-81.051807 72.43472-154.51034 170.37943-217.304161 264.740797C34.553665 465.595707 3.242072 586.490877 67.145023 715.405909c20.476246 41.379081 47.607272 79.430771 75.676793 112.789988 6.484145 8.019863 30.287781 42.573528 40.952492 42.573529-48.631084 28.752062-121.151122 73.714486-183.774308 122.174934h144.784123s94.020096-65.609305 189.23464-118.591591c62.623186 1.10913 133.948776 2.303578 193.500525 4.607155-40.952492 28.752062-128.573761 88.645082-193.500525 145.040076h143.589675s270.286447-185.310026 493.904118-226.859742l-22.779824 3.583343c447.576611-117.397144 586.815084-124.307877 586.815084-124.307877L1535.718452 515.165286zM181.556048 542.808218c-49.654897 0-89.754212-24.144907-89.754212-54.091416 0-29.94651 39.92868-54.176734 89.754212-54.176734 49.740214 0 89.583576 24.059589 89.583576 54.176734 0 29.861192-39.843362 54.091417-89.583576 54.091416z m255.099898-290.080151L255.099898 243.34312s82.160937-115.178884 108.097516-122.004299l111.339588 2.303578-37.966373 129.085668z m81.051808-125.417007l156.643282 4.521837 1.023812 130.024163-187.954875-6.825416 30.287781-127.805902z m-5.375015 361.405742c0-29.94651 39.92868-54.176734 89.668894-54.176734s89.668894 24.059589 89.668894 54.176734c0 29.861192-39.92868 54.091417-89.668894 54.091416s-89.668894-24.144907-89.668894-54.091416z" p-id="79279"></path></svg>