<?xml version="1.0" standalone="no"?><!DOCTYPE svg PUBLIC "-//W3C//DTD SVG 1.1//EN" "http://www.w3.org/Graphics/SVG/1.1/DTD/svg11.dtd"><svg t="1623121553980" class="icon" viewBox="0 0 1024 1024" version="1.1" xmlns="http://www.w3.org/2000/svg" p-id="109877" xmlns:xlink="http://www.w3.org/1999/xlink" width="24" height="24"><defs><style type="text/css"></style></defs><path d="M437.333333 145.50016v162.952533c0 40.768853 33.174187 73.94304 73.94304 73.94304h-0.925013c40.772267 0 73.94304-33.174187 73.94304-73.94304v-236.919466h-21.121707l-51.89632 0.027306c-40.768853-0.003413-73.94304 33.170773-73.94304 73.939627zM359.205547 712.195413c0 83.725653 67.88096 151.606613 151.61344 151.606614 83.735893 0 151.610027-67.88096 151.610026-151.606614" p-id="109878"></path><path d="M83.10784 662.350507c0-236.212907 191.491413-427.70432 427.707733-427.70432 236.219733 0 427.707733 191.491413 427.707734 427.70432M510.818987 973.74208c-148.82816 0-269.90592-121.07776-269.90592-269.899093h68.266666c0 111.179093 90.453333 201.632427 201.639254 201.632426 111.179093 0 201.629013-90.453333 201.629013-201.632426h68.266667c0.003413 148.824747-121.074347 269.899093-269.89568 269.899093z" p-id="109879"></path></svg>