<?xml version="1.0" standalone="no"?><!DOCTYPE svg PUBLIC "-//W3C//DTD SVG 1.1//EN" "http://www.w3.org/Graphics/SVG/1.1/DTD/svg11.dtd"><svg t="1623121615165" class="icon" viewBox="0 0 1024 1024" version="1.1" xmlns="http://www.w3.org/2000/svg" p-id="112349" xmlns:xlink="http://www.w3.org/1999/xlink" width="24" height="24"><defs><style type="text/css"></style></defs><path d="M837.973333 220.16c-145.066667 44.373333-168.96 157.013333-168.96 223.573333-100.693333-112.64-100.693333-247.466667-100.693333-436.906666-314.026667 122.88-235.52 460.8-247.466667 571.733333-78.506667-66.56-100.693333-223.573333-100.693333-223.573333C129.706667 399.36 85.333333 512 85.333333 602.453333c0 223.573333 191.146667 414.72 426.666667 414.72h8.533333c-98.986667-1.706667-187.733333-90.453333-187.733333-191.146666 11.946667-100.693333 168.96-179.2 168.96-269.653334 145.066667 56.32 112.64 213.333333 112.64 257.706667 34.133333-34.133333 44.373333-100.693333 44.373333-100.693333 34.133333 22.186667 56.32 66.56 56.32 112.64 0 93.866667-78.506667 179.2-170.666666 189.44 220.16-15.36 394.24-187.733333 394.24-413.013334 0-134.826667-100.693333-203.093333-100.693334-382.293333z" fill="#515151" p-id="112350"></path><path d="M537.6 1015.466667h-6.826667c3.413333 1.706667 5.12 0 6.826667 0z" fill="#515151" p-id="112351"></path></svg>