<?xml version="1.0" standalone="no"?><!DOCTYPE svg PUBLIC "-//W3C//DTD SVG 1.1//EN" "http://www.w3.org/Graphics/SVG/1.1/DTD/svg11.dtd"><svg t="1623120103515" class="icon" viewBox="0 0 1024 1024" version="1.1" xmlns="http://www.w3.org/2000/svg" p-id="46376" xmlns:xlink="http://www.w3.org/1999/xlink" width="24" height="24"><defs><style type="text/css"></style></defs><path d="M904.8 240.5c-6-24.7-31.1-40-55.8-34.1l-50.7 12.2c-0.8-1.4-1.4-2.8-2.2-4.2l-70.2-113.9C707.2 70.1 657 56.9 612 67.8l-154.9 37.4c-45.1 10.9-83.7 45.5-86.5 81.2l-10.5 133.4c-0.1 1.6 0 3.1-0.1 4.7L312.3 336c-24.7 6-40 31.1-34.1 55.8 6 24.7 31.1 40 55.8 34.1l61.9-14.9c6.3 21.2 15.7 41 27.9 58.9C248 514.1 118 673.3 118 862.9c0 16.4 1 32.6 2.9 48.4 3.1 25.9 27.1 47 53.2 47h324.7c29.6 0 53.6-24 53.6-53.6V729.2l80 20.4c-0.1 1.6-0.5 3.2-0.5 4.9v40h54.8v-31.2c13.6 2.9 26.9 2.1 38.5-1.6V960H780V754.5c0-17.9-6.6-34.1-17.2-46.9-2.4-21.3-18.1-41.8-42.1-52.3l-163.4-71.8c-1.6-0.7-3.3-1.1-4.9-1.7v-24.1c15.4 3.5 31.4 5.6 47.8 5.6 117.8 0 213.3-95.5 213.3-213.3 0-13.3-1.4-26.3-3.7-39l60.8-14.7c24.8-6 40.1-31.1 34.2-55.8z" fill="#515151" p-id="46377"></path></svg>