<?xml version="1.0" standalone="no"?><!DOCTYPE svg PUBLIC "-//W3C//DTD SVG 1.1//EN" "http://www.w3.org/Graphics/SVG/1.1/DTD/svg11.dtd"><svg t="1623121699855" class="icon" viewBox="0 0 1024 1024" version="1.1" xmlns="http://www.w3.org/2000/svg" p-id="116449" data-spm-anchor-id="a313x.7781069.0.i102" xmlns:xlink="http://www.w3.org/1999/xlink" width="24" height="24"><defs><style type="text/css"></style></defs><path d="M512 0c282.331429 0 512 229.668571 512 512S794.331429 1024 512 1024 0 794.331429 0 512 229.668571 0 512 0z m-17.554286 529.554286c1.462857-20.48 1.462857-36.571429 2.925715-55.588572h81.92c1.462857 20.48 1.462857 40.96 2.925714 57.051429 30.72 11.702857 59.977143 20.48 95.085714 33.645714 1.462857-10.24 5.851429-26.331429 7.314286-40.96 1.462857-17.554286 0-36.571429 0-58.514286h65.828571c1.462857-2.925714 2.925714-5.851429 4.388572-10.24-73.142857-68.754286-147.748571-137.508571-223.817143-207.725714-20.48 21.942857-45.348571 48.274286-70.217143 73.142857-1.462857-1.462857-2.925714-1.462857-4.388571-2.925714 4.388571-14.628571 8.777143-29.257143 13.165714-45.348571h-65.828572c0 38.034286 10.24 77.531429-2.925714 108.251428-13.165714 32.182857-46.811429 54.125714-76.068571 87.771429h73.142857v89.234285c32.182857-8.777143 62.902857-17.554286 96.548571-27.794285zM234.057143 787.017143c51.2 0 96.548571-2.925714 141.897143 1.462857 36.571429 2.925714 55.588571-7.314286 59.977143-43.885714 2.925714-24.868571 16.091429-36.571429 43.885714-36.571429 40.96 1.462857 83.382857-5.851429 125.805714-2.925714 55.588571 2.925714 96.548571-13.165714 124.342857-64.365714 16.091429-29.257143 39.497143-52.662857 61.44-81.92-51.2-5.851429-51.2-5.851429-81.92 23.405714-58.514286 58.514286-153.6 78.994286-212.114285 45.348571 35.108571-1.462857 71.68-1.462857 108.251428-5.851428 7.314286-1.462857 17.554286-14.628571 19.017143-24.868572 1.462857-4.388571-11.702857-16.091429-19.017143-19.017143-73.142857-21.942857-143.36-14.628571-209.188571 24.868572-73.142857 42.422857-118.491429 106.788571-162.377143 184.32z" fill="#515151" p-id="116450" data-spm-anchor-id="a313x.7781069.0.i101" class=""></path></svg>