<?xml version="1.0" standalone="no"?><!DOCTYPE svg PUBLIC "-//W3C//DTD SVG 1.1//EN" "http://www.w3.org/Graphics/SVG/1.1/DTD/svg11.dtd"><svg t="1623119147961" class="icon" viewBox="0 0 1024 1024" version="1.1" xmlns="http://www.w3.org/2000/svg" p-id="40180" xmlns:xlink="http://www.w3.org/1999/xlink" width="24" height="24"><defs><style type="text/css"></style></defs><path d="M592.6 94c-7.2 0-12.4 5.2-12.4 12.4s5.2 12.4 12.4 12.4h82.6v23.8h-82.6c-7.2 0-12.4 5.2-12.4 12.4s5.2 12.4 12.4 12.4h82.6v23.8h-82.6c-7.2 0-12.4 5.2-12.4 12.4s5.2 12.4 12.4 12.4h82.6v23.8h-82.6c-7.2 0-12.4 5.2-12.4 12.4s5.2 12.4 12.4 12.4h82.6V288h-82.6c-7.2 0-12.4 5.2-12.4 12.4s5.2 12.4 12.4 12.4h82.6v23.8h-82.6c-7.2 0-12.4 5.2-12.4 12.4s5.2 12.4 12.4 12.4h82.6v23.8h-82.6c-7.2 0-12.4 5.2-12.4 12.4s5.2 12.4 12.4 12.4h82.6v23.8h-82.6c-7.2 0-12.4 5.2-12.4 12.4s5.2 12.4 12.4 12.4h82.6V482h-82.6c-7.2 0-12.4 5.2-12.4 12.4s5.2 12.4 12.4 12.4h82.6v23.8h-82.6c-7.2 0-12.4 5.2-12.4 12.4s5.2 12.4 12.4 12.4h15.4c37.2 0 68.2 27.8 72.2 64l24.8 289H734V117.6c0-13.4-11.4-24.8-24.8-24.8l-116.6 1.2zM365.4 593.6c-7.2-7.2-16.6-12.4-26.8-13.4-1 4.2-1 8.2-3 12.4l-48.6 135.2c-3 0-7.2-1-10.4-1-47.4 0-85.6 38.2-85.6 85.6s38.2 85.6 85.6 85.6 85.6-38.2 85.6-85.6c0-30-15.4-55.8-38.2-71.2l49.6-136.2c-3-5.2-5-8.4-8.2-11.4z m-33 217.8c0 31-24.8 55.8-55.8 55.8-15.4 0-29-6.2-39.2-16.6s-16.6-24.8-16.6-39.2c0-15.4 6.2-29 16.6-39.2s24.8-16.6 39.2-16.6c15.4 0 29 6.2 39.2 16.6s16.6 23.6 16.6 39.2z" p-id="40181"></path><path d="M559.4 907.4c-6.2-7.2-11.4-14.4-14.4-23.8 24.8-15.4 41.2-42.4 41.2-73.2 0-47.4-38.2-85.6-85.6-85.6-5.2 0-10.4 0-14.4 1l-48.6-135.2c-4.2-11.4-6.2-22.8-7.2-35l-15.4-460.4c-9.2-4.2-18.6-6.2-29-6.2s-19.6 2-29 6.2l-15.4 461.4c25.8 4.2 46.4 21.6 55.8 44.4l51.6 142.4c-21.6 15.4-35 40.2-35 69.2 0 47.4 38.2 85.6 85.6 85.6 6.2 0 11.4-1 17.6-2 11.4 34 43.4 58.8 81.6 58.8V926c-14.6-2.2-29-7.2-39.4-18.6z m-58.8-40.4c-15.4 0-29-6.2-39.2-16.6s-16.6-24.8-16.6-39.2c0-15.4 6.2-29 16.6-39.2s24.8-16.6 39.2-16.6c15.4 0 29 6.2 39.2 16.6s16.6 24.8 16.6 39.2c0 31.2-24.8 55.8-55.8 55.8z" p-id="40182"></path></svg>