<?xml version="1.0" standalone="no"?><!DOCTYPE svg PUBLIC "-//W3C//DTD SVG 1.1//EN" "http://www.w3.org/Graphics/SVG/1.1/DTD/svg11.dtd"><svg t="1623118492255" class="icon" viewBox="0 0 1024 1024" version="1.1" xmlns="http://www.w3.org/2000/svg" p-id="16117" xmlns:xlink="http://www.w3.org/1999/xlink" width="24" height="24"><defs><style type="text/css"></style></defs><path d="M360.237129 332.280811h329.085804c22.365055 0 43.132605-9.585023 57.51014-27.157566 33.547582-39.937598 65.49766-89.460218 73.48518-134.190328 14.377535-89.460218-23.962559-134.190328-134.190328-134.190327s-73.485179 71.887676-116.617785 78.277691c-31.950078 4.792512-30.352574-38.340094-81.472699-78.277691-36.74259-28.75507-76.680187 52.717629-124.605304 52.717628-55.912637 0-134.190328-14.377535-134.190327 79.875195 0 38.340094 33.547582 89.460218 70.290171 132.592824 15.975039 20.767551 38.340094 30.352574 60.705148 30.352574zM769.198128 384.99844c-17.572543-19.170047-43.132605-30.352574-68.692668-30.352574h-349.853354c-25.560062 0-49.522621 9.585023-67.095164 28.75507-110.227769 115.020281-212.468019 279.563183-212.468018 400.973479 0 105.435257 107.032761 239.625585 238.028081 239.625585h407.363494c130.99532 0 238.028081-132.592824 238.028081-239.625585-1.597504-124.605304-83.070203-284.355694-185.310452-399.375975z m-107.032761 145.372855l-70.290172 127.800312c-6.390016 11.182527 1.597504 25.560062 14.377535 25.560062h20.767551c9.585023 0 17.572543 7.98752 17.572543 17.572543 0 9.585023-7.98752 17.572543-17.572543 17.572543h-49.522621c-9.585023 0-17.572543 7.98752-17.572543 17.572543v7.987519c0 9.585023 7.98752 17.572543 17.572543 17.572543h51.120125c9.585023 0 17.572543 7.98752 17.572543 17.572543 0 9.585023-7.98752 17.572543-17.572543 17.572543h-51.120125c-9.585023 0-17.572543 7.98752-17.572543 17.572543v43.132605c0 9.585023-7.98752 17.572543-17.572543 17.572543h-30.352574c-9.585023 0-17.572543-7.98752-17.572543-17.572543v-43.132605c0-9.585023-7.98752-17.572543-17.572543-17.572543h-51.120125c-9.585023 0-17.572543-7.98752-17.572543-17.572543 0-9.585023 7.98752-17.572543 17.572543-17.572543h51.120125c9.585023 0 17.572543-7.98752 17.572543-17.572543v-7.987519c0-9.585023-7.98752-17.572543-17.572543-17.572543h-49.522621c-9.585023 0-17.572543-7.98752-17.572543-17.572543 0-9.585023 7.98752-17.572543 17.572543-17.572543h19.170047c12.780031 0 20.767551-14.377535 14.377535-25.560062l-70.290171-127.800312c-6.390016-11.182527 1.597504-25.560062 14.377535-25.560063h33.547582c6.390016 0 12.780031 3.195008 14.377535 9.585024l57.51014 115.020281c6.390016 12.780031 23.962559 12.780031 30.352574 0l57.510141-115.020281c3.195008-6.390016 7.98752-9.585023 14.377535-9.585024h33.547582c14.377535 0 22.365055 14.377535 15.975039 25.560063z" fill="#515151" p-id="16118"></path></svg>