<?xml version="1.0" standalone="no"?><!DOCTYPE svg PUBLIC "-//W3C//DTD SVG 1.1//EN" "http://www.w3.org/Graphics/SVG/1.1/DTD/svg11.dtd"><svg t="1623118115608" class="icon" viewBox="0 0 1024 1024" version="1.1" xmlns="http://www.w3.org/2000/svg" p-id="7642" xmlns:xlink="http://www.w3.org/1999/xlink" width="24" height="24"><defs><style type="text/css"></style></defs><path d="M847.05 395.17L576.233 207.377c-48.64-38.571-99.22-16.152-120.29 1.861L168.03 406.56c-12.598 8.378-32.923 25.522-27.462 46.39 3.74 14.32 17.036 22.373 39.517 23.956 0.466 0.046 0.931 0.046 1.397 0.046l67.165 0.093V775.54c0 42.264 32.66 76.63 72.812 76.63H520.27c5.864 0 11.015-2.591 14.723-6.594a20.17 20.17 0 0 0 6.719-14.926v-177.4h97.745c11.155 0 20.216-9.107 20.216-20.325a20.325 20.325 0 0 0-20.232-20.356h-97.73V567.7h97.746c11.17 0 20.232-9.107 20.232-20.324 0-11.249-9.077-20.356-20.248-20.356h-69.74l72.331-77.483a20.449 20.449 0 0 0-0.93-28.75 20.17 20.17 0 0 0-28.58 0.931l-91.43 97.932-88.53-98.583a20.2 20.2 0 0 0-28.578-1.49 20.418 20.418 0 0 0-1.474 28.734l70.671 78.709H403.55a20.325 20.325 0 0 0-20.247 20.356c0 11.217 9.06 20.324 20.247 20.324h97.715v44.886h-97.715a20.325 20.325 0 0 0-20.247 20.34c0 11.233 9.06 20.325 20.247 20.325h97.715v158.223H321.443c-17.843 0-32.35-16.135-32.35-35.948V459.947c0-0.931-0.418-1.707-0.511-2.576 0.015-0.202 0.124-0.388 0.124-0.605a20.294 20.294 0 0 0-20.216-20.371l-72.068-0.109 283.306-194.094c0.621-0.45 1.335-1.009 1.909-1.505 3.537-3.026 35.328-28.859 69.911-1.071l1.164 0.853 270.894 187.858c4.562 3.351 9.449 7.726 13.281 11.683a121.096 121.096 0 0 1-9.402 0.124l-64.419 0.264c-0.186 0-0.326 0.108-0.512 0.108-0.202 0-0.341-0.108-0.558-0.108-11.171 0-20.248 9.107-20.248 20.355l0.124 314.756c0 19.829-14.522 35.949-32.349 35.949h-102.88c-11.156 0-20.217 9.107-20.217 20.34s9.061 20.325 20.232 20.325h102.85c40.153 0 72.812-34.35 72.812-76.614l-0.062-294.524 44.886-0.186c12.722 0.217 46.7 1.009 55.234-24.235 8.316-24.7-18.277-48.872-35.328-61.393" p-id="7643"></path><path d="M641.086 420.77c-6.842-7.524-20.96-7.245-28.579 0.932l-91.43 97.947-88.53-98.583a20.2 20.2 0 0 0-28.579-1.49 20.418 20.418 0 0 0-1.474 28.734l70.672 78.709h-69.632a20.325 20.325 0 0 0-20.248 20.356c0 11.217 9.061 20.324 20.248 20.324h97.714v44.886h-97.714a20.325 20.325 0 0 0-20.248 20.34c0 11.233 9.061 20.325 20.248 20.325h97.714v158.223h-179.82c-17.843 0-32.35-16.135-32.35-35.948V459.947c0-0.931-0.419-1.707-0.512-2.576 0.016-0.202 0.124-0.388 0.124-0.605a20.294 20.294 0 0 0-20.216-20.371l-72.052-0.109 283.306-194.094c0.621-0.45 1.335-1.009 1.909-1.505 3.537-3.026 35.328-28.859 69.911-1.071l1.164 0.853c63.503 125.223 92.967 185.329 88.39 180.317z" p-id="7644" data-spm-anchor-id="a313x.7781069.0.i4" class="selected" fill="#bfbfbf"></path></svg>