<?xml version="1.0" standalone="no"?><!DOCTYPE svg PUBLIC "-//W3C//DTD SVG 1.1//EN" "http://www.w3.org/Graphics/SVG/1.1/DTD/svg11.dtd"><svg t="1623119995325" class="icon" viewBox="0 0 1024 1024" version="1.1" xmlns="http://www.w3.org/2000/svg" p-id="40468" xmlns:xlink="http://www.w3.org/1999/xlink" width="24" height="24"><defs><style type="text/css"></style></defs><path d="M931.4 931.4h-125.7C937.7 838.8 1024 685.5 1024 512c0-282.8-229.2-512-512-512S0 229.2 0 512s229.2 512 512 512h419.4c25.6 0 46.3-20.7 46.3-46.3s-20.7-46.3-46.3-46.3zM768 395.6c64.3 0 116.4 52.1 116.4 116.4 0 64.3-52.1 116.4-116.4 116.4S651.6 576.3 651.6 512c0-64.3 52.1-116.4 116.4-116.4zM395.7 255.2c1.5-64.2 54.8-115.1 119.1-113.6 64.2 1.5 115.1 54.8 113.6 119.1-1.5 64.2-54.8 115.1-119.1 113.6s-115.1-54.8-113.6-119.1zM256 628.4c-64.3 0-116.4-52.1-116.4-116.4 0-64.3 52.1-116.4 116.4-116.4S372.4 447.7 372.4 512c0 64.3-52.1 116.4-116.4 116.4zM395.6 768c0-64.3 52.1-116.4 116.4-116.4 64.3 0 116.4 52.1 116.4 116.4 0 64.3-52.1 116.4-116.4 116.4-64.3 0-116.4-52.1-116.4-116.4z" fill="" p-id="40469"></path></svg>