<?xml version="1.0" standalone="no"?><!DOCTYPE svg PUBLIC "-//W3C//DTD SVG 1.1//EN" "http://www.w3.org/Graphics/SVG/1.1/DTD/svg11.dtd"><svg t="1623120335846" class="icon" viewBox="0 0 1024 1024" version="1.1" xmlns="http://www.w3.org/2000/svg" p-id="59522" xmlns:xlink="http://www.w3.org/1999/xlink" width="24" height="24"><defs><style type="text/css"></style></defs><path d="M339.182003 210.839963c0-68.388577 54.103222-123.853819 120.885208-123.853819 66.747193 0 120.872928 55.465243 120.872928 123.853819 0 68.424392-54.125735 123.866099-120.872928 123.866099C393.285225 334.706061 339.182003 279.264355 339.182003 210.839963L339.182003 210.839963zM343.547427 608.529497l0 39.759539c0 1.106194 0.127913 2.212388 0.162706 3.353374l0 230.197846c0 23.960715 18.954701 43.403532 42.34441 43.403532 23.413246 0 42.367947-19.442818 42.367947-43.403532L428.42249 770.338766c0 0 0.360204-4.971222 0.360204-8.976442C428.806229 683.112146 371.256512 623.291712 343.547427 608.529497L343.547427 608.529497zM490.593458 761.362324c0 4.00522-0.523933 2.025123-0.523933 9.394974l0 111.082958c0 23.960715 18.965957 43.403532 42.35669 43.403532 23.413246 0 42.355667-19.442818 42.355667-43.403532 0 0 1.74576-241.189178 1.74576-248.058632l0-19.302625C546.024931 636.157741 490.593458 703.195553 490.593458 761.362324L490.593458 761.362324zM567.959499 599.098707 356.994694 599.098707c30.456662 18.989493 82.255399 58.94653 85.096097 131.119293l37.477566 0C483.503992 667.499563 536.581861 620.881826 567.959499 599.098707L567.959499 599.098707zM752.669338 552.411385c-65.082274-66.665329-216.797651-180.50712-231.187383-189.69334-7.940856-6.601348-16.369829-10.617825-24.822338-11.979846-11.514241-3.89982-23.774473-6.112208-36.557614-6.112208-14.099113 0-27.522844 2.724041-40.015366 7.4159-5.297656 1.420349-10.571776 3.597945-15.648398 7.090489-18.20871 10.1645-171.658591 127.894855-235.437174 193.267748-51.565423 52.845579 28.338419 134.658909 79.880305 81.824587 31.575136-32.331359 63.149249-64.698534 94.735641-97.04115l0 48.875151 233.003751 0 0-50.377364c32.122605 32.855292 64.128553 65.653279 96.215342 98.5669C724.33092 687.070294 804.234761 605.245707 752.669338 552.411385L752.669338 552.411385z" p-id="59523"></path><path d="M647.723148 312.702931c-5.681396 4.599761-13.199627 10.936073-13.096273 12.161994 0.054235 0.679475 1.699712 3.093455 3.89061 5.963829l-37.352723 34.419927 1.481747 1.824555 41.942251-28.801976c2.554172 2.929726 4.782933 5.212722 5.479805 5.347798 1.195222 0.220011 8.714476-5.89015 14.243399-10.552334 13.542434 7.898901 29.53057 7.261381 29.53057 7.261381l-47.241954-58.031695C646.599558 282.297434 642.72532 297.832246 647.723148 312.702931L647.723148 312.702931z" p-id="59524"></path><path d="M853.92651 210.088856l12.132318-9.870812-47.25628-58.032718-12.123109 9.871835 15.160281 18.618033-18.49012 15.057951-23.266913-28.581965-8.637728 7.02295 8.115841 9.969049L649.035026 280.394085l47.25628 58.032718 130.508379-106.257046 8.107655 9.959839 8.637728-7.027044-23.266913-28.577872 18.494213-15.052834L853.92651 210.088856zM817.068044 229.847875l-78.892815 65.25112-1.533936-1.855254-1.542122-1.86958-1.539053-1.856277-1.542122-1.865487-6.15007-7.436366-1.542122-1.865487-1.529843-1.850138-1.542122-1.865487-1.538029-1.864464-1.539053-1.856277-1.542122-1.865487-1.533936-1.855254-1.542122-1.865487-1.533936-1.855254-1.538029-1.860371-1.542122-1.865487-1.529843-1.850138-1.547239-1.865487-1.538029-1.860371-1.533936-1.860371-1.538029-1.860371-1.538029-1.860371 28.343535-23.439852 20.85191 25.219381 4.599761-3.807722-20.852934-25.210172 9.957793-8.239662 19.232017 23.25668 4.589528-3.803629-19.227923-23.251563 9.19236-7.598049 16.914228 20.457938 4.602831-3.798513-16.922415-20.463054 17.620309-14.567787 1.529843 1.855254 1.543146 1.860371 1.538029 1.860371 1.538029 1.864464 1.543146 1.860371 12.30321 14.877849 1.539053 1.856277 1.542122 1.86958 3.072989 3.715625 1.543146 1.860371 1.529843 1.855254 1.546216 1.870604 1.534959 1.851161 1.538029 1.860371 1.538029 1.864464 1.539053 1.856277 1.533936 1.855254L817.068044 229.847875z" p-id="59525"></path></svg>