<?xml version="1.0" standalone="no"?><!DOCTYPE svg PUBLIC "-//W3C//DTD SVG 1.1//EN" "http://www.w3.org/Graphics/SVG/1.1/DTD/svg11.dtd"><svg t="1623119319370" class="icon" viewBox="0 0 1024 1024" version="1.1" xmlns="http://www.w3.org/2000/svg" p-id="46264" xmlns:xlink="http://www.w3.org/1999/xlink" width="24" height="24"><defs><style type="text/css"></style></defs><path d="M959.791 258.732c-25.828-25.828-56.262-37.478-91.391-37.478H755.786l-25.828-68.002c-7.044-16.436-18.784-30.524-35.13-42.173-16.436-11.74-35.13-18.784-51.566-18.784H385.343c-18.784 0-35.13 7.044-51.565 18.784-16.436 11.74-28.176 25.828-35.13 42.173l-28.176 68.002H155.6c-35.13 0-65.653 11.74-91.391 37.478C38.38 284.56 26.73 314.994 26.73 350.214v452.532c0 35.13 11.74 65.654 37.478 91.482 25.828 25.828 56.262 37.477 91.391 37.477h712.71c35.13 0 65.653-11.74 91.39-37.477 25.829-25.828 37.479-56.262 37.479-91.482V350.214c0.09-35.22-11.56-65.654-37.388-91.482zM511.955 781.614c-117.22 0-213.397-96.088-213.397-213.397 0-117.22 96.087-213.398 213.397-213.398s213.397 96.088 213.397 213.398-96.178 213.397-213.397 213.397z m0 0" p-id="46265"></path><path d="M511.955 427.607c-79.742 0-143.048 63.306-143.048 143.048s63.306 143.047 143.048 143.047 143.047-63.305 143.047-143.047-63.305-143.048-143.047-143.048z m0 0" p-id="46266"></path></svg>