<?xml version="1.0" standalone="no"?><!DOCTYPE svg PUBLIC "-//W3C//DTD SVG 1.1//EN" "http://www.w3.org/Graphics/SVG/1.1/DTD/svg11.dtd"><svg t="1623120246554" class="icon" viewBox="0 0 1024 1024" version="1.1" xmlns="http://www.w3.org/2000/svg" p-id="53991" xmlns:xlink="http://www.w3.org/1999/xlink" width="24" height="24"><defs><style type="text/css"></style></defs><path d="M161.8944 280.7808c96.3072 18.816 213.6576 27.648 350.9248 27.648 138.368 0 254.6176-8.832 350.9248-27.648 80.8192-14.4128 122.88-29.9008 125.1072-45.3888-2.2272-15.5136-44.288-31.0016-125.1072-45.3888-96.3072-18.8416-212.5568-27.6736-350.9248-27.6736-137.2672 0-254.6176 8.832-350.9248 27.648-80.8192 14.4128-122.88 29.9008-126.208 45.4144 3.328 15.488 45.3888 30.976 126.208 45.3888z m601.088 375.296c-35.4048 45.3632-58.6752 102.912-70.8352 172.672l1.1008 2.2272c69.76-36.5312 124.0064-74.1888 162.7392-112.9216 50.944-50.944 89.6768-109.5936 115.1232-174.9248l-5.5296-2.2016c-100.736 28.7744-168.2688 67.5328-202.5728 115.1232zM179.6096 600.6784c-39.8336-24.3456-86.8864-34.304-121.1904-43.1872h-6.1184c19.9424 53.1456 55.3728 106.2912 107.392 158.3104a747.392 747.392 0 0 0 152.7808 115.1488c-29.9008-117.3504-74.1888-193.7408-132.864-230.272z m835.84-77.4912l-5.5552 15.488c-23.2448 73.0624-66.432 140.5952-129.536 204.8-63.0784 62.0032-132.8384 104.064-208.128 125.1072-50.9184 22.144-100.736 36.5312-149.4272 40.96-5.5296 1.1008-9.984 1.1008-15.488 1.1008a274.688 274.688 0 0 1-52.0448-1.1008c-37.632-3.328-133.9392-36.5312-133.9392-36.5312-60.9024-25.472-124.0064-69.76-185.984-132.864-64.2048-63.104-104.064-125.0816-120.6784-187.0592l-4.4288-13.312-2.8928-87.0912-0.4096-12.544-6.656-204.8c1.1008-37.632 64.2048-66.4064 190.4128-85.248C285.8752 134.656 393.216 128 512.8192 128c113.9968 0 216.96 6.656 309.9648 19.9168 122.88 17.7152 189.312 44.288 199.2704 78.592l-6.656 296.704z" p-id="53992"></path></svg>