<?xml version="1.0" standalone="no"?><!DOCTYPE svg PUBLIC "-//W3C//DTD SVG 1.1//EN" "http://www.w3.org/Graphics/SVG/1.1/DTD/svg11.dtd"><svg t="1623121180885" class="icon" viewBox="0 0 1024 1024" version="1.1" xmlns="http://www.w3.org/2000/svg" p-id="95395" xmlns:xlink="http://www.w3.org/1999/xlink" width="24" height="24"><defs><style type="text/css"></style></defs><path d="M640 384m16 0l32 0q16 0 16 16l0 96q0 16-16 16l-32 0q-16 0-16-16l0-96q0-16 16-16Z" fill="#515151" p-id="95396"></path><path d="M832 64H192a64 64 0 0 0-64 64v768a64 64 0 0 0 64 64h640a64 64 0 0 0 64-64V128a64 64 0 0 0-64-64zM352 336a16 16 0 0 1 16-16h160a16 16 0 0 1 16 16v224a16 16 0 0 1-16 16H368a16 16 0 0 1-16-16z m-96 0a16 16 0 0 1 16-16h32a16 16 0 0 1 16 16v224a16 16 0 0 1-16 16h-32a16 16 0 0 1-16-16z m256 484.69A11.32 11.32 0 0 1 500.69 832H267.31A11.32 11.32 0 0 1 256 820.69v-41.38A11.32 11.32 0 0 1 267.31 768h233.38A11.32 11.32 0 0 1 512 779.31zM768 688a16 16 0 0 1-16 16H272a16 16 0 0 1-16-16v-32a16 16 0 0 1 16-16h480a16 16 0 0 1 16 16z m0-128a16 16 0 0 1-16 16H592a16 16 0 0 1-16-16V336a16 16 0 0 1 16-16h160a16 16 0 0 1 16 16z" fill="#515151" p-id="95397"></path><path d="M416 384m16 0l32 0q16 0 16 16l0 96q0 16-16 16l-32 0q-16 0-16-16l0-96q0-16 16-16Z" fill="#515151" p-id="95398"></path></svg>