<?xml version="1.0" standalone="no"?><!DOCTYPE svg PUBLIC "-//W3C//DTD SVG 1.1//EN" "http://www.w3.org/Graphics/SVG/1.1/DTD/svg11.dtd"><svg t="1623119973271" class="icon" viewBox="0 0 1024 1024" version="1.1" xmlns="http://www.w3.org/2000/svg" p-id="39625" xmlns:xlink="http://www.w3.org/1999/xlink" width="24" height="24"><defs><style type="text/css"></style></defs><path d="M144.671082 271.258278c-9.041943 31.646799-18.083885 76.856512-20.344371 92.679912-2.260486 24.865342-4.520971 13.562914-2.260486 29.386313 2.260486 15.8234 9.041943 31.646799 18.083885 47.470199 2.260486 4.520971 6.781457 9.041943 9.041943 13.562914 20.344371 29.386313 51.99117 49.730684 88.15894 56.512141 38.428256 6.781457 74.596026-2.260486 103.98234-22.604856 4.520971-2.260486 6.781457-4.520971 11.302429-6.781457 13.562914-11.302428 24.865342-22.604857 33.907284-38.428256 9.041943-15.8234 13.562914-31.646799 18.083886-49.730685 2.260486-13.562914 9.041943-56.512141 13.562913-92.679911 2.260486-15.8234 2.260486-29.386313 4.520972-38.428256L155.97351 235.090508c-2.260486 4.520971-6.781457 18.083885-11.302428 36.16777z" fill="#2A2B35" p-id="39626"></path><path d="M1014.958057 858.984547c-4.520971-2.260486-33.907285-9.041943-90.419426-13.562913-13.562914-2.260486-22.604857-4.520971-27.125827-6.781457-15.8234-6.781457-24.865342-20.344371-27.125828-40.688742L838.640177 632.935982c-6.781457-42.949227 11.302428-51.99117 29.386313-63.293598s29.386313-18.083885 40.688742-29.386313c18.083885-15.8234 33.907285-33.907285 47.470198-56.512142 27.125828-47.470199 38.428256-99.461369 27.125828-160.494481-15.8234-88.15894-38.428256-176.317881-51.99117-196.662252-11.302428-22.604857-31.646799-38.428256-61.033112-33.907284L558.339956 153.713024c-29.386313 4.520971-42.949227 27.125828-45.209713 54.251656v0c-2.260486-24.865342-15.8234-47.470199-45.209713-54.251656L153.713024 94.940397c-29.386313-4.520971-47.470199 11.302428-61.033112 33.907285-11.302428 22.604857-33.907285 110.763797-51.99117 196.662252-11.302428 61.033113-2.260486 113.024283 27.125828 160.494481 13.562914 20.344371 29.386313 40.688742 47.470198 56.512141 13.562914 11.302428 24.865342 18.083885 40.688742 29.386314 18.083885 11.302428 36.16777 20.344371 29.386313 63.293598l-29.386313 165.015453c-4.520971 18.083885-11.302428 31.646799-27.125828 40.688741-4.520971 2.260486-11.302428 4.520971-27.125828 6.781457-58.772627 4.520971-85.898455 11.302428-90.419426 13.562914-4.520971 0-11.302428 2.260486-11.302428 9.041943 0 0 22.604857 9.041943 167.275938 36.16777 144.671082 27.125828 169.536424 24.865342 169.536424 24.865342 0-6.781457-2.260486-11.302428-6.781457-13.562914-4.520971-4.520971-29.386313-20.344371-81.377483-45.209713-13.562914-6.781457-20.344371-11.302428-24.865343-15.823399-11.302428-13.562914-15.8234-29.386313-13.562913-47.470199l29.386313-165.015452c6.781457-42.949227 31.646799-45.209713 51.99117-47.470199 20.344371-4.520971 33.907285-6.781457 49.730684-11.302428 22.604857-9.041943 45.209713-20.344371 63.293599-36.167771 42.949227-33.907285 70.075055-79.116998 81.377483-140.15011 13.562914-67.81457 20.344371-137.889625 22.604857-178.578367 2.260486 38.428256 11.302428 108.503311 22.604856 178.578367 11.302428 61.033113 38.428256 106.242826 81.377483 140.15011 18.083885 15.8234 40.688742 27.125828 63.293599 36.167771 15.8234 6.781457 29.386313 9.041943 49.730684 11.302428 20.344371 4.520971 45.209713 6.781457 51.99117 47.470199l29.386313 165.015452c4.520971 18.083885 0 33.907285-13.562913 47.470199-4.520971 4.520971-11.302428 9.041943-24.865343 15.823399-51.99117 24.865342-76.856512 42.949227-81.377483 45.209713-2.260486 2.260486-6.781457 6.781457-6.781457 13.562914 0 0 24.865342 0 169.536424-24.865342 144.671082-27.125828 167.275938-36.16777 167.275938-36.16777 6.781457-6.781457 0-9.041943-2.260486-11.302429zM431.752759 397.845475c-11.302428 51.99117-27.125828 79.116998-61.033112 106.242825-4.520971 2.260486-9.041943 6.781457-13.562914 9.041943-36.16777 24.865342-79.116998 36.16777-126.587197 27.125828-45.209713-9.041943-81.377483-33.907285-106.242825-67.81457-4.520971-4.520971-6.781457-11.302428-11.302428-15.823399-22.604857-36.16777-27.125828-72.335541-20.344371-119.80574 6.781457-49.730684 22.604857-126.587196 47.470198-185.359823l309.686535 56.512141c6.781457 45.209713-4.520971 137.889625-18.083886 189.880795zM791.169978 540.256071c-45.209713 9.041943-90.419426-2.260486-126.587197-27.125828-4.520971-2.260486-9.041943-6.781457-13.562913-9.041943-33.907285-24.865342-47.470199-54.251656-61.033113-106.242825-11.302428-51.99117-24.865342-144.671082-20.344371-189.880795l309.686534-56.512141c24.865342 58.772627 38.428256 135.629139 47.470199 185.359823 6.781457 49.730684 2.260486 85.898455-20.344371 119.80574-2.260486 4.520971-6.781457 11.302428-11.302428 15.823399-22.604857 33.907285-61.033113 58.772627-103.98234 67.81457z" fill="#2A2B35" p-id="39627"></path><path d="M899.673289 393.324503c2.260486-15.8234 2.260486-4.520971-2.260485-29.386313-2.260486-15.8234-11.302428-58.772627-20.344371-92.679912-4.520971-18.083885-9.041943-31.646799-11.302429-38.428256l-266.737306 27.125828c0 11.302428 2.260486 24.865342 4.520971 38.428256 4.520971 36.16777 11.302428 79.116998 13.562914 92.679912 2.260486 18.083885 9.041943 36.16777 18.083885 49.730684 9.041943 15.8234 20.344371 27.125828 33.907285 38.428256 4.520971 2.260486 6.781457 4.520971 11.302428 6.781457 29.386313 20.344371 67.81457 29.386313 103.98234 22.604857 36.16777-6.781457 67.81457-27.125828 88.15894-56.512142 2.260486-4.520971 6.781457-9.041943 9.041943-13.562914 9.041943-11.302428 15.8234-27.125828 18.083885-45.209713z" fill="#2A2B35" p-id="39628"></path></svg>