<?xml version="1.0" standalone="no"?><!DOCTYPE svg PUBLIC "-//W3C//DTD SVG 1.1//EN" "http://www.w3.org/Graphics/SVG/1.1/DTD/svg11.dtd"><svg t="1623120188399" class="icon" viewBox="0 0 1024 1024" version="1.1" xmlns="http://www.w3.org/2000/svg" p-id="49920" xmlns:xlink="http://www.w3.org/1999/xlink" width="24" height="24"><defs><style type="text/css"></style></defs><path d="M752.342857 291.657143c-2.171429 0-4.342857 0.114286-6.514286 0.342857C721.028571 186.285714 626.4 107.428571 513.371429 106.857143c-1.142857-26.057143-5.714286-49.142857-19.885715-37.257143-10.285714 8.685714-10.628571 23.428571-6.857143 38.628571-102.4 10.742857-185.6 85.828571-208.685714 184.114286-2.057143-0.228571-4.228571-0.342857-6.4-0.342857-30.628571 0-55.428571 24.8-55.428571 55.428571s24.8 55.428571 55.428571 55.428572c2.171429 0 4.342857-0.114286 6.4-0.342857 24.914286 106.285714 120.228571 185.371429 233.942857 185.371428 113.828571 0 209.142857-79.2 234.057143-185.485714 2.057143 0.228571 4.228571 0.342857 6.4 0.342857 30.628571 0 55.428571-24.914286 55.428572-55.542857 0.114286-30.742857-24.8-55.542857-55.428572-55.542857z m-351.314286 27.657143c0-15.314286 12.457143-27.771429 27.771429-27.771429s27.771429 12.457143 27.771429 27.771429-12.457143 27.771429-27.771429 27.771428c-15.428571 0-27.771429-12.457143-27.771429-27.771428z m101.485715 157.485714c-46.057143 0-83.314286-33.257143-83.314286-74.4h166.742857c0 41.028571-37.371429 74.4-83.428571 74.4z m74.285714-129.714286c-15.314286 0-27.771429-12.457143-27.771429-27.771428s12.457143-27.771429 27.771429-27.771429S604.571429 304 604.571429 319.314286s-12.457143 27.771429-27.771429 27.771428z m-31.542857 319.771429c-3.657143 3.314286-7.885714 5.485714-12.228572 7.542857l206.971429 178.514286c3.428571 2.857143 6.285714 6.171429 8.457143 9.6 25.142857-36 40-79.657143 40-126.971429v-92.457143c0-45.371429-13.714286-87.428571-36.914286-122.628571L545.257143 666.857143z m-217.714286-107.085714l-54.971428-39.085715c-23.2 35.085714-36.914286 77.142857-36.914286 122.4v92.457143c0 122.628571 99.428571 222.057143 222.057143 222.057143h108.685714c59.657143 0 113.714286-23.657143 153.6-61.942857-3.657143-1.6-7.314286-3.771429-10.742857-6.628572l-381.714286-329.257142z" p-id="49921"></path></svg>