<?xml version="1.0" standalone="no"?><!DOCTYPE svg PUBLIC "-//W3C//DTD SVG 1.1//EN" "http://www.w3.org/Graphics/SVG/1.1/DTD/svg11.dtd"><svg t="1623120826028" class="icon" viewBox="0 0 1024 1024" version="1.1" xmlns="http://www.w3.org/2000/svg" p-id="81883" xmlns:xlink="http://www.w3.org/1999/xlink" width="24" height="24"><defs><style type="text/css"></style></defs><path d="M739.555556 426.666667a227.555556 227.555556 0 1 1-168.248889 74.325333l107.093333 174.933333a69.802667 69.802667 0 0 0 96.227556 21.987556 70.741333 70.741333 0 0 0 24.803555-93.212445l-2.446222-4.181333-105.443556-168.789333A228.437333 228.437333 0 0 1 739.555556 426.666667zM155.790222 550.030222l113.550222 178.460445 1.848889 2.702222 3.953778 5.319111a85.333333 85.333333 0 0 0 112.014222 18.147556l4.608-3.128889a170.695111 170.695111 0 1 1-235.975111-201.500445zM485.319111 170.666667l278.556445 458.353777a28.444444 28.444444 0 0 1-46.734223 32.284445l-1.905777-2.759111-175.701334-289.137778-248.746666 180.878222 74.524444 117.105778a28.444444 28.444444 0 0 1-46.023111 33.251556l-1.962667-2.702223-199.111111-312.888889-0.568889-1.052444H85.333333a28.444444 28.444444 0 0 1-3.328-56.689778L85.333333 327.111111h146.688a28.444444 28.444444 0 0 1 3.328 56.689778l-3.328 0.199111H184.974222l75.207111 118.186667 249.685334-181.560889-56.547556-93.098667L284.444444 227.555556a28.444444 28.444444 0 0 1-28.245333-25.116445L256 199.111111a28.444444 28.444444 0 0 1 25.116444-28.245333L284.444444 170.666667h200.874667z" p-id="81884"></path></svg>