<?xml version="1.0" standalone="no"?><!DOCTYPE svg PUBLIC "-//W3C//DTD SVG 1.1//EN" "http://www.w3.org/Graphics/SVG/1.1/DTD/svg11.dtd"><svg t="1623121112466" class="icon" viewBox="0 0 1024 1024" version="1.1" xmlns="http://www.w3.org/2000/svg" p-id="90691" xmlns:xlink="http://www.w3.org/1999/xlink" width="24" height="24"><defs><style type="text/css"></style></defs><path d="M913.408 705.536c-32.768-34.816-76.8-56.32-123.904-60.416H249.856C145.408 645.12 59.392 730.112 59.392 834.56S144.384 1024 249.856 1024l536.576-1.024h2.048c47.104-4.096 92.16-24.576 123.904-60.416 32.768-34.816 51.2-80.896 51.2-129.024 1.024-47.104-17.408-93.184-50.176-128zM517.12 959.488H249.856c-69.632 0-125.952-56.32-125.952-124.928s56.32-124.928 125.952-124.928h267.264v249.856zM345.088 615.424L808.96 347.136l2.048-1.024c38.912-26.624 66.56-67.584 77.824-113.664 11.264-47.104 3.072-95.232-20.48-137.216-24.576-41.984-62.464-72.704-108.544-86.016-46.08-14.336-94.208-10.24-138.24 10.24l-1.024 1.024-465.92 266.24C64.512 339.968 32.768 455.68 84.992 546.816c52.224 90.112 168.96 120.832 260.096 68.608zM187.392 343.04l232.448-133.12 124.928 216.064-232.448 134.144c-60.416 34.816-137.216 14.336-171.008-46.08-34.816-59.392-14.336-136.192 46.08-171.008z" p-id="90692"></path></svg>