<?xml version="1.0" standalone="no"?><!DOCTYPE svg PUBLIC "-//W3C//DTD SVG 1.1//EN" "http://www.w3.org/Graphics/SVG/1.1/DTD/svg11.dtd"><svg t="1623117868201" class="icon" viewBox="0 0 1024 1024" version="1.1" xmlns="http://www.w3.org/2000/svg" p-id="3906" xmlns:xlink="http://www.w3.org/1999/xlink" width="24" height="24"><defs><style type="text/css"></style></defs><path d="M840.8127214933334 369.60078961777776c-23.301688888888886-25.890765937777775-49.19245482666667-46.60337777777777-75.08322076444443-64.72691256888889-5.17815296-2.5890770488888886-7.767230008888888-5.17815296-12.945381831111112-7.767230008888888 36.247071857777776-18.123535928888888 62.13783665777777-51.78153073777778 62.13783665777777-90.61767964444445 0-62.13783665777777-59.548760746666666-108.74121443555556-132.04290332444444-108.74121443555556-15.534458879999999 0-31.068918897777777 2.5890770488888886-44.01430186666666 7.767230008888888-7.767230008888888 2.5890770488888886-10.35630592 5.17815296-15.534458879999999 7.7672288711111115-2.5890770488888886 0-7.767230008888888 0-10.35630592-2.5890759111111112-5.17815296-7.767230008888888-12.945382968888888-18.123535928888888-25.890765937777775-28.47984184888889-20.71261184-18.123535928888888-44.014300728888884-28.47984184888889-69.90506666666667-31.068918897777777-25.890765937777775 2.5890770488888886-49.19245482666667 12.945382968888888-69.90506666666667 31.068918897777777-10.35630592 10.35630592-20.71261184 18.123535928888888-25.8907648 28.47984184888889 0-2.5890770488888886-5.17815296 0-7.767230008888888-2.5890770488888886-2.5890770488888886-2.5890770488888886-7.767230008888888-5.17815296-15.534458879999999-7.7672288711111115-12.945382968888888-5.17815296-28.47984184888889-7.767230008888888-44.01430186666666-7.767230008888888-69.90506666666667 0-132.04290332444444 46.60337777777777-132.04290332444444 108.74121443555556 0 38.836147768888885 25.890765937777775 72.49414371555555 62.13783665777777 90.61767964444445-2.5890770488888886 2.5890770488888886-7.767230008888888 5.17815296-12.945382968888888 7.7672288711111115-25.890765937777775 18.123535928888888-51.78153073777778 41.42522481777778-75.08321962666668 64.72691370666666-69.90506666666667 72.49414371555555-113.91936739555555 155.34459221333333-113.91936739555555 245.96227185777775 0 253.7295007288889 196.76981703111107 375.41609927111114 432.37578296888887 375.41609927111114h10.35630592c235.6059659377778 0 432.37578296888887-121.68659740444444 432.37578296888887-375.41609927111114-2.5890770488888886-88.02860259555555-46.60337777777777-170.8790522311111-116.50844444444445-240.78411889777777z m-194.18074111999996 261.49673187555555c15.534458879999999 0 25.890765937777775 10.35630592 25.8907648 25.8907648s-10.35630592 25.890765937777775-25.8907648 25.890765937777775h-103.56306147555556V783.8530366577777c0 15.534458879999999-10.35630592 25.890765937777775-25.890765937777775 25.890765937777775s-25.890765937777775-10.35630592-25.8907648-25.890765937777775v-100.97398442666668h-103.56306261333333c-15.534458879999999 0-25.890765937777775-10.35630592-25.8907648-25.890765937777775s10.35630592-25.890765937777775 25.8907648-25.8907648h103.56306261333333v-62.137837795555555h-106.15213852444442c-15.534458879999999 0-25.890765937777775-10.35630592-25.890765937777775-25.8907648s10.35630592-25.890765937777775 25.890765937777775-25.890765937777775h77.67229553777777l-85.43952554666666-85.43952554666666c-10.35630592-10.35630592-10.35630592-25.890765937777775 0-36.247071857777776s25.890765937777775-10.35630592 36.247071857777776 0l103.56306147555556 103.56306147555556 103.56306147555556-103.56306147555556c10.35630592-10.35630592 25.890765937777775-10.35630592 36.247071857777776 0s10.35630592 25.890765937777775 0 36.247071857777776l-85.43952554666666 85.43952554666666h77.67229553777777c15.534458879999999 0 25.890765937777775 10.35630592 25.890765937777775 25.890765937777775s-10.35630592 25.890765937777775-25.890765937777775 25.8907648h-106.15213738666667v62.137837795555555h103.56306147555556z" fill="#515151" p-id="3907"></path></svg>