<?xml version="1.0" standalone="no"?><!DOCTYPE svg PUBLIC "-//W3C//DTD SVG 1.1//EN" "http://www.w3.org/Graphics/SVG/1.1/DTD/svg11.dtd"><svg t="1623119637729" class="icon" viewBox="0 0 1024 1024" version="1.1" xmlns="http://www.w3.org/2000/svg" p-id="24031" xmlns:xlink="http://www.w3.org/1999/xlink" width="24" height="24"><defs><style type="text/css"></style></defs><path d="M623.786667 450.798933c53.009067-24.064 118.033067-103.2192 118.033066-103.2192 0.785067 0.682667 1.570133 1.399467 2.389334 2.082134 28.8768 24.098133 96.290133 62.634667 86.698666 130.013866-4.539733 31.778133-17.646933 50.688-43.3152 72.9088-23.9616-4.130133-163.805867-101.7856-163.805866-101.7856z" fill="#C9D6DF" p-id="24032"></path><path d="M573.2352 241.322667l-20.445867 12.526933L501.76 223.607467l22.801067-10.786134zM568.661333 193.774933l-15.018666 32.0512-13.892267-8.635733 2.321067-10.376533z" fill="#515151" p-id="24033" data-spm-anchor-id="a313x.7781069.0.i13" class="selected"></path><path d="M501.76 223.607467l51.029333 30.242133 20.445867-12.526933-48.674133-28.4672-22.801067 10.752z m37.2736 26.9312l-12.868267-8.0896s-5.12 22.084267-29.661866 37.649066c1.160533-0.375467 30.276267-10.8544 42.530133-29.559466z m0.7168-33.348267l13.892267 8.635733 15.0528-32.0512-26.589867 13.0048-2.3552 10.410667z m247.842133 335.394133c-1.570133 1.399467-3.208533 2.7648-4.846933 4.164267-28.945067 24.064-134.8608 91.511467-202.274133 178.141867-67.413333 86.698667-96.324267 120.388267-130.013867 134.826666-2.56 1.297067-17.271467 2.218667-38.263467 2.7648 0 0-43.6224-79.7696-122.538666-128.4096 25.838933-13.550933 56.285867-33.041067 69.256533-52.497066 19.285333-28.910933 110.7968-202.24 110.7968-245.589334s9.6256-67.413333-48.162133-154.077866c-24.064-33.6896-19.2512-33.6896-9.6256-38.536534 0 0 125.201067-72.226133 211.899733-96.324266 19.285333-4.8128 19.285333 9.6256 24.098133 28.910933 4.778667 19.080533 14.267733 90.112 93.934934 161.655467 0 0-65.058133 79.1552-118.033067 103.2192-0.034133-0.034133 139.810133 97.621333 163.771733 101.751466z" fill="#515151" p-id="24034" data-spm-anchor-id="a313x.7781069.0.i12" class="selected"></path><path d="M526.165333 242.449067l12.868267 8.0896c-12.253867 18.705067-41.3696 29.184-42.530133 29.559466 24.541867-15.5648 29.661867-37.649067 29.661866-37.649066z" fill="#1E2022" p-id="24035"></path><path d="M412.16 872.482133c-8.4992 0.2048-18.0224 0.341333-28.194133 0.4096-6.109867 0.034133-12.424533 0.068267-18.944 0.034134-56.593067-0.170667-124.074667-2.525867-145.783467-7.9872-38.5024-9.6256-28.910933-57.7536-14.4384-72.226134 5.290667-5.290667 10.581333-9.9328 16.349867-14.165333 10.001067-7.338667 21.367467-13.448533 36.625066-19.524267 3.345067-1.3312 7.3728-3.037867 11.844267-5.12 5.973333-2.730667 12.834133-6.0416 20.036267-9.8304 78.882133 48.64 122.504533 128.4096 122.504533 128.4096z" fill="#C9D6DF" p-id="24036"></path></svg>