<?xml version="1.0" standalone="no"?><!DOCTYPE svg PUBLIC "-//W3C//DTD SVG 1.1//EN" "http://www.w3.org/Graphics/SVG/1.1/DTD/svg11.dtd"><svg t="1623119091385" class="icon" viewBox="0 0 1024 1024" version="1.1" xmlns="http://www.w3.org/2000/svg" p-id="37505" xmlns:xlink="http://www.w3.org/1999/xlink" width="24" height="24"><defs><style type="text/css"></style></defs><path d="M918.054525 289.929731a36.057575 36.057575 0 0 1-35.834012-36.233232v-60.394043c0-66.462191-48.193871-120.644366-107.470097-120.644366H212.089363c-59.244288 0-107.454129 54.182175-107.454129 120.644366v627.733957c0 66.494129 48.20984 120.644366 107.454129 120.644367h61.208452a36.217263 36.217263 0 0 1 0 72.418557h-61.208452c-98.719189 0-179.090214-86.534986-179.090214-193.062924v-627.733957c0-106.448094 80.371025-193.062924 179.090214-193.062924h562.661053c98.799033 0 179.122152 86.61483 179.122152 193.062924v60.394043a36.025637 36.025637 0 0 1-35.818043 36.233232zM176.319227 543.338791a36.025637 36.025637 0 0 1 35.802074-36.201294h132.828569a36.217263 36.217263 0 0 1 0 72.418558h-132.860507a36.041606 36.041606 0 0 1-35.770136-36.217264z m0-217.271641a36.009669 36.009669 0 0 1 35.802074-36.185325h364.184701a36.217263 36.217263 0 0 1 0 72.418557H212.089363a36.025637 36.025637 0 0 1-35.770136-36.137419z m191.817356 464.117521z m179.265872 233.815329h-0.383252c-63.779431 0-123.917973-65.248561-138.928655-112.021209a61.719454 61.719454 0 0 1 18.507852-72.450495c35.9937-29.797801 105.394152-75.899758 139.759033-83.293317l7.728905-1.75657 8.144093 1.21363a83.468975 83.468975 0 0 1 50.381599 30.244928l1.596881 1.7406a483.471719 483.471719 0 0 0 59.0846-61.352171l24.496156-29.302768a498.977435 498.977435 0 0 0 50.685006-70.023236l-1.596881-0.910222-0.223564-0.111782a82.46294 82.46294 0 0 1-40.720467-41.870222l-2.714698-7.233872v-7.840686c0.175657-34.492632 32.209092-109.881388 54.741084-149.995041a62.501926 62.501926 0 0 1 59.467851-33.790004c53.607298 0 140.828943 48.08209 151.464172 114.496375 12.375828 76.969669-34.971696 186.371992-129.922246 300.213645l-32.384748 38.772273c-94.902643 113.650027-195.059025 181.150191-274.791298 185.238206z m-76.650293-135.335673a27.498292 27.498292 0 0 0 0.926191 3.624921c7.984405 24.783595 47.203805 65.887314 75.053412 66.190721h2.028039c59.244288-3.193762 145.891057-65.024998 226.294019-161.28499l32.36878-38.756305c80.450869-96.41968 124.748351-191.625731 115.614191-248.378885a71.125084 71.125084 0 0 0-32.815907-39.107617 110.552078 110.552078 0 0 0-52.792889-20.232484h-1.133785a498.897591 498.897591 0 0 0-45.702737 112.548179 85.065856 85.065856 0 0 0 9.325786 5.764741 62.454019 62.454019 0 0 1 38.325146 52.425606c1.022004 15.968811-6.563181 40.975969-68.474261 116.668133l-0.223564 0.27147-24.959251 29.845707c-62.198519 72.769871-85.433138 84.858261-101.290168 87.077926a64.402214 64.402214 0 0 1-59.994822-25.550097 73.45653 73.45653 0 0 0-7.984406-7.984406 518.523259 518.523259 0 0 0-104.627649 66.87738z m157.165037-96.483555z m144.246269-172.750597z" p-id="37506"></path></svg>