<?xml version="1.0" standalone="no"?><!DOCTYPE svg PUBLIC "-//W3C//DTD SVG 1.1//EN" "http://www.w3.org/Graphics/SVG/1.1/DTD/svg11.dtd"><svg t="1623120626754" class="icon" viewBox="0 0 1230 1024" version="1.1" xmlns="http://www.w3.org/2000/svg" p-id="73786" xmlns:xlink="http://www.w3.org/1999/xlink" width="28.828125" height="24"><defs><style type="text/css"></style></defs><path d="M1182.91552 419.089127l-191.243648-110.463368c-5.816131-3.36451-13.158673-3.36451-19.277868 0l-190.936887 110.463368c-5.816131 3.36451-9.48617 9.790466-9.486169 16.521951v116.277034c0 47.735146 11.016277 93.021135 30.599673 133.412507 34.883234 71.906399 96.999166 128.208665 173.495886 155.137067 3.9768 1.528875 8.261592 1.528875 12.545152 0 76.192423-26.928403 138.615116-83.2319 173.495886-155.137067 19.583397-40.39014 30.599673-85.677361 30.599673-133.412507v-116.277034a18.923061 18.923061 0 0 0-9.791698-16.521951z m-28.764038 132.493457c0 41.002429-8.873881 80.170455-26.619178 116.582563-29.683088 60.890122-82.312851 109.238789-145.346601 133.412506-63.032518-24.173717-115.970274-72.521152-145.344137-133.412506-17.747761-36.412108-26.622874-75.580134-26.622874-116.582563v-104.95523l171.967011-99.447091 171.965779 99.447091v104.95523z m0 0" fill="" p-id="73787"></path><path d="M939.653167 454.582185c-6.425956 15.913358-14.074026 32.435309-22.642379 48.348667v170.739969H889.470096V545.462156c-6.119196 7.954831-12.238391 15.299837-18.664347 21.725793-2.754685-7.038245-10.709516-22.644843-15.606597-29.986153 22.644843-22.032553 44.980461-56.915787 57.832373-91.493491l26.621642 8.87388z m96.386877 134.024796c14.380787 21.419032 35.496755 41.30919 55.996737 53.242052-6.731485 5.506906-15.912126 15.912126-20.499983 23.254668-17.747761-12.851912-35.803515-32.435309-49.570781-54.465399v63.032519h-29.377559v-61.809172c-14.993076 21.419032-33.657423 40.083379-52.935291 52.628531-4.28356-7.035781-13.464201-17.745297-20.196918-23.254668 22.031321-11.626102 43.757114-31.209499 59.056951-52.935291h-50.183071v-26.316114h64.257097v-22.031321h-48.03821V456.112292h128.515425v83.840494h-51.099656v22.031321h63.032519v26.316114h-48.958492v0.30676z m-63.951568-74.050027h71.603334v-33.045134h-71.603334v33.045134z m0 0M740.681371 649.536527a72.756459 72.756459 0 0 1 0-7.431244V426.521602H307.011878c-33.898889 0-74.60811-26.998625-77.255613-61.22029l11.645813-46.734786 31.209499-83.882381 0.458293-1.962528c3.103333-16.949445 10.047948-19.966539 20.283156-33.082093h488.760732c10.370724 13.480217 16.81516 16.906326 19.644995 32.898529l31.720766 86.056808 4.472052 11.079107 55.085079-24.588891-28.001449-85.247403c-13.615734-73.511656-64.873082-108.965292-127.873569-108.965292H337.759388c-72.322805 0-116.227756 47.605789-127.878497 108.918477L167.257189 349.497599c-3.884402-2.286537-8.267751-3.748885-13.066275-3.748885h-94.34427c-14.485505 0-26.271762 11.833073-26.271763 26.503373v23.023057c0 14.619789 11.785026 26.503373 26.271763 26.503373l35.728365 6.164779c-11.284846 22.253076-17.72805 47.696955-17.72805 77.30366L64.645167 657.791958c0 4.432628 0.317848 8.913304 0.866075 13.480217-0.50018 2.737438-0.866075 5.663367-0.866075 8.589296v183.520426c0 26.137478 21.016178 47.287941 46.873999 47.287941h71.547896c25.857821 0 46.825952-21.150463 46.825952-47.287941v-58.976872h510.789589V649.536527z m-477.39088 67.927135c-39.197593 0-70.951622-32.075574-70.951622-71.640293 0-39.611535 31.754029-71.639062 70.951622-71.639062s70.951622 32.027527 70.951622 71.639062c0 39.56472-31.754029 71.640294-70.951622 71.640293z m375.227295-31.570466H439.463448c-11.650741 0-21.107344-9.504649-21.107344-21.292139v-59.895923c0-11.741907 9.456603-21.242861 21.107344-21.24286H638.517786c11.695092 0 21.150463 9.499721 21.150463 21.24286v59.895923h0.004928c0.001232 11.78749-9.459066 21.292139-21.155391 21.292139z" fill="" p-id="73788"></path></svg>