<?xml version="1.0" standalone="no"?><!DOCTYPE svg PUBLIC "-//W3C//DTD SVG 1.1//EN" "http://www.w3.org/Graphics/SVG/1.1/DTD/svg11.dtd"><svg t="1623120846124" class="icon" viewBox="0 0 1024 1024" version="1.1" xmlns="http://www.w3.org/2000/svg" p-id="82747" xmlns:xlink="http://www.w3.org/1999/xlink" width="24" height="24"><defs><style type="text/css"></style></defs><path d="M0 0h1024v1024H0z" fill="#515151" opacity=".01" p-id="82748"></path><path d="M250.816 802.8c24.32 0 47.296 9.568 64.672 26.976l40.864 40.88a29.68 29.68 0 0 0 41.952 0l40.832-40.88a90.88 90.88 0 0 1 64.704-26.976 91.04 91.04 0 0 1 64.96 27.232l39.488 39.872a29.536 29.536 0 0 0 42.32-0.192l37.968-38.96a90.928 90.928 0 0 1 64.784-27.776h0.736c23.92 0 46.528 9.232 63.792 26.08l65.712 58.752c12.944 11.568 14.192 31.616 2.832 44.784a30.8 30.8 0 0 1-44 2.864l-66.24-59.264-1.216-1.12a29.6 29.6 0 0 0-42.128 0.32l-37.968 38.96a90.864 90.864 0 0 1-65.136 27.792h-0.384a90.768 90.768 0 0 1-64.96-27.248l-39.472-39.84a29.664 29.664 0 0 0-42.08-0.096l-40.832 40.912a90.912 90.912 0 0 1-64.688 26.944 90.912 90.912 0 0 1-64.736-26.944l-40.832-40.912a29.664 29.664 0 0 0-43.168 1.2l-64.768 59.04c-8.224 8-20.08 10.816-30.928 7.328a31.536 31.536 0 0 1-21.2-24.064c-2.24-11.36 1.808-23.04 10.528-30.496l64.192-58.576a90.88 90.88 0 0 1 64.176-26.608l0.224 0.016zM505.056 48l4.32 0.144c33.264 2.32 59.072 30.432 59.072 64.352v20.8l196.208 77.52a31.68 31.68 0 0 1 19.888 29.536v142.144l110.24 48.64c16.4 7.2 22.32 27.84 12.32 42.912L743.04 742.048c-3.584 5.344-9.136 8.96-15.408 10.032a150.656 150.656 0 0 0-81.904 43.616 23.216 23.216 0 0 1-33.248 0.144l-1.184-1.2a150.368 150.368 0 0 0-107.152-45.056h-0.32a150.352 150.352 0 0 0-107.024 44.64l-3.024 2.992a23.216 23.216 0 0 1-32.992 0l-2.96-3.04a150.784 150.784 0 0 0-77.824-41.728 23.28 23.28 0 0 1-14.848-10.08L100.88 474.048a29.504 29.504 0 0 1-3.728-24.4 28.912 28.912 0 0 1 16.048-18.528l106.208-46.832v-141.856a31.68 31.68 0 0 1 19.92-29.584l202.304-79.872V112.528c0-17.12 6.688-33.536 18.592-45.648A62.88 62.88 0 0 1 505.072 48h-0.032z m-0.4 128.16L281.76 264.128v92.64l199.92-88.144c14.24-6.272 30.4-6.272 44.64 0l195.904 86.384v-92.976L504.64 176.144z" fill="#515151" p-id="82749"></path></svg>