<?xml version="1.0" standalone="no"?><!DOCTYPE svg PUBLIC "-//W3C//DTD SVG 1.1//EN" "http://www.w3.org/Graphics/SVG/1.1/DTD/svg11.dtd"><svg t="1623120494837" class="icon" viewBox="0 0 1150 1024" version="1.1" xmlns="http://www.w3.org/2000/svg" p-id="68023" xmlns:xlink="http://www.w3.org/1999/xlink" width="26.953125" height="24"><defs><style type="text/css"></style></defs><path d="M381.574737 942.08H45.990175a45.990175 45.990175 0 0 0-45.990175 45.990175v35.211229h431.157895v-35.211229a45.990175 45.990175 0 0 0-49.583158-45.990175zM609.369825 395.946667H446.967018l-56.050527 64.673684H553.319298l56.050527-64.673684zM720.033684 269.473684H556.912281l-56.050527 63.955088h163.121404l56.050526-63.955088zM791.174737 0l-69.70386 79.764211h161.684211L791.174737 0z" p-id="68024"></path><path d="M71.859649 904.712982h287.438597a28.74386 28.74386 0 0 0 28.743859-28.743859V650.329825l111.382456-127.910176H388.042105V119.287018a28.74386 28.74386 0 0 0-28.743859-28.74386H71.859649a28.74386 28.74386 0 0 0-28.74386 28.74386v756.682105a28.74386 28.74386 0 0 0 28.74386 28.743859z m38.085614-699.912982a58.206316 58.206316 0 0 1 57.487719-57.487719h96.29193a57.487719 57.487719 0 0 1 57.48772 57.487719v251.508772a57.487719 57.487719 0 0 1-57.48772 57.487719H163.84a57.487719 57.487719 0 0 1-57.487719-57.487719zM829.978947 142.282105H667.57614l-56.050526 64.673684h162.402807l56.050526-64.673684zM1099.452632 669.013333h-14.37193l-71.859649-180.367719a23.713684 23.713684 0 0 0-22.276492-15.090526H608.651228a23.713684 23.713684 0 0 0-22.276491 15.090526l-71.859649 180.367719h-14.37193a50.301754 50.301754 0 0 0-50.301754 51.020351v196.176842h48.864561v67.54807a40.241404 40.241404 0 0 0 40.241403 40.241404h30.181053a40.241404 40.241404 0 0 0 40.241404-40.241404v-67.54807h383.730526v67.54807a40.241404 40.241404 0 0 0 40.241403 40.241404h30.181053a40.241404 40.241404 0 0 0 40.241404-40.241404v-67.54807H1149.754386V718.596491a51.020351 51.020351 0 0 0-50.301754-49.583158zM624.460351 521.701053h349.237895l60.362105 147.31228H564.098246z m-55.33193 316.901052a50.301754 50.301754 0 1 1 50.301754-50.301754 50.301754 50.301754 0 0 1-50.301754 49.583158z m459.183158 0A50.301754 50.301754 0 1 1 1077.894737 790.45614a50.301754 50.301754 0 0 1-48.864562 47.427369z" p-id="68025"></path></svg>