<?xml version="1.0" standalone="no"?><!DOCTYPE svg PUBLIC "-//W3C//DTD SVG 1.1//EN" "http://www.w3.org/Graphics/SVG/1.1/DTD/svg11.dtd"><svg t="1623120023018" class="icon" viewBox="0 0 1024 1024" version="1.1" xmlns="http://www.w3.org/2000/svg" p-id="42031" xmlns:xlink="http://www.w3.org/1999/xlink" width="24" height="24"><defs><style type="text/css"></style></defs><path d="M596.992 130.048a103.936 98.816 0 1 0 207.872 0 103.936 98.816 0 1 0-207.872 0Z" p-id="42032"></path><path d="M277.504 282.624s-38.4 7.168-48.128-29.184c-9.216-35.84 28.16-56.32 28.16-56.32l166.4-75.776s19.968-14.336 61.44 2.048c38.4 15.36 171.52 97.792 171.52 97.792s54.272 54.272 74.24 124.928c0 0 15.872 40.96 46.08 36.864 30.208-3.584 98.816-33.792 119.296-8.704s26.112 69.632-23.552 79.36c-49.664 9.728-151.04 30.208-151.04 30.208s-34.304 14.848-47.104-45.056c-12.288-59.904-56.32-23.04-56.32-23.04S547.84 463.872 559.104 501.76c11.264 36.864 114.688 109.568 117.248 173.568 3.072 64-59.392 55.296-59.392 55.296l-159.232 248.832s-27.136 38.4-68.608 0 15.872-93.696 15.872-93.696l77.824-118.272-102.912 18.432s-46.08 8.704-49.664-34.816c-4.096-43.52 44.032-54.272 44.032-54.272l108.032-25.088s46.08-5.12 12.8-41.472c-32.768-36.352-123.392-113.664-123.392-113.664s-48.128-38.4 4.096-99.84S495.104 291.84 495.104 291.84s39.424-25.088-19.968-51.712-89.088-3.584-89.088-3.584l-108.544 46.08z" p-id="42033"></path><path d="M321.024 401.92H148.48c-11.776 0-20.992-10.752-20.992-24.576 0-13.824 9.216-24.576 20.992-24.576h172.544c11.776 0 20.992 10.752 20.992 24.576 0.512 13.824-8.704 24.576-20.992 24.576zM297.472 501.76H147.456c-10.752 0-20.48-10.24-20.48-23.552v-3.072c0-12.8 8.704-23.552 20.48-23.552h150.528c10.752 0 20.48 10.24 20.48 23.552v3.072c-0.512 13.312-9.728 23.552-20.992 23.552zM351.232 606.72H148.48c-11.776 0-20.992-10.752-20.992-24.576 0-13.824 9.216-24.576 20.992-24.576h202.752c11.776 0 20.992 10.752 20.992 24.576 1.024 13.312-9.216 24.576-20.992 24.576z" p-id="42034"></path></svg>