<?xml version="1.0" standalone="no"?><!DOCTYPE svg PUBLIC "-//W3C//DTD SVG 1.1//EN" "http://www.w3.org/Graphics/SVG/1.1/DTD/svg11.dtd"><svg t="1623120525261" class="icon" viewBox="0 0 1024 1024" version="1.1" xmlns="http://www.w3.org/2000/svg" p-id="68849" xmlns:xlink="http://www.w3.org/1999/xlink" width="24" height="24"><defs><style type="text/css"></style></defs><path d="M989.184 334.186667C774.805333 268.458667 606.336 106.666667 514.474667 106.666667 422.613333 106.666667 254.186667 268.458667 39.765333 334.186667 4.053333 344.32-11.264 384.746667 9.173333 415.082667 55.04 475.733333 106.133333 480.853333 106.133333 551.573333c0 0 204.138667 50.56 408.341334 50.56 204.16 0 408.341333-50.517333 408.341333-50.517333 0-70.784 51.050667-75.882667 91.904-141.589333 20.416-25.301333 5.077333-65.706667-25.536-75.84zM514.474667 511.146667c-56.149333 0-102.058667-96.064-102.058667-151.68 0 0 45.909333-50.56 102.058667-50.56 56.149333 0 102.08 50.56 102.08 50.56 0 55.616-45.930667 151.68-102.08 151.68z m-415.36 124.032s211.584 48.064 407.722666 48.064c196.096 0 418.069333-48.064 418.069334-48.064S806.186667 899.434667 512 899.434667 99.093333 635.178667 99.093333 635.178667z" p-id="68850"></path></svg>