<?xml version="1.0" standalone="no"?><!DOCTYPE svg PUBLIC "-//W3C//DTD SVG 1.1//EN" "http://www.w3.org/Graphics/SVG/1.1/DTD/svg11.dtd"><svg t="1623118317253" class="icon" viewBox="0 0 1024 1024" version="1.1" xmlns="http://www.w3.org/2000/svg" p-id="11830" xmlns:xlink="http://www.w3.org/1999/xlink" width="24" height="24"><defs><style type="text/css"></style></defs><path d="M443.05108 0.006144a60.074306 60.074306 0 0 1 56.456195 37.341643h72.362232c31.675543 0.204799 59.186845 21.70867 66.627867 52.018887h145.884992c37.887773 0 70.109446 30.583283 68.948919 67.85666v367.545528a259.411777 259.411777 0 0 0-122.264866-29.832354c-26.896905 0-52.565018 3.618112-77.072604 10.922601a64.92121 64.92121 0 0 0 0.614396-9.079412v-42.666411c0-25.53158-11.605264-46.967185-25.326781-46.967185H259.346583c-13.721518 0-25.258515 21.435605-25.258516 46.967185v42.666411c0.068266 25.804645 11.332199 46.69412 25.258516 46.898918l316.823699-0.068266a275.727412 275.727412 0 0 0-84.308828 92.978642L259.414849 636.725524c-13.721518 0-25.258515 21.435605-25.258515 46.967185v42.66641c0.068266 25.804645 11.332199 46.69412 25.258515 46.898919h198.108678c0.614396 36.11285 7.782353 69.904647 21.572137 101.511924 14.472446 33.109135 34.133129 62.054028 58.845514 86.902945L532.343345 955.733743H100.764067a67.242263 67.242263 0 0 1-66.218269-60.00604L34.136201 887.877083V157.2916c0-37.341643 28.740094-67.85666 66.627866-67.856659h145.953258c6.826626-29.354491 34.47446-52.018888 66.627867-52.018888h73.591025A60.074306 60.074306 0 0 1 443.05108 0.006144z m18.909754 136.532514A88.541335 88.541335 0 0 0 375.467486 224.533863c0 47.445049 38.229104 86.356815 86.493348 87.858673 32.563005 1.023994 63.078022-15.49644 79.666722-43.144274a86.698146 86.698146 0 0 0 0-89.428797A89.633596 89.633596 0 0 0 461.960834 136.538658z" p-id="11831"></path><path d="M735.367193 546.136201c30.310218 0 58.982046 6.007431 85.947218 18.022291a228.555429 228.555429 0 0 1 118.783287 120.831275c11.741796 27.443035 17.680961 56.592727 17.680961 87.380809 0 31.607277-5.939164 61.0983-17.749227 88.541336a232.856203 232.856203 0 0 1-47.991179 71.952635 221.524004 221.524004 0 0 1-70.723842 48.400776c-26.965172 11.605264-55.637 17.476162-85.947218 17.476162-30.992881 0-59.937774-5.870898-86.902945-17.476162a221.455738 221.455738 0 0 1-70.792109-48.400776 232.787937 232.787937 0 0 1-47.991178-71.952635A221.455738 221.455738 0 0 1 512 772.438843c0-30.856348 5.870898-60.00604 17.749227-87.449076A228.487162 228.487162 0 0 1 648.532514 564.158492C675.361153 552.143631 704.306046 546.136201 735.230661 546.136201z m-71.611304 187.732206h-53.725544v20.275079h32.631271V846.507732c-6.143963 5.666099-15.223375 14.335914-27.443035 26.07771l-7.645821 7.372756 11.263932 22.732663c14.40418-17.544428 25.395048-29.764088 32.904336-36.727246 12.76579 20.821208 34.542726 31.539011 65.194276 32.085141 50.858362 1.09226 102.808983 1.433591 156.056663 1.09226 3.071982-8.39675 5.666099-15.632973 7.645821-21.640404-55.022603 1.433591-108.475082 1.843189-160.425704 1.09226-23.005729-0.682663-40.277092-7.782353-51.882355-21.435604l-4.57384-6.280496V733.868407z m183.704498-85.605886h-137.897839v182.066108c0 5.461301-1.501858 10.376471-4.505573 14.608979l-3.413313 4.095975 15.564707 20.479877c5.119969-3.618112 10.239939-6.826626 15.359908-9.557276 17.749227-8.601548 35.293655-16.179103 52.633284-22.80093a269.856514 269.856514 0 0 1-1.365325-21.640403c-15.701239 6.826626-29.695822 12.76579-41.847216 17.612694l-11.605264 4.573839v-71.543037h96.528488v7.167957h20.548143V648.262521z m10.922601 123.698458c-19.114552 10.376471-37.887773 20.002013-56.183129 28.740094l-26.62384-16.179103-14.472447-8.738081-11.263932 15.018577c40.959754 25.941178 76.458208 49.834368 106.427094 71.611304l13.653252-19.182819a2606.269162 2606.269162 0 0 0-49.356504-31.265945l25.599846-10.513004 26.282509-10.58127-13.994582-18.909753z m-31.470744-55.705266v31.265946h-96.528488v-31.265946h96.528488zM641.842421 641.70896l-17.544428 11.810063c9.557276 12.560991 21.640403 30.515017 36.454181 53.725544l19.455883-13.721517a1068.913053 1068.913053 0 0 0-33.450466-45.670126l-4.91517-6.143964z m185.001557 25.258516v31.197679H730.452023V666.967476h96.528487z" p-id="11832"></path></svg>