<?xml version="1.0" standalone="no"?><!DOCTYPE svg PUBLIC "-//W3C//DTD SVG 1.1//EN" "http://www.w3.org/Graphics/SVG/1.1/DTD/svg11.dtd"><svg t="1623120864616" class="icon" viewBox="0 0 1024 1024" version="1.1" xmlns="http://www.w3.org/2000/svg" p-id="83672" xmlns:xlink="http://www.w3.org/1999/xlink" width="24" height="24"><defs><style type="text/css"></style></defs><path d="M274 627.6h89.5v87H274v-87m0-144.8h89.5v87H274v-87m0-144.8h89.5v87H274v-87m148.8 289.6h89.5v87h-89.5v-87m0-144.8h89.5v87h-89.5v-87m0-144.8h89.5v87h-89.5v-87m238.3 289.6h89.5v87h-89.5v-87m0-144.8h89.5v87h-89.5v-87m269.2 318.8h-61.8V338c0-15.9-13.2-28.9-29.6-29.2H631.5V164c0.1-7.7-2.9-15.1-8.5-20.6-5.6-5.5-13.2-8.6-21.2-8.6H185.1c-8.1-0.4-15.9 2.6-21.6 8.2-5.7 5.6-8.6 13.2-8.1 21v637.7H93.7c-8.1-0.4-15.9 2.6-21.6 8.2-5.7 5.6-8.6 13.2-8.1 21V860c-0.5 7.8 2.4 15.4 8.1 21 5.7 5.6 13.5 8.6 21.6 8.2h836.6c8.1 0.4 15.9-2.6 21.6-8.2 5.6-5.6 8.6-13.2 8-21v-29.2c0.5-7.8-2.4-15.4-8.1-21-5.6-5.5-13.4-8.5-21.5-8.2" fill="#515151" p-id="83673"></path></svg>