<?xml version="1.0" standalone="no"?><!DOCTYPE svg PUBLIC "-//W3C//DTD SVG 1.1//EN" "http://www.w3.org/Graphics/SVG/1.1/DTD/svg11.dtd"><svg t="1623121458106" class="icon" viewBox="0 0 1024 1024" version="1.1" xmlns="http://www.w3.org/2000/svg" p-id="105582" xmlns:xlink="http://www.w3.org/1999/xlink" width="24" height="24"><defs><style type="text/css"></style></defs><path d="M745.610572 75.641771l-496.221642 0c-28.741601 0-51.259454 25.084305-51.259454 57.107649l0 789.362029 74.170257 0 0-772.299421 445.333648 0-331.506183 29.153994 0 766.881015 336.575642-27.442002 0 3.706415 74.170257 0L796.873096 132.74942C796.875143 100.725052 774.35729 75.641771 745.610572 75.641771zM428.767344 533.386076c-11.995195 0-21.719674-9.724479-21.719674-21.719674 0-11.995195 9.724479-21.719674 21.719674-21.719674 11.995195 0 21.719674 9.724479 21.719674 21.719674C450.487018 523.661597 440.763562 533.386076 428.767344 533.386076z" p-id="105583"></path></svg>