<?xml version="1.0" standalone="no"?><!DOCTYPE svg PUBLIC "-//W3C//DTD SVG 1.1//EN" "http://www.w3.org/Graphics/SVG/1.1/DTD/svg11.dtd"><svg t="1623120047511" class="icon" viewBox="0 0 1024 1024" version="1.1" xmlns="http://www.w3.org/2000/svg" p-id="43740" xmlns:xlink="http://www.w3.org/1999/xlink" width="24" height="24"><defs><style type="text/css"></style></defs><path d="M796.444444 170.666667v42.666666a28.444444 28.444444 0 0 0 56.689778 3.328L853.333333 213.333333V170.666667h56.888889a56.888889 56.888889 0 0 1 56.888889 56.888889v597.333333a56.888889 56.888889 0 0 1-56.888889 56.888889h-56.888889v-42.666667a28.444444 28.444444 0 0 0-25.116444-28.245333L824.888889 810.666667a28.444444 28.444444 0 0 0-28.245333 25.116444L796.444444 839.111111V881.777778H113.777778a56.888889 56.888889 0 0 1-56.888889-56.888889V227.555556a56.888889 56.888889 0 0 1 56.888889-56.888889h682.666666z m28.444445 469.333333a28.444444 28.444444 0 0 0-28.245333 25.116444L796.444444 668.444444v56.888889a28.444444 28.444444 0 0 0 56.689778 3.328L853.333333 725.333333v-56.888889a28.444444 28.444444 0 0 0-28.444444-28.444444z m-420.977778-277.816889a56.888889 56.888889 0 0 0-76.686222 7.765333l-2.958222 3.612445-142.222223 189.639111a56.888889 56.888889 0 0 0 41.244445 90.88L227.555556 654.222222h405.703111a56.888889 56.888889 0 0 0 49.777777-84.48l-2.446222-3.982222-64.369778-96.540444a56.888889 56.888889 0 0 0-91.932444-3.783112l-2.730667 3.783112-16.270222 24.32-89.998222-119.978667a56.888889 56.888889 0 0 0-11.377778-11.377778zM824.888889 469.333333a28.444444 28.444444 0 0 0-28.245333 25.116445L796.444444 497.777778v56.888889a28.444444 28.444444 0 0 0 56.689778 3.328L853.333333 554.666667v-56.888889a28.444444 28.444444 0 0 0-28.444444-28.444445z m0-170.666666a28.444444 28.444444 0 0 0-28.245333 25.116444L796.444444 327.111111v56.888889a28.444444 28.444444 0 0 0 56.689778 3.328L853.333333 384v-56.888889a28.444444 28.444444 0 0 0-28.444444-28.444444z" p-id="43741"></path></svg>