<?xml version="1.0" standalone="no"?><!DOCTYPE svg PUBLIC "-//W3C//DTD SVG 1.1//EN" "http://www.w3.org/Graphics/SVG/1.1/DTD/svg11.dtd"><svg t="1623118206414" class="icon" viewBox="0 0 1024 1024" version="1.1" xmlns="http://www.w3.org/2000/svg" p-id="9087" data-spm-anchor-id="a313x.7781069.0.i9" xmlns:xlink="http://www.w3.org/1999/xlink" width="24" height="24"><defs><style type="text/css"></style></defs><path d="M394.628826 280.716426c12.298094 0 21.86396-9.628288 21.86396-22.009269 0-79.781044 64.230883-143.058207 142.126998-143.058207s142.125975 63.276139 142.125974 143.058207c0 12.380982 9.56689 22.00927 21.864984 22.009269 12.300141 0 21.866007-9.628288 21.866007-22.009269 0-103.165638-83.363639-187.075723-185.856965-187.075723-102.494349 0-185.857988 83.910085-185.857988 187.075723 0.001023 12.380982 9.56689 22.00927 21.86703 22.009269z m561.671283 169.193447c0-15.130605-6.832615-30.261211-19.131733-39.890522-12.298094-8.253988-28.698622-9.628288-40.99774-1.375324-6.832615 4.125971-13.666254 6.877641-21.866007 8.252965-76.528977-83.909062-204.989721-133.428895-345.748558-133.428895-58.765405 0-116.161626 9.628288-169.458483 28.885887-27.331485-30.261211-65.595974-46.768163-105.228623-46.768163-15.032368 0-27.331485 6.877641-36.897352 19.258622-9.56689 13.754259-12.300141 30.261211-6.833639 45.391817 8.200776 22.010293 9.565866 45.39284 5.465479 67.403132-20.497846 19.256576-38.264489 39.890522-54.662971 61.899792-4.100388 0-8.200776-1.375324-10.933003-1.375323h-5.467525c-43.729967 0-79.262228 37.139875-79.262228 82.533738v125.174907c0 45.39284 35.532261 82.533738 79.262228 82.533739h6.833639c4.100388 0 8.199753 0 12.298094-1.375324 27.332509 38.515199 62.86477 72.904427 105.227599 100.413967v4.126994c0 55.022151 40.998763 99.039667 90.196255 99.039667 27.331485 0 53.296857-13.755282 71.062476-37.138851 32.79901 6.876618 65.596997 9.628288 99.762121 9.628288 46.465265 0 90.196255-5.502317 133.927245-17.882276 16.398482 27.511587 45.097104 44.017516 75.162864 44.017516 50.563606 0 90.195232-44.017516 90.195232-99.039667v-27.511587c75.16184-60.523445 118.892831-143.057183 118.89283-226.966245 0-24.759917-4.098341-50.895157-10.933003-74.279751 9.568936-23.384593 15.035438-46.769186 19.134803-71.529103z m-62.863747 78.405721c8.199753 22.00927 10.933003 45.393863 10.933004 68.777433 0 72.90545-39.630602 145.808854-110.694102 199.456704-5.466502 4.125971-8.199753 11.004635-8.199752 17.882276v37.139875c0 30.263258-21.864984 55.022151-47.831379 55.022151-19.132756 0-36.897352-13.756305-43.73099-34.389228-2.733251-8.252964-10.933003-13.756305-20.49887-13.756305-2.734274 0-4.100388 0-6.832615 1.375323-45.099151 13.755282-91.563392 20.632923-139.393747 20.632923-35.531238 0-71.062476-4.126994-105.228623-12.378935-9.565866-2.75167-19.131733 2.750647-24.599258 11.002588-8.198729 17.882276-24.599258 27.511587-40.996716 27.511588-25.966395 0-47.831378-24.759917-47.831379-55.022151v-16.506953c0-6.877641-4.100388-15.130605-9.566889-17.882275-45.098127-28.886911-83.363639-64.651462-109.327988-107.292632-5.465478-8.252964-16.399505-11.004635-25.966395-8.252965-4.098341 1.375324-8.197706 2.75167-12.298094 2.751671h-6.833638c-20.49887 0-36.897352-17.883299-36.897352-38.516222V540.696576c0-22.00927 16.399505-38.516222 36.897352-38.516222h6.833638c4.100388 0 8.199753 1.375324 12.298094 2.750647 9.56689 4.126994 20.499893 0 25.966395-8.252965 16.398482-26.136264 36.898375-49.520857 60.129472-70.153779 4.100388-2.75167 5.467525-6.876618 6.833639-11.004635 6.832615-33.012881 5.466502-66.026786-5.466502-97.665367-1.367137-2.750647 0-5.502317 1.367137-6.876618 0-1.375324 1.366114-1.375324 1.366114-1.375323 31.431873 0 60.130496 15.131629 80.629366 42.643216 5.466502 8.252964 16.399505 11.004635 24.599257 6.876617 51.930743-20.632923 109.327988-31.638581 168.091346-31.638581 133.926222 0 254.187213 48.14451 321.150324 126.553301 4.098341 5.501294 10.933003 8.251941 17.764596 6.876618 15.032368-1.375324 30.065759-5.501294 43.73099-12.378935-2.732228 22.008246-9.565866 44.017516-17.764595 63.276138-1.36509 5.501294-1.36509 11.002588 1.36816 16.504906zM257.969353 459.538161c-16.399505 0-30.064736 26.13524-30.064736 57.773821 0 31.636534 13.665231 57.772798 30.064736 57.772799s30.064736-26.137287 30.064736-57.772799c-1.366114-31.638581-15.033391-57.773821-30.064736-57.773821z" p-id="9088"></path></svg>