<?xml version="1.0" standalone="no"?><!DOCTYPE svg PUBLIC "-//W3C//DTD SVG 1.1//EN" "http://www.w3.org/Graphics/SVG/1.1/DTD/svg11.dtd"><svg t="1623118932353" class="icon" viewBox="0 0 1024 1024" version="1.1" xmlns="http://www.w3.org/2000/svg" p-id="32607" xmlns:xlink="http://www.w3.org/1999/xlink" width="24" height="24"><defs><style type="text/css"></style></defs><path d="M220.16 876.544c-8.192-4.608-3.584-18.944-1.536-25.6 22.016-62.976 40.96-101.376 60.416-168.96 17.408-67.584 35.328-137.728 60.928-202.24l9.216 3.072c-3.584 11.776-14.336 54.272-26.624 107.008-29.184 121.344-73.728 299.52-102.4 286.72z m86.016-139.776c20.992 12.8 77.312-11.776 96.768-20.992 50.176-23.552 88.064-98.816 104.448-150.016l8.192-26.624c-39.936 59.904-97.792 68.096-164.864 89.088-33.28 10.24-66.048 95.744-44.544 108.544z m55.296-141.312c20.992 0 48.64-8.192 82.944-24.064 48.128-22.528 74.752-58.88 88.576-86.016 12.288-23.552 16.896-41.472 20.48-66.56l-9.216 9.728c-15.872 17.92-64.512 33.28-107.52 46.592-21.504 6.656-46.592 11.776-62.976 27.136-31.232 29.696-76.288 93.184-12.288 93.184z" p-id="32608"></path><path d="M402.944 473.088c-10.752 0-45.568-4.608-51.2-14.848-2.56-4.608-2.048-13.824 1.536-24.064 4.096-12.288 17.92-42.496 58.368-60.928 27.136-12.288 54.784-16.896 80.896-20.992 26.624-4.608 51.712-8.704 73.728-20.992l9.728-5.632-4.096 10.752s-7.68 19.968-23.04 43.52c-14.336 22.016-38.912 52.224-73.728 72.192-24.576 13.824-49.152 20.992-72.192 20.992zM327.168 445.44c37.376-22.528 51.2-70.144 44.032-111.104-10.752-64.512-44.544-75.776-37.888-150.528l1.024-11.776-8.192 8.192c-0.512 1.024-18.432 19.456-33.28 50.688-13.824 28.672-28.16 74.24-15.872 127.488 5.632 26.624 22.016 76.8 50.176 87.04z m-90.112 111.104c-39.424-71.168-21.504-173.568 21.504-239.104 6.144 101.376 89.6 173.568 25.088 266.24-20.48 6.144-37.888-10.752-46.592-27.136z" p-id="32609"></path><path d="M259.584 711.68l-2.56-0.512c-30.72-3.584-68.608-44.032-82.944-70.656-28.16-50.688-16.896-134.144-3.584-188.928 23.552 70.144 51.712 87.04 90.112 143.872 16.384 24.064 19.968 52.224 13.312 80.384-4.608 19.456-12.8 32.768-13.312 33.28l-1.024 2.56zM348.16 241.664c-12.288-6.656 21.504-56.32 26.112-63.488 12.8-19.968 38.4-57.344 67.584-83.456l35.84-32.256-28.672 38.912c-2.048 3.584-63.488 88.576-85.504 131.072-2.56 6.144-8.704 12.8-15.36 9.216z m97.792 87.552c5.12 0 11.264-5.12 13.824-9.216 56.832-122.368 136.192-205.312 136.704-206.336l33.792-34.816-39.936 27.136c-23.04 15.872-60.928 60.928-88.576 97.792-33.792 45.056-58.368 84.992-61.952 100.864-2.56 9.728-4.096 19.968 2.048 23.552 1.024 1.024 2.56 1.024 4.096 1.024z m-48.64-4.096c10.752 0 17.408-14.848 18.944-18.432 76.8-162.304 172.544-261.12 173.568-261.632l1.536-1.536-6.144-7.68-2.048 1.536c-18.944 14.336-70.144 73.216-108.032 119.296-17.408 20.992-40.448 59.904-55.808 89.088-12.288 22.528-32.256 62.464-30.72 73.216 0.512 2.56 1.536 4.608 4.096 5.12 1.536 0.512 3.072 1.024 4.608 1.024z m-29.184-30.72c5.12 0 9.728-3.072 12.288-7.168 19.968-65.536 135.68-223.232 137.216-224.768l1.536-2.048-7.68-6.144-1.536 2.048C465.92 106.496 360.448 245.248 358.4 273.408c-1.024 7.68-0.512 20.992 9.728 20.992z m116.224 34.816c7.168 0 11.264-8.192 12.288-10.24 21.504-43.008 82.944-127.488 86.016-131.072l28.672-38.912-35.84 32.256c-29.184 26.112-54.784 63.488-67.584 83.456-15.36 23.552-30.208 51.712-29.696 58.88 0 2.048 1.536 3.584 3.072 4.608 1.024 1.024 2.048 1.024 3.072 1.024zM538.624 927.232c-8.192-4.608-3.584-18.944-1.536-25.6 22.016-62.976 40.96-101.376 60.416-168.96 17.408-67.584 35.328-137.728 60.928-202.24l9.216 3.072c-3.584 11.776-14.336 54.272-26.624 107.008-29.696 121.344-74.24 300.032-102.4 286.72z m86.016-139.264c20.992 12.8 77.312-11.776 96.768-20.992 50.176-23.552 88.064-98.816 104.448-150.016l8.192-26.624c-39.936 59.904-97.792 68.096-164.864 89.088-33.28 10.24-66.048 95.744-44.544 108.544z m54.784-141.312c20.992 0 48.64-8.192 82.944-24.064 48.128-22.528 74.752-58.88 88.576-86.016 12.288-23.552 16.896-41.472 20.48-66.56l-9.216 9.728c-15.872 17.92-64.512 33.28-107.52 46.592-21.504 6.656-46.592 11.776-62.976 27.136-31.232 29.184-75.776 93.184-12.288 93.184z" p-id="32610"></path><path d="M720.896 524.288c-10.752 0-45.568-4.608-51.2-14.848-2.56-4.608-2.048-13.824 1.536-24.064 4.096-12.288 17.92-42.496 58.368-60.928 27.136-12.288 54.784-16.896 80.896-20.992 26.624-4.608 51.712-8.704 73.728-20.992l9.728-5.632-4.096 10.752s-7.68 19.968-23.04 43.52c-14.336 22.016-38.912 52.224-73.728 72.192-24.064 13.824-48.64 20.992-72.192 20.992zM645.632 496.64c37.376-22.528 51.2-70.144 44.032-111.104-10.752-64.512-44.544-75.776-37.888-150.528l1.024-11.776-8.192 8.192c-0.512 1.024-18.432 19.456-33.28 50.688-13.824 28.672-28.16 74.24-15.872 127.488 5.632 26.112 22.016 76.8 50.176 87.04z m-90.624 111.104c-39.424-71.168-21.504-173.568 21.504-239.104 6.144 101.376 89.6 173.568 25.088 266.24-19.968 5.632-37.376-11.264-46.592-27.136z" p-id="32611"></path><path d="M578.048 762.88l-2.56-0.512c-30.72-3.584-68.608-44.032-82.944-70.656-28.16-50.688-16.896-134.144-3.584-188.928 23.552 70.144 51.712 87.04 90.112 143.872 16.384 24.064 19.968 52.224 13.312 80.384-4.608 19.456-12.8 32.768-13.312 33.28l-1.024 2.56z m88.064-470.016c-12.288-6.656 21.504-56.32 26.112-63.488 12.8-19.968 38.4-57.344 67.584-83.456l35.84-32.256-28.672 38.912c-2.56 3.584-64 88.064-86.016 131.072-1.536 6.144-7.68 12.288-14.848 9.216z m97.792 87.552c5.12 0 11.264-5.12 13.824-9.216 56.832-122.368 136.192-205.312 136.704-206.336l33.792-34.816-39.936 27.136c-23.04 15.872-60.928 60.928-88.576 97.792-33.792 45.056-58.368 84.992-61.952 100.864-2.56 9.728-4.096 19.968 2.048 23.552 1.536 0.512 3.072 1.024 4.096 1.024z m-48.64-4.608c10.752 0 17.408-14.848 18.944-18.432 76.8-162.304 172.544-261.12 173.568-261.632l1.536-1.536-6.144-7.168-2.048 1.536c-18.944 14.336-70.144 73.216-108.032 119.296-17.408 20.992-40.448 59.904-55.808 89.088-12.288 22.528-32.256 62.464-30.72 73.216 0.512 2.56 1.536 4.608 4.096 5.12 2.048 0.512 3.072 0.512 4.608 0.512z m-28.672-30.72c5.12 0 9.728-3.072 12.288-7.168 19.968-65.536 135.68-223.232 137.216-224.768l1.536-2.048-7.68-6.144-1.536 2.048c-44.032 50.176-148.992 188.928-151.552 217.088-1.024 8.192-0.512 20.992 9.728 20.992z m116.224 35.328c7.168 0 11.264-8.192 12.288-10.24 21.504-43.008 82.944-127.488 86.016-131.072l28.672-38.912-35.84 32.256c-29.184 26.112-54.784 63.488-67.584 83.456-15.36 23.552-30.208 51.712-29.696 58.88 0 2.048 1.536 3.584 3.072 4.608 0.512 0.512 2.048 1.024 3.072 1.024z" p-id="32612"></path></svg>