<?xml version="1.0" standalone="no"?><!DOCTYPE svg PUBLIC "-//W3C//DTD SVG 1.1//EN" "http://www.w3.org/Graphics/SVG/1.1/DTD/svg11.dtd"><svg t="1623119593080" class="icon" viewBox="0 0 1072 1024" version="1.1" xmlns="http://www.w3.org/2000/svg" p-id="22315" xmlns:xlink="http://www.w3.org/1999/xlink" width="25.125" height="24"><defs><style type="text/css"></style></defs><path d="M91.574857 654.09219m26.331429 0l167.204571 0q26.331429 0 26.331429 26.331429l0-0.048762q0 26.331429-26.331429 26.331429l-167.204571 0q-26.331429 0-26.331429-26.331429l0 0.048762q0-26.331429 26.331429-26.331429Z" p-id="22316"></path><path d="M2.730667 821.589333m26.331428 0l387.072 0q26.331429 0 26.331429 26.331429l0-0.048762q0 26.331429-26.331429 26.331429l-387.072 0q-26.331429 0-26.331428-26.331429l0 0.048762q0-26.331429 26.331428-26.331429Z" p-id="22317"></path><path d="M133.705143 969.923048m26.331428 0l256.097524 0q26.331429 0 26.331429 26.331428l0-0.048762q0 26.331429-26.331429 26.331429l-256.097524 0q-26.331429 0-26.331428-26.331429l0 0.048762q0-26.331429 26.331428-26.331428Z" p-id="22318"></path><path d="M900.729905 752.201143h-10.337524c-54.808381 0-99.279238-45.348571-99.376762-101.424762V326.363429c0-44.958476-35.59619-81.383619-79.530667-81.383619A547.59619 547.59619 0 0 1 440.953905 17.066667 34.816 34.816 0 0 0 385.26781 11.410286L84.650667 340.74819 645.948952 998.15619c11.995429 13.994667 29.257143 21.991619 47.396572 21.99162h299.398095c33.304381 0 60.318476-27.550476 60.318476-61.586286v-50.663619c0-41.301333-16.042667-80.944762-44.617143-110.104381a150.528 150.528 0 0 0-107.715047-45.592381z m-151.844572-358.887619v38.278095h-60.806095a18.919619 18.919619 0 0 1-18.724571-19.114667c0-10.581333 8.387048-19.163429 18.724571-19.163428h60.806095z m0 76.55619v38.278096h-60.806095a18.919619 18.919619 0 0 1-18.724571-19.114667c0-10.581333 8.387048-19.163429 18.724571-19.163429h60.806095zM386.876952 107.617524a23.161905 23.161905 0 0 1 31.061334 11.605333c1.170286 2.486857 91.964952 196.608 251.562666 188.854857a23.649524 23.649524 0 0 1 24.527238 22.77181 23.747048 23.747048 0 0 1-22.28419 25.063619c-3.900952 0-7.704381 0.292571-11.605333 0.292571-75.678476 0-148.23619-36.522667-210.505143-106.105904A489.959619 489.959619 0 0 1 375.417905 139.50781a24.380952 24.380952 0 0 1-0.731429-18.383239 23.747048 23.747048 0 0 1 12.190476-13.507047zM987.477333 972.312381h-296.71619a46.32381 46.32381 0 0 1-34.962286-16.091429L138.386286 356.547048l14.043428-12.678096L669.93981 943.542857a27.794286 27.794286 0 0 0 20.918857 9.606095h315.343238c0 5.071238-1.950476 9.947429-5.461334 13.55581a18.529524 18.529524 0 0 1-13.263238 5.607619z" p-id="22319"></path></svg>