<?xml version="1.0" standalone="no"?><!DOCTYPE svg PUBLIC "-//W3C//DTD SVG 1.1//EN" "http://www.w3.org/Graphics/SVG/1.1/DTD/svg11.dtd"><svg t="1623118512326" class="icon" viewBox="0 0 1024 1024" version="1.1" xmlns="http://www.w3.org/2000/svg" p-id="17154" xmlns:xlink="http://www.w3.org/1999/xlink" width="24" height="24"><defs><style type="text/css"></style></defs><path d="M700.23871 425.664679l77.29441 131.461077 95.091752-32.956599L603.762425 315.03607l-24.046672 6.478552 120.114658 104.397698L700.23871 425.664679zM518.479063 478.444766 266.482749 282.459117l-61.528332 101.153818 303.363216 242.10913L518.479063 478.444766zM501.579161 652.767024 235.562529 440.477037l-90.257653 24.304546 280.833083 213.910904 0.196475 0.149403L501.579161 652.767024zM660.044266 424.302659 430.421518 225.297232l-145.698337 39.229466 251.316839 195.466833L660.044266 424.302659zM543.487643 484.21826 532.604782 642.015146l220.514299-76.4246L681.848874 444.394253 543.487643 484.21826zM62.39763 602.968851l338.480015 259.855306 3.958148-168.475086L131.791094 487.306598 62.39763 602.968851zM685.364955 746.618529l9.627265-134.064368-99.102089 34.346249L685.364955 746.618529zM144.914996 465.450824l0.38988-0.668219-0.398066 0.663102L144.914996 465.450824zM890.011868 544.966832l-169.465646 58.732659-10.482749 152.059208 249.510704-77.979002L890.011868 544.966832zM678.828075 777.293155 569.915549 655.905504l-139.993404 48.51597-3.619434 154.250106 254.456343-79.517031-1.286296-2.442632L678.828075 777.293155z" p-id="17155"></path></svg>