<?xml version="1.0" standalone="no"?><!DOCTYPE svg PUBLIC "-//W3C//DTD SVG 1.1//EN" "http://www.w3.org/Graphics/SVG/1.1/DTD/svg11.dtd"><svg t="1623118853133" class="icon" viewBox="0 0 1024 1024" version="1.1" xmlns="http://www.w3.org/2000/svg" p-id="30235" xmlns:xlink="http://www.w3.org/1999/xlink" width="24" height="24"><defs><style type="text/css"></style></defs><path d="M839.214545 592.989091c-27.648 0-52.875636-13.684364-67.770181-36.770909a80.197818 80.197818 0 0 1-67.770182 36.770909c-27.648 0-52.875636-13.684364-67.770182-36.864-19.083636 64.884364-79.127273 112.360727-150.155636 112.360727s-130.978909-47.476364-150.155637-112.360727a80.2816 80.2816 0 0 1-67.770182 36.864c-27.648 0-52.875636-13.684364-67.770181-36.770909a80.197818 80.197818 0 0 1-67.770182 36.770909c-24.482909 0-47.010909-10.798545-62.277818-29.230546 11.264 92.346182 52.782545 177.710545 119.528727 244.549819 79.127273 79.127273 184.32 122.693818 296.215273 122.693818S702.836364 887.435636 781.963636 808.308364c66.839273-66.839273 108.264727-152.203636 119.528728-244.549819a80.439855 80.439855 0 0 1-62.277819 29.230546z" p-id="30236"></path><path d="M781.870545 215.784727C702.743273 136.657455 597.550545 93.090909 485.655273 93.090909s-217.088 43.566545-296.215273 122.693818S66.746182 400.104727 66.746182 512c0 3.444364 0 6.888727 0.093091 10.333091 9.960727 0.837818 18.897455 6.237091 24.203636 14.894545 8.843636 14.429091 24.203636 22.993455 41.053091 22.993455 16.942545 0 32.209455-8.564364 41.053091-22.993455a31.110982 31.110982 0 0 1 26.717091-14.987636c10.984727 0 21.038545 5.585455 26.717091 14.987636 8.843636 14.429091 24.203636 22.993455 41.053091 22.993455s32.209455-8.564364 41.053091-22.993455c4.654545-7.633455 12.194909-12.846545 20.759272-14.429091-0.279273-3.537455-0.372364-7.168-0.372363-10.798545 0-86.295273 70.190545-156.485818 156.485818-156.485818S642.141091 425.704727 642.141091 512c0 3.630545-0.093091 7.168-0.372364 10.798545 8.564364 1.675636 16.104727 6.795636 20.759273 14.429091 8.843636 14.429091 24.203636 22.993455 41.053091 22.993455 16.942545 0 32.209455-8.564364 41.053091-22.993455 5.771636-9.402182 15.732364-14.987636 26.717091-14.987636s21.038545 5.585455 26.717091 14.987636c8.843636 14.429091 24.203636 22.993455 41.053091 22.993455 16.942545 0 32.209455-8.564364 41.05309-22.993455 5.306182-8.657455 14.242909-14.056727 24.203637-14.894545 0.093091-3.444364 0.093091-6.888727 0.093091-10.333091 0.093091-111.895273-43.473455-217.088-122.600728-296.215273zM268.660364 428.125091a16.309527 16.309527 0 0 1-23.086546-0.279273l-36.864-37.981091c-6.330182-6.516364-6.144-16.849455 0.372364-23.179636 6.516364-6.330182 16.849455-6.144 23.179636 0.372364l36.864 37.98109c6.144 6.423273 6.050909 16.849455-0.465454 23.086546z m36.119272-110.871273c-0.093091 8.936727-7.447273 16.104727-16.384 16.104727h-0.279272c-9.029818-0.093091-16.290909-7.540364-16.104728-16.570181l0.744728-52.875637c0.093091-9.029818 7.540364-16.197818 16.570181-16.104727 9.029818 0.093091 16.290909 7.540364 16.104728 16.570182l-0.651637 52.875636z m125.486546-85.085091c-3.165091 3.351273-7.447273 4.933818-11.729455 4.933818-4.096 0-8.192-1.489455-11.357091-4.654545l-37.981091-36.864c-6.516364-6.330182-6.609455-16.663273-0.372363-23.179636 6.330182-6.516364 16.663273-6.609455 23.179636-0.372364l37.981091 36.864c6.423273 6.423273 6.516364 16.849455 0.279273 23.272727z m102.306909 22.807273l-34.164364 41.984a16.216436 16.216436 0 0 1-22.993454 2.327273 16.290909 16.290909 0 0 1-2.327273-22.993455l34.164364-41.984a16.290909 16.290909 0 0 1 22.993454-2.327273c6.981818 5.678545 8.005818 16.011636 2.327273 22.993455z m72.797091-73.914182c6.516364-6.330182 16.849455-6.144 23.179636 0.372364l36.864 37.981091c6.330182 6.516364 6.144 16.849455-0.372363 23.179636a16.309527 16.309527 0 0 1-23.086546-0.279273L605.090909 204.241455c-6.330182-6.516364-6.144-16.849455 0.279273-23.179637zM702.464 354.676364h-0.279273l-52.875636-0.744728c-9.029818-0.093091-16.290909-7.540364-16.104727-16.570181 0.093091-9.029818 7.633455-16.197818 16.570181-16.104728l52.875637 0.744728c9.029818 0.093091 16.290909 7.540364 16.104727 16.570181-0.093091 8.936727-7.354182 16.104727-16.290909 16.104728z m118.784 56.692363l-37.981091 36.864a16.309527 16.309527 0 0 1-23.086545-0.279272c-6.330182-6.516364-6.144-16.849455 0.372363-23.179637l37.981091-36.864c6.516364-6.330182 16.849455-6.144 23.179637 0.372364 6.144 6.516364 5.957818 16.849455-0.465455 23.086545z" p-id="30237"></path></svg>