<?xml version="1.0" standalone="no"?><!DOCTYPE svg PUBLIC "-//W3C//DTD SVG 1.1//EN" "http://www.w3.org/Graphics/SVG/1.1/DTD/svg11.dtd"><svg t="1623119824481" class="icon" viewBox="0 0 1024 1024" version="1.1" xmlns="http://www.w3.org/2000/svg" p-id="35039" xmlns:xlink="http://www.w3.org/1999/xlink" width="24" height="24"><defs><style type="text/css"></style></defs><path d="M801.4 476.2H690.8c-6.7 0-12.2 5.5-12.2 12.2v226.5c0 6.7 5.5 12.2 12.2 12.2h110.5c6.7 0 12.2-5.5 12.2-12.2V488.4c0-6.7-5.4-12.2-12.1-12.2z m-66.5 7.3h22.5c0.6 0 1 0.5 1 1 0 0.6-0.5 1-1 1h-22.5c-0.6 0-1-0.5-1-1-0.1-0.5 0.4-1 1-1z m11.2 234.1c-5.1 0-9.2-4.1-9.2-9.2s4.1-9.2 9.2-9.2 9.2 4.1 9.2 9.2-4.1 9.2-9.2 9.2z m49.2-32.3h-98.5V500.9h98.5v184.4z m0 0M472.6 470.6c-36.7 0-66.6 29.9-66.6 66.6 0 36.7 29.9 66.6 66.6 66.6 36.7 0 66.6-29.9 66.6-66.6 0-36.6-29.9-66.6-66.6-66.6z" fill="#515151" p-id="35040"></path><path d="M651.5 466.9c0-7.4 5.8-13.4 12.9-13.4h70.2v-9.4c0-34.1-27.7-61.9-61.9-61.9-22.4 0-42.1-15.9-46.8-37.8-5.6-26-28.9-44.9-55.5-44.9H374.6c-26.6 0-49.9 18.9-55.5 44.9-4.7 21.9-24.3 37.8-46.8 37.8-34.1 0-61.9 27.7-61.9 61.9v212.4c0 34.1 27.7 61.9 61.9 61.9h379.4c-0.1-0.7-0.2-1.5-0.2-2.2V466.9z m-385-13.6c-7.8 0-14.1-6.3-14.1-14.1s6.3-14.1 14.1-14.1 14.1 6.3 14.1 14.1-6.3 14.1-14.1 14.1z m206.1 193.5c-60.4 0-109.5-49.2-109.5-109.5s49.2-109.5 109.5-109.5S582.1 477 582.1 537.3s-49.2 109.5-109.5 109.5z m156.3-228.5h76.9v14.6h-76.9v-14.6z" fill="#515151" p-id="35041"></path><path d="M684.8 411.1h-29.5c-2.3 0-4.1-1.8-4.1-4.1v-50.8c0-2.3 1.8-4.1 4.1-4.1h29.5c2.3 0 4.1 1.8 4.1 4.1V407c-0.1 2.2-1.9 4.1-4.1 4.1z" fill="#515151" p-id="35042"></path></svg>