<?xml version="1.0" standalone="no"?><!DOCTYPE svg PUBLIC "-//W3C//DTD SVG 1.1//EN" "http://www.w3.org/Graphics/SVG/1.1/DTD/svg11.dtd"><svg t="1623141524658" class="icon" viewBox="0 0 1024 1024" version="1.1" xmlns="http://www.w3.org/2000/svg" p-id="2585" xmlns:xlink="http://www.w3.org/1999/xlink" width="24" height="24"><defs><style type="text/css"></style></defs><path d="M144 402.8L213.3 787H494l69.3-384.2H144z m384.5-140H388.7v-50.1l90.6-68.4L437.8 88l-118.9 89.5v85.4H179v69.9h349.5v-70z m0 0M683 663.5h82V787h-82zM683 277.1h82V632h-82zM732 174.2c-13.7-7.3-23-21.7-23-38.3s9.3-31 23-38.3V88c-18.6 7.9-31.7 26.4-31.7 48s13.1 40 31.7 48v-9.8z" p-id="2586"></path><path d="M726.3 257.7c13.7-7.3 23-21.7 23-38.3s-9.3-31-23-38.3v-9.6c18.6 7.9 31.7 26.4 31.7 48s-13.1 40-31.7 48v-9.8z" p-id="2587"></path><path d="M694.7 257.7c13.7-7.3 23-21.7 23-38.3s-9.3-31-23-38.3v-9.6c18.6 7.9 31.7 26.4 31.7 48s-13.1 40-31.7 48v-9.8z" p-id="2588"></path></svg>