<?xml version="1.0" standalone="no"?><!DOCTYPE svg PUBLIC "-//W3C//DTD SVG 1.1//EN" "http://www.w3.org/Graphics/SVG/1.1/DTD/svg11.dtd"><svg t="1623119389498" class="icon" viewBox="0 0 1024 1024" version="1.1" xmlns="http://www.w3.org/2000/svg" p-id="1961" xmlns:xlink="http://www.w3.org/1999/xlink" width="24" height="24"><defs><style type="text/css"></style></defs><path d="M811.094494 507.60797L690.56335 507.60797 811.094494 105.839537c0 0-91.026156-94.163613-138.108474 0-47.082318 94.164636-109.85806-91.026156-200.884217 0-91.025133 91.026156-109.85806-97.303116-191.46673 0-81.608669 97.303116-122.414027 0-122.414027 0l160.708192 401.768433-110.48637 0-100.44262 150.662395 0 301.326836L911.534044 959.597201 911.534044 658.270365 811.094494 507.60797zM208.442868 658.270365l100.440573-100.441597 30.134321 0 20.088524 50.220798 301.32479 0 15.06716-50.220798 35.153638 0 100.443643 100.441597L208.442868 658.270365z" fill="#272636" p-id="1962"></path></svg>