<?xml version="1.0" standalone="no"?><!DOCTYPE svg PUBLIC "-//W3C//DTD SVG 1.1//EN" "http://www.w3.org/Graphics/SVG/1.1/DTD/svg11.dtd"><svg t="1623119556594" class="icon" viewBox="0 0 1024 1024" version="1.1" xmlns="http://www.w3.org/2000/svg" p-id="19527" xmlns:xlink="http://www.w3.org/1999/xlink" width="24" height="24"><defs><style type="text/css"></style></defs><path d="M725.115795 394.440537c-23.204491-23.204491-49.5403-42.131563-78.036307-56.4425L765.959016 231.306086l1.474584 0-0.551562-0.827855 0.089028-0.079818-0.144286-0.00307L677.54536 96.413863 346.814844 96.413863l-89.39296 134.149303-0.39295 0.007163 0.242524 0.217964-0.344854 0.517793 0.921999 0L376.724037 338.067622c-28.424376 14.302751-54.685483 33.217543-77.839833 56.371892-56.925501 56.925501-88.275509 132.611274-88.275509 213.115795s31.350009 156.190295 88.275509 213.116819c56.925501 56.924477 132.611274 88.275509 213.115795 88.275509s156.190295-31.351032 213.116819-88.275509c56.924477-56.926524 88.275509-132.612297 88.275509-213.116819S782.040273 451.365015 725.115795 394.440537zM650.715295 287.730167l-96.441493 88.974427 59.656705-145.398508 97.944729 0L650.715295 287.730167zM467.339848 190.373839l42.977837-45.61285 43.721781 45.61285L467.339848 190.373839zM569.68684 231.306086l-57.490366 140.119271-57.490366-140.119271L569.68684 231.306086zM690.969091 190.373839l-80.230276 0-50.828642-53.027727 95.724155 0L690.969091 190.373839zM368.726899 137.346111l92.338035 0-49.963948 53.027727-77.709873 0L368.726899 137.346111zM410.462442 231.306086l58.814524 143.347802L313.816289 231.306086 410.462442 231.306086zM512 868.01539c-143.617955 0-260.459057-116.842125-260.459057-260.459057 0-107.425661 65.383126-199.853747 158.436452-239.622496l101.839433 91.463108 43.596937-39.128159 58.404178-52.416813c93.161796 39.720653 158.641113 132.200928 158.641113 239.705384C772.459057 751.173265 655.616932 868.01539 512 868.01539z" p-id="19528"></path></svg>