<?xml version="1.0" standalone="no"?><!DOCTYPE svg PUBLIC "-//W3C//DTD SVG 1.1//EN" "http://www.w3.org/Graphics/SVG/1.1/DTD/svg11.dtd"><svg t="1623119236624" class="icon" viewBox="0 0 1025 1024" version="1.1" xmlns="http://www.w3.org/2000/svg" p-id="43997" xmlns:xlink="http://www.w3.org/1999/xlink" width="24.0234375" height="24"><defs><style type="text/css"></style></defs><path d="M838.516597 623.158839c-16.851411 16.897538-44.383584 17.123043-61.516877 0.502262l-0.59964-0.584264V953.980541c-0.01025 23.672953-19.454975 42.856296-43.43031 42.846046h-441.52953c-24.041962-0.025626-43.522563-19.27047-43.537938-43.01005v-327.762002a43.348308 43.348308 0 0 1-27.88068 9.947867h-0.107628a43.522563 43.522563 0 0 1-30.776376-12.618058L40.575616 475.913994a42.37966 42.37966 0 0 1-12.433554-35.04048 43.204805 43.204805 0 0 1 19.839359-31.524645L286.745626 228.016817l0.184504-0.117878c20.310871-12.541181 54.654334-23.421822 86.358358-21.51015 23.155315 0.568889 60.004965-0.984024 89.623064 2.214054-1.65029-4.597237 26.384144 0.440761 26.389269-4.438359l1.686166-16.426026c-0.097377-18.568328 13.048569-34.481842 31.078759-37.628668 15.600881-2.772693 27.076036-17.051291 26.696777-33.215936-0.466386-17.80981-14.826987-31.996156-32.380541-31.991031-17.881562 0.005125-32.375415 14.724484-32.37029 32.877678a19.475475 19.475475 0 0 1 0 0.773893c-0.21013 14.242723-11.757037 25.61025-25.784505 25.394995-14.027467-0.215255-25.230991-11.931291-25.020861-26.174014a85.061702 85.061702 0 0 1 24.380221-59.671831 82.294134 82.294134 0 0 1 117.606246 0.046126 84.533814 84.533814 0 0 1 20.505625 34.071832c13.971091 44.363083-10.142623 91.821742-53.849689 105.997837l3.392833 6.488409c-0.056376 4.407608 17.804685 1.891171 17.804684 3.0802 0 1.183904 65.5196-2.798318 96.234475-0.881522l0.076877-0.138378c42.774294-1.773293 57.534655 9.527608 77.712272 22.227668l239.927607 181.537057a43.204805 43.204805 0 0 1 19.83936 31.52977 42.384785 42.384785 0 0 1-12.2798 34.984104l-146.04044 146.112192z" p-id="43998"></path></svg>