<?xml version="1.0" standalone="no"?><!DOCTYPE svg PUBLIC "-//W3C//DTD SVG 1.1//EN" "http://www.w3.org/Graphics/SVG/1.1/DTD/svg11.dtd"><svg t="1623118734345" class="icon" viewBox="0 0 1025 1024" version="1.1" xmlns="http://www.w3.org/2000/svg" p-id="23455" xmlns:xlink="http://www.w3.org/1999/xlink" width="24.0234375" height="24"><defs><style type="text/css"></style></defs><path d="M82.981257 578.610805c-2.257993-1.693495-4.515987-2.822492-6.77398-4.515987-21.450937 6.209482-42.901874 11.854465-64.352812 18.628446-4.515987 1.693495-7.902977 7.338479-11.854465 11.289966 5.080485 1.693495 10.725469 6.209482 15.241455 5.080486 19.757442-4.515987 39.514884-10.16097 58.707828-16.934951 4.515987-1.128997 6.209482-9.031974 9.031974-13.54796zM1024.564498 458.937155c-0.564498-51.36935-36.692393-88.061742-88.061742-88.62624h-51.369349v-43.466373H500.710033c0 3.38699-0.564498 6.209482-0.564498 8.467476v399.664829c0 20.886439 7.338479 38.950386 19.192944 53.627343l3.38699 3.38699c13.54796 14.112459 32.176406 23.708931 53.627342 25.966924 1.693495 0 3.951488 0.564498 5.644984 0.564498 1.693495 0 189.106946 0.564498 216.767365 0 49.675854 0 85.803749-37.256891 86.368247-86.932745v-43.466373h51.369349c51.36935 0 88.061742-36.692393 88.626241-88.061742-0.564498-47.417861-0.564498-94.271224-0.564499-141.124587z m-430.147739 57.578832v175.558985c0 15.805954-7.338479 27.095921-18.628446 31.047409-2.822492 1.128997-5.080485 1.693495-8.467475 1.693496h-6.209482c-15.241455-1.693495-24.273429-12.983462-24.837927-29.918413v-22.579934-12.983462-40.643881-33.305402-13.54796-70.562294-89.755237c0-24.273429 17.499449-38.950386 37.821389-32.176405 14.676957 5.080485 20.32194 16.370452 19.757442 31.047409 0.564498 34.998897 0.564498 70.562293 0.564499 106.125689z m82.981256 62.094818v112.335171c0 4.515987-0.564498 8.467475-1.128996 12.418963-2.822492 11.289967-9.596472 18.628445-20.321941 20.886439-0.564498 0-1.693495 0-2.257993 0.564499-2.822492 0.564498-5.080485 0.564498-7.902977 0.564498h-1.693495c-2.822492-0.564498-5.644983-1.128997-8.467475-2.257994-10.16097-4.515987-16.93495-15.241455-16.934951-29.353914v-110.641675-31.047409-141.689085c0-24.273429 20.886439-38.950386 41.20838-29.353914 14.112459 6.77398 17.499449 18.628445 17.499448 33.305402-0.564498 53.627343 0 108.948181 0 164.269019z m81.852261 60.965821v50.804851c-0.564498 22.015436-10.725469 33.869901-28.789416 33.869901-5.644983 0-10.725469-1.128997-15.241455-3.951488-8.467475-4.515987-12.983462-14.112459-13.547961-27.095921v-2.822492-138.866593-142.253583c0-25.966924 22.579934-40.643881 42.901875-28.789416 12.418964 6.77398 14.676957 18.628445 14.676957 32.176406v226.928335z m81.85226 50.804851c0 21.450937-10.725469 33.869901-28.789416 33.869901-18.063947 0-28.789416-12.418964-28.789415-33.869901V549.821389 410.954796c0-21.450937 11.289967-34.434399 28.789415-34.434399 17.499449 0 28.789416 12.983462 28.789416 34.434399 0.564498 93.142227 0.564498 186.284454 0 279.426681z m99.916207-62.659316c-18.063947 1.128997-36.127894 0-55.320838 0V430.712238c19.192944 0 37.821389-0.564498 56.449835 0 12.983462 0.564498 23.144432 12.418964 23.144432 26.531422 0.564498 47.982359 0.564498 95.400221 0 143.38258-0.564498 14.676957-10.16097 26.531422-24.273429 27.095921zM881.181918 305.393605c-12.983462-55.885336-97.093716-75.642778-193.622932-46.288864-38.385888-49.111356-77.900772-63.788313-123.625138-46.853363-38.950386 14.676957-65.481808 53.062845-63.223815 93.142227H881.181918zM239.911797 478.694598c-45.724366 6.209482-91.448732 12.983462-132.657111 34.998897-6.77398 3.951488-15.241455 11.289967-16.370452 18.063947-3.951488 22.579934-2.257993 45.159868 12.983462 64.352812 40.079383 51.933848 80.158765 103.303197 119.673649 155.237045 26.531422 34.998897 59.272326 53.062845 103.303197 45.724366 44.595369 5.644983 82.981257-9.596472 117.980155-36.127894 7.902977-6.209482 15.805954-12.418964 23.70893-19.192944v-98.787211c-22.015436 15.805954-44.030871 30.482911-68.3043 41.772878-32.176406 15.805954-71.69129 15.241455-108.383682 20.886439-4.515987 0.564498-10.725469-2.257993-14.676957-5.644984-62.094818-49.111356-119.109151-103.303197-167.656009-165.962513-1.128997-1.693495-1.693495-3.38699-3.38699-7.902977 42.337376-24.273429 87.497244-30.482911 133.22161-37.256891 54.75634-8.467475 106.125689 0.564498 155.801543 23.70893 24.273429 11.289967 48.546858 22.015436 73.384785 32.740904v-11.854465c-24.273429-10.725469-47.982359-21.450937-71.69129-32.176406-50.804851-22.015436-102.174201-29.918412-156.93054-22.579933zM392.326351 489.984564c10.16097 1.128997 20.886439 5.080485 30.48291 2.822492 15.241455-3.38699 29.918412-7.338479 45.159868-11.854465v-18.628445c-25.402426 7.338479-50.240353 14.112459-75.642778 21.450937v6.209481zM216.202867 778.443219c-27.660419 6.77398-54.75634 14.676957-81.852261 23.144433-5.080485 1.693495-9.031974 7.338479-13.54796 11.289967 5.644983 1.693495 12.418964 5.644983 17.499449 4.515986 33.305402-9.031974 66.610805-18.628445 99.351709-28.224917 0-2.257993 0.564498-5.080485 0.564498-7.338479-7.338479-1.128997-15.241455-5.080485-22.015435-3.38699zM180.074972 715.219405c-6.209482-2.257993-12.983462-7.338479-18.628445-6.209482-26.531422 6.209482-52.498346 14.112459-78.46527 22.015435-3.38699 1.128997-5.080485 6.77398-7.902977 10.160971 4.515987 2.257993 9.031974 6.77398 12.418964 5.644983 29.918412-7.902977 59.836825-16.93495 89.755237-25.402426 1.693495-1.693495 2.257993-3.951488 2.822491-6.209481zM197.574421 352.246968c15.241455-23.708931 8.467475-51.933848-18.628445-72.255788 19.192944 29.918412 17.499449 54.75634-1.693495 81.85226-17.499449 25.402426-12.418964 49.111356 10.725468 71.69129-18.628445-29.918412-6.77398-55.320838 9.596472-81.287762zM276.60419 356.762955c16.93495-27.660419 12.983462-52.498346-14.112459-75.07828 19.192944 29.353914 13.54796 55.320838-5.080485 82.981257-15.805954 23.708931-10.725469 45.724366 12.418963 71.69129-14.676957-40.643881-14.112459-45.159868 6.773981-79.594267zM360.714443 352.246968c15.241455-23.708931 7.902977-53.062845-15.241455-69.433297 16.370452 38.950386 16.370452 39.514884-5.080485 79.029769-15.241455 27.095921-11.854465 49.675854 11.289967 71.69129-19.757442-30.482911-7.338479-55.320838 9.031973-81.287762zM129.270121 649.737596c-5.644983-2.257993-12.418964-6.77398-17.499448-5.644983-21.450937 5.080485-42.901874 11.289967-64.352812 18.063947-3.951488 1.128997-6.209482 7.338479-9.031973 10.725469 5.080485 1.693495 10.725469 5.644983 15.241455 4.515986 24.837927-6.209482 49.111356-14.112459 73.384785-20.886438 0.564498-2.257993 1.128997-4.515987 2.257993-6.773981z" p-id="23456"></path><path d="M162.575524 543.611907l3.38699-5.080485c-0.564498 0-1.128997 0-1.693495-0.564498-0.564498 1.693495-1.128997 3.951488-1.693495 5.644983z" p-id="23457"></path><path d="M419.98677 585.384785c-19.757442-12.983462-38.950386-27.660419-60.401323-42.901874 13.54796-5.080485 23.708931-8.467475 33.8699-11.854466-32.740904 9.596472-62.094818 4.515987-89.190738-19.757442 5.080485-2.257993 9.031974-3.951488 12.983462-5.644983l-1.693495-6.77398c-36.127894 7.902977-71.69129 15.805954-107.819185 23.144432-12.418964 2.822492-25.402426 4.515987-36.127894 6.209482-2.257993 3.951488-4.515987 7.338479-6.77398 11.289967 14.112459 3.38699 28.789416 5.644983 42.337376 10.725468 14.676957 5.080485 28.224917 13.54796 41.772878 20.321941-14.676957-11.289967-29.353914-23.144432-46.853363-36.692393 44.030871-7.902977 86.368247-38.385888 127.012128 7.902977-25.402426 10.725469-51.36935 21.450937-77.336274 32.176406-11.289967 9.031974-22.579934 17.499449-33.8699 26.531422 12.418964-2.257993 22.579934-8.467475 33.8699-12.418964 4.515987-1.693495 12.983462-2.257993 16.370452 0.564499 18.628445 15.805954 35.563396 32.740904 54.191842 49.675854-12.983462 11.289967-22.015436 19.192944-31.047409 27.095921 0.564498 1.128997 1.128997 1.693495 1.693495 2.822492 11.289967-6.77398 22.015436-13.54796 33.305402-20.321941 10.725469 11.854465 20.32194 22.015436 30.482911 32.176406 1.128997-1.128997 2.257993-1.693495 3.38699-2.822492-7.338479-11.854465-14.676957-23.708931-22.579934-36.692392 11.854465-6.209482 23.144432-11.289967 32.740904-18.063947 31.047409-21.450937 60.965821-26.531422 89.190739 4.515986 0.564498 0.564498 2.257993 0 5.080485 0-11.289967-10.16097-21.450937-19.757442-34.434399-31.047409 12.983462-3.951488 24.837927-7.902977 36.127894-11.289967v-5.080485c-10.725469 1.693495-21.450937 3.951488-31.611907 5.644984-3.951488 0-10.725469 2.822492-14.676957 0.564498z m-88.626241 45.724366c-20.32194-16.93495-40.079383-33.305402-62.659316-52.498346 24.837927-10.16097 47.417861-19.757442 70.562293-28.789416 3.38699-1.128997 9.596472 0 12.983462 2.257994 18.628445 11.854465 36.692393 24.837927 57.014333 38.385887-27.095921 14.112459-52.498346 27.095921-77.900772 40.643881z" p-id="23458"></path></svg>