<?xml version="1.0" standalone="no"?><!DOCTYPE svg PUBLIC "-//W3C//DTD SVG 1.1//EN" "http://www.w3.org/Graphics/SVG/1.1/DTD/svg11.dtd"><svg t="1623118892745" class="icon" viewBox="0 0 1024 1024" version="1.1" xmlns="http://www.w3.org/2000/svg" p-id="31467" xmlns:xlink="http://www.w3.org/1999/xlink" width="24" height="24"><defs><style type="text/css"></style></defs><path d="M652.8 512.768A57.856 57.856 0 0 0 634.752 537.6a58.368 58.368 0 0 0-27.776 12.032 62.208 62.208 0 0 0-22.784 48 82.048 82.048 0 0 0 62.976 79.232 67.072 67.072 0 0 0 14.208 1.536 59.776 59.776 0 0 0 37.632-12.8A58.752 58.752 0 0 0 716.8 640.768a58.368 58.368 0 0 0 27.776-12.032c28.16-22.272 30.464-66.56 5.12-98.56S680.96 490.368 652.8 512.768z m58.752 47.872c9.216 11.648 8.96 25.6 2.944 29.824a13.824 13.824 0 0 1-11.52 1.664 24.704 24.704 0 0 0-30.08 23.808 13.824 13.824 0 0 1-4.224 10.88 14.208 14.208 0 0 1-11.264 1.792 31.616 31.616 0 0 1-17.408-11.392 32.256 32.256 0 0 1-7.168-19.328 13.696 13.696 0 0 1 4.352-10.496 11.52 11.52 0 0 1 7.168-2.176 20.608 20.608 0 0 1 4.224 0 24.192 24.192 0 0 0 20.736-4.48A24.448 24.448 0 0 0 678.4 561.92a13.952 13.952 0 0 1 4.352-10.88c6.528-4.736 19.584-2.048 28.8 9.6zM338.688 524.8a99.84 99.84 0 0 0 14.208 79.488 111.616 111.616 0 0 0 67.328 47.104 117.76 117.76 0 0 0 27.392 3.2 111.104 111.104 0 0 0 54.144-13.952 100.352 100.352 0 0 0 49.152-64 84.608 84.608 0 0 0 0-35.84c68.224-37.504 132.992-120.704 150.912-194.304a199.04 199.04 0 0 0-149.12-238.08 203.264 203.264 0 0 0-151.808 21.76 192 192 0 0 0-90.496 120.96c-17.92 73.728 1.28 177.152 44.672 241.92A82.176 82.176 0 0 0 338.688 524.8z m164.736 40.192a52.096 52.096 0 0 1-25.6 32.896 64.768 64.768 0 0 1-84.096-20.48 51.2 51.2 0 0 1-7.552-40.96c2.176-8.96 10.24-17.408 25.6-32.896a441.856 441.856 0 0 0 64-77.824 473.6 473.6 0 0 0 20.096 96 99.968 99.968 0 0 1 7.552 43.392zM358.4 262.656a143.616 143.616 0 0 1 67.84-89.6 153.6 153.6 0 0 1 115.2-16.512 150.144 150.144 0 0 1 113.536 179.2A291.2 291.2 0 0 1 537.6 492.032a421.12 421.12 0 0 1-12.8-165.504v-1.024a33.024 33.024 0 0 1 15.744-20.096 33.408 33.408 0 0 1 25.6-3.072 24.448 24.448 0 0 0 12.8-47.104 81.792 81.792 0 0 0-62.208 7.296 81.664 81.664 0 0 0-49.28-38.4 24.448 24.448 0 1 0-12.8 47.104 33.408 33.408 0 0 1 23.168 41.216v0.768a422.4 422.4 0 0 1-88.192 142.72A290.432 290.432 0 0 1 358.4 262.656zM367.488 807.552a57.088 57.088 0 1 0 56.96 56.96 56.96 56.96 0 0 0-56.96-56.96z" p-id="31468"></path><path d="M725.376 864.512m-57.088 0a57.088 57.088 0 1 0 114.176 0 57.088 57.088 0 1 0-114.176 0Z" p-id="31469"></path><path d="M885.248 335.616a97.792 97.792 0 0 0-74.368-34.176h-38.4a32.64 32.64 0 1 0 0 65.152h38.4a32.64 32.64 0 0 1 32.256 36.992l-60.032 278.016a9.856 9.856 0 0 0 0 1.92 32.64 32.64 0 0 1-32.256 27.648h-409.6a32.256 32.256 0 0 1-32-26.368L263.04 281.6A97.152 97.152 0 0 0 166.4 198.912h-18.432a32.64 32.64 0 1 0 0 65.152H166.4a32.128 32.128 0 0 1 32 26.368l45.696 403.072a97.408 97.408 0 0 0 96.64 82.944h409.6a97.408 97.408 0 0 0 96.512-81.92l60.032-278.272v-1.792a98.432 98.432 0 0 0-21.632-78.848z" p-id="31470"></path></svg>