<?xml version="1.0" standalone="no"?><!DOCTYPE svg PUBLIC "-//W3C//DTD SVG 1.1//EN" "http://www.w3.org/Graphics/SVG/1.1/DTD/svg11.dtd"><svg t="1623119346736" class="icon" viewBox="0 0 1024 1024" version="1.1" xmlns="http://www.w3.org/2000/svg" p-id="47176" xmlns:xlink="http://www.w3.org/1999/xlink" width="24" height="24"><defs><style type="text/css"></style></defs><path d="M632.490496 335.530667H136.601429v650.581333c0 23.552 14.165333 37.888 37.307734 37.888h421.307733c23.1424 0 39.7312-14.336 37.341867-37.888V335.530667zM229.853696 515.072a18.773333 18.773333 0 0 1-18.6368 18.363733 18.773333 18.773333 0 0 1-18.6368-18.397866v-116.770134a19.0464 19.0464 0 0 1 9.147733-16.930133 18.397867 18.397867 0 0 1 18.978134 0 19.0464 19.0464 0 0 1 9.147733 16.930133v116.770134zM595.182763 0H173.875029C150.732629 0 136.533163 14.4384 136.533163 37.956267v266.581333h495.957333v-266.581333C634.879829 14.4384 618.359296 0.034133 595.216896 0.034133V0zM229.819563 203.434667a19.0464 19.0464 0 0 1-9.147734 16.930133 18.397867 18.397867 0 0 1-18.978133 0 19.0464 19.0464 0 0 1-9.147733-16.930133V108.202667a19.0464 19.0464 0 0 1 9.147733-16.896 18.397867 18.397867 0 0 1 18.978133 0 19.0464 19.0464 0 0 1 9.147734 16.930133v95.232z m433.664 442.436266a120.832 120.832 0 0 1 121.856 60.040534 125.0304 125.0304 0 0 1 0.034133 124.142933 120.832 120.832 0 0 1-121.856 60.074667v75.946666h202.752c11.707733 0 21.162667-9.659733 21.1968-21.572266V556.509867h-223.982933v89.429333-0.068267z m202.786133-225.450666h-202.752v105.0624H887.466496v-83.5584a21.4016 21.4016 0 0 0-21.162667-21.538134z" fill="#333333" p-id="47177"></path></svg>