<?xml version="1.0" standalone="no"?><!DOCTYPE svg PUBLIC "-//W3C//DTD SVG 1.1//EN" "http://www.w3.org/Graphics/SVG/1.1/DTD/svg11.dtd"><svg t="1623143469097" class="icon" viewBox="0 0 1024 1024" version="1.1" xmlns="http://www.w3.org/2000/svg" p-id="3472" xmlns:xlink="http://www.w3.org/1999/xlink" width="24" height="24"><defs><style type="text/css"></style></defs><path d="M634.88 343.04h25.6v-93.866667c0-10.24 8.533333-18.773333 18.773333-18.773333s18.773333 8.533333 18.773334 18.773333v93.866667h75.093333v-93.866667c0-10.24 8.533333-18.773333 18.773333-18.773333s18.773333 8.533333 18.773334 18.773333v93.866667H836.266667c29.013333 0 54.613333-13.653333 63.146666-34.133333l61.44-153.6c0-61.44-100.693333-110.933333-223.573333-110.933334S513.706667 93.866667 513.706667 155.306667l61.44 153.6c5.12 20.48 30.72 34.133333 59.733333 34.133333m-489.813333 0h172.373333c13.653333 0 25.6-11.946667 25.6-25.6v-98.986667c0-95.573333-78.506667-174.08-174.08-174.08H146.773333c-15.36 0-27.306667 11.946667-27.306666 27.306667v244.053333c0 15.36 11.946667 27.306667 25.6 27.306667m-6.826667 428.373333c0 10.24-8.533333 18.773333-18.773333 18.773334s-18.773333-8.533333-18.773334-18.773334V547.84c0-10.24 8.533333-18.773333 18.773334-18.773333s18.773333 8.533333 18.773333 18.773333v223.573333z m223.573333-392.533333H100.693333c-20.48 0-37.546667 17.066667-37.546666 37.546667V938.666667c0 20.48 17.066667 37.546667 37.546666 37.546666h261.12c20.48 0 37.546667-17.066667 37.546667-37.546666V416.426667c0-20.48-17.066667-37.546667-37.546667-37.546667zM604.16 529.066667l-51.2 404.48c-1.706667 20.48 11.946667 39.253333 32.426667 40.96h293.546666c20.48 0 37.546667-17.066667 37.546667-37.546667v-5.12l-51.2-404.48-261.12 1.706667z m208.213333-150.186667h-157.013333c-18.773333 0-34.133333 13.653333-37.546667 32.426667l-10.24 78.506666h250.88l-10.24-78.506666c0-17.066667-17.066667-32.426667-35.84-32.426667" p-id="3473"></path></svg>