<?xml version="1.0" standalone="no"?><!DOCTYPE svg PUBLIC "-//W3C//DTD SVG 1.1//EN" "http://www.w3.org/Graphics/SVG/1.1/DTD/svg11.dtd"><svg t="1623118796269" class="icon" viewBox="0 0 1024 1024" version="1.1" xmlns="http://www.w3.org/2000/svg" p-id="26573" xmlns:xlink="http://www.w3.org/1999/xlink" width="24" height="24"><defs><style type="text/css"></style></defs><path d="M684.793979 262.381938l109.937912-47.081844-19.507056-45.636877-122.822201 52.620885-12.88429 5.53904-2.047036 13.847601-6.622766 47.081844H488.880527l46.720602-46.720602 11.439323-11.439323-11.078081-11.800564-1.926623-2.047037-0.120414-0.120414c-1.565381-1.565381-1.806209-1.926623-2.167451-2.16745-34.558796-34.558796-79.954845-51.898401-125.230479-51.898401-45.275635 0-90.671684 17.219191-125.23048 51.898401-34.558796 34.558796-51.898401 79.954845-51.898401 125.230479 0 45.275635 17.219191 90.671684 51.898401 125.23048 0.240828 0.240828 0.60207 0.481656 2.287864 2.167451l0.120414 0.120414 1.926623 1.926622 11.800564 11.078081 74.054563-74.054562 32.752587 337.761053V845.305738h326.201317v-101.388523l41.542803-428.071495 2.649107-27.213547h-93.441204l3.612417-26.250235z m-266.114769 26.370649l31.548448-70.201317c-25.888993-8.790216-50.694262-10.596425-74.415805-6.261524l19.62747 76.462841H376.534337l-27.213547-67.311383c-24.203198 12.763876-42.626529 29.380997-55.87206 49.369709l68.395108 38.412041 0.722484 6.74318 1.204139 12.643461-81.399812-23.480714c-4.936971 26.852305-3.251176 51.657573 4.334901 74.536218l78.87112-32.752587L367.262465 363.650047l-70.080903 69.840075c-23.119473-26.852305-34.67921-60.206961-34.67921-93.682032 0-36.84666 14.088429-73.693321 42.144873-101.870178 28.176858-28.176858 65.023518-42.144873 101.870179-42.144873 33.354657 0 66.829727 11.559737 93.682032 34.679209L441.919097 288.752587h-23.239887z" fill="" p-id="26574"></path></svg>