<?xml version="1.0" standalone="no"?><!DOCTYPE svg PUBLIC "-//W3C//DTD SVG 1.1//EN" "http://www.w3.org/Graphics/SVG/1.1/DTD/svg11.dtd"><svg t="1623120266463" class="icon" viewBox="0 0 1024 1024" version="1.1" xmlns="http://www.w3.org/2000/svg" p-id="55018" xmlns:xlink="http://www.w3.org/1999/xlink" width="24" height="24"><defs><style type="text/css"></style></defs><path d="M348.211 905.728c19.968-98.714 59.443-165.427 163.84-165.427h61.44c70.63 0 117.043 83.763 122.931 165.427h-348.21z m81.869-354.304v-47.258h204.8v47.232h-204.8zM1024 763.955c0-3.174-20.096-46.848-20.531-47.257-92.928 28.62-177.715 233.088-204.775-141.748l80.717 28.826 87.655-94.387-86.272-52.813-0.128-141.44c-42.19-32.614-53.12-70.81-102.4-70.81-113.306 0-62.055 165.428-163.84 165.428H409.549L217.088 0c-44.416 35.149-53.248 12.416-53.248 78.925v70.81C119.22 163.532 0 258.33 0 315.161v70.912c0 55.27 33.997 94.515 81.869 94.515h40.934c66.611 0 15.463-20.531 102.4-47.258l40.192 118.503-85.555 281.164L27.878 725.683c-3.584 216.448 265.933 298.215 443.034 298.215h102.4c120.038 0 450.688-143.77 450.688-259.917z" fill="#515151" p-id="55019"></path></svg>