<?xml version="1.0" standalone="no"?><!DOCTYPE svg PUBLIC "-//W3C//DTD SVG 1.1//EN" "http://www.w3.org/Graphics/SVG/1.1/DTD/svg11.dtd"><svg t="1623118869041" class="icon" viewBox="0 0 1024 1024" version="1.1" xmlns="http://www.w3.org/2000/svg" p-id="31073" xmlns:xlink="http://www.w3.org/1999/xlink" width="24" height="24"><defs><style type="text/css"></style></defs><path d="M363.80672 236.91264a157.4912 157.4912 0 0 1 112.45568 150.89664V512H161.42336v-124.19072a157.4912 157.4912 0 0 1 112.4352-150.87616V129.024h89.92768v107.88864h0.02048z m0-130.41664h-89.94816v-18.55488c0-14.6432 11.8784-26.50112 26.50112-26.50112h36.94592c14.6432 0 26.50112 11.8784 26.50112 26.50112V106.496z m112.45568 450.56v352.50176A53.00224 53.00224 0 0 1 423.26016 962.56H214.4256a53.00224 53.00224 0 0 1-53.02272-53.00224V557.056h314.83904z m427.27424 22.528h-359.8336v-59.63776a53.00224 53.00224 0 0 1 53.02272-53.00224h253.78816a53.00224 53.00224 0 0 1 53.02272 53.00224V579.584z m0 45.056v284.91776A53.00224 53.00224 0 0 1 850.51392 962.56H596.72576a53.00224 53.00224 0 0 1-53.00224-53.00224V624.64h359.81312zM755.712 761.97888a22.46656 22.46656 0 0 0-31.80544 0l-95.62112 95.6416a22.48704 22.48704 0 0 0 31.80544 31.78496l95.6416-95.62112a22.46656 22.46656 0 0 0 0-31.80544z m63.6928-15.9744a22.528 22.528 0 0 0-31.8464 31.8464l23.87968-23.87968a22.528 22.528 0 0 0 31.8464-31.8464l-23.87968 23.87968z m-23.8592-23.8592a22.528 22.528 0 0 0-31.8464 31.86688l23.87968-23.87968a22.528 22.528 0 0 0 31.8464-31.86688l-23.87968 23.87968z m-23.83872-23.8592a22.528 22.528 0 0 0-31.86688 31.86688l23.87968-23.87968a22.528 22.528 0 0 0 31.86688-31.86688l-23.87968 23.87968z" p-id="31074"></path></svg>