<?xml version="1.0" standalone="no"?><!DOCTYPE svg PUBLIC "-//W3C//DTD SVG 1.1//EN" "http://www.w3.org/Graphics/SVG/1.1/DTD/svg11.dtd"><svg t="1623145219307" class="icon" viewBox="0 0 1024 1024" version="1.1" xmlns="http://www.w3.org/2000/svg" p-id="7200" xmlns:xlink="http://www.w3.org/1999/xlink" width="24" height="24"><defs><style type="text/css"></style></defs><path d="M930 868.4H829.2V585.1c0-10.7-5.7-20.6-15-26L574.9 420.6V96.5c0-11.2-6.2-21.4-16.1-26.6-9.9-5.2-21.9-4.4-31.1 2l-320 223.8c-8 5.6-12.8 14.8-12.8 24.6v548.1H94c-16.5 0-30 13.5-30 30s13.5 30 30 30h836c16.5 0 30-13.5 30-30s-13.5-30-30-30zM477.8 728.2c0 16.5-13.5 30-30 30h-120c-16.5 0-30-13.5-30-30s13.5-30 30-30h120c16.5 0 30 13.5 30 30z m0-143.1c0 16.5-13.5 30-30 30h-120c-16.5 0-30-13.5-30-30s13.5-30 30-30h120c16.5 0 30 13.5 30 30z m0-143c0 16.5-13.5 30-30 30h-120c-16.5 0-30-13.5-30-30s13.5-30 30-30h120c16.5 0 30 13.5 30 30zM733 728.2c0 16.5-13.5 30-30 30h-60c-16.5 0-30-13.5-30-30s13.5-30 30-30h60c16.5 0 30 13.5 30 30z" p-id="7201"></path></svg>