<?xml version="1.0" standalone="no"?><!DOCTYPE svg PUBLIC "-//W3C//DTD SVG 1.1//EN" "http://www.w3.org/Graphics/SVG/1.1/DTD/svg11.dtd"><svg t="1623119221133" class="icon" viewBox="0 0 1024 1024" version="1.1" xmlns="http://www.w3.org/2000/svg" p-id="43042" xmlns:xlink="http://www.w3.org/1999/xlink" width="24" height="24"><defs><style type="text/css"></style></defs><path d="M859.852476 64.067154 163.481352 64.067154c-54.885028 0-99.480712 44.654013-99.480712 99.487875l0 696.420243c0 54.905494 44.595684 99.487875 99.480712 99.487875l696.371124 0c54.902424 0 99.481735-44.581358 99.480712-99.489922L959.333188 163.554006C959.333188 108.72219 914.7549 64.067154 859.852476 64.067154zM781.538853 332.930625c-21.520129 129.514749-134.304845 228.578975-269.871427 228.578975-135.531789 0-248.226454-99.03762-269.752724-228.52474-16.937764-7.948019-28.692482-25.121144-28.692482-45.013193 0-27.500331 22.261003-49.744961 49.740868-49.744961 27.499307 0 49.740868 22.24463 49.740868 49.744961 0 16.744359-8.327666 31.565926-21.059642 40.587394 19.149129 104.080473 110.462834 183.206602 220.023112 183.206602 109.553115 0 200.926172-79.092359 220.119303-183.139064-12.784164-9.015328-21.156856-23.86964-21.156856-40.654932 0-27.500331 22.262026-49.744961 49.740868-49.744961 27.498284 0 49.740868 22.24463 49.740868 49.744961C810.112632 307.818691 798.417265 324.95907 781.538853 332.930625z" fill="#515151" p-id="43043"></path></svg>