<?xml version="1.0" standalone="no"?><!DOCTYPE svg PUBLIC "-//W3C//DTD SVG 1.1//EN" "http://www.w3.org/Graphics/SVG/1.1/DTD/svg11.dtd"><svg t="1623118772212" class="icon" viewBox="0 0 1024 1024" version="1.1" xmlns="http://www.w3.org/2000/svg" p-id="25485" xmlns:xlink="http://www.w3.org/1999/xlink" width="24" height="24"><defs><style type="text/css"></style></defs><path d="M574.85928 0c-232.675059 0-423.741742 177.409946-445.503178 404.277702C143.906269 344.162533 171.857909 288.195438 212.572853 241.737006c85.131248-97.256388 204.72342-155.520877 328.208401-159.541319 106.637417-3.382276 206.1912 34.524741 278.750592 107.020317 123.165898 123.102082 121.761934 331.335411-2.93556 464.201421-49.202543 52.329553-123.67643 83.408201-204.149071 84.875982-77.983797 1.850679-150.351739-24.696996-198.724667-72.304126C367.455565 620.551913 340.844073 556.607753 340.461174 490.557647 340.205908 425.911504 364.520005 365.668702 408.936308 321.188583c37.587935-37.587935 89.662221-58.966471 143.204288-58.966471 0.255266 0 0.446716 0 0.701982 0 54.435498 0.19145 105.424903 21.761436 143.778636 60.753334 63.880344 64.837592 62.66783 170.645394-2.552661 235.802069-53.733516 53.861149-141.225975 53.861149-195.023308 0-21.889069-21.952885-34.014209-51.117039-34.014209-82.32332 0-31.206282 11.997507-60.370435 34.014209-82.32332 11.869874-11.742241 31.014832-11.742241 42.82089 0 11.869874 11.806058 11.869874 31.014832 0 42.757073-10.529727 10.721177-16.337031 24.569363-16.337031 39.566247 0 14.933067 5.807304 28.84507 16.337031 39.566247 30.185217 30.121401 79.196311 30.121401 109.445345 0 41.097844-41.16166 42.118908-110.08351 2.233578-150.734638C626.614483 338.036146 590.813411 322.975446 552.714945 322.783996c-0.19145 0-0.319083 0-0.510532 0-37.587935 0-74.090988 14.933067-100.383398 41.16166-32.929328 32.929328-50.925589 77.856164-50.797956 126.484357C401.278325 540.206905 421.380531 588.579833 456.160538 622.657859c36.822136 36.311604 93.108314 56.924343 155.010345 55.265113 64.390876-1.340147 123.229715-25.398978 161.200548-65.922473 102.616976-109.317712 104.595289-279.835473 4.339524-379.899788-60.689518-60.753334-143.842453-92.406332-234.015206-89.406955C436.058332 146.267481 332.292659 196.810171 258.20167 281.622336c-73.452823 83.854917-98.277452 199.362832-67.836969 316.657609 9.18958 35.609622 28.206905 81.621339 58.838838 126.867257l-237.0784 236.823133c-14.167269 14.231086-14.167269 37.268852 0 51.499938 7.147451 7.211268 16.337031 10.593544 25.718061 10.593544 9.253396 0 18.506793-3.382276 25.590428-10.593544l231.845444-231.845444c61.838215 63.305995 152.202418 113.912502 279.51639 113.912502 247.225227 0 447.67294-200.575346 447.67294-447.800573S822.020691 0 574.85928 0L574.85928 0z" p-id="25486"></path></svg>