<?xml version="1.0" standalone="no"?><!DOCTYPE svg PUBLIC "-//W3C//DTD SVG 1.1//EN" "http://www.w3.org/Graphics/SVG/1.1/DTD/svg11.dtd"><svg t="1623118812532" class="icon" viewBox="0 0 1043 1024" version="1.1" xmlns="http://www.w3.org/2000/svg" p-id="27648" xmlns:xlink="http://www.w3.org/1999/xlink" width="24.4453125" height="24"><defs><style type="text/css"></style></defs><path d="M689.05813 910.855386a354.275295 354.275295 0 0 1-101.971144-14.886298 333.080928 333.080928 0 0 0 22.887684-304.387588 328.317312 328.317312 0 0 0-71.640311-106.064876 332.96928 332.96928 0 0 0-106.064877-71.472841 338.66329 338.66329 0 0 0-57.12617-18.198499A353.251862 353.251862 0 1 1 689.05813 910.855386z m125.975301-745.338355a114.08487 114.08487 0 0 1-106.437034 9.676094 113.675497 113.675497 0 0 1 157.794764-103.217872 113.321947 113.321947 0 0 1-51.35773 93.541778z m-309.076772-6.47554a176.384029 176.384029 0 0 1-80.013854-145.290273 177.016696 177.016696 0 0 1 245.437846 160.474297 177.184167 177.184167 0 0 1-165.423992-15.184024z m98.063491 562.385747a302.00578 302.00578 0 1 1-302.005779-301.447543 308.704614 308.704614 0 0 1 59.359115 5.805656 301.615014 301.615014 0 0 1 242.646664 295.62328zM348.534053 464.080354a261.422009 261.422009 0 1 0 170.820275 403.381472 258.891338 258.891338 0 0 0 44.658895-146.034588 261.626695 261.626695 0 0 0-215.47917-257.346884z m21.212976 245.065688l-17.67748-1.507238c3.721575-3.014475 7.815307-6.456932 12.281196-10.439016 32.19162-27.223318 83.177193-70.393584 124.114514-104.836757a225.918187 225.918187 0 0 1 40.379084 130.664484z m-44.844974-32.824288l10.792566-123.984258 4.465889-50.241257 0.372158-3.461065h0.186079a227.72315 227.72315 0 0 1 121.695489 62.764356c-33.308093 27.762947-79.269539 66.281244-113.135868 94.490779-9.303937 7.722267-17.491401 14.718828-24.376313 20.431445z m-23.818078 271.767986h-0.186079l15.258456-174.151084 113.508026 135.186198a229.732801 229.732801 0 0 1-128.580403 38.964886zM170.456708 537.581453a234.254514 234.254514 0 0 1 129.510797-41.979362l-15.630614 177.500501z m-91.736814 145.513567a227.81619 227.81619 0 0 1 60.847745-119.239251l113.694104 135.16759z m37.401825 168.010486a224.373733 224.373733 0 0 1-40.751242-127.854696l174.541849 15.816692z m144.397095 93.225444a227.499856 227.499856 0 0 1-118.346073-62.113081l133.604529-111.647238z m133.604528-191.661093c29.958676 2.474847 72.012469 5.917304 130.999427 10.866998a227.016051 227.016051 0 0 1-35.541038 85.596216 232.858923 232.858923 0 0 1-28.470046 34.015192l-112.949789-134.441883c10.606488 1.023433 25.492786 2.214337 45.961446 4.037909z" fill="#515151" p-id="27649"></path></svg>