<?xml version="1.0" standalone="no"?><!DOCTYPE svg PUBLIC "-//W3C//DTD SVG 1.1//EN" "http://www.w3.org/Graphics/SVG/1.1/DTD/svg11.dtd"><svg t="1623144764871" class="icon" viewBox="0 0 1024 1024" version="1.1" xmlns="http://www.w3.org/2000/svg" p-id="6378" xmlns:xlink="http://www.w3.org/1999/xlink" width="24" height="24"><defs><style type="text/css"></style></defs><path d="M756.657 283.952c-42.943 21.471-61.731 48.311-69.783 64.415-2.684 5.368 0 10.736 5.368 10.736 13.42 2.684 34.891 2.684 61.731-8.052l16.104-5.368c5.368-2.684 10.736 2.684 10.736 8.052l-2.684 16.104c-5.368 18.787-2.684 37.575 0 50.995 0 5.368 5.368 8.052 10.736 5.368 10.735-5.368 26.84-16.104 42.943-34.892l13.42-13.42c2.684-5.367 10.736-2.683 13.42 2.685l5.368 18.787c5.368 24.156 18.787 42.944 29.523 53.68 2.684 2.684 8.052 2.684 10.736 0 13.42-16.104 24.156-45.628 16.104-91.255-2.684-18.788-8.052-34.892-16.104-48.312-5.368-13.42-16.104-24.155-24.156-32.207l-5.367-5.368c-2.684-2.684-2.684-5.368-2.684-8.052l2.684-5.368c8.051-21.472 13.42-45.627 16.103-67.1 2.684-13.419 2.684-24.155 5.368-34.89 0-5.369-2.684-8.053-8.052-8.053h-13.42c-5.367 0-8.051 2.684-8.051 8.052 0 8.052 2.684 16.104 2.684 24.156 0 21.472 0 42.943-2.684 64.415v10.736c0 5.368-5.368 8.052-8.052 5.368l-13.42 2.684c-13.42-2.684-26.84-2.684-40.26 0-16.103 0-32.207 5.368-48.311 16.104zM504.364 179.277c40.26 24.156 72.467 59.047 91.255 101.99v8.053c-8.052 13.42-13.42 26.84-18.788 40.26 0 2.683-2.684 5.367-5.368 5.367-29.523 10.736-59.047 24.156-91.255 34.892-93.938 34.891-166.405 75.15-244.24 136.882-24.156 18.788-45.628 40.26-64.416 61.731-2.684 2.684-8.052 5.368-13.42 0-56.363-45.627-91.254-112.726-91.254-187.877 0-101.991 67.099-190.562 163.722-230.822 2.684 0 8.051 0 10.735 2.684 5.368 5.368 13.42 13.42 21.472 18.788 0 5.368 0 8.052 2.684 13.42l-24.156 32.208-16.103 24.155c-2.684 5.368 0 13.42 5.368 13.42l29.523 5.368c24.156 5.368 56.363 5.368 80.52 0 8.051-2.684 13.419-5.368 21.47-8.052 2.685-2.684 8.053-2.684 10.737 0 18.788 18.788 45.627 37.576 67.099 50.995l24.156 16.104c5.368 2.684 13.42 0 13.42-5.368l5.367-29.523c2.684-24.156 2.684-56.364-5.368-80.52 0-2.683 0-8.051 5.368-10.735 5.368-2.684 13.42-8.052 21.472-13.42z m-72.467 8.052c21.472-8.052 53.68-26.84 67.1-37.576 2.683-2.684 2.683-8.052 0-10.735-10.737-5.368-32.208-13.42-56.364-16.104-10.736 0-21.472 2.684-32.208 8.052-5.368 2.684-8.052-2.684-8.052-5.368 2.684-10.736 5.368-21.472 10.736-32.208 2.684-2.684 0-5.368-2.684-8.052l-24.155-13.42c-2.684-2.684-8.052 0-8.052 2.684-10.736 18.788-16.104 32.208-16.104 45.628 0 5.368-8.052 8.052-10.736 2.684-8.052-8.052-16.104-16.104-26.84-16.104-21.471-2.684-59.047 0-77.835 2.684-2.684-2.684-5.368 2.684-2.684 5.368 8.052 10.736 21.472 26.84 40.26 40.26 10.736 8.051 26.84 10.735 40.26 8.051-2.685 0-2.685 2.684-5.369 2.684-18.787 13.42-40.26 42.944-50.995 56.363-2.684 2.684 0 8.052 5.368 10.736 13.42 2.684 34.892 2.684 59.047-2.684 13.42-2.684 24.156-13.42 34.892-24.155 2.684-2.684 8.052-2.684 10.736 2.684 2.684 5.368 2.684 10.736 8.052 13.42 13.42 16.103 45.627 37.575 59.047 48.31 2.684 2.685 8.052 0 10.736-5.367 0-13.42 0-34.892-5.368-56.363-5.368-5.368-10.736-16.104-18.788-21.472zM152.765 506.72c2.683-85.887 10.735-152.986 37.575-203.982 2.684-5.367 0-13.42-5.368-16.103l-24.156-13.42c-5.368-5.368-10.735-5.368-16.103 0-42.944 45.627-37.576 120.778 8.052 233.505z m128.83 59.047C421.16 453.042 520.468 442.306 651.982 380.575c-5.368-2.684-8.052-8.052-8.052-13.42v-2.684s2.684-67.1 96.623-112.727c18.788-10.736 40.26-16.104 56.363-18.788 8.052 0 16.104-2.684 24.156-2.684s13.42-5.368 13.42-13.42v-26.84c0-18.787-2.684-37.575-8.052-48.31l-2.684-5.368c-2.684-8.052 5.368-18.788 13.42-16.104h5.368l72.467 5.368h2.684c8.052 0 13.42 5.368 13.42 13.42v2.683c0 16.104-2.684 40.26-5.368 64.416-2.684 16.103-8.052 34.891-13.42 53.679 0 5.368 0 8.052 2.684 13.42 8.052 8.052 13.42 18.788 18.788 29.523 8.052 16.104 13.42 34.892 18.788 56.364 18.787 93.939-45.628 139.566-45.628 139.566l-2.684 2.684c-5.368 2.684-10.736 2.684-16.104 0l-2.684-2.684-2.684-2.684C821.073 694.6 643.93 869.056 437.265 936.155c-107.359 34.892-171.774 18.788-233.505-72.466-42.944-72.468-67.1-182.51 77.835-297.92z m-10.736 300.604c-13.42-32.207-16.104-64.415-5.368-96.622 0-2.684 0-8.052-2.684-8.052l-34.891-16.104c-5.368-2.684-10.736 0-10.736 5.368-2.684 34.891 13.42 72.467 53.679 115.41z m29.524-163.721c61.73-85.887 179.825-166.406 254.976-233.506 2.684-2.684 0-8.051-2.683-5.368-85.887 42.944-236.19 112.727-303.289 203.982-2.684 5.368-2.684 10.736 2.684 13.42l48.312 21.472" p-id="6379"></path></svg>